G04 Layer_Color=32896*
%FSLAX25Y25*%
%MOIN*%
G70*
G01*
G75*
%ADD10C,0.00787*%
%ADD21C,0.01575*%
%ADD22C,0.00394*%
%ADD23C,0.00984*%
%ADD34R,0.06693X0.01575*%
%ADD51R,0.06693X0.01575*%
G36*
X143197Y78870D02*
X143213Y78867D01*
X146508Y78286D01*
X146691Y78254D01*
X146856Y78209D01*
X146917Y78199D01*
X146960Y78175D01*
X146990Y78170D01*
X147006Y78167D01*
X147168Y78107D01*
X147315Y78050D01*
X147374Y78024D01*
X147417Y78000D01*
X147429Y77982D01*
X147444Y77980D01*
X147589Y77907D01*
X147690Y77858D01*
X147761Y77814D01*
X147789Y77793D01*
X147885Y77713D01*
X147984Y77649D01*
X148049Y77574D01*
X148062Y77556D01*
X148077Y77553D01*
X148186Y77456D01*
X148254Y77397D01*
X148310Y77355D01*
X148322Y77337D01*
X148390Y77278D01*
X148468Y77186D01*
X148534Y77111D01*
X148547Y77093D01*
X148559Y77075D01*
X148650Y76965D01*
X148715Y76890D01*
X148743Y76870D01*
X148756Y76852D01*
X152127Y73316D01*
X152218Y73206D01*
X152291Y73083D01*
X152351Y72978D01*
X152378Y72863D01*
X152410Y72779D01*
X152427Y72697D01*
X152434Y72649D01*
X152432Y72633D01*
X152423Y72493D01*
X152401Y72371D01*
X152364Y72252D01*
X152318Y72166D01*
X152271Y72080D01*
X152230Y72024D01*
X152206Y71981D01*
X152189Y71968D01*
X150351Y69933D01*
X150241Y69842D01*
X150133Y69767D01*
X150013Y69709D01*
X149898Y69683D01*
X149798Y69653D01*
X149717Y69636D01*
X149653Y69631D01*
X149638Y69634D01*
X149467Y69648D01*
X149315Y69675D01*
X149180Y69715D01*
X149079Y69764D01*
X148993Y69811D01*
X148922Y69855D01*
X148879Y69878D01*
X148866Y69896D01*
X147583Y71003D01*
X147293Y71054D01*
X145146Y58881D01*
X145104Y58731D01*
X145050Y58599D01*
X144982Y58485D01*
X144918Y58386D01*
X144859Y58318D01*
X144799Y58250D01*
X144763Y58225D01*
X144745Y58212D01*
X144607Y58142D01*
X144474Y58103D01*
X144342Y58063D01*
X144229Y58052D01*
X144120Y58055D01*
X144041Y58053D01*
X143980Y58064D01*
X143965Y58067D01*
X139678Y58823D01*
X139528Y58865D01*
X139396Y58920D01*
X139283Y58987D01*
X139184Y59052D01*
X139100Y59113D01*
X139047Y59170D01*
X139022Y59206D01*
X139010Y59224D01*
X138940Y59362D01*
X138882Y59482D01*
X138858Y59612D01*
X138834Y59742D01*
X138835Y59837D01*
X138833Y59916D01*
X138844Y59977D01*
X138846Y59992D01*
X142028Y78038D01*
X142070Y78188D01*
X142128Y78335D01*
X142195Y78449D01*
X142257Y78533D01*
X142334Y78613D01*
X142391Y78666D01*
X142427Y78691D01*
X142445Y78704D01*
X142568Y78777D01*
X142703Y78831D01*
X142833Y78856D01*
X142963Y78880D01*
X143057Y78879D01*
X143136Y78881D01*
X143197Y78870D01*
D02*
G37*
G36*
X104564Y86170D02*
X104984Y86143D01*
X105185Y86123D01*
X105356Y86109D01*
X105511Y86097D01*
X105664Y86070D01*
X105788Y86064D01*
X105880Y86048D01*
X105971Y86032D01*
X106032Y86021D01*
X106063Y86016D01*
X106078Y86013D01*
X106884Y85855D01*
X107651Y85657D01*
X108352Y85439D01*
X109002Y85199D01*
X109603Y84951D01*
X110138Y84684D01*
X110627Y84424D01*
X111070Y84173D01*
X111450Y83918D01*
X111786Y83685D01*
X112065Y83479D01*
X112297Y83281D01*
X112474Y83124D01*
X112595Y83008D01*
X112676Y82931D01*
X112704Y82910D01*
X113084Y82481D01*
X113398Y82033D01*
X113669Y81607D01*
X113876Y81178D01*
X114053Y80753D01*
X114187Y80352D01*
X114293Y79972D01*
X114371Y79612D01*
X114406Y79275D01*
X114431Y78972D01*
X114449Y78717D01*
X114439Y78483D01*
X114438Y78294D01*
X114429Y78154D01*
X114415Y78078D01*
X114410Y78048D01*
X114360Y77852D01*
X114297Y77675D01*
X114209Y77533D01*
X114109Y77409D01*
X114013Y77315D01*
X113891Y77243D01*
X113770Y77185D01*
X113653Y77143D01*
X113438Y77087D01*
X113247Y77073D01*
X113171Y77087D01*
X113107Y77082D01*
X113077Y77087D01*
X113061Y77090D01*
X109492Y77720D01*
X109311Y77767D01*
X109134Y77830D01*
X108977Y77921D01*
X108822Y78026D01*
X108565Y78260D01*
X108358Y78517D01*
X108183Y78768D01*
X108062Y78978D01*
X108030Y79063D01*
X107995Y79132D01*
X107985Y79165D01*
X107973Y79183D01*
X107838Y79490D01*
X107667Y79772D01*
X107476Y80025D01*
X107264Y80251D01*
X107047Y80447D01*
X106809Y80615D01*
X106584Y80765D01*
X106353Y80884D01*
X106135Y80985D01*
X105933Y81084D01*
X105740Y81150D01*
X105575Y81194D01*
X105440Y81234D01*
X105336Y81268D01*
X105260Y81281D01*
X105244Y81284D01*
X104797Y81331D01*
X104386Y81325D01*
X104035Y81293D01*
X103739Y81219D01*
X103488Y81138D01*
X103389Y81108D01*
X103304Y81076D01*
X103235Y81041D01*
X103184Y81018D01*
X103166Y81006D01*
X103148Y80993D01*
X102989Y80895D01*
X102861Y80792D01*
X102733Y80689D01*
X102632Y80565D01*
X102452Y80345D01*
X102318Y80117D01*
X102237Y79927D01*
X102177Y79764D01*
X102151Y79706D01*
X102143Y79660D01*
X102137Y79630D01*
X102135Y79615D01*
X102123Y79459D01*
X102129Y79317D01*
X102148Y79156D01*
X102170Y79011D01*
X102279Y78740D01*
X102407Y78481D01*
X102542Y78269D01*
X102670Y78104D01*
X102708Y78051D01*
X102746Y77997D01*
X102774Y77976D01*
X102786Y77958D01*
X103109Y77650D01*
X103450Y77354D01*
X103797Y77088D01*
X104118Y76858D01*
X104272Y76752D01*
X104414Y76665D01*
X104541Y76579D01*
X104655Y76512D01*
X104738Y76450D01*
X104809Y76406D01*
X104852Y76383D01*
X104867Y76380D01*
X105351Y76090D01*
X105835Y75801D01*
X106288Y75516D01*
X106516Y75382D01*
X106713Y75252D01*
X106911Y75123D01*
X107080Y75015D01*
X107235Y74909D01*
X107361Y74824D01*
X107475Y74756D01*
X107543Y74697D01*
X107602Y74671D01*
X107614Y74653D01*
X108145Y74276D01*
X108664Y73918D01*
X108902Y73750D01*
X109125Y73585D01*
X109332Y73422D01*
X109527Y73278D01*
X109706Y73136D01*
X109858Y73015D01*
X109997Y72912D01*
X110108Y72829D01*
X110204Y72750D01*
X110272Y72690D01*
X110315Y72667D01*
X110328Y72649D01*
X110762Y72258D01*
X111145Y71844D01*
X111468Y71441D01*
X111621Y71241D01*
X111744Y71047D01*
X111855Y70870D01*
X111952Y70711D01*
X112035Y70555D01*
X112108Y70432D01*
X112168Y70327D01*
X112203Y70258D01*
X112225Y70207D01*
X112238Y70189D01*
X112363Y69915D01*
X112454Y69632D01*
X112533Y69366D01*
X112594Y69088D01*
X112627Y68830D01*
X112663Y68588D01*
X112689Y68112D01*
X112700Y67905D01*
X112698Y67717D01*
X112684Y67546D01*
X112675Y67406D01*
X112669Y67282D01*
X112655Y67205D01*
X112645Y67144D01*
X112642Y67129D01*
X112212Y64688D01*
X112169Y64538D01*
X112115Y64407D01*
X112047Y64293D01*
X111968Y64196D01*
X111908Y64128D01*
X111849Y64060D01*
X111813Y64035D01*
X111795Y64022D01*
X111657Y63952D01*
X111540Y63910D01*
X111407Y63871D01*
X111279Y63862D01*
X111185Y63863D01*
X111106Y63861D01*
X111045Y63872D01*
X111030Y63874D01*
X94296Y66825D01*
X94146Y66867D01*
X94014Y66922D01*
X93900Y66989D01*
X93801Y67054D01*
X93733Y67113D01*
X93680Y67169D01*
X93655Y67205D01*
X93642Y67223D01*
X93572Y67361D01*
X93515Y67482D01*
X93491Y67612D01*
X93466Y67742D01*
X93467Y67836D01*
X93465Y67915D01*
X93476Y67976D01*
X93479Y67991D01*
X93985Y70859D01*
X94027Y71009D01*
X94081Y71141D01*
X94149Y71255D01*
X94213Y71354D01*
X94290Y71434D01*
X94347Y71487D01*
X94383Y71513D01*
X94401Y71525D01*
X94524Y71598D01*
X94659Y71653D01*
X94774Y71680D01*
X94904Y71704D01*
X94998Y71703D01*
X95077Y71705D01*
X95138Y71694D01*
X95154Y71691D01*
X105298Y69902D01*
X105349Y70192D01*
X105225Y70293D01*
X105086Y70396D01*
X104762Y70610D01*
X104423Y70828D01*
X104081Y71029D01*
X103767Y71211D01*
X103625Y71298D01*
X103508Y71351D01*
X103410Y71415D01*
X103324Y71462D01*
X103281Y71485D01*
X103265Y71488D01*
X102721Y71788D01*
X102204Y72068D01*
X101733Y72340D01*
X101505Y72474D01*
X101305Y72588D01*
X101120Y72700D01*
X100963Y72790D01*
X100821Y72878D01*
X100692Y72948D01*
X100590Y72998D01*
X100519Y73041D01*
X100479Y73080D01*
X100464Y73083D01*
X99967Y73391D01*
X99489Y73711D01*
X99041Y74026D01*
X98831Y74173D01*
X98637Y74317D01*
X98454Y74444D01*
X98303Y74565D01*
X98164Y74668D01*
X98037Y74753D01*
X97941Y74833D01*
X97873Y74892D01*
X97830Y74916D01*
X97817Y74934D01*
X97355Y75345D01*
X97159Y75569D01*
X96959Y75777D01*
X96793Y75995D01*
X96627Y76213D01*
X96489Y76410D01*
X96351Y76608D01*
X96243Y76800D01*
X96145Y76959D01*
X96063Y77115D01*
X95990Y77238D01*
X95948Y77355D01*
X95913Y77424D01*
X95890Y77475D01*
X95878Y77493D01*
X95771Y77780D01*
X95679Y78063D01*
X95606Y78359D01*
X95547Y78653D01*
X95517Y78925D01*
X95486Y79198D01*
X95468Y79453D01*
X95466Y79705D01*
X95473Y79924D01*
X95480Y80143D01*
X95494Y80313D01*
X95509Y80484D01*
X95515Y80609D01*
X95531Y80700D01*
X95542Y80761D01*
X95544Y80777D01*
X95666Y81290D01*
X95832Y81780D01*
X96037Y82231D01*
X96285Y82659D01*
X96544Y83054D01*
X96827Y83413D01*
X97123Y83754D01*
X97411Y84049D01*
X97694Y84314D01*
X97969Y84533D01*
X98225Y84739D01*
X98443Y84905D01*
X98638Y85028D01*
X98779Y85114D01*
X98868Y85176D01*
X98902Y85186D01*
X99452Y85451D01*
X100027Y85680D01*
X100624Y85858D01*
X101229Y85987D01*
X101829Y86086D01*
X102422Y86154D01*
X102993Y86179D01*
X103561Y86189D01*
X104081Y86192D01*
X104564Y86170D01*
D02*
G37*
G36*
X156972Y76441D02*
X156988Y76438D01*
X171891Y73811D01*
X172041Y73768D01*
X172173Y73714D01*
X172287Y73646D01*
X172371Y73585D01*
X172451Y73507D01*
X172504Y73451D01*
X172529Y73415D01*
X172542Y73397D01*
X172615Y73274D01*
X172669Y73139D01*
X172694Y73009D01*
X172705Y72896D01*
X172717Y72784D01*
X172719Y72705D01*
X172708Y72644D01*
X172705Y72629D01*
X171542Y62642D01*
X171515Y62489D01*
X171460Y62357D01*
X171393Y62243D01*
X171329Y62145D01*
X171254Y62079D01*
X171195Y62011D01*
X171159Y61986D01*
X171141Y61973D01*
X171003Y61903D01*
X170870Y61864D01*
X170737Y61824D01*
X170610Y61815D01*
X170516Y61816D01*
X170437Y61814D01*
X170376Y61825D01*
X170361Y61828D01*
X167645Y62306D01*
X167282Y62386D01*
X166893Y62502D01*
X166510Y62648D01*
X166157Y62789D01*
X165998Y62864D01*
X165835Y62924D01*
X165706Y62994D01*
X165589Y63046D01*
X165500Y63078D01*
X165430Y63122D01*
X165386Y63145D01*
X165371Y63148D01*
X164877Y63377D01*
X164408Y63569D01*
X163963Y63726D01*
X163770Y63792D01*
X163577Y63857D01*
X163397Y63905D01*
X163247Y63947D01*
X163110Y63971D01*
X162990Y64008D01*
X162899Y64024D01*
X162838Y64035D01*
X162792Y64043D01*
X162777Y64046D01*
X162472Y64100D01*
X162161Y64123D01*
X161881Y64141D01*
X161629Y64138D01*
X161377Y64135D01*
X161150Y64097D01*
X160923Y64058D01*
X160727Y64014D01*
X160359Y63890D01*
X160047Y63725D01*
X159780Y63552D01*
X159557Y63355D01*
X159379Y63151D01*
X159234Y62956D01*
X159121Y62756D01*
X159027Y62583D01*
X158970Y62436D01*
X158933Y62317D01*
X158920Y62241D01*
X158914Y62210D01*
X158892Y61994D01*
X158870Y61778D01*
X158896Y61569D01*
X158927Y61390D01*
X159036Y61025D01*
X159201Y60712D01*
X159420Y60438D01*
X159675Y60189D01*
X159950Y59967D01*
X160249Y59789D01*
X160550Y59625D01*
X160857Y59492D01*
X161139Y59396D01*
X161393Y59319D01*
X161601Y59251D01*
X161766Y59206D01*
X161827Y59196D01*
X161873Y59188D01*
X161904Y59182D01*
X161919Y59179D01*
X162318Y59125D01*
X162692Y59106D01*
X163039Y59108D01*
X163373Y59128D01*
X163666Y59186D01*
X163944Y59247D01*
X164207Y59311D01*
X164427Y59398D01*
X164631Y59488D01*
X164803Y59567D01*
X164962Y59665D01*
X165085Y59738D01*
X165174Y59801D01*
X165246Y59851D01*
X165285Y59891D01*
X165303Y59904D01*
X165490Y60075D01*
X165690Y60229D01*
X165870Y60355D01*
X166044Y60450D01*
X166218Y60545D01*
X166371Y60612D01*
X166522Y60664D01*
X166655Y60704D01*
X166897Y60740D01*
X167073Y60756D01*
X167137Y60760D01*
X167182Y60752D01*
X167213Y60747D01*
X167228Y60744D01*
X170798Y60115D01*
X170993Y60065D01*
X171171Y60002D01*
X171313Y59914D01*
X171421Y59816D01*
X171530Y59718D01*
X171603Y59595D01*
X171663Y59490D01*
X171705Y59373D01*
X171744Y59146D01*
X171757Y58955D01*
X171744Y58878D01*
X171748Y58815D01*
X171743Y58784D01*
X171740Y58769D01*
X171637Y58362D01*
X171488Y57964D01*
X171281Y57592D01*
X171046Y57240D01*
X170801Y56921D01*
X170510Y56611D01*
X170225Y56331D01*
X169930Y56084D01*
X169637Y55852D01*
X169368Y55664D01*
X169102Y55491D01*
X168889Y55355D01*
X168694Y55232D01*
X168541Y55165D01*
X168451Y55102D01*
X168418Y55092D01*
X167858Y54861D01*
X167258Y54668D01*
X166648Y54508D01*
X166048Y54409D01*
X165421Y54331D01*
X164814Y54281D01*
X164228Y54258D01*
X163660Y54248D01*
X163128Y54263D01*
X162629Y54288D01*
X162197Y54333D01*
X161996Y54353D01*
X161825Y54367D01*
X161655Y54382D01*
X161518Y54406D01*
X161393Y54412D01*
X161286Y54431D01*
X161195Y54447D01*
X161134Y54458D01*
X161103Y54463D01*
X161088Y54466D01*
X160190Y54640D01*
X159365Y54864D01*
X158603Y55093D01*
X157892Y55344D01*
X157248Y55615D01*
X156667Y55890D01*
X156150Y56170D01*
X155679Y56442D01*
X155269Y56703D01*
X154920Y56953D01*
X154629Y57177D01*
X154382Y57378D01*
X154205Y57535D01*
X154069Y57654D01*
X153990Y57746D01*
X153963Y57767D01*
X153587Y58226D01*
X153263Y58708D01*
X153000Y59179D01*
X152773Y59675D01*
X152605Y60145D01*
X152482Y60607D01*
X152386Y61049D01*
X152322Y61485D01*
X152282Y61885D01*
X152265Y62234D01*
X152261Y62565D01*
X152279Y62845D01*
X152286Y63064D01*
X152302Y63156D01*
X152300Y63235D01*
X152311Y63296D01*
X152319Y63342D01*
X152322Y63357D01*
X152324Y63372D01*
X152449Y63901D01*
X152601Y64409D01*
X152810Y64875D01*
X153043Y65306D01*
X153289Y65719D01*
X153557Y66080D01*
X153835Y66409D01*
X154110Y66722D01*
X154375Y66974D01*
X154637Y67211D01*
X154876Y67405D01*
X155078Y67574D01*
X155258Y67699D01*
X155384Y67787D01*
X155473Y67850D01*
X155506Y67860D01*
X156026Y68130D01*
X156553Y68352D01*
X157102Y68523D01*
X157661Y68660D01*
X158230Y68764D01*
X158775Y68825D01*
X159303Y68874D01*
X159810Y68894D01*
X160296Y68887D01*
X160734Y68873D01*
X161124Y68851D01*
X161464Y68823D01*
X161620Y68811D01*
X161742Y68790D01*
X161851Y68786D01*
X161958Y68767D01*
X162019Y68756D01*
X162080Y68746D01*
X162110Y68740D01*
X162126Y68738D01*
X162810Y68601D01*
X163442Y68443D01*
X163727Y68361D01*
X164008Y68264D01*
X164278Y68185D01*
X164514Y68096D01*
X164719Y68013D01*
X164927Y67945D01*
X165090Y67885D01*
X165234Y67812D01*
X165354Y67775D01*
X165424Y67731D01*
X165483Y67705D01*
X165498Y67703D01*
X165773Y67654D01*
X166015Y69829D01*
X156130Y71572D01*
X155980Y71614D01*
X155848Y71669D01*
X155734Y71736D01*
X155635Y71801D01*
X155552Y71863D01*
X155499Y71920D01*
X155474Y71955D01*
X155461Y71973D01*
X155391Y72111D01*
X155336Y72247D01*
X155312Y72377D01*
X155285Y72492D01*
X155289Y72601D01*
X155287Y72680D01*
X155298Y72741D01*
X155300Y72757D01*
X155803Y75609D01*
X155845Y75759D01*
X155903Y75906D01*
X155970Y76020D01*
X156032Y76104D01*
X156109Y76184D01*
X156166Y76237D01*
X156202Y76262D01*
X156219Y76275D01*
X156342Y76348D01*
X156478Y76403D01*
X156608Y76427D01*
X156738Y76451D01*
X156832Y76450D01*
X156911Y76452D01*
X156972Y76441D01*
D02*
G37*
G36*
X178603Y72627D02*
X178619Y72624D01*
X184644Y71562D01*
X184855Y71509D01*
X185048Y71443D01*
X185205Y71353D01*
X185350Y71280D01*
X185461Y71198D01*
X185542Y71121D01*
X185597Y71079D01*
X185610Y71061D01*
X185726Y70915D01*
X185829Y70787D01*
X185899Y70649D01*
X185956Y70528D01*
X186001Y70426D01*
X186018Y70344D01*
X186041Y70293D01*
X186038Y70278D01*
X188910Y57220D01*
X189200Y57169D01*
X196350Y68460D01*
X196435Y68586D01*
X196551Y68707D01*
X196661Y68798D01*
X196772Y68889D01*
X196877Y68949D01*
X196967Y69012D01*
X197018Y69034D01*
X197036Y69047D01*
X197222Y69124D01*
X197404Y69171D01*
X197582Y69202D01*
X197755Y69203D01*
X197898Y69209D01*
X198007Y69206D01*
X198084Y69192D01*
X198114Y69187D01*
X204124Y68127D01*
X204274Y68085D01*
X204406Y68030D01*
X204520Y67963D01*
X204619Y67898D01*
X204684Y67824D01*
X204753Y67765D01*
X204778Y67729D01*
X204790Y67711D01*
X204863Y67588D01*
X204918Y67452D01*
X204942Y67322D01*
X204969Y67207D01*
X204965Y67098D01*
X204967Y67019D01*
X204957Y66958D01*
X204954Y66943D01*
X201772Y48896D01*
X201730Y48746D01*
X201675Y48615D01*
X201608Y48501D01*
X201528Y48405D01*
X201469Y48336D01*
X201409Y48268D01*
X201374Y48243D01*
X201356Y48230D01*
X201217Y48160D01*
X201100Y48118D01*
X200967Y48079D01*
X200840Y48070D01*
X200745Y48071D01*
X200666Y48069D01*
X200605Y48080D01*
X200590Y48082D01*
X196288Y48841D01*
X196138Y48883D01*
X196007Y48938D01*
X195893Y49005D01*
X195794Y49070D01*
X195710Y49132D01*
X195657Y49188D01*
X195632Y49224D01*
X195620Y49242D01*
X195550Y49380D01*
X195492Y49500D01*
X195468Y49630D01*
X195444Y49760D01*
X195445Y49855D01*
X195443Y49934D01*
X195454Y49995D01*
X195456Y50010D01*
X197124Y59468D01*
X196849Y59516D01*
X191307Y50742D01*
X191222Y50615D01*
X191124Y50507D01*
X191011Y50401D01*
X190903Y50325D01*
X190796Y50250D01*
X190709Y50202D01*
X190655Y50165D01*
X190637Y50152D01*
X190450Y50075D01*
X190269Y50028D01*
X190078Y50015D01*
X189920Y50011D01*
X189777Y50005D01*
X189653Y50011D01*
X189592Y50022D01*
X189561Y50027D01*
X186098Y50638D01*
X185887Y50691D01*
X185694Y50756D01*
X185519Y50834D01*
X185378Y50922D01*
X185282Y51002D01*
X185198Y51064D01*
X185143Y51105D01*
X185130Y51123D01*
X185014Y51269D01*
X184914Y51413D01*
X184826Y51538D01*
X184768Y51659D01*
X184739Y51758D01*
X184706Y51843D01*
X184684Y51894D01*
X184687Y51909D01*
X182525Y62042D01*
X182235Y62093D01*
X180568Y52635D01*
X180526Y52485D01*
X180471Y52354D01*
X180404Y52240D01*
X180324Y52144D01*
X180265Y52075D01*
X180205Y52007D01*
X180169Y51982D01*
X180151Y51969D01*
X180013Y51899D01*
X179896Y51857D01*
X179763Y51818D01*
X179636Y51809D01*
X179541Y51810D01*
X179462Y51808D01*
X179401Y51819D01*
X179386Y51821D01*
X175084Y52580D01*
X174934Y52622D01*
X174802Y52677D01*
X174689Y52744D01*
X174590Y52808D01*
X174522Y52868D01*
X174469Y52924D01*
X174444Y52960D01*
X174431Y52978D01*
X174361Y53116D01*
X174303Y53237D01*
X174279Y53367D01*
X174255Y53497D01*
X174256Y53591D01*
X174254Y53670D01*
X174265Y53731D01*
X174268Y53746D01*
X177450Y71792D01*
X177492Y71942D01*
X177549Y72089D01*
X177617Y72203D01*
X177678Y72287D01*
X177755Y72368D01*
X177812Y72421D01*
X177848Y72446D01*
X177866Y72458D01*
X177989Y72531D01*
X178124Y72586D01*
X178239Y72613D01*
X178369Y72637D01*
X178463Y72636D01*
X178542Y72638D01*
X178603Y72627D01*
D02*
G37*
G36*
X80196Y89979D02*
X80226Y89974D01*
X80241Y89971D01*
X86114Y88935D01*
X86264Y88893D01*
X86396Y88838D01*
X86525Y88769D01*
X86637Y88686D01*
X86821Y88481D01*
X86971Y88265D01*
X87092Y88055D01*
X87154Y87871D01*
X87189Y87802D01*
X87211Y87751D01*
X87221Y87718D01*
X87218Y87703D01*
X92060Y68242D01*
X92079Y68081D01*
X92085Y67938D01*
X92064Y67816D01*
X92014Y67715D01*
X91986Y67641D01*
X91942Y67570D01*
X91921Y67542D01*
X91903Y67530D01*
X91796Y67454D01*
X91678Y67412D01*
X91545Y67373D01*
X91433Y67361D01*
X91324Y67365D01*
X91245Y67363D01*
X91184Y67374D01*
X91168Y67376D01*
X86577Y68186D01*
X86412Y68231D01*
X86280Y68286D01*
X86150Y68356D01*
X86024Y68441D01*
X85840Y68646D01*
X85689Y68862D01*
X85581Y69054D01*
X85519Y69238D01*
X85500Y69304D01*
X85477Y69355D01*
X85467Y69388D01*
X85470Y69403D01*
X84918Y72159D01*
X75902Y73749D01*
X74441Y71348D01*
X74335Y71194D01*
X74217Y71057D01*
X74086Y70939D01*
X73973Y70833D01*
X73850Y70760D01*
X73729Y70703D01*
X73494Y70619D01*
X73283Y70577D01*
X73125Y70574D01*
X73061Y70569D01*
X73015Y70577D01*
X72985Y70583D01*
X72970Y70585D01*
X68103Y71443D01*
X67938Y71488D01*
X67806Y71543D01*
X67708Y71608D01*
X67609Y71672D01*
X67541Y71731D01*
X67503Y71785D01*
X67478Y71821D01*
X67465Y71839D01*
X67426Y71972D01*
X67399Y72087D01*
X67420Y72209D01*
X67442Y72331D01*
X67488Y72417D01*
X67517Y72491D01*
X67543Y72549D01*
X67561Y72561D01*
X78772Y89223D01*
X78894Y89375D01*
X79012Y89511D01*
X79128Y89632D01*
X79253Y89720D01*
X79376Y89793D01*
X79497Y89851D01*
X79732Y89935D01*
X79928Y89979D01*
X80101Y89980D01*
X80165Y89984D01*
X80196Y89979D01*
D02*
G37*
G36*
X44410Y67292D02*
X44425Y67289D01*
X61907Y64206D01*
X62057Y64164D01*
X62189Y64110D01*
X62303Y64042D01*
X62401Y63978D01*
X62467Y63903D01*
X62535Y63844D01*
X62560Y63808D01*
X62573Y63790D01*
X62646Y63667D01*
X62700Y63532D01*
X62725Y63402D01*
X62751Y63287D01*
X62748Y63177D01*
X62750Y63099D01*
X62739Y63037D01*
X62736Y63022D01*
X62233Y60170D01*
X62191Y60020D01*
X62134Y59873D01*
X62066Y59759D01*
X61987Y59662D01*
X61927Y59594D01*
X61868Y59526D01*
X61832Y59501D01*
X61814Y59488D01*
X61676Y59418D01*
X61559Y59376D01*
X61426Y59337D01*
X61298Y59328D01*
X61204Y59329D01*
X61125Y59327D01*
X61064Y59338D01*
X61049Y59340D01*
X51164Y61083D01*
X51113Y60793D01*
X59518Y49858D01*
X59682Y49625D01*
X59827Y49379D01*
X59945Y49154D01*
X60047Y48931D01*
X60119Y48714D01*
X60176Y48500D01*
X60222Y48318D01*
X60251Y48125D01*
X60285Y47961D01*
X60291Y47819D01*
X60300Y47691D01*
X60294Y47567D01*
X60281Y47490D01*
X60285Y47427D01*
X60277Y47381D01*
X60274Y47365D01*
X59844Y44925D01*
X59802Y44775D01*
X59747Y44643D01*
X59680Y44529D01*
X59600Y44433D01*
X59541Y44365D01*
X59482Y44297D01*
X59446Y44271D01*
X59428Y44259D01*
X59290Y44189D01*
X59172Y44147D01*
X59039Y44107D01*
X58912Y44098D01*
X58818Y44099D01*
X58739Y44097D01*
X58678Y44108D01*
X58662Y44111D01*
X40616Y47293D01*
X40466Y47335D01*
X40334Y47390D01*
X40220Y47457D01*
X40122Y47522D01*
X40038Y47583D01*
X39985Y47640D01*
X39960Y47676D01*
X39948Y47694D01*
X39878Y47832D01*
X39820Y47952D01*
X39796Y48082D01*
X39772Y48212D01*
X39772Y48307D01*
X39771Y48386D01*
X39781Y48447D01*
X39784Y48462D01*
X40290Y51330D01*
X40332Y51480D01*
X40387Y51612D01*
X40454Y51726D01*
X40519Y51824D01*
X40596Y51905D01*
X40652Y51958D01*
X40688Y51983D01*
X40706Y51996D01*
X40829Y52068D01*
X40964Y52123D01*
X41095Y52147D01*
X41225Y52172D01*
X41319Y52171D01*
X41398Y52172D01*
X41459Y52162D01*
X41474Y52159D01*
X51924Y50317D01*
X51975Y50606D01*
X43569Y61542D01*
X43406Y61775D01*
X43260Y62021D01*
X43143Y62246D01*
X43056Y62466D01*
X42968Y62686D01*
X42912Y62900D01*
X42868Y63097D01*
X42836Y63275D01*
X42818Y63436D01*
X42811Y63578D01*
X42805Y63721D01*
X42809Y63831D01*
X42807Y63910D01*
X42818Y63971D01*
X42826Y64016D01*
X42828Y64032D01*
X43256Y66457D01*
X43298Y66607D01*
X43356Y66754D01*
X43423Y66868D01*
X43485Y66952D01*
X43562Y67032D01*
X43618Y67085D01*
X43654Y67110D01*
X43672Y67123D01*
X43795Y67196D01*
X43931Y67250D01*
X44045Y67277D01*
X44176Y67302D01*
X44270Y67301D01*
X44349Y67303D01*
X44410Y67292D01*
D02*
G37*
G36*
X216780Y66304D02*
X217312Y66289D01*
X217543Y66264D01*
X217777Y66254D01*
X217994Y66232D01*
X218179Y66215D01*
X218365Y66198D01*
X218518Y66171D01*
X218658Y66162D01*
X218764Y66143D01*
X218856Y66127D01*
X218917Y66116D01*
X218963Y66108D01*
X218978Y66106D01*
X219494Y65999D01*
X219995Y65895D01*
X220475Y65763D01*
X220940Y65634D01*
X221387Y65492D01*
X221815Y65338D01*
X222226Y65171D01*
X222622Y65007D01*
X223000Y64830D01*
X223362Y64656D01*
X223707Y64470D01*
X224036Y64286D01*
X224351Y64104D01*
X224631Y63913D01*
X224912Y63722D01*
X225165Y63552D01*
X225416Y63366D01*
X225636Y63186D01*
X225858Y63021D01*
X226047Y62846D01*
X226224Y62689D01*
X226386Y62534D01*
X226535Y62398D01*
X226669Y62264D01*
X226774Y62151D01*
X226880Y62038D01*
X226958Y61946D01*
X227039Y61869D01*
X227092Y61812D01*
X227130Y61758D01*
X227142Y61740D01*
X227155Y61722D01*
X227381Y61400D01*
X227592Y61079D01*
X227782Y60731D01*
X227960Y60401D01*
X228117Y60043D01*
X228262Y59703D01*
X228500Y59000D01*
X228689Y58290D01*
X228820Y57607D01*
X228908Y56946D01*
X228968Y56307D01*
X228988Y55705D01*
X228986Y55155D01*
X228988Y54903D01*
X228978Y54669D01*
X228956Y54453D01*
X228952Y54249D01*
X228935Y54063D01*
X228923Y53908D01*
X228899Y53771D01*
X228892Y53646D01*
X228876Y53554D01*
X228866Y53493D01*
X228857Y53448D01*
X228855Y53433D01*
X228759Y52978D01*
X228665Y52538D01*
X228544Y52119D01*
X228411Y51718D01*
X228118Y50951D01*
X227803Y50236D01*
X227438Y49593D01*
X227066Y48998D01*
X226689Y48467D01*
X226308Y47999D01*
X225950Y47574D01*
X225603Y47211D01*
X225282Y46906D01*
X225133Y46775D01*
X224986Y46659D01*
X224873Y46553D01*
X224763Y46463D01*
X224658Y46402D01*
X224584Y46337D01*
X224512Y46287D01*
X224458Y46249D01*
X224440Y46236D01*
X224422Y46224D01*
X224086Y46016D01*
X223723Y45828D01*
X223362Y45656D01*
X223007Y45514D01*
X222253Y45254D01*
X221480Y45060D01*
X220712Y44896D01*
X219955Y44794D01*
X219205Y44737D01*
X218492Y44706D01*
X217817Y44714D01*
X217206Y44728D01*
X216926Y44746D01*
X216646Y44764D01*
X216397Y44776D01*
X216180Y44799D01*
X215964Y44821D01*
X215778Y44838D01*
X215626Y44865D01*
X215486Y44874D01*
X215379Y44893D01*
X215303Y44906D01*
X215257Y44914D01*
X215242Y44917D01*
X214363Y45103D01*
X213534Y45312D01*
X212760Y45559D01*
X212036Y45828D01*
X211380Y46117D01*
X210771Y46413D01*
X210226Y46714D01*
X209743Y47003D01*
X209305Y47285D01*
X208928Y47556D01*
X208609Y47801D01*
X208473Y47919D01*
X208349Y48020D01*
X208241Y48118D01*
X208145Y48197D01*
X208079Y48272D01*
X208011Y48331D01*
X207958Y48388D01*
X207915Y48411D01*
X207905Y48444D01*
X207890Y48447D01*
X207665Y48691D01*
X207459Y48947D01*
X207268Y49201D01*
X207092Y49453D01*
X206786Y49947D01*
X206525Y50433D01*
X206326Y50909D01*
X206170Y51361D01*
X206042Y51793D01*
X205954Y52186D01*
X205909Y52555D01*
X205874Y52892D01*
X205864Y53192D01*
X205861Y53445D01*
X205866Y53648D01*
X205877Y53803D01*
X205893Y53895D01*
X205896Y53910D01*
X205899Y53926D01*
X205949Y54121D01*
X206012Y54299D01*
X206100Y54441D01*
X206200Y54564D01*
X206295Y54658D01*
X206418Y54730D01*
X206526Y54806D01*
X206643Y54848D01*
X206870Y54887D01*
X207062Y54900D01*
X207140Y54902D01*
X207202Y54891D01*
X207232Y54886D01*
X207247Y54883D01*
X210832Y54251D01*
X211028Y54201D01*
X211205Y54138D01*
X211378Y54045D01*
X211532Y53939D01*
X211790Y53705D01*
X211996Y53448D01*
X212157Y53200D01*
X212262Y52992D01*
X212309Y52905D01*
X212329Y52839D01*
X212339Y52806D01*
X212351Y52788D01*
X212551Y52312D01*
X212776Y51895D01*
X213037Y51503D01*
X213324Y51169D01*
X213620Y50881D01*
X213935Y50621D01*
X214242Y50394D01*
X214556Y50213D01*
X214857Y50050D01*
X215134Y49922D01*
X215400Y49828D01*
X215623Y49757D01*
X215801Y49694D01*
X215951Y49652D01*
X216042Y49636D01*
X216058Y49633D01*
X216073Y49631D01*
X216518Y49568D01*
X216938Y49541D01*
X217348Y49547D01*
X217715Y49577D01*
X218088Y49637D01*
X218414Y49705D01*
X218713Y49794D01*
X218996Y49886D01*
X219249Y49983D01*
X219472Y50085D01*
X219661Y50178D01*
X219820Y50275D01*
X219958Y50345D01*
X220048Y50408D01*
X220102Y50446D01*
X220120Y50459D01*
X220418Y50721D01*
X220688Y51003D01*
X220930Y51307D01*
X221147Y51646D01*
X221346Y51972D01*
X221517Y52320D01*
X221674Y52670D01*
X221812Y53007D01*
X221914Y53319D01*
X222014Y53616D01*
X222093Y53886D01*
X222166Y54124D01*
X222201Y54323D01*
X222243Y54473D01*
X222251Y54518D01*
X222259Y54564D01*
X222262Y54579D01*
X222265Y54594D01*
X222341Y55116D01*
X222381Y55612D01*
X222401Y56081D01*
X222385Y56524D01*
X222348Y56939D01*
X222288Y57312D01*
X222222Y57653D01*
X222154Y57980D01*
X222075Y58246D01*
X221978Y58499D01*
X221906Y58716D01*
X221826Y58887D01*
X221756Y59025D01*
X221709Y59112D01*
X221674Y59181D01*
X221661Y59199D01*
X221432Y59507D01*
X221185Y59802D01*
X220931Y60052D01*
X220640Y60276D01*
X220361Y60482D01*
X220063Y60661D01*
X219774Y60806D01*
X219485Y60952D01*
X219221Y61061D01*
X218970Y61152D01*
X218731Y61226D01*
X218535Y61276D01*
X218370Y61321D01*
X218251Y61358D01*
X218175Y61371D01*
X218144Y61377D01*
X217681Y61427D01*
X217243Y61441D01*
X216813Y61407D01*
X216422Y61334D01*
X216042Y61228D01*
X215689Y61102D01*
X215367Y60970D01*
X215073Y60817D01*
X214806Y60644D01*
X214576Y60496D01*
X214376Y60343D01*
X214194Y60202D01*
X214062Y60083D01*
X213967Y59990D01*
X213911Y59937D01*
X213890Y59909D01*
X213718Y59735D01*
X213548Y59576D01*
X213384Y59448D01*
X213210Y59353D01*
X213051Y59255D01*
X212898Y59187D01*
X212747Y59135D01*
X212599Y59099D01*
X212357Y59063D01*
X212245Y59051D01*
X212151Y59052D01*
X212074Y59065D01*
X212026Y59058D01*
X211995Y59064D01*
X211980Y59066D01*
X208395Y59698D01*
X208200Y59749D01*
X208022Y59811D01*
X207880Y59899D01*
X207771Y59997D01*
X207663Y60095D01*
X207590Y60218D01*
X207533Y60338D01*
X207490Y60456D01*
X207449Y60667D01*
X207436Y60858D01*
X207434Y60937D01*
X207445Y60998D01*
X207450Y61029D01*
X207453Y61044D01*
X207496Y61288D01*
X207572Y61542D01*
X207747Y61999D01*
X207965Y62432D01*
X208211Y62845D01*
X208500Y63235D01*
X208811Y63573D01*
X209120Y63896D01*
X209441Y64201D01*
X209754Y64460D01*
X210044Y64677D01*
X210331Y64878D01*
X210579Y65039D01*
X210774Y65161D01*
X210933Y65259D01*
X211035Y65304D01*
X211056Y65332D01*
X211071Y65329D01*
X211685Y65599D01*
X212308Y65835D01*
X212967Y66002D01*
X213635Y66135D01*
X214296Y66223D01*
X214951Y66281D01*
X215585Y66311D01*
X216202Y66328D01*
X216780Y66304D01*
D02*
G37*
G36*
X65904Y63502D02*
X65919Y63499D01*
X83401Y60417D01*
X83551Y60374D01*
X83683Y60320D01*
X83797Y60252D01*
X83895Y60188D01*
X83961Y60113D01*
X84029Y60054D01*
X84054Y60018D01*
X84067Y60000D01*
X84139Y59877D01*
X84194Y59742D01*
X84218Y59612D01*
X84245Y59497D01*
X84242Y59387D01*
X84244Y59308D01*
X84233Y59247D01*
X84230Y59232D01*
X81048Y41186D01*
X81006Y41036D01*
X80951Y40904D01*
X80884Y40790D01*
X80804Y40694D01*
X80745Y40626D01*
X80686Y40558D01*
X80650Y40533D01*
X80632Y40520D01*
X80494Y40450D01*
X80376Y40408D01*
X80243Y40368D01*
X80116Y40359D01*
X80022Y40360D01*
X79943Y40358D01*
X79882Y40369D01*
X79866Y40372D01*
X62384Y43455D01*
X62235Y43497D01*
X62103Y43551D01*
X61989Y43619D01*
X61890Y43683D01*
X61822Y43742D01*
X61769Y43799D01*
X61744Y43835D01*
X61731Y43853D01*
X61661Y43991D01*
X61604Y44111D01*
X61580Y44241D01*
X61555Y44371D01*
X61556Y44466D01*
X61554Y44545D01*
X61565Y44606D01*
X61568Y44621D01*
X62073Y47489D01*
X62116Y47639D01*
X62170Y47771D01*
X62238Y47885D01*
X62302Y47983D01*
X62379Y48064D01*
X62436Y48117D01*
X62472Y48142D01*
X62490Y48155D01*
X62613Y48227D01*
X62748Y48282D01*
X62863Y48309D01*
X62993Y48333D01*
X63087Y48332D01*
X63166Y48334D01*
X63227Y48323D01*
X63243Y48321D01*
X75416Y46174D01*
X75921Y49042D01*
X66906Y50632D01*
X66756Y50674D01*
X66624Y50729D01*
X66510Y50796D01*
X66412Y50861D01*
X66328Y50922D01*
X66275Y50979D01*
X66250Y51015D01*
X66237Y51033D01*
X66167Y51171D01*
X66110Y51291D01*
X66086Y51421D01*
X66062Y51551D01*
X66062Y51646D01*
X66061Y51725D01*
X66071Y51786D01*
X66074Y51801D01*
X66580Y54669D01*
X66622Y54819D01*
X66676Y54950D01*
X66744Y55064D01*
X66808Y55163D01*
X66886Y55244D01*
X66942Y55297D01*
X66978Y55322D01*
X66996Y55335D01*
X67119Y55407D01*
X67254Y55462D01*
X67384Y55486D01*
X67514Y55511D01*
X67609Y55510D01*
X67688Y55511D01*
X67749Y55501D01*
X67764Y55498D01*
X76780Y53908D01*
X77234Y56486D01*
X65061Y58633D01*
X64911Y58675D01*
X64779Y58730D01*
X64665Y58797D01*
X64566Y58862D01*
X64498Y58921D01*
X64445Y58977D01*
X64420Y59013D01*
X64408Y59031D01*
X64338Y59169D01*
X64283Y59305D01*
X64259Y59435D01*
X64232Y59550D01*
X64235Y59659D01*
X64233Y59738D01*
X64244Y59799D01*
X64247Y59815D01*
X64750Y62667D01*
X64792Y62817D01*
X64849Y62964D01*
X64917Y63078D01*
X64979Y63162D01*
X65056Y63242D01*
X65112Y63295D01*
X65148Y63320D01*
X65166Y63333D01*
X65289Y63406D01*
X65425Y63460D01*
X65539Y63487D01*
X65670Y63512D01*
X65764Y63511D01*
X65843Y63512D01*
X65904Y63502D01*
D02*
G37*
G36*
X126721Y82216D02*
X126971Y82203D01*
X127205Y82193D01*
X127424Y82186D01*
X127610Y82169D01*
X127796Y82152D01*
X127951Y82140D01*
X128088Y82116D01*
X128213Y82110D01*
X128304Y82094D01*
X128365Y82083D01*
X128411Y82075D01*
X128426Y82072D01*
X128866Y81979D01*
X129306Y81886D01*
X130129Y81646D01*
X130882Y81372D01*
X131582Y81060D01*
X132231Y80725D01*
X132814Y80371D01*
X133332Y80012D01*
X133805Y79661D01*
X134232Y79318D01*
X134583Y78989D01*
X134891Y78683D01*
X135009Y78552D01*
X135128Y78421D01*
X135234Y78308D01*
X135325Y78198D01*
X135403Y78105D01*
X135453Y78034D01*
X135506Y77977D01*
X135543Y77923D01*
X135556Y77905D01*
X135569Y77887D01*
X135780Y77567D01*
X135960Y77252D01*
X136135Y76907D01*
X136297Y76579D01*
X136553Y75889D01*
X136761Y75192D01*
X136922Y74503D01*
X137035Y73807D01*
X137108Y73149D01*
X137153Y72512D01*
X137173Y71911D01*
X137155Y71363D01*
X137143Y71114D01*
X137133Y70880D01*
X137123Y70645D01*
X137103Y70444D01*
X137089Y70274D01*
X137074Y70103D01*
X137050Y69966D01*
X137044Y69841D01*
X137028Y69750D01*
X137017Y69689D01*
X137009Y69643D01*
X137006Y69628D01*
X136910Y69173D01*
X136817Y68733D01*
X136575Y67895D01*
X136298Y67126D01*
X135983Y66411D01*
X135648Y65762D01*
X135307Y65162D01*
X134945Y64628D01*
X134591Y64139D01*
X134251Y63728D01*
X133920Y63362D01*
X133765Y63200D01*
X133629Y63051D01*
X133480Y62920D01*
X133364Y62799D01*
X133251Y62693D01*
X133141Y62602D01*
X133048Y62524D01*
X132977Y62474D01*
X132920Y62421D01*
X132866Y62383D01*
X132833Y62373D01*
X132830Y62358D01*
X132510Y62147D01*
X132192Y61952D01*
X131865Y61789D01*
X131537Y61627D01*
X130845Y61356D01*
X130163Y61146D01*
X129474Y60984D01*
X128808Y60865D01*
X128150Y60793D01*
X127513Y60748D01*
X126930Y60740D01*
X126395Y60740D01*
X126146Y60753D01*
X125911Y60763D01*
X125692Y60770D01*
X125491Y60790D01*
X125321Y60804D01*
X125151Y60818D01*
X125013Y60842D01*
X124904Y60846D01*
X124812Y60862D01*
X124751Y60873D01*
X124705Y60881D01*
X124690Y60884D01*
X124250Y60977D01*
X123811Y61070D01*
X122988Y61310D01*
X122234Y61584D01*
X121519Y61899D01*
X120885Y62231D01*
X120288Y62588D01*
X119766Y62932D01*
X119296Y63297D01*
X118869Y63640D01*
X118515Y63954D01*
X118208Y64260D01*
X118089Y64391D01*
X117971Y64522D01*
X117865Y64635D01*
X117774Y64746D01*
X117696Y64838D01*
X117630Y64912D01*
X117593Y64966D01*
X117555Y65020D01*
X117545Y65053D01*
X117530Y65056D01*
X117319Y65376D01*
X117139Y65691D01*
X116964Y66037D01*
X116801Y66364D01*
X116545Y67054D01*
X116338Y67751D01*
X116179Y68456D01*
X116063Y69137D01*
X115990Y69794D01*
X115945Y70432D01*
X115926Y71033D01*
X115943Y71580D01*
X115941Y71832D01*
X115966Y72064D01*
X115976Y72298D01*
X115995Y72499D01*
X116010Y72670D01*
X116024Y72840D01*
X116048Y72977D01*
X116054Y73102D01*
X116071Y73194D01*
X116081Y73255D01*
X116089Y73300D01*
X116092Y73316D01*
X116173Y73773D01*
X116281Y74210D01*
X116524Y75048D01*
X116801Y75817D01*
X117115Y76533D01*
X117450Y77181D01*
X117792Y77782D01*
X118154Y78316D01*
X118507Y78804D01*
X118847Y79216D01*
X119179Y79582D01*
X119333Y79743D01*
X119470Y79892D01*
X119603Y80026D01*
X119734Y80145D01*
X119847Y80251D01*
X119958Y80341D01*
X120050Y80419D01*
X120122Y80470D01*
X120178Y80523D01*
X120232Y80560D01*
X120250Y80573D01*
X120268Y80585D01*
X120588Y80796D01*
X120906Y80992D01*
X121236Y81170D01*
X121561Y81317D01*
X122254Y81588D01*
X122938Y81813D01*
X123627Y81975D01*
X124309Y82091D01*
X124966Y82163D01*
X125588Y82211D01*
X126171Y82218D01*
X126721Y82216D01*
D02*
G37*
G36*
X88252Y59561D02*
X88267Y59558D01*
X105169Y56578D01*
X105319Y56536D01*
X105451Y56481D01*
X105565Y56414D01*
X105664Y56349D01*
X105729Y56275D01*
X105797Y56216D01*
X105823Y56180D01*
X105835Y56162D01*
X105908Y56039D01*
X105963Y55904D01*
X105987Y55773D01*
X106014Y55659D01*
X106010Y55549D01*
X106012Y55470D01*
X106001Y55409D01*
X105999Y55394D01*
X102816Y37348D01*
X102774Y37198D01*
X102720Y37066D01*
X102652Y36952D01*
X102572Y36856D01*
X102513Y36788D01*
X102454Y36719D01*
X102418Y36694D01*
X102400Y36682D01*
X102262Y36612D01*
X102144Y36569D01*
X102012Y36530D01*
X101884Y36521D01*
X101790Y36522D01*
X101711Y36520D01*
X101650Y36531D01*
X101635Y36534D01*
X97333Y37292D01*
X97183Y37334D01*
X97051Y37389D01*
X96937Y37456D01*
X96838Y37521D01*
X96755Y37583D01*
X96702Y37639D01*
X96677Y37675D01*
X96664Y37693D01*
X96594Y37831D01*
X96537Y37951D01*
X96513Y38082D01*
X96488Y38212D01*
X96489Y38306D01*
X96487Y38385D01*
X96498Y38446D01*
X96501Y38461D01*
X97486Y44044D01*
X88470Y45634D01*
X88320Y45676D01*
X88188Y45731D01*
X88074Y45798D01*
X87978Y45878D01*
X87895Y45940D01*
X87842Y45996D01*
X87817Y46032D01*
X87804Y46050D01*
X87734Y46189D01*
X87677Y46309D01*
X87652Y46439D01*
X87628Y46569D01*
X87629Y46663D01*
X87627Y46742D01*
X87638Y46803D01*
X87641Y46818D01*
X88146Y49686D01*
X88188Y49836D01*
X88243Y49968D01*
X88310Y50082D01*
X88375Y50181D01*
X88452Y50261D01*
X88509Y50314D01*
X88545Y50340D01*
X88563Y50352D01*
X88686Y50425D01*
X88821Y50480D01*
X88951Y50504D01*
X89081Y50528D01*
X89175Y50527D01*
X89254Y50529D01*
X89315Y50518D01*
X89331Y50516D01*
X98346Y48926D01*
X99002Y52648D01*
X87409Y54692D01*
X87259Y54734D01*
X87127Y54789D01*
X87013Y54856D01*
X86914Y54921D01*
X86831Y54983D01*
X86778Y55039D01*
X86753Y55075D01*
X86740Y55093D01*
X86670Y55231D01*
X86616Y55367D01*
X86591Y55497D01*
X86564Y55612D01*
X86568Y55721D01*
X86566Y55800D01*
X86577Y55861D01*
X86580Y55877D01*
X87083Y58729D01*
X87125Y58879D01*
X87182Y59026D01*
X87249Y59140D01*
X87311Y59224D01*
X87389Y59304D01*
X87445Y59357D01*
X87481Y59382D01*
X87499Y59395D01*
X87622Y59468D01*
X87757Y59523D01*
X87888Y59547D01*
X88018Y59571D01*
X88112Y59570D01*
X88191Y59572D01*
X88252Y59561D01*
D02*
G37*
G36*
X126702Y53190D02*
X127234Y53175D01*
X127466Y53150D01*
X127700Y53140D01*
X127917Y53118D01*
X128102Y53101D01*
X128288Y53084D01*
X128441Y53057D01*
X128580Y53048D01*
X128687Y53029D01*
X128779Y53013D01*
X128840Y53002D01*
X128886Y52994D01*
X128901Y52991D01*
X129417Y52885D01*
X129918Y52781D01*
X130398Y52649D01*
X130862Y52520D01*
X131309Y52378D01*
X131738Y52224D01*
X132149Y52057D01*
X132545Y51893D01*
X132923Y51716D01*
X133285Y51542D01*
X133630Y51355D01*
X133959Y51171D01*
X134273Y50990D01*
X134554Y50799D01*
X134835Y50608D01*
X135088Y50438D01*
X135339Y50252D01*
X135558Y50072D01*
X135781Y49907D01*
X135970Y49731D01*
X136147Y49575D01*
X136309Y49420D01*
X136458Y49284D01*
X136591Y49150D01*
X136697Y49037D01*
X136803Y48924D01*
X136881Y48832D01*
X136962Y48755D01*
X137015Y48698D01*
X137053Y48644D01*
X137065Y48626D01*
X137078Y48608D01*
X137304Y48285D01*
X137515Y47965D01*
X137705Y47617D01*
X137883Y47287D01*
X138040Y46929D01*
X138184Y46589D01*
X138422Y45886D01*
X138612Y45176D01*
X138743Y44493D01*
X138831Y43832D01*
X138891Y43192D01*
X138911Y42591D01*
X138908Y42041D01*
X138911Y41789D01*
X138901Y41555D01*
X138879Y41339D01*
X138874Y41135D01*
X138857Y40949D01*
X138846Y40794D01*
X138821Y40657D01*
X138815Y40532D01*
X138799Y40440D01*
X138788Y40379D01*
X138780Y40334D01*
X138778Y40318D01*
X138682Y39863D01*
X138588Y39424D01*
X138467Y39004D01*
X138334Y38603D01*
X138041Y37837D01*
X137726Y37122D01*
X137361Y36478D01*
X136989Y35884D01*
X136612Y35352D01*
X136231Y34885D01*
X135873Y34460D01*
X135526Y34097D01*
X135205Y33792D01*
X135055Y33661D01*
X134909Y33545D01*
X134796Y33439D01*
X134686Y33348D01*
X134581Y33288D01*
X134506Y33223D01*
X134435Y33172D01*
X134381Y33135D01*
X134363Y33122D01*
X134345Y33110D01*
X134009Y32901D01*
X133646Y32714D01*
X133285Y32541D01*
X132930Y32399D01*
X132176Y32139D01*
X131403Y31945D01*
X130635Y31782D01*
X129877Y31679D01*
X129128Y31623D01*
X128415Y31591D01*
X127740Y31600D01*
X127129Y31614D01*
X126849Y31631D01*
X126569Y31649D01*
X126320Y31662D01*
X126103Y31684D01*
X125887Y31707D01*
X125701Y31724D01*
X125549Y31751D01*
X125409Y31760D01*
X125302Y31778D01*
X125226Y31792D01*
X125180Y31800D01*
X125165Y31803D01*
X124285Y31989D01*
X123457Y32198D01*
X122683Y32445D01*
X121959Y32714D01*
X121302Y33003D01*
X120694Y33299D01*
X120149Y33599D01*
X119666Y33889D01*
X119228Y34171D01*
X118851Y34442D01*
X118532Y34687D01*
X118396Y34805D01*
X118272Y34905D01*
X118164Y35003D01*
X118067Y35083D01*
X118002Y35158D01*
X117934Y35217D01*
X117881Y35273D01*
X117838Y35297D01*
X117828Y35330D01*
X117813Y35333D01*
X117588Y35577D01*
X117382Y35833D01*
X117191Y36087D01*
X117015Y36338D01*
X116709Y36833D01*
X116448Y37319D01*
X116249Y37795D01*
X116093Y38247D01*
X115964Y38678D01*
X115876Y39071D01*
X115832Y39441D01*
X115797Y39777D01*
X115787Y40078D01*
X115784Y40330D01*
X115788Y40534D01*
X115800Y40689D01*
X115816Y40781D01*
X115819Y40796D01*
X115822Y40811D01*
X115872Y41007D01*
X115935Y41184D01*
X116023Y41326D01*
X116123Y41450D01*
X116218Y41543D01*
X116341Y41616D01*
X116449Y41692D01*
X116566Y41734D01*
X116793Y41772D01*
X116984Y41786D01*
X117063Y41788D01*
X117124Y41777D01*
X117155Y41772D01*
X117170Y41769D01*
X120755Y41137D01*
X120951Y41087D01*
X121128Y41024D01*
X121300Y40930D01*
X121455Y40825D01*
X121712Y40590D01*
X121919Y40334D01*
X122080Y40085D01*
X122185Y39878D01*
X122232Y39791D01*
X122252Y39725D01*
X122262Y39691D01*
X122274Y39674D01*
X122474Y39198D01*
X122699Y38781D01*
X122960Y38389D01*
X123247Y38055D01*
X123542Y37767D01*
X123858Y37507D01*
X124164Y37280D01*
X124478Y37099D01*
X124780Y36935D01*
X125056Y36808D01*
X125323Y36714D01*
X125546Y36643D01*
X125724Y36580D01*
X125874Y36538D01*
X125965Y36522D01*
X125981Y36519D01*
X125996Y36516D01*
X126441Y36454D01*
X126861Y36427D01*
X127271Y36433D01*
X127638Y36463D01*
X128010Y36523D01*
X128337Y36591D01*
X128636Y36680D01*
X128919Y36772D01*
X129172Y36869D01*
X129395Y36971D01*
X129584Y37063D01*
X129743Y37161D01*
X129881Y37231D01*
X129971Y37294D01*
X130025Y37332D01*
X130043Y37344D01*
X130341Y37606D01*
X130611Y37889D01*
X130853Y38192D01*
X131070Y38532D01*
X131269Y38858D01*
X131440Y39205D01*
X131597Y39555D01*
X131735Y39893D01*
X131837Y40205D01*
X131936Y40502D01*
X132015Y40771D01*
X132089Y41010D01*
X132124Y41208D01*
X132166Y41358D01*
X132174Y41404D01*
X132182Y41450D01*
X132185Y41465D01*
X132188Y41480D01*
X132264Y42002D01*
X132304Y42498D01*
X132324Y42966D01*
X132308Y43409D01*
X132271Y43825D01*
X132211Y44197D01*
X132145Y44539D01*
X132077Y44866D01*
X131998Y45131D01*
X131901Y45384D01*
X131829Y45601D01*
X131749Y45773D01*
X131679Y45911D01*
X131632Y45998D01*
X131597Y46067D01*
X131584Y46085D01*
X131355Y46393D01*
X131108Y46688D01*
X130853Y46938D01*
X130563Y47162D01*
X130284Y47368D01*
X129986Y47547D01*
X129697Y47692D01*
X129408Y47837D01*
X129144Y47947D01*
X128893Y48038D01*
X128654Y48112D01*
X128458Y48162D01*
X128293Y48207D01*
X128174Y48244D01*
X128098Y48257D01*
X128067Y48262D01*
X127604Y48313D01*
X127166Y48327D01*
X126735Y48293D01*
X126345Y48220D01*
X125965Y48114D01*
X125612Y47987D01*
X125290Y47855D01*
X124996Y47703D01*
X124729Y47530D01*
X124499Y47382D01*
X124299Y47228D01*
X124116Y47087D01*
X123985Y46969D01*
X123890Y46876D01*
X123834Y46823D01*
X123813Y46795D01*
X123641Y46621D01*
X123471Y46462D01*
X123307Y46333D01*
X123133Y46238D01*
X122974Y46141D01*
X122821Y46073D01*
X122670Y46021D01*
X122522Y45984D01*
X122280Y45948D01*
X122168Y45937D01*
X122073Y45937D01*
X121997Y45951D01*
X121949Y45944D01*
X121918Y45949D01*
X121903Y45952D01*
X118318Y46584D01*
X118122Y46634D01*
X117945Y46697D01*
X117803Y46785D01*
X117694Y46883D01*
X117586Y46981D01*
X117513Y47103D01*
X117456Y47224D01*
X117413Y47341D01*
X117372Y47553D01*
X117359Y47744D01*
X117357Y47823D01*
X117368Y47884D01*
X117373Y47915D01*
X117376Y47930D01*
X117419Y48174D01*
X117495Y48428D01*
X117670Y48885D01*
X117888Y49318D01*
X118134Y49731D01*
X118422Y50120D01*
X118734Y50459D01*
X119042Y50782D01*
X119364Y51087D01*
X119677Y51346D01*
X119967Y51562D01*
X120254Y51763D01*
X120502Y51924D01*
X120697Y52047D01*
X120856Y52145D01*
X120958Y52190D01*
X120979Y52218D01*
X120994Y52215D01*
X121608Y52484D01*
X122231Y52720D01*
X122890Y52887D01*
X123558Y53021D01*
X124219Y53109D01*
X124874Y53167D01*
X125508Y53196D01*
X126125Y53214D01*
X126702Y53190D01*
D02*
G37*
G36*
X176933Y43688D02*
X177559Y43672D01*
X177839Y43655D01*
X178119Y43637D01*
X178366Y43609D01*
X178597Y43584D01*
X178798Y43564D01*
X178984Y43547D01*
X179152Y43517D01*
X179292Y43508D01*
X179398Y43490D01*
X179475Y43476D01*
X179520Y43468D01*
X179536Y43465D01*
X188567Y41873D01*
X188716Y41831D01*
X188848Y41776D01*
X188962Y41709D01*
X189061Y41644D01*
X189126Y41570D01*
X189195Y41511D01*
X189220Y41475D01*
X189232Y41457D01*
X189305Y41334D01*
X189360Y41198D01*
X189384Y41068D01*
X189411Y40953D01*
X189407Y40844D01*
X189409Y40765D01*
X189399Y40704D01*
X189396Y40689D01*
X186214Y22642D01*
X186172Y22492D01*
X186117Y22361D01*
X186050Y22247D01*
X185970Y22151D01*
X185910Y22082D01*
X185851Y22014D01*
X185815Y21989D01*
X185798Y21976D01*
X185659Y21906D01*
X185542Y21864D01*
X185409Y21825D01*
X185282Y21816D01*
X185187Y21817D01*
X185108Y21815D01*
X185047Y21826D01*
X185032Y21828D01*
X176001Y23421D01*
X175485Y23527D01*
X174969Y23634D01*
X174487Y23751D01*
X174024Y23895D01*
X173562Y24039D01*
X173131Y24179D01*
X172720Y24345D01*
X172324Y24510D01*
X171943Y24671D01*
X171581Y24845D01*
X171234Y25016D01*
X170904Y25200D01*
X170590Y25381D01*
X170291Y25560D01*
X170023Y25733D01*
X169757Y25922D01*
X169504Y26092D01*
X169282Y26257D01*
X169074Y26419D01*
X168883Y26579D01*
X168690Y26739D01*
X168526Y26878D01*
X168393Y27012D01*
X168256Y27130D01*
X168135Y27246D01*
X168044Y27356D01*
X167948Y27436D01*
X167883Y27510D01*
X167833Y27582D01*
X167792Y27621D01*
X167782Y27654D01*
X167767Y27657D01*
X167538Y27964D01*
X167327Y28285D01*
X167131Y28602D01*
X166951Y28917D01*
X166807Y29257D01*
X166659Y29582D01*
X166416Y30254D01*
X166234Y30915D01*
X166095Y31554D01*
X165986Y32186D01*
X165936Y32793D01*
X165908Y33348D01*
X165890Y33870D01*
X165910Y34339D01*
X165914Y34542D01*
X165931Y34728D01*
X165945Y34899D01*
X165957Y35054D01*
X165981Y35191D01*
X165985Y35301D01*
X165998Y35377D01*
X166012Y35453D01*
X166017Y35484D01*
X166020Y35499D01*
X166110Y35923D01*
X166198Y36333D01*
X166317Y36736D01*
X166447Y37122D01*
X166717Y37846D01*
X167039Y38512D01*
X167383Y39128D01*
X167747Y39677D01*
X168119Y40178D01*
X168482Y40633D01*
X168850Y41024D01*
X169192Y41357D01*
X169510Y41647D01*
X169788Y41881D01*
X170024Y42060D01*
X170113Y42123D01*
X170188Y42188D01*
X170257Y42223D01*
X170311Y42261D01*
X170331Y42289D01*
X170346Y42286D01*
X170679Y42479D01*
X171025Y42654D01*
X171756Y42965D01*
X172507Y43211D01*
X173263Y43392D01*
X174041Y43522D01*
X174798Y43624D01*
X175544Y43666D01*
X176258Y43697D01*
X176933Y43688D01*
D02*
G37*
G36*
X240310Y61574D02*
X240839Y61543D01*
X241073Y61533D01*
X241305Y61508D01*
X241521Y61486D01*
X241722Y61466D01*
X241892Y61452D01*
X242060Y61422D01*
X242185Y61416D01*
X242307Y61394D01*
X242399Y61378D01*
X242460Y61367D01*
X242505Y61360D01*
X242520Y61357D01*
X252543Y59590D01*
X252693Y59547D01*
X252825Y59493D01*
X252939Y59425D01*
X253037Y59361D01*
X253103Y59286D01*
X253171Y59227D01*
X253196Y59191D01*
X253209Y59173D01*
X253281Y59050D01*
X253336Y58915D01*
X253360Y58785D01*
X253387Y58670D01*
X253384Y58561D01*
X253386Y58482D01*
X253375Y58420D01*
X253372Y58405D01*
X250190Y40359D01*
X250148Y40209D01*
X250093Y40077D01*
X250026Y39963D01*
X249946Y39867D01*
X249887Y39799D01*
X249828Y39731D01*
X249792Y39706D01*
X249774Y39693D01*
X249636Y39623D01*
X249518Y39581D01*
X249385Y39541D01*
X249258Y39532D01*
X249164Y39533D01*
X249085Y39531D01*
X249024Y39542D01*
X249008Y39545D01*
X244707Y40303D01*
X244557Y40346D01*
X244425Y40400D01*
X244311Y40468D01*
X244212Y40532D01*
X244129Y40594D01*
X244076Y40651D01*
X244051Y40687D01*
X244038Y40705D01*
X243968Y40843D01*
X243911Y40963D01*
X243886Y41093D01*
X243862Y41223D01*
X243863Y41317D01*
X243861Y41396D01*
X243872Y41457D01*
X243875Y41473D01*
X244657Y45912D01*
X239944Y46743D01*
X239064Y46929D01*
X238251Y47136D01*
X237490Y47364D01*
X236797Y47628D01*
X236168Y47896D01*
X235587Y48172D01*
X235070Y48452D01*
X234614Y48721D01*
X234219Y48979D01*
X233870Y49229D01*
X233580Y49454D01*
X233347Y49652D01*
X233158Y49827D01*
X233037Y49942D01*
X232959Y50035D01*
X232931Y50056D01*
X232558Y50530D01*
X232250Y51009D01*
X231974Y51498D01*
X231777Y51989D01*
X231611Y52474D01*
X231476Y52955D01*
X231383Y53411D01*
X231334Y53845D01*
X231297Y54260D01*
X231283Y54624D01*
X231278Y54956D01*
X231299Y55251D01*
X231306Y55470D01*
X231322Y55561D01*
X231323Y55655D01*
X231334Y55717D01*
X231342Y55762D01*
X231344Y55778D01*
X231347Y55793D01*
X231483Y56382D01*
X231658Y56933D01*
X231877Y57461D01*
X232134Y57935D01*
X232398Y58360D01*
X232689Y58765D01*
X232988Y59121D01*
X233281Y59447D01*
X233582Y59724D01*
X233862Y59974D01*
X234118Y60180D01*
X234336Y60346D01*
X234531Y60469D01*
X234675Y60570D01*
X234762Y60617D01*
X234798Y60642D01*
X235363Y60904D01*
X235953Y61131D01*
X236578Y61288D01*
X237214Y61412D01*
X237859Y61502D01*
X238499Y61563D01*
X239133Y61592D01*
X239732Y61597D01*
X240310Y61574D01*
D02*
G37*
G36*
X91981Y38362D02*
X92535Y37808D01*
X92835Y37084D01*
Y36693D01*
X84961D01*
Y37084D01*
X85260Y37808D01*
X85814Y38362D01*
X86538Y38661D01*
X91258D01*
X91981Y38362D01*
D02*
G37*
G36*
X81981D02*
X82535Y37808D01*
X82835Y37084D01*
Y36693D01*
X74961D01*
Y37084D01*
X75260Y37808D01*
X75814Y38362D01*
X76538Y38661D01*
X81258D01*
X81981Y38362D01*
D02*
G37*
G36*
X71981D02*
X72535Y37808D01*
X72835Y37084D01*
Y36693D01*
X64961D01*
Y37084D01*
X65260Y37808D01*
X65814Y38362D01*
X66538Y38661D01*
X71258D01*
X71981Y38362D01*
D02*
G37*
G36*
X61981D02*
X62535Y37808D01*
X62835Y37084D01*
Y36693D01*
X54961D01*
Y37084D01*
X55260Y37808D01*
X55814Y38362D01*
X56538Y38661D01*
X61258D01*
X61981Y38362D01*
D02*
G37*
G36*
X51981D02*
X52535Y37808D01*
X52835Y37084D01*
Y36693D01*
X44961D01*
Y37084D01*
X45260Y37808D01*
X45814Y38362D01*
X46538Y38661D01*
X51258D01*
X51981Y38362D01*
D02*
G37*
G36*
X52835Y28670D02*
X44961D01*
Y36693D01*
X50583D01*
X50558Y36689D01*
X50521Y36682D01*
X50481Y36667D01*
X50441Y36653D01*
X50397Y36627D01*
X50357Y36595D01*
X50354Y36591D01*
X50339Y36576D01*
X50324Y36555D01*
X50303Y36529D01*
X50284Y36493D01*
X50266Y36453D01*
X50255Y36405D01*
X50252Y36354D01*
Y36351D01*
Y36336D01*
X50255Y36318D01*
X50259Y36292D01*
X50270Y36260D01*
X50281Y36227D01*
X50299Y36191D01*
X50321Y36151D01*
X50324Y36143D01*
X50336Y36125D01*
X50354Y36096D01*
X50375Y36059D01*
X50397Y36016D01*
X50419Y35969D01*
X50441Y35918D01*
X50456Y35867D01*
Y35863D01*
X50459Y35856D01*
Y35845D01*
X50463Y35830D01*
X50467Y35808D01*
X50470Y35783D01*
X50474Y35754D01*
X50477Y35721D01*
X50485Y35685D01*
X50488Y35641D01*
X50492Y35597D01*
X50496Y35546D01*
X50499Y35492D01*
Y35437D01*
X50503Y35375D01*
Y35310D01*
Y35302D01*
Y35284D01*
Y35251D01*
X50499Y35211D01*
Y35160D01*
X50496Y35102D01*
X50488Y35040D01*
X50485Y34971D01*
X50463Y34829D01*
X50437Y34684D01*
X50419Y34614D01*
X50397Y34549D01*
X50375Y34487D01*
X50346Y34433D01*
X50343Y34429D01*
X50339Y34422D01*
X50328Y34407D01*
X50317Y34389D01*
X50281Y34345D01*
X50234Y34294D01*
X50168Y34247D01*
X50092Y34203D01*
X50051Y34185D01*
X50004Y34170D01*
X49953Y34163D01*
X49902Y34159D01*
X49880D01*
X49866Y34163D01*
X49848D01*
X49822Y34167D01*
X49771Y34178D01*
X49706Y34200D01*
X49637Y34229D01*
X49564Y34265D01*
X49527Y34291D01*
X49491Y34320D01*
X49487D01*
X49484Y34327D01*
X49473Y34334D01*
X49458Y34349D01*
X49422Y34381D01*
X49378Y34433D01*
X49327Y34491D01*
X49276Y34563D01*
X49225Y34647D01*
X49182Y34742D01*
X49178Y34749D01*
X49174Y34756D01*
X49171Y34771D01*
X49167Y34789D01*
X49160Y34807D01*
X49152Y34833D01*
X49149Y34862D01*
X49142Y34895D01*
X49134Y34931D01*
X49127Y34975D01*
X49120Y35022D01*
X49112Y35073D01*
X49105Y35128D01*
X49098Y35190D01*
X49094Y35255D01*
Y35259D01*
Y35262D01*
X49091Y35284D01*
X49087Y35313D01*
X49080Y35353D01*
X49065Y35393D01*
X49047Y35441D01*
X49025Y35481D01*
X48992Y35521D01*
X48989Y35524D01*
X48974Y35535D01*
X48952Y35550D01*
X48927Y35565D01*
X48890Y35583D01*
X48850Y35597D01*
X48803Y35608D01*
X48752Y35612D01*
X48727D01*
X48701Y35608D01*
X48665Y35601D01*
X48625Y35586D01*
X48585Y35572D01*
X48541Y35546D01*
X48501Y35513D01*
X48497Y35510D01*
X48486Y35495D01*
X48468Y35473D01*
X48450Y35444D01*
X48432Y35404D01*
X48414Y35361D01*
X48403Y35310D01*
X48399Y35255D01*
Y35251D01*
Y35241D01*
Y35222D01*
Y35201D01*
Y35175D01*
Y35146D01*
Y35080D01*
Y35015D01*
Y34982D01*
Y34953D01*
Y34931D01*
Y34909D01*
Y34895D01*
Y34887D01*
Y34880D01*
X48395Y34862D01*
X48392Y34837D01*
X48381Y34800D01*
X48370Y34760D01*
X48355Y34713D01*
X48337Y34665D01*
X48312Y34614D01*
X48308Y34607D01*
X48297Y34593D01*
X48279Y34567D01*
X48257Y34538D01*
X48228Y34502D01*
X48191Y34465D01*
X48151Y34429D01*
X48104Y34396D01*
X48097Y34392D01*
X48082Y34381D01*
X48057Y34371D01*
X48020Y34352D01*
X47980Y34338D01*
X47937Y34327D01*
X47886Y34316D01*
X47835Y34312D01*
X47813D01*
X47798Y34316D01*
X47758Y34323D01*
X47704Y34338D01*
X47646Y34360D01*
X47584Y34396D01*
X47551Y34418D01*
X47518Y34443D01*
X47485Y34473D01*
X47456Y34509D01*
X47453Y34512D01*
X47449Y34516D01*
X47442Y34531D01*
X47431Y34545D01*
X47420Y34567D01*
X47405Y34589D01*
X47391Y34618D01*
X47372Y34655D01*
X47358Y34691D01*
X47343Y34735D01*
X47329Y34782D01*
X47318Y34837D01*
X47307Y34891D01*
X47300Y34953D01*
X47292Y35022D01*
Y35091D01*
Y35099D01*
Y35113D01*
Y35139D01*
X47296Y35175D01*
X47300Y35215D01*
X47307Y35262D01*
X47318Y35317D01*
X47329Y35375D01*
X47343Y35437D01*
X47362Y35499D01*
X47387Y35565D01*
X47416Y35626D01*
X47449Y35688D01*
X47489Y35750D01*
X47533Y35808D01*
X47584Y35859D01*
X47587Y35863D01*
X47598Y35870D01*
X47613Y35885D01*
X47631Y35903D01*
X47667Y35943D01*
X47682Y35965D01*
X47693Y35983D01*
Y35987D01*
X47700Y35994D01*
X47704Y36009D01*
X47711Y36030D01*
X47718Y36052D01*
X47722Y36081D01*
X47729Y36143D01*
Y36151D01*
Y36165D01*
X47722Y36194D01*
X47715Y36227D01*
X47704Y36263D01*
X47686Y36307D01*
X47660Y36347D01*
X47627Y36387D01*
X47624Y36391D01*
X47609Y36402D01*
X47587Y36420D01*
X47558Y36434D01*
X47522Y36453D01*
X47478Y36471D01*
X47431Y36482D01*
X47376Y36485D01*
X47365D01*
X47354Y36482D01*
X47336D01*
X47314Y36474D01*
X47292Y36467D01*
X47230Y36445D01*
X47198Y36431D01*
X47161Y36409D01*
X47125Y36384D01*
X47085Y36354D01*
X47045Y36318D01*
X47005Y36278D01*
X46961Y36231D01*
X46921Y36176D01*
X46918Y36172D01*
X46907Y36154D01*
X46892Y36129D01*
X46870Y36096D01*
X46845Y36049D01*
X46819Y35998D01*
X46790Y35932D01*
X46757Y35863D01*
X46728Y35787D01*
X46699Y35699D01*
X46674Y35605D01*
X46648Y35506D01*
X46626Y35397D01*
X46612Y35284D01*
X46601Y35164D01*
X46597Y35040D01*
Y35037D01*
Y35033D01*
Y35011D01*
X46601Y34978D01*
X46604Y34935D01*
X46608Y34880D01*
X46615Y34815D01*
X46626Y34745D01*
X46644Y34669D01*
X46663Y34589D01*
X46688Y34505D01*
X46717Y34418D01*
X46754Y34330D01*
X46794Y34247D01*
X46845Y34163D01*
X46899Y34083D01*
X46965Y34007D01*
X46968Y34003D01*
X46983Y33988D01*
X47001Y33970D01*
X47030Y33945D01*
X47067Y33916D01*
X47107Y33883D01*
X47158Y33846D01*
X47212Y33810D01*
X47274Y33774D01*
X47340Y33741D01*
X47412Y33708D01*
X47493Y33679D01*
X47573Y33654D01*
X47660Y33635D01*
X47751Y33621D01*
X47846Y33617D01*
X47893D01*
X47915Y33621D01*
X47944Y33624D01*
X48009Y33632D01*
X48086Y33646D01*
X48170Y33664D01*
X48261Y33694D01*
X48348Y33734D01*
X48352D01*
X48359Y33737D01*
X48370Y33744D01*
X48388Y33755D01*
X48406Y33766D01*
X48432Y33781D01*
X48486Y33821D01*
X48552Y33868D01*
X48625Y33930D01*
X48698Y33999D01*
X48774Y34079D01*
X48778Y34076D01*
X48785Y34065D01*
X48796Y34050D01*
X48810Y34028D01*
X48832Y34003D01*
X48854Y33974D01*
X48883Y33941D01*
X48912Y33905D01*
X48985Y33832D01*
X49069Y33755D01*
X49160Y33679D01*
X49211Y33646D01*
X49262Y33617D01*
X49265Y33613D01*
X49273Y33610D01*
X49291Y33602D01*
X49309Y33592D01*
X49334Y33581D01*
X49367Y33570D01*
X49404Y33555D01*
X49444Y33541D01*
X49487Y33526D01*
X49535Y33511D01*
X49640Y33490D01*
X49757Y33472D01*
X49880Y33464D01*
X49917D01*
X49942Y33468D01*
X49975Y33472D01*
X50015Y33475D01*
X50059Y33482D01*
X50106Y33490D01*
X50157Y33501D01*
X50212Y33515D01*
X50324Y33552D01*
X50386Y33573D01*
X50445Y33599D01*
X50507Y33632D01*
X50565Y33668D01*
X50568Y33672D01*
X50579Y33679D01*
X50594Y33690D01*
X50616Y33705D01*
X50641Y33726D01*
X50670Y33752D01*
X50707Y33781D01*
X50740Y33817D01*
X50780Y33854D01*
X50816Y33897D01*
X50856Y33948D01*
X50896Y33999D01*
X50936Y34058D01*
X50972Y34119D01*
X51005Y34185D01*
X51038Y34254D01*
Y34258D01*
X51045Y34272D01*
X51053Y34294D01*
X51064Y34323D01*
X51074Y34363D01*
X51089Y34407D01*
X51104Y34462D01*
X51118Y34523D01*
X51133Y34593D01*
X51147Y34665D01*
X51162Y34749D01*
X51173Y34837D01*
X51184Y34931D01*
X51191Y35033D01*
X51195Y35142D01*
X51198Y35255D01*
Y35259D01*
Y35262D01*
Y35277D01*
Y35291D01*
Y35310D01*
Y35331D01*
X51195Y35386D01*
X51191Y35455D01*
X51184Y35532D01*
X51176Y35615D01*
X51165Y35706D01*
X51155Y35805D01*
X51136Y35903D01*
X51118Y36005D01*
X51093Y36107D01*
X51064Y36205D01*
X51031Y36300D01*
X50994Y36387D01*
X50951Y36467D01*
Y36471D01*
X50943Y36478D01*
X50936Y36489D01*
X50925Y36504D01*
X50892Y36540D01*
X50852Y36580D01*
X50801Y36620D01*
X50743Y36656D01*
X50714Y36671D01*
X50681Y36682D01*
X50645Y36689D01*
X50609Y36693D01*
X52835D01*
Y28670D01*
D02*
G37*
G36*
X92835Y28819D02*
X84961D01*
Y36693D01*
X92835D01*
Y28819D01*
D02*
G37*
G36*
X82835D02*
X74961D01*
Y36693D01*
X82835D01*
Y28819D01*
D02*
G37*
G36*
X72835D02*
X64961D01*
Y36693D01*
X72835D01*
Y28819D01*
D02*
G37*
G36*
X62835D02*
X54961D01*
Y36693D01*
X62835D01*
Y28819D01*
D02*
G37*
G36*
X151192Y48463D02*
X151223Y48458D01*
X151238Y48455D01*
X157111Y47419D01*
X157261Y47377D01*
X157393Y47322D01*
X157522Y47253D01*
X157634Y47170D01*
X157818Y46965D01*
X157968Y46749D01*
X158089Y46539D01*
X158151Y46355D01*
X158186Y46286D01*
X158208Y46235D01*
X158218Y46202D01*
X158215Y46187D01*
X163057Y26726D01*
X163076Y26565D01*
X163082Y26422D01*
X163061Y26300D01*
X163011Y26199D01*
X162983Y26125D01*
X162939Y26054D01*
X162918Y26026D01*
X162900Y26014D01*
X162793Y25939D01*
X162675Y25896D01*
X162542Y25857D01*
X162430Y25845D01*
X162321Y25849D01*
X162242Y25847D01*
X162181Y25858D01*
X162165Y25860D01*
X157574Y26670D01*
X157408Y26715D01*
X157277Y26770D01*
X157147Y26840D01*
X157021Y26925D01*
X156837Y27130D01*
X156686Y27346D01*
X156578Y27538D01*
X156517Y27722D01*
X156497Y27788D01*
X156474Y27839D01*
X156464Y27872D01*
X156467Y27887D01*
X155915Y30643D01*
X146899Y32233D01*
X145438Y29832D01*
X145332Y29678D01*
X145214Y29542D01*
X145083Y29423D01*
X144970Y29317D01*
X144847Y29245D01*
X144727Y29187D01*
X144491Y29103D01*
X144280Y29061D01*
X144122Y29058D01*
X144058Y29053D01*
X144012Y29061D01*
X143982Y29067D01*
X143966Y29069D01*
X139100Y29927D01*
X138935Y29972D01*
X138803Y30027D01*
X138705Y30092D01*
X138606Y30156D01*
X138538Y30215D01*
X138500Y30269D01*
X138475Y30305D01*
X138462Y30323D01*
X138423Y30456D01*
X138396Y30571D01*
X138417Y30693D01*
X138439Y30815D01*
X138485Y30901D01*
X138514Y30975D01*
X138540Y31033D01*
X138558Y31045D01*
X149769Y47707D01*
X149891Y47859D01*
X150009Y47995D01*
X150125Y48116D01*
X150250Y48204D01*
X150373Y48277D01*
X150494Y48335D01*
X150729Y48419D01*
X150925Y48463D01*
X151098Y48464D01*
X151162Y48468D01*
X151192Y48463D01*
D02*
G37*
G36*
X92441Y25669D02*
X91811D01*
X90630Y26850D01*
Y27244D01*
X92441D01*
Y25669D01*
D02*
G37*
G36*
X87165Y26850D02*
X85984Y25669D01*
X85354D01*
Y27244D01*
X87165D01*
Y26850D01*
D02*
G37*
G36*
X82441Y25669D02*
X81811D01*
X80630Y26850D01*
Y27244D01*
X82441D01*
Y25669D01*
D02*
G37*
G36*
X77165Y26850D02*
X75984Y25669D01*
X75354D01*
Y27244D01*
X77165D01*
Y26850D01*
D02*
G37*
G36*
X72441Y25669D02*
X71811D01*
X70630Y26850D01*
Y27244D01*
X72441D01*
Y25669D01*
D02*
G37*
G36*
X67165Y26850D02*
X65984Y25669D01*
X65354D01*
Y27244D01*
X67165D01*
Y26850D01*
D02*
G37*
G36*
X62441Y25669D02*
X61811D01*
X60630Y26850D01*
Y27244D01*
X62441D01*
Y25669D01*
D02*
G37*
G36*
X57165Y26850D02*
X55984Y25669D01*
X55354D01*
Y27244D01*
X57165D01*
Y26850D01*
D02*
G37*
G36*
X52441Y25669D02*
X51811D01*
X50630Y26850D01*
Y27244D01*
X52441D01*
Y25669D01*
D02*
G37*
G36*
X47165Y26850D02*
X45984Y25669D01*
X45354D01*
Y27244D01*
X47165D01*
Y26850D01*
D02*
G37*
G36*
X92441Y10158D02*
X90630D01*
Y10551D01*
X91811Y11732D01*
X92441D01*
Y10158D01*
D02*
G37*
G36*
X87165Y10551D02*
Y10158D01*
X85354D01*
Y11732D01*
X85984D01*
X87165Y10551D01*
D02*
G37*
G36*
X82441Y10158D02*
X80630D01*
Y10551D01*
X81811Y11732D01*
X82441D01*
Y10158D01*
D02*
G37*
G36*
X77165Y10551D02*
Y10158D01*
X75354D01*
Y11732D01*
X75984D01*
X77165Y10551D01*
D02*
G37*
G36*
X72441Y10158D02*
X70630D01*
Y10551D01*
X71811Y11732D01*
X72441D01*
Y10158D01*
D02*
G37*
G36*
X67165Y10551D02*
Y10158D01*
X65354D01*
Y11732D01*
X65984D01*
X67165Y10551D01*
D02*
G37*
G36*
X62441Y10158D02*
X60630D01*
Y10551D01*
X61811Y11732D01*
X62441D01*
Y10158D01*
D02*
G37*
G36*
X57165Y10551D02*
Y10158D01*
X55354D01*
Y11732D01*
X55984D01*
X57165Y10551D01*
D02*
G37*
G36*
X52835Y678D02*
X44961D01*
Y8701D01*
X50583D01*
X50558Y8697D01*
X50521Y8690D01*
X50481Y8675D01*
X50441Y8661D01*
X50397Y8635D01*
X50357Y8602D01*
X50354Y8599D01*
X50339Y8584D01*
X50324Y8562D01*
X50303Y8537D01*
X50284Y8501D01*
X50266Y8461D01*
X50255Y8413D01*
X50252Y8362D01*
Y8359D01*
Y8344D01*
X50255Y8326D01*
X50259Y8300D01*
X50270Y8268D01*
X50281Y8235D01*
X50299Y8198D01*
X50321Y8158D01*
X50324Y8151D01*
X50336Y8133D01*
X50354Y8104D01*
X50375Y8067D01*
X50397Y8024D01*
X50419Y7976D01*
X50441Y7925D01*
X50456Y7875D01*
Y7871D01*
X50459Y7864D01*
Y7853D01*
X50463Y7838D01*
X50467Y7816D01*
X50470Y7791D01*
X50474Y7762D01*
X50477Y7729D01*
X50485Y7693D01*
X50488Y7649D01*
X50492Y7605D01*
X50496Y7554D01*
X50499Y7500D01*
Y7445D01*
X50503Y7383D01*
Y7318D01*
Y7310D01*
Y7292D01*
Y7259D01*
X50499Y7219D01*
Y7168D01*
X50496Y7110D01*
X50488Y7048D01*
X50485Y6979D01*
X50463Y6837D01*
X50437Y6691D01*
X50419Y6622D01*
X50397Y6557D01*
X50375Y6495D01*
X50346Y6440D01*
X50343Y6437D01*
X50339Y6429D01*
X50328Y6415D01*
X50317Y6397D01*
X50281Y6353D01*
X50234Y6302D01*
X50168Y6255D01*
X50092Y6211D01*
X50051Y6193D01*
X50004Y6178D01*
X49953Y6171D01*
X49902Y6167D01*
X49880D01*
X49866Y6171D01*
X49848D01*
X49822Y6175D01*
X49771Y6185D01*
X49706Y6207D01*
X49637Y6236D01*
X49564Y6273D01*
X49527Y6298D01*
X49491Y6328D01*
X49487D01*
X49484Y6335D01*
X49473Y6342D01*
X49458Y6357D01*
X49422Y6389D01*
X49378Y6440D01*
X49327Y6499D01*
X49276Y6571D01*
X49225Y6655D01*
X49182Y6750D01*
X49178Y6757D01*
X49174Y6764D01*
X49171Y6779D01*
X49167Y6797D01*
X49160Y6815D01*
X49152Y6841D01*
X49149Y6870D01*
X49142Y6903D01*
X49134Y6939D01*
X49127Y6983D01*
X49120Y7030D01*
X49112Y7081D01*
X49105Y7136D01*
X49098Y7198D01*
X49094Y7263D01*
Y7267D01*
Y7270D01*
X49091Y7292D01*
X49087Y7321D01*
X49080Y7361D01*
X49065Y7401D01*
X49047Y7449D01*
X49025Y7489D01*
X48992Y7529D01*
X48989Y7532D01*
X48974Y7543D01*
X48952Y7558D01*
X48927Y7572D01*
X48890Y7591D01*
X48850Y7605D01*
X48803Y7616D01*
X48752Y7620D01*
X48727D01*
X48701Y7616D01*
X48665Y7609D01*
X48625Y7594D01*
X48585Y7580D01*
X48541Y7554D01*
X48501Y7521D01*
X48497Y7518D01*
X48486Y7503D01*
X48468Y7481D01*
X48450Y7452D01*
X48432Y7412D01*
X48414Y7368D01*
X48403Y7318D01*
X48399Y7263D01*
Y7259D01*
Y7248D01*
Y7230D01*
Y7208D01*
Y7183D01*
Y7154D01*
Y7088D01*
Y7023D01*
Y6990D01*
Y6961D01*
Y6939D01*
Y6917D01*
Y6903D01*
Y6895D01*
Y6888D01*
X48395Y6870D01*
X48392Y6844D01*
X48381Y6808D01*
X48370Y6768D01*
X48355Y6721D01*
X48337Y6673D01*
X48312Y6622D01*
X48308Y6615D01*
X48297Y6600D01*
X48279Y6575D01*
X48257Y6546D01*
X48228Y6509D01*
X48191Y6473D01*
X48151Y6437D01*
X48104Y6404D01*
X48097Y6400D01*
X48082Y6389D01*
X48057Y6379D01*
X48020Y6360D01*
X47980Y6346D01*
X47937Y6335D01*
X47886Y6324D01*
X47835Y6320D01*
X47813D01*
X47798Y6324D01*
X47758Y6331D01*
X47704Y6346D01*
X47646Y6368D01*
X47584Y6404D01*
X47551Y6426D01*
X47518Y6451D01*
X47485Y6480D01*
X47456Y6517D01*
X47453Y6520D01*
X47449Y6524D01*
X47442Y6539D01*
X47431Y6553D01*
X47420Y6575D01*
X47405Y6597D01*
X47391Y6626D01*
X47372Y6662D01*
X47358Y6699D01*
X47343Y6742D01*
X47329Y6790D01*
X47318Y6844D01*
X47307Y6899D01*
X47300Y6961D01*
X47292Y7030D01*
Y7099D01*
Y7106D01*
Y7121D01*
Y7147D01*
X47296Y7183D01*
X47300Y7223D01*
X47307Y7270D01*
X47318Y7325D01*
X47329Y7383D01*
X47343Y7445D01*
X47362Y7507D01*
X47387Y7572D01*
X47416Y7634D01*
X47449Y7696D01*
X47489Y7758D01*
X47533Y7816D01*
X47584Y7867D01*
X47587Y7871D01*
X47598Y7878D01*
X47613Y7893D01*
X47631Y7911D01*
X47667Y7951D01*
X47682Y7973D01*
X47693Y7991D01*
Y7995D01*
X47700Y8002D01*
X47704Y8016D01*
X47711Y8038D01*
X47718Y8060D01*
X47722Y8089D01*
X47729Y8151D01*
Y8158D01*
Y8173D01*
X47722Y8202D01*
X47715Y8235D01*
X47704Y8271D01*
X47686Y8315D01*
X47660Y8355D01*
X47627Y8395D01*
X47624Y8399D01*
X47609Y8410D01*
X47587Y8428D01*
X47558Y8442D01*
X47522Y8461D01*
X47478Y8479D01*
X47431Y8490D01*
X47376Y8493D01*
X47365D01*
X47354Y8490D01*
X47336D01*
X47314Y8482D01*
X47292Y8475D01*
X47230Y8453D01*
X47198Y8439D01*
X47161Y8417D01*
X47125Y8391D01*
X47085Y8362D01*
X47045Y8326D01*
X47005Y8286D01*
X46961Y8239D01*
X46921Y8184D01*
X46918Y8180D01*
X46907Y8162D01*
X46892Y8137D01*
X46870Y8104D01*
X46845Y8056D01*
X46819Y8005D01*
X46790Y7940D01*
X46757Y7871D01*
X46728Y7794D01*
X46699Y7707D01*
X46674Y7612D01*
X46648Y7514D01*
X46626Y7405D01*
X46612Y7292D01*
X46601Y7172D01*
X46597Y7048D01*
Y7045D01*
Y7041D01*
Y7019D01*
X46601Y6986D01*
X46604Y6943D01*
X46608Y6888D01*
X46615Y6822D01*
X46626Y6753D01*
X46644Y6677D01*
X46663Y6597D01*
X46688Y6513D01*
X46717Y6426D01*
X46754Y6338D01*
X46794Y6255D01*
X46845Y6171D01*
X46899Y6091D01*
X46965Y6015D01*
X46968Y6011D01*
X46983Y5996D01*
X47001Y5978D01*
X47030Y5953D01*
X47067Y5923D01*
X47107Y5891D01*
X47158Y5854D01*
X47212Y5818D01*
X47274Y5782D01*
X47340Y5749D01*
X47412Y5716D01*
X47493Y5687D01*
X47573Y5661D01*
X47660Y5643D01*
X47751Y5629D01*
X47846Y5625D01*
X47893D01*
X47915Y5629D01*
X47944Y5632D01*
X48009Y5640D01*
X48086Y5654D01*
X48170Y5672D01*
X48261Y5701D01*
X48348Y5741D01*
X48352D01*
X48359Y5745D01*
X48370Y5752D01*
X48388Y5763D01*
X48406Y5774D01*
X48432Y5789D01*
X48486Y5829D01*
X48552Y5876D01*
X48625Y5938D01*
X48698Y6007D01*
X48774Y6087D01*
X48778Y6084D01*
X48785Y6073D01*
X48796Y6058D01*
X48810Y6036D01*
X48832Y6011D01*
X48854Y5982D01*
X48883Y5949D01*
X48912Y5912D01*
X48985Y5840D01*
X49069Y5763D01*
X49160Y5687D01*
X49211Y5654D01*
X49262Y5625D01*
X49265Y5621D01*
X49273Y5618D01*
X49291Y5610D01*
X49309Y5599D01*
X49334Y5589D01*
X49367Y5578D01*
X49404Y5563D01*
X49444Y5548D01*
X49487Y5534D01*
X49535Y5519D01*
X49640Y5498D01*
X49757Y5479D01*
X49880Y5472D01*
X49917D01*
X49942Y5476D01*
X49975Y5479D01*
X50015Y5483D01*
X50059Y5490D01*
X50106Y5498D01*
X50157Y5508D01*
X50212Y5523D01*
X50324Y5559D01*
X50386Y5581D01*
X50445Y5607D01*
X50507Y5640D01*
X50565Y5676D01*
X50568Y5680D01*
X50579Y5687D01*
X50594Y5698D01*
X50616Y5712D01*
X50641Y5734D01*
X50670Y5760D01*
X50707Y5789D01*
X50740Y5825D01*
X50780Y5862D01*
X50816Y5905D01*
X50856Y5956D01*
X50896Y6007D01*
X50936Y6065D01*
X50972Y6127D01*
X51005Y6193D01*
X51038Y6262D01*
Y6266D01*
X51045Y6280D01*
X51053Y6302D01*
X51064Y6331D01*
X51074Y6371D01*
X51089Y6415D01*
X51104Y6470D01*
X51118Y6531D01*
X51133Y6600D01*
X51147Y6673D01*
X51162Y6757D01*
X51173Y6844D01*
X51184Y6939D01*
X51191Y7041D01*
X51195Y7150D01*
X51198Y7263D01*
Y7267D01*
Y7270D01*
Y7285D01*
Y7299D01*
Y7318D01*
Y7339D01*
X51195Y7394D01*
X51191Y7463D01*
X51184Y7540D01*
X51176Y7623D01*
X51165Y7714D01*
X51155Y7813D01*
X51136Y7911D01*
X51118Y8013D01*
X51093Y8115D01*
X51064Y8213D01*
X51031Y8308D01*
X50994Y8395D01*
X50951Y8475D01*
Y8479D01*
X50943Y8486D01*
X50936Y8497D01*
X50925Y8512D01*
X50892Y8548D01*
X50852Y8588D01*
X50801Y8628D01*
X50743Y8664D01*
X50714Y8679D01*
X50681Y8690D01*
X50645Y8697D01*
X50609Y8701D01*
X52835D01*
Y678D01*
D02*
G37*
G36*
X92835Y827D02*
X84961D01*
Y8701D01*
X92835D01*
Y827D01*
D02*
G37*
G36*
X82835D02*
X74961D01*
Y8701D01*
X82835D01*
Y827D01*
D02*
G37*
G36*
X72835D02*
X64961D01*
Y8701D01*
X72835D01*
Y827D01*
D02*
G37*
G36*
X62835D02*
X54961D01*
Y8701D01*
X62835D01*
Y827D01*
D02*
G37*
G36*
X1165172Y-186079D02*
X1164886D01*
Y-186365D01*
X1164599D01*
Y-186652D01*
Y-186938D01*
X1164313D01*
Y-187224D01*
X1164027D01*
Y-187511D01*
X1163740D01*
Y-187797D01*
Y-188083D01*
X1163454D01*
Y-188370D01*
X1163168D01*
Y-188656D01*
X1162881D01*
Y-188942D01*
X1162595D01*
Y-189229D01*
Y-189515D01*
X1162309D01*
Y-189801D01*
X1162022D01*
Y-190088D01*
X1161736D01*
Y-190374D01*
Y-190660D01*
X1161450D01*
Y-190946D01*
X1161163D01*
Y-191233D01*
X1160877D01*
Y-191519D01*
X1160591D01*
Y-191806D01*
Y-192092D01*
X1160305D01*
Y-192378D01*
X1160018D01*
Y-192664D01*
X1159732D01*
Y-192951D01*
Y-193237D01*
X1159445D01*
Y-193523D01*
X1159159D01*
Y-193810D01*
X1158873D01*
Y-194096D01*
Y-194382D01*
X1158587D01*
Y-194669D01*
X1158300D01*
Y-194955D01*
X1158014D01*
Y-195241D01*
X1157728D01*
Y-195528D01*
Y-195814D01*
X1157441D01*
Y-196100D01*
X1157155D01*
Y-196387D01*
X1156869D01*
Y-196673D01*
Y-196959D01*
X1156582D01*
Y-197245D01*
X1156296D01*
Y-197532D01*
X1156010D01*
Y-197818D01*
Y-198104D01*
X1155723D01*
Y-198391D01*
X1155437D01*
Y-198677D01*
X1155151D01*
Y-198963D01*
X1154865D01*
Y-199250D01*
Y-199536D01*
X1154578D01*
Y-199822D01*
X1154292D01*
Y-200109D01*
X1154006D01*
Y-200395D01*
Y-200681D01*
X1153719D01*
Y-200968D01*
X1153433D01*
Y-201254D01*
X1153147D01*
Y-201540D01*
Y-201826D01*
X1152860D01*
Y-202113D01*
X1152574D01*
Y-202399D01*
X1152288D01*
Y-202685D01*
X1152001D01*
Y-202972D01*
Y-203258D01*
X1151715D01*
Y-203544D01*
X1151429D01*
Y-203831D01*
X1151142D01*
Y-204117D01*
Y-204403D01*
X1150856D01*
Y-204690D01*
X1150570D01*
Y-204976D01*
X1150284D01*
Y-205262D01*
X1149997D01*
Y-205549D01*
Y-205835D01*
X1150284D01*
Y-206121D01*
Y-206407D01*
X1150570D01*
Y-206694D01*
Y-206980D01*
X1150856D01*
Y-207266D01*
X1151142D01*
Y-207553D01*
Y-207839D01*
X1151429D01*
Y-208125D01*
Y-208412D01*
X1151715D01*
Y-208698D01*
Y-208984D01*
X1152001D01*
Y-209271D01*
Y-209557D01*
X1152288D01*
Y-209843D01*
Y-210129D01*
X1152574D01*
Y-210416D01*
Y-210702D01*
X1152860D01*
Y-210988D01*
Y-211275D01*
X1153147D01*
Y-211561D01*
Y-211847D01*
X1153433D01*
Y-212134D01*
X1153719D01*
Y-212420D01*
Y-212706D01*
X1154006D01*
Y-212993D01*
Y-213279D01*
X1154292D01*
Y-213565D01*
Y-213851D01*
X1154578D01*
Y-214138D01*
Y-214424D01*
X1154865D01*
Y-214710D01*
Y-214997D01*
X1155151D01*
Y-215283D01*
Y-215569D01*
X1155437D01*
Y-215856D01*
Y-216142D01*
X1155723D01*
Y-216428D01*
X1156010D01*
Y-216715D01*
Y-217001D01*
X1156296D01*
Y-217287D01*
Y-217574D01*
X1156582D01*
Y-217860D01*
Y-218146D01*
X1156869D01*
Y-218433D01*
Y-218719D01*
X1157155D01*
Y-219005D01*
Y-219291D01*
X1157441D01*
Y-219578D01*
Y-219864D01*
X1157728D01*
Y-220150D01*
Y-220437D01*
X1158014D01*
Y-220723D01*
X1158300D01*
Y-221009D01*
Y-221296D01*
X1158587D01*
Y-221582D01*
Y-221868D01*
X1158873D01*
Y-222155D01*
X1143698D01*
Y-221868D01*
X1143412D01*
Y-221582D01*
Y-221296D01*
Y-221009D01*
X1143126D01*
Y-220723D01*
Y-220437D01*
Y-220150D01*
X1142839D01*
Y-219864D01*
Y-219578D01*
X1142553D01*
Y-219291D01*
Y-219005D01*
Y-218719D01*
X1142267D01*
Y-218433D01*
Y-218146D01*
Y-217860D01*
X1141980D01*
Y-217574D01*
Y-217287D01*
X1141694D01*
Y-217001D01*
Y-216715D01*
Y-216428D01*
X1141408D01*
Y-216142D01*
Y-215856D01*
Y-215569D01*
X1141121D01*
Y-215283D01*
Y-214997D01*
Y-214710D01*
X1140835D01*
Y-214424D01*
X1140263D01*
Y-214710D01*
Y-214997D01*
X1139976D01*
Y-215283D01*
X1139690D01*
Y-215569D01*
Y-215856D01*
X1139404D01*
Y-216142D01*
X1139117D01*
Y-216428D01*
Y-216715D01*
X1138831D01*
Y-217001D01*
X1138545D01*
Y-217287D01*
Y-217574D01*
X1138258D01*
Y-217860D01*
X1137972D01*
Y-218146D01*
X1137686D01*
Y-218433D01*
Y-218719D01*
X1137399D01*
Y-219005D01*
X1137113D01*
Y-219291D01*
Y-219578D01*
X1136827D01*
Y-219864D01*
X1136541D01*
Y-220150D01*
Y-220437D01*
X1136254D01*
Y-220723D01*
X1135968D01*
Y-221009D01*
Y-221296D01*
X1135682D01*
Y-221582D01*
X1135395D01*
Y-221868D01*
Y-222155D01*
X1119362D01*
Y-221868D01*
X1119648D01*
Y-221582D01*
X1119934D01*
Y-221296D01*
X1120221D01*
Y-221009D01*
X1120507D01*
Y-220723D01*
Y-220437D01*
X1120793D01*
Y-220150D01*
X1121080D01*
Y-219864D01*
X1121366D01*
Y-219578D01*
X1121652D01*
Y-219291D01*
Y-219005D01*
X1121939D01*
Y-218719D01*
X1122225D01*
Y-218433D01*
X1122511D01*
Y-218146D01*
Y-217860D01*
X1122797D01*
Y-217574D01*
X1123084D01*
Y-217287D01*
X1123370D01*
Y-217001D01*
X1123656D01*
Y-216715D01*
Y-216428D01*
X1123943D01*
Y-216142D01*
X1124229D01*
Y-215856D01*
X1124515D01*
Y-215569D01*
X1124802D01*
Y-215283D01*
Y-214997D01*
X1125088D01*
Y-214710D01*
X1125374D01*
Y-214424D01*
X1125661D01*
Y-214138D01*
Y-213851D01*
X1125947D01*
Y-213565D01*
X1126233D01*
Y-213279D01*
X1126519D01*
Y-212993D01*
X1126806D01*
Y-212706D01*
Y-212420D01*
X1127092D01*
Y-212134D01*
X1127378D01*
Y-211847D01*
X1127665D01*
Y-211561D01*
Y-211275D01*
X1127951D01*
Y-210988D01*
X1128237D01*
Y-210702D01*
X1128524D01*
Y-210416D01*
X1128810D01*
Y-210129D01*
Y-209843D01*
X1129096D01*
Y-209557D01*
X1129383D01*
Y-209271D01*
X1129669D01*
Y-208984D01*
Y-208698D01*
X1129955D01*
Y-208412D01*
X1130242D01*
Y-208125D01*
X1130528D01*
Y-207839D01*
X1130814D01*
Y-207553D01*
Y-207266D01*
X1131100D01*
Y-206980D01*
X1131387D01*
Y-206694D01*
X1131673D01*
Y-206407D01*
X1131960D01*
Y-206121D01*
Y-205835D01*
X1132246D01*
Y-205549D01*
X1132532D01*
Y-205262D01*
X1132818D01*
Y-204976D01*
Y-204690D01*
X1133105D01*
Y-204403D01*
X1133391D01*
Y-204117D01*
X1133677D01*
Y-203831D01*
X1133964D01*
Y-203544D01*
Y-203258D01*
X1134250D01*
Y-202972D01*
Y-202685D01*
Y-202399D01*
X1133964D01*
Y-202113D01*
X1133677D01*
Y-201826D01*
Y-201540D01*
X1133391D01*
Y-201254D01*
Y-200968D01*
X1133105D01*
Y-200681D01*
Y-200395D01*
X1132818D01*
Y-200109D01*
Y-199822D01*
X1132532D01*
Y-199536D01*
Y-199250D01*
X1132246D01*
Y-198963D01*
Y-198677D01*
X1131960D01*
Y-198391D01*
X1131673D01*
Y-198104D01*
Y-197818D01*
X1131387D01*
Y-197532D01*
Y-197245D01*
X1131100D01*
Y-196959D01*
Y-196673D01*
X1130814D01*
Y-196387D01*
Y-196100D01*
X1130528D01*
Y-195814D01*
Y-195528D01*
X1130242D01*
Y-195241D01*
Y-194955D01*
X1129955D01*
Y-194669D01*
X1129669D01*
Y-194382D01*
Y-194096D01*
X1129383D01*
Y-193810D01*
Y-193523D01*
X1129096D01*
Y-193237D01*
Y-192951D01*
X1128810D01*
Y-192664D01*
Y-192378D01*
X1128524D01*
Y-192092D01*
Y-191806D01*
X1128237D01*
Y-191519D01*
Y-191233D01*
X1127951D01*
Y-190946D01*
Y-190660D01*
X1127665D01*
Y-190374D01*
X1127378D01*
Y-190088D01*
Y-189801D01*
X1127092D01*
Y-189515D01*
Y-189229D01*
X1126806D01*
Y-188942D01*
Y-188656D01*
X1126519D01*
Y-188370D01*
Y-188083D01*
X1126233D01*
Y-187797D01*
Y-187511D01*
X1125947D01*
Y-187224D01*
Y-186938D01*
X1125661D01*
Y-186652D01*
X1125374D01*
Y-186365D01*
Y-186079D01*
X1125088D01*
Y-185793D01*
X1140835D01*
Y-186079D01*
X1141121D01*
Y-186365D01*
Y-186652D01*
Y-186938D01*
X1141408D01*
Y-187224D01*
Y-187511D01*
Y-187797D01*
X1141694D01*
Y-188083D01*
Y-188370D01*
Y-188656D01*
X1141980D01*
Y-188942D01*
Y-189229D01*
Y-189515D01*
X1142267D01*
Y-189801D01*
Y-190088D01*
Y-190374D01*
X1142553D01*
Y-190660D01*
Y-190946D01*
Y-191233D01*
X1142839D01*
Y-191519D01*
Y-191806D01*
Y-192092D01*
X1143126D01*
Y-192378D01*
Y-192664D01*
Y-192951D01*
X1143412D01*
Y-193237D01*
Y-193523D01*
Y-193810D01*
Y-194096D01*
X1143985D01*
Y-193810D01*
X1144271D01*
Y-193523D01*
X1144557D01*
Y-193237D01*
Y-192951D01*
X1144844D01*
Y-192664D01*
X1145130D01*
Y-192378D01*
Y-192092D01*
X1145416D01*
Y-191806D01*
X1145702D01*
Y-191519D01*
Y-191233D01*
X1145989D01*
Y-190946D01*
X1146275D01*
Y-190660D01*
Y-190374D01*
X1146561D01*
Y-190088D01*
X1146848D01*
Y-189801D01*
Y-189515D01*
X1147134D01*
Y-189229D01*
X1147420D01*
Y-188942D01*
Y-188656D01*
X1147707D01*
Y-188370D01*
X1147993D01*
Y-188083D01*
Y-187797D01*
X1148279D01*
Y-187511D01*
X1148566D01*
Y-187224D01*
Y-186938D01*
X1148852D01*
Y-186652D01*
X1149138D01*
Y-186365D01*
Y-186079D01*
X1149425D01*
Y-185793D01*
X1165172D01*
Y-186079D01*
D02*
G37*
G36*
X1032036Y-172050D02*
X1033754D01*
Y-172336D01*
X1034613D01*
Y-172623D01*
X1035472D01*
Y-172909D01*
X1036331D01*
Y-173195D01*
X1036904D01*
Y-173481D01*
X1037190D01*
Y-173768D01*
X1037763D01*
Y-174054D01*
X1038049D01*
Y-174340D01*
X1038622D01*
Y-174627D01*
X1038908D01*
Y-174913D01*
X1039194D01*
Y-175199D01*
X1039480D01*
Y-175486D01*
X1039767D01*
Y-175772D01*
X1040053D01*
Y-176058D01*
X1040339D01*
Y-176345D01*
Y-176631D01*
X1040626D01*
Y-176917D01*
X1040912D01*
Y-177204D01*
Y-177490D01*
X1041198D01*
Y-177776D01*
X1041485D01*
Y-178062D01*
Y-178349D01*
X1041771D01*
Y-178635D01*
Y-178921D01*
Y-179208D01*
X1042057D01*
Y-179494D01*
Y-179780D01*
Y-180067D01*
X1042344D01*
Y-180353D01*
Y-180639D01*
Y-180926D01*
Y-181212D01*
X1042630D01*
Y-181498D01*
Y-181784D01*
Y-182071D01*
Y-182357D01*
Y-182643D01*
X1042916D01*
Y-182930D01*
Y-183216D01*
Y-183502D01*
Y-183789D01*
Y-184075D01*
Y-184361D01*
Y-184648D01*
Y-184934D01*
Y-185220D01*
Y-185507D01*
Y-185793D01*
Y-186079D01*
Y-186365D01*
Y-186652D01*
Y-186938D01*
Y-187224D01*
Y-187511D01*
Y-187797D01*
Y-188083D01*
Y-188370D01*
X1042630D01*
Y-188656D01*
Y-188942D01*
Y-189229D01*
Y-189515D01*
Y-189801D01*
Y-190088D01*
Y-190374D01*
X1042344D01*
Y-190660D01*
Y-190946D01*
Y-191233D01*
Y-191519D01*
Y-191806D01*
X1042057D01*
Y-192092D01*
Y-192378D01*
Y-192664D01*
Y-192951D01*
Y-193237D01*
X1041771D01*
Y-193523D01*
Y-193810D01*
Y-194096D01*
X1041485D01*
Y-194382D01*
Y-194669D01*
Y-194955D01*
Y-195241D01*
X1041198D01*
Y-195528D01*
Y-195814D01*
Y-196100D01*
X1040912D01*
Y-196387D01*
Y-196673D01*
X1040626D01*
Y-196959D01*
Y-197245D01*
Y-197532D01*
X1040339D01*
Y-197818D01*
Y-198104D01*
X1040053D01*
Y-198391D01*
Y-198677D01*
X1039767D01*
Y-198963D01*
Y-199250D01*
X1039480D01*
Y-199536D01*
X1039194D01*
Y-199822D01*
Y-200109D01*
X1038908D01*
Y-200395D01*
X1038622D01*
Y-200681D01*
X1038335D01*
Y-200968D01*
Y-201254D01*
X1038049D01*
Y-201540D01*
X1037763D01*
Y-201826D01*
X1037476D01*
Y-202113D01*
X1037190D01*
Y-202399D01*
X1036904D01*
Y-202685D01*
X1036331D01*
Y-202972D01*
X1036045D01*
Y-203258D01*
X1035472D01*
Y-203544D01*
X1035186D01*
Y-203831D01*
X1034613D01*
Y-204117D01*
X1033754D01*
Y-204403D01*
X1032895D01*
Y-204690D01*
X1032036D01*
Y-204976D01*
X1030318D01*
Y-205262D01*
X1025165D01*
Y-204976D01*
X1022588D01*
Y-204690D01*
X1020584D01*
Y-204403D01*
X1019152D01*
Y-204117D01*
X1017721D01*
Y-203831D01*
X1016289D01*
Y-204117D01*
Y-204403D01*
Y-204690D01*
Y-204976D01*
Y-205262D01*
Y-205549D01*
Y-205835D01*
X1016003D01*
Y-206121D01*
Y-206407D01*
Y-206694D01*
Y-206980D01*
Y-207266D01*
Y-207553D01*
X1015716D01*
Y-207839D01*
Y-208125D01*
Y-208412D01*
Y-208698D01*
Y-208984D01*
Y-209271D01*
X1015430D01*
Y-209557D01*
Y-209843D01*
Y-210129D01*
Y-210416D01*
Y-210702D01*
Y-210988D01*
Y-211275D01*
X1015144D01*
Y-211561D01*
Y-211847D01*
Y-212134D01*
Y-212420D01*
Y-212706D01*
Y-212993D01*
X1014857D01*
Y-213279D01*
Y-213565D01*
Y-213851D01*
Y-214138D01*
Y-214424D01*
Y-214710D01*
X1014571D01*
Y-214997D01*
Y-215283D01*
Y-215569D01*
Y-215856D01*
Y-216142D01*
Y-216428D01*
Y-216715D01*
X1014285D01*
Y-217001D01*
Y-217287D01*
Y-217574D01*
Y-217860D01*
Y-218146D01*
Y-218433D01*
X1013999D01*
Y-218719D01*
Y-219005D01*
Y-219291D01*
Y-219578D01*
Y-219864D01*
Y-220150D01*
X1013712D01*
Y-220437D01*
Y-220723D01*
Y-221009D01*
Y-221296D01*
Y-221582D01*
Y-221868D01*
Y-222155D01*
X1000256D01*
Y-221868D01*
X1000542D01*
Y-221582D01*
Y-221296D01*
Y-221009D01*
Y-220723D01*
Y-220437D01*
X1000828D01*
Y-220150D01*
Y-219864D01*
Y-219578D01*
Y-219291D01*
Y-219005D01*
Y-218719D01*
Y-218433D01*
X1001114D01*
Y-218146D01*
Y-217860D01*
Y-217574D01*
Y-217287D01*
Y-217001D01*
Y-216715D01*
X1001401D01*
Y-216428D01*
Y-216142D01*
Y-215856D01*
Y-215569D01*
Y-215283D01*
Y-214997D01*
X1001687D01*
Y-214710D01*
Y-214424D01*
Y-214138D01*
Y-213851D01*
Y-213565D01*
Y-213279D01*
Y-212993D01*
X1001974D01*
Y-212706D01*
Y-212420D01*
Y-212134D01*
Y-211847D01*
Y-211561D01*
Y-211275D01*
X1002260D01*
Y-210988D01*
Y-210702D01*
Y-210416D01*
Y-210129D01*
Y-209843D01*
Y-209557D01*
X1002546D01*
Y-209271D01*
Y-208984D01*
Y-208698D01*
Y-208412D01*
Y-208125D01*
Y-207839D01*
X1002832D01*
Y-207553D01*
Y-207266D01*
Y-206980D01*
Y-206694D01*
Y-206407D01*
Y-206121D01*
Y-205835D01*
X1003119D01*
Y-205549D01*
Y-205262D01*
Y-204976D01*
Y-204690D01*
Y-204403D01*
Y-204117D01*
X1003405D01*
Y-203831D01*
Y-203544D01*
Y-203258D01*
Y-202972D01*
Y-202685D01*
Y-202399D01*
X1003691D01*
Y-202113D01*
Y-201826D01*
Y-201540D01*
Y-201254D01*
Y-200968D01*
Y-200681D01*
X1003978D01*
Y-200395D01*
Y-200109D01*
Y-199822D01*
Y-199536D01*
Y-199250D01*
Y-198963D01*
Y-198677D01*
X1004264D01*
Y-198391D01*
Y-198104D01*
Y-197818D01*
Y-197532D01*
Y-197245D01*
Y-196959D01*
X1004550D01*
Y-196673D01*
Y-196387D01*
Y-196100D01*
Y-195814D01*
Y-195528D01*
Y-195241D01*
X1004837D01*
Y-194955D01*
Y-194669D01*
Y-194382D01*
Y-194096D01*
Y-193810D01*
Y-193523D01*
Y-193237D01*
X1005123D01*
Y-192951D01*
Y-192664D01*
Y-192378D01*
Y-192092D01*
Y-191806D01*
Y-191519D01*
X1005409D01*
Y-191233D01*
Y-190946D01*
Y-190660D01*
Y-190374D01*
Y-190088D01*
Y-189801D01*
X1005696D01*
Y-189515D01*
Y-189229D01*
Y-188942D01*
Y-188656D01*
Y-188370D01*
Y-188083D01*
X1005982D01*
Y-187797D01*
Y-187511D01*
Y-187224D01*
Y-186938D01*
Y-186652D01*
Y-186365D01*
Y-186079D01*
X1006268D01*
Y-185793D01*
Y-185507D01*
Y-185220D01*
Y-184934D01*
Y-184648D01*
Y-184361D01*
X1006555D01*
Y-184075D01*
Y-183789D01*
Y-183502D01*
Y-183216D01*
Y-182930D01*
Y-182643D01*
X1006841D01*
Y-182357D01*
Y-182071D01*
Y-181784D01*
Y-181498D01*
Y-181212D01*
Y-180926D01*
Y-180639D01*
X1007127D01*
Y-180353D01*
Y-180067D01*
Y-179780D01*
Y-179494D01*
Y-179208D01*
Y-178921D01*
X1007413D01*
Y-178635D01*
Y-178349D01*
Y-178062D01*
Y-177776D01*
Y-177490D01*
Y-177204D01*
X1007700D01*
Y-176917D01*
Y-176631D01*
Y-176345D01*
Y-176058D01*
Y-175772D01*
Y-175486D01*
Y-175199D01*
X1007986D01*
Y-174913D01*
Y-174627D01*
Y-174340D01*
Y-174054D01*
Y-173768D01*
Y-173481D01*
X1008272D01*
Y-173195D01*
Y-172909D01*
Y-172623D01*
Y-172336D01*
Y-172050D01*
Y-171764D01*
X1032036D01*
Y-172050D01*
D02*
G37*
G36*
X1121080Y-186079D02*
Y-186365D01*
Y-186652D01*
Y-186938D01*
Y-187224D01*
Y-187511D01*
Y-187797D01*
Y-188083D01*
Y-188370D01*
Y-188656D01*
Y-188942D01*
Y-189229D01*
Y-189515D01*
Y-189801D01*
Y-190088D01*
Y-190374D01*
Y-190660D01*
Y-190946D01*
Y-191233D01*
Y-191519D01*
Y-191806D01*
X1120793D01*
Y-192092D01*
Y-192378D01*
Y-192664D01*
Y-192951D01*
Y-193237D01*
X1120507D01*
Y-193523D01*
Y-193810D01*
Y-194096D01*
Y-194382D01*
X1120221D01*
Y-194669D01*
Y-194955D01*
Y-195241D01*
Y-195528D01*
X1119934D01*
Y-195814D01*
Y-196100D01*
Y-196387D01*
X1119648D01*
Y-196673D01*
Y-196959D01*
Y-197245D01*
X1119362D01*
Y-197532D01*
Y-197818D01*
Y-198104D01*
X1119075D01*
Y-198391D01*
Y-198677D01*
Y-198963D01*
X1118789D01*
Y-199250D01*
Y-199536D01*
X1118503D01*
Y-199822D01*
Y-200109D01*
X1118217D01*
Y-200395D01*
Y-200681D01*
Y-200968D01*
X1117930D01*
Y-201254D01*
Y-201540D01*
X1117644D01*
Y-201826D01*
Y-202113D01*
Y-202399D01*
X1117358D01*
Y-202685D01*
Y-202972D01*
X1117071D01*
Y-203258D01*
Y-203544D01*
Y-203831D01*
X1116785D01*
Y-204117D01*
Y-204403D01*
X1116499D01*
Y-204690D01*
Y-204976D01*
Y-205262D01*
X1116212D01*
Y-205549D01*
Y-205835D01*
X1115926D01*
Y-206121D01*
Y-206407D01*
Y-206694D01*
X1115640D01*
Y-206980D01*
Y-207266D01*
X1115353D01*
Y-207553D01*
Y-207839D01*
Y-208125D01*
X1115067D01*
Y-208412D01*
Y-208698D01*
X1114781D01*
Y-208984D01*
Y-209271D01*
Y-209557D01*
X1114494D01*
Y-209843D01*
Y-210129D01*
X1114208D01*
Y-210416D01*
Y-210702D01*
Y-210988D01*
X1113922D01*
Y-211275D01*
Y-211561D01*
X1113636D01*
Y-211847D01*
Y-212134D01*
Y-212420D01*
X1113349D01*
Y-212706D01*
Y-212993D01*
X1113063D01*
Y-213279D01*
Y-213565D01*
Y-213851D01*
X1112776D01*
Y-214138D01*
Y-214424D01*
X1112490D01*
Y-214710D01*
Y-214997D01*
Y-215283D01*
X1112204D01*
Y-215569D01*
Y-215856D01*
X1111918D01*
Y-216142D01*
Y-216428D01*
Y-216715D01*
X1111631D01*
Y-217001D01*
Y-217287D01*
X1111345D01*
Y-217574D01*
Y-217860D01*
Y-218146D01*
X1111059D01*
Y-218433D01*
Y-218719D01*
X1110772D01*
Y-219005D01*
Y-219291D01*
Y-219578D01*
X1110486D01*
Y-219864D01*
Y-220150D01*
X1110200D01*
Y-220437D01*
Y-220723D01*
Y-221009D01*
X1109913D01*
Y-221296D01*
Y-221582D01*
X1109627D01*
Y-221868D01*
Y-222155D01*
Y-222441D01*
X1109341D01*
Y-222727D01*
Y-223014D01*
X1109054D01*
Y-223300D01*
Y-223586D01*
X1108768D01*
Y-223872D01*
Y-224159D01*
X1108482D01*
Y-224445D01*
Y-224731D01*
Y-225018D01*
X1108195D01*
Y-225304D01*
X1107909D01*
Y-225590D01*
Y-225877D01*
Y-226163D01*
X1107623D01*
Y-226449D01*
X1107337D01*
Y-226736D01*
Y-227022D01*
X1107050D01*
Y-227308D01*
Y-227595D01*
X1106764D01*
Y-227881D01*
Y-228167D01*
X1106478D01*
Y-228453D01*
Y-228740D01*
X1106191D01*
Y-229026D01*
X1105905D01*
Y-229312D01*
Y-229599D01*
X1105619D01*
Y-229885D01*
Y-230171D01*
X1105332D01*
Y-230458D01*
X1105046D01*
Y-230744D01*
X1104760D01*
Y-231030D01*
Y-231317D01*
X1104473D01*
Y-231603D01*
X1104187D01*
Y-231889D01*
Y-232176D01*
X1103901D01*
Y-232462D01*
X1103615D01*
Y-232748D01*
X1103328D01*
Y-233034D01*
Y-233321D01*
X1103042D01*
Y-233607D01*
X1102756D01*
Y-233893D01*
X1102469D01*
Y-234180D01*
X1102183D01*
Y-234466D01*
X1101897D01*
Y-234752D01*
Y-235039D01*
X1101610D01*
Y-235325D01*
X1101324D01*
Y-235611D01*
X1101038D01*
Y-235898D01*
X1100751D01*
Y-236184D01*
X1100465D01*
Y-236470D01*
X1100179D01*
Y-236757D01*
X1099892D01*
Y-237043D01*
X1099320D01*
Y-237329D01*
X1099034D01*
Y-237615D01*
X1098747D01*
Y-237902D01*
X1098461D01*
Y-238188D01*
X1098175D01*
Y-238474D01*
X1097602D01*
Y-238761D01*
X1097316D01*
Y-239047D01*
X1096743D01*
Y-239333D01*
X1096457D01*
Y-239620D01*
X1095884D01*
Y-239906D01*
X1095598D01*
Y-240192D01*
X1095025D01*
Y-240479D01*
X1094452D01*
Y-240765D01*
X1093880D01*
Y-241051D01*
X1093307D01*
Y-241338D01*
X1092735D01*
Y-241624D01*
X1091876D01*
Y-241910D01*
X1091303D01*
Y-242196D01*
X1090444D01*
Y-242483D01*
X1089299D01*
Y-242769D01*
X1088154D01*
Y-243056D01*
X1086436D01*
Y-243342D01*
X1084432D01*
Y-243628D01*
X1084145D01*
Y-243342D01*
Y-243056D01*
Y-242769D01*
Y-242483D01*
Y-242196D01*
Y-241910D01*
Y-241624D01*
Y-241338D01*
Y-241051D01*
Y-240765D01*
Y-240479D01*
Y-240192D01*
Y-239906D01*
Y-239620D01*
Y-239333D01*
Y-239047D01*
Y-238761D01*
Y-238474D01*
Y-238188D01*
Y-237902D01*
Y-237615D01*
Y-237329D01*
Y-237043D01*
Y-236757D01*
Y-236470D01*
Y-236184D01*
Y-235898D01*
Y-235611D01*
Y-235325D01*
Y-235039D01*
Y-234752D01*
Y-234466D01*
Y-234180D01*
X1084718D01*
Y-233893D01*
X1085291D01*
Y-233607D01*
X1085863D01*
Y-233321D01*
X1086436D01*
Y-233034D01*
X1087008D01*
Y-232748D01*
X1087581D01*
Y-232462D01*
X1087867D01*
Y-232176D01*
X1088440D01*
Y-231889D01*
X1088726D01*
Y-231603D01*
X1089299D01*
Y-231317D01*
X1089585D01*
Y-231030D01*
X1089872D01*
Y-230744D01*
X1090444D01*
Y-230458D01*
X1090730D01*
Y-230171D01*
X1091017D01*
Y-229885D01*
X1091303D01*
Y-229599D01*
X1091589D01*
Y-229312D01*
X1091876D01*
Y-229026D01*
X1092162D01*
Y-228740D01*
X1092448D01*
Y-228453D01*
X1092735D01*
Y-228167D01*
X1093021D01*
Y-227881D01*
X1093307D01*
Y-227595D01*
X1093594D01*
Y-227308D01*
Y-227022D01*
X1093880D01*
Y-226736D01*
X1094166D01*
Y-226449D01*
X1094452D01*
Y-226163D01*
Y-225877D01*
X1094739D01*
Y-225590D01*
X1095025D01*
Y-225304D01*
Y-225018D01*
X1095311D01*
Y-224731D01*
Y-224445D01*
X1095598D01*
Y-224159D01*
X1095884D01*
Y-223872D01*
Y-223586D01*
X1096170D01*
Y-223300D01*
Y-223014D01*
X1096457D01*
Y-222727D01*
Y-222441D01*
X1094739D01*
Y-222155D01*
X1092735D01*
Y-221868D01*
X1091589D01*
Y-221582D01*
X1091017D01*
Y-221296D01*
X1090158D01*
Y-221009D01*
X1089585D01*
Y-220723D01*
X1089299D01*
Y-220437D01*
X1088726D01*
Y-220150D01*
X1088440D01*
Y-219864D01*
X1088154D01*
Y-219578D01*
X1087867D01*
Y-219291D01*
X1087581D01*
Y-219005D01*
X1087295D01*
Y-218719D01*
Y-218433D01*
X1087008D01*
Y-218146D01*
X1086722D01*
Y-217860D01*
Y-217574D01*
X1086436D01*
Y-217287D01*
Y-217001D01*
X1086149D01*
Y-216715D01*
Y-216428D01*
X1085863D01*
Y-216142D01*
Y-215856D01*
Y-215569D01*
X1085577D01*
Y-215283D01*
Y-214997D01*
Y-214710D01*
Y-214424D01*
X1085291D01*
Y-214138D01*
Y-213851D01*
Y-213565D01*
Y-213279D01*
Y-212993D01*
Y-212706D01*
Y-212420D01*
X1085004D01*
Y-212134D01*
Y-211847D01*
Y-211561D01*
Y-211275D01*
Y-210988D01*
Y-210702D01*
Y-210416D01*
Y-210129D01*
Y-209843D01*
Y-209557D01*
Y-209271D01*
Y-208984D01*
Y-208698D01*
Y-208412D01*
Y-208125D01*
X1084718D01*
Y-207839D01*
Y-207553D01*
Y-207266D01*
Y-206980D01*
Y-206694D01*
Y-206407D01*
Y-206121D01*
Y-205835D01*
Y-205549D01*
Y-205262D01*
Y-204976D01*
Y-204690D01*
Y-204403D01*
Y-204117D01*
Y-203831D01*
X1084432D01*
Y-203544D01*
Y-203258D01*
Y-202972D01*
Y-202685D01*
Y-202399D01*
Y-202113D01*
Y-201826D01*
Y-201540D01*
Y-201254D01*
Y-200968D01*
Y-200681D01*
Y-200395D01*
Y-200109D01*
Y-199822D01*
Y-199536D01*
Y-199250D01*
X1084145D01*
Y-198963D01*
Y-198677D01*
Y-198391D01*
Y-198104D01*
Y-197818D01*
Y-197532D01*
Y-197245D01*
Y-196959D01*
Y-196673D01*
Y-196387D01*
Y-196100D01*
Y-195814D01*
Y-195528D01*
Y-195241D01*
Y-194955D01*
Y-194669D01*
X1083859D01*
Y-194382D01*
Y-194096D01*
Y-193810D01*
Y-193523D01*
Y-193237D01*
Y-192951D01*
Y-192664D01*
Y-192378D01*
Y-192092D01*
Y-191806D01*
Y-191519D01*
Y-191233D01*
Y-190946D01*
Y-190660D01*
X1083573D01*
Y-190374D01*
Y-190088D01*
Y-189801D01*
Y-189515D01*
Y-189229D01*
Y-188942D01*
Y-188656D01*
Y-188370D01*
Y-188083D01*
Y-187797D01*
Y-187511D01*
Y-187224D01*
Y-186938D01*
Y-186652D01*
Y-186365D01*
Y-186079D01*
X1083286D01*
Y-185793D01*
X1097029D01*
Y-186079D01*
Y-186365D01*
Y-186652D01*
Y-186938D01*
Y-187224D01*
Y-187511D01*
Y-187797D01*
Y-188083D01*
Y-188370D01*
Y-188656D01*
Y-188942D01*
Y-189229D01*
Y-189515D01*
Y-189801D01*
X1097316D01*
Y-190088D01*
Y-190374D01*
Y-190660D01*
Y-190946D01*
Y-191233D01*
Y-191519D01*
Y-191806D01*
Y-192092D01*
Y-192378D01*
Y-192664D01*
Y-192951D01*
Y-193237D01*
Y-193523D01*
Y-193810D01*
Y-194096D01*
Y-194382D01*
Y-194669D01*
Y-194955D01*
Y-195241D01*
Y-195528D01*
Y-195814D01*
Y-196100D01*
Y-196387D01*
Y-196673D01*
Y-196959D01*
Y-197245D01*
Y-197532D01*
Y-197818D01*
Y-198104D01*
Y-198391D01*
Y-198677D01*
Y-198963D01*
Y-199250D01*
Y-199536D01*
Y-199822D01*
Y-200109D01*
Y-200395D01*
Y-200681D01*
Y-200968D01*
Y-201254D01*
Y-201540D01*
X1097602D01*
Y-201826D01*
X1097316D01*
Y-202113D01*
Y-202399D01*
X1097602D01*
Y-202685D01*
Y-202972D01*
Y-203258D01*
Y-203544D01*
Y-203831D01*
Y-204117D01*
Y-204403D01*
Y-204690D01*
Y-204976D01*
Y-205262D01*
Y-205549D01*
Y-205835D01*
Y-206121D01*
Y-206407D01*
Y-206694D01*
Y-206980D01*
Y-207266D01*
Y-207553D01*
Y-207839D01*
Y-208125D01*
Y-208412D01*
Y-208698D01*
Y-208984D01*
Y-209271D01*
Y-209557D01*
Y-209843D01*
X1097888D01*
Y-210129D01*
Y-210416D01*
Y-210702D01*
X1098175D01*
Y-210988D01*
X1098461D01*
Y-211275D01*
X1098747D01*
Y-211561D01*
X1099606D01*
Y-211847D01*
X1100465D01*
Y-211561D01*
X1100751D01*
Y-211275D01*
Y-210988D01*
Y-210702D01*
X1101038D01*
Y-210416D01*
Y-210129D01*
X1101324D01*
Y-209843D01*
Y-209557D01*
Y-209271D01*
X1101610D01*
Y-208984D01*
Y-208698D01*
Y-208412D01*
X1101897D01*
Y-208125D01*
Y-207839D01*
Y-207553D01*
X1102183D01*
Y-207266D01*
Y-206980D01*
Y-206694D01*
X1102469D01*
Y-206407D01*
Y-206121D01*
X1102756D01*
Y-205835D01*
Y-205549D01*
Y-205262D01*
X1103042D01*
Y-204976D01*
Y-204690D01*
Y-204403D01*
X1103328D01*
Y-204117D01*
Y-203831D01*
Y-203544D01*
X1103615D01*
Y-203258D01*
Y-202972D01*
X1103901D01*
Y-202685D01*
Y-202399D01*
Y-202113D01*
X1104187D01*
Y-201826D01*
Y-201540D01*
Y-201254D01*
X1104473D01*
Y-200968D01*
Y-200681D01*
Y-200395D01*
X1104760D01*
Y-200109D01*
Y-199822D01*
X1105046D01*
Y-199536D01*
Y-199250D01*
Y-198963D01*
X1105332D01*
Y-198677D01*
Y-198391D01*
Y-198104D01*
X1105619D01*
Y-197818D01*
Y-197532D01*
Y-197245D01*
X1105905D01*
Y-196959D01*
Y-196673D01*
X1106191D01*
Y-196387D01*
Y-196100D01*
Y-195814D01*
X1106478D01*
Y-195528D01*
Y-195241D01*
Y-194955D01*
X1106764D01*
Y-194669D01*
Y-194382D01*
Y-194096D01*
X1107050D01*
Y-193810D01*
Y-193523D01*
Y-193237D01*
Y-192951D01*
X1107337D01*
Y-192664D01*
Y-192378D01*
Y-192092D01*
Y-191806D01*
X1107623D01*
Y-191519D01*
Y-191233D01*
Y-190946D01*
Y-190660D01*
Y-190374D01*
X1107909D01*
Y-190088D01*
Y-189801D01*
Y-189515D01*
Y-189229D01*
Y-188942D01*
Y-188656D01*
X1108195D01*
Y-188370D01*
Y-188083D01*
Y-187797D01*
Y-187511D01*
Y-187224D01*
Y-186938D01*
Y-186652D01*
Y-186365D01*
Y-186079D01*
Y-185793D01*
X1121080D01*
Y-186079D01*
D02*
G37*
G36*
X1063244Y-168614D02*
Y-168900D01*
X1062958D01*
Y-169187D01*
Y-169473D01*
Y-169759D01*
Y-170046D01*
Y-170332D01*
Y-170618D01*
X1062672D01*
Y-170905D01*
Y-171191D01*
Y-171477D01*
Y-171764D01*
Y-172050D01*
Y-172336D01*
X1062385D01*
Y-172623D01*
Y-172909D01*
Y-173195D01*
Y-173481D01*
Y-173768D01*
Y-174054D01*
Y-174340D01*
X1062099D01*
Y-174627D01*
Y-174913D01*
Y-175199D01*
Y-175486D01*
Y-175772D01*
Y-176058D01*
X1061813D01*
Y-176345D01*
Y-176631D01*
Y-176917D01*
Y-177204D01*
Y-177490D01*
Y-177776D01*
X1061526D01*
Y-178062D01*
Y-178349D01*
Y-178635D01*
Y-178921D01*
Y-179208D01*
Y-179494D01*
Y-179780D01*
X1061240D01*
Y-180067D01*
Y-180353D01*
Y-180639D01*
Y-180926D01*
Y-181212D01*
Y-181498D01*
X1060954D01*
Y-181784D01*
Y-182071D01*
Y-182357D01*
Y-182643D01*
Y-182930D01*
Y-183216D01*
X1060668D01*
Y-183502D01*
Y-183789D01*
Y-184075D01*
Y-184361D01*
Y-184648D01*
Y-184934D01*
X1060381D01*
Y-185220D01*
Y-185507D01*
Y-185793D01*
Y-186079D01*
Y-186365D01*
Y-186652D01*
Y-186938D01*
X1060095D01*
Y-187224D01*
Y-187511D01*
Y-187797D01*
Y-188083D01*
Y-188370D01*
Y-188656D01*
X1059809D01*
Y-188942D01*
Y-189229D01*
X1060381D01*
Y-188942D01*
X1060668D01*
Y-188656D01*
X1060954D01*
Y-188370D01*
X1061526D01*
Y-188083D01*
X1061813D01*
Y-187797D01*
X1062099D01*
Y-187511D01*
X1062672D01*
Y-187224D01*
X1063244D01*
Y-186938D01*
X1063531D01*
Y-186652D01*
X1064103D01*
Y-186365D01*
X1064962D01*
Y-186079D01*
X1065535D01*
Y-185793D01*
X1066394D01*
Y-185507D01*
X1067825D01*
Y-185220D01*
X1074124D01*
Y-185507D01*
X1075270D01*
Y-185793D01*
X1076128D01*
Y-186079D01*
X1076701D01*
Y-186365D01*
X1076987D01*
Y-186652D01*
X1077560D01*
Y-186938D01*
X1077846D01*
Y-187224D01*
X1078133D01*
Y-187511D01*
X1078419D01*
Y-187797D01*
X1078705D01*
Y-188083D01*
Y-188370D01*
X1078992D01*
Y-188656D01*
Y-188942D01*
X1079278D01*
Y-189229D01*
Y-189515D01*
Y-189801D01*
X1079564D01*
Y-190088D01*
Y-190374D01*
Y-190660D01*
Y-190946D01*
X1079850D01*
Y-191233D01*
Y-191519D01*
Y-191806D01*
Y-192092D01*
Y-192378D01*
Y-192664D01*
Y-192951D01*
Y-193237D01*
Y-193523D01*
Y-193810D01*
Y-194096D01*
Y-194382D01*
Y-194669D01*
Y-194955D01*
Y-195241D01*
Y-195528D01*
Y-195814D01*
Y-196100D01*
X1079564D01*
Y-196387D01*
Y-196673D01*
Y-196959D01*
Y-197245D01*
Y-197532D01*
Y-197818D01*
Y-198104D01*
X1079278D01*
Y-198391D01*
Y-198677D01*
Y-198963D01*
Y-199250D01*
Y-199536D01*
Y-199822D01*
Y-200109D01*
X1078992D01*
Y-200395D01*
Y-200681D01*
Y-200968D01*
Y-201254D01*
Y-201540D01*
Y-201826D01*
X1078705D01*
Y-202113D01*
Y-202399D01*
Y-202685D01*
Y-202972D01*
Y-203258D01*
Y-203544D01*
X1078419D01*
Y-203831D01*
Y-204117D01*
Y-204403D01*
Y-204690D01*
Y-204976D01*
Y-205262D01*
X1078133D01*
Y-205549D01*
Y-205835D01*
Y-206121D01*
Y-206407D01*
Y-206694D01*
Y-206980D01*
Y-207266D01*
X1077846D01*
Y-207553D01*
Y-207839D01*
Y-208125D01*
Y-208412D01*
Y-208698D01*
Y-208984D01*
X1077560D01*
Y-209271D01*
Y-209557D01*
Y-209843D01*
Y-210129D01*
Y-210416D01*
Y-210702D01*
X1077274D01*
Y-210988D01*
Y-211275D01*
Y-211561D01*
Y-211847D01*
Y-212134D01*
Y-212420D01*
Y-212706D01*
X1076987D01*
Y-212993D01*
Y-213279D01*
Y-213565D01*
Y-213851D01*
Y-214138D01*
Y-214424D01*
X1076701D01*
Y-214710D01*
Y-214997D01*
Y-215283D01*
Y-215569D01*
Y-215856D01*
Y-216142D01*
X1076415D01*
Y-216428D01*
Y-216715D01*
Y-217001D01*
Y-217287D01*
Y-217574D01*
Y-217860D01*
X1076128D01*
Y-218146D01*
Y-218433D01*
Y-218719D01*
Y-219005D01*
Y-219291D01*
Y-219578D01*
Y-219864D01*
X1075842D01*
Y-220150D01*
Y-220437D01*
Y-220723D01*
Y-221009D01*
Y-221296D01*
Y-221582D01*
X1075556D01*
Y-221868D01*
Y-222155D01*
X1062385D01*
Y-221868D01*
Y-221582D01*
X1062672D01*
Y-221296D01*
Y-221009D01*
Y-220723D01*
Y-220437D01*
Y-220150D01*
Y-219864D01*
X1062958D01*
Y-219578D01*
Y-219291D01*
Y-219005D01*
Y-218719D01*
Y-218433D01*
Y-218146D01*
Y-217860D01*
X1063244D01*
Y-217574D01*
Y-217287D01*
Y-217001D01*
Y-216715D01*
Y-216428D01*
Y-216142D01*
X1063531D01*
Y-215856D01*
Y-215569D01*
Y-215283D01*
Y-214997D01*
Y-214710D01*
Y-214424D01*
X1063817D01*
Y-214138D01*
Y-213851D01*
Y-213565D01*
Y-213279D01*
Y-212993D01*
Y-212706D01*
Y-212420D01*
X1064103D01*
Y-212134D01*
Y-211847D01*
Y-211561D01*
Y-211275D01*
Y-210988D01*
Y-210702D01*
X1064390D01*
Y-210416D01*
Y-210129D01*
Y-209843D01*
Y-209557D01*
Y-209271D01*
Y-208984D01*
Y-208698D01*
X1064676D01*
Y-208412D01*
Y-208125D01*
Y-207839D01*
Y-207553D01*
Y-207266D01*
Y-206980D01*
X1064962D01*
Y-206694D01*
Y-206407D01*
Y-206121D01*
Y-205835D01*
Y-205549D01*
Y-205262D01*
X1065249D01*
Y-204976D01*
Y-204690D01*
Y-204403D01*
Y-204117D01*
Y-203831D01*
Y-203544D01*
X1065535D01*
Y-203258D01*
Y-202972D01*
Y-202685D01*
Y-202399D01*
Y-202113D01*
Y-201826D01*
Y-201540D01*
X1065821D01*
Y-201254D01*
Y-200968D01*
Y-200681D01*
Y-200395D01*
Y-200109D01*
Y-199822D01*
X1066107D01*
Y-199536D01*
Y-199250D01*
Y-198963D01*
Y-198677D01*
Y-198391D01*
Y-198104D01*
Y-197818D01*
X1066394D01*
Y-197532D01*
Y-197245D01*
Y-196959D01*
Y-196673D01*
Y-196387D01*
Y-196100D01*
X1066107D01*
Y-195814D01*
Y-195528D01*
X1065821D01*
Y-195241D01*
X1065535D01*
Y-194955D01*
X1064962D01*
Y-194669D01*
X1063244D01*
Y-194955D01*
X1061813D01*
Y-195241D01*
X1060954D01*
Y-195528D01*
X1060381D01*
Y-195814D01*
X1060095D01*
Y-196100D01*
X1059522D01*
Y-196387D01*
X1059236D01*
Y-196673D01*
X1058950D01*
Y-196959D01*
Y-197245D01*
X1058663D01*
Y-197532D01*
Y-197818D01*
Y-198104D01*
X1058377D01*
Y-198391D01*
Y-198677D01*
Y-198963D01*
Y-199250D01*
Y-199536D01*
Y-199822D01*
X1058091D01*
Y-200109D01*
Y-200395D01*
Y-200681D01*
Y-200968D01*
Y-201254D01*
Y-201540D01*
Y-201826D01*
X1057804D01*
Y-202113D01*
Y-202399D01*
Y-202685D01*
Y-202972D01*
Y-203258D01*
Y-203544D01*
X1057518D01*
Y-203831D01*
Y-204117D01*
Y-204403D01*
Y-204690D01*
Y-204976D01*
Y-205262D01*
X1057232D01*
Y-205549D01*
Y-205835D01*
Y-206121D01*
Y-206407D01*
Y-206694D01*
Y-206980D01*
X1056946D01*
Y-207266D01*
Y-207553D01*
Y-207839D01*
Y-208125D01*
Y-208412D01*
Y-208698D01*
Y-208984D01*
X1056659D01*
Y-209271D01*
Y-209557D01*
Y-209843D01*
Y-210129D01*
Y-210416D01*
Y-210702D01*
X1056373D01*
Y-210988D01*
Y-211275D01*
Y-211561D01*
Y-211847D01*
Y-212134D01*
Y-212420D01*
X1056087D01*
Y-212706D01*
Y-212993D01*
Y-213279D01*
Y-213565D01*
Y-213851D01*
Y-214138D01*
Y-214424D01*
X1055800D01*
Y-214710D01*
Y-214997D01*
Y-215283D01*
Y-215569D01*
Y-215856D01*
Y-216142D01*
X1055514D01*
Y-216428D01*
Y-216715D01*
Y-217001D01*
Y-217287D01*
Y-217574D01*
Y-217860D01*
X1055228D01*
Y-218146D01*
Y-218433D01*
Y-218719D01*
Y-219005D01*
Y-219291D01*
Y-219578D01*
X1054941D01*
Y-219864D01*
Y-220150D01*
Y-220437D01*
Y-220723D01*
Y-221009D01*
Y-221296D01*
Y-221582D01*
X1054655D01*
Y-221868D01*
Y-222155D01*
X1041485D01*
Y-221868D01*
Y-221582D01*
X1041771D01*
Y-221296D01*
Y-221009D01*
Y-220723D01*
Y-220437D01*
Y-220150D01*
Y-219864D01*
Y-219578D01*
X1042057D01*
Y-219291D01*
Y-219005D01*
Y-218719D01*
Y-218433D01*
Y-218146D01*
Y-217860D01*
X1042344D01*
Y-217574D01*
Y-217287D01*
Y-217001D01*
Y-216715D01*
Y-216428D01*
Y-216142D01*
X1042630D01*
Y-215856D01*
Y-215569D01*
Y-215283D01*
Y-214997D01*
Y-214710D01*
Y-214424D01*
Y-214138D01*
X1042916D01*
Y-213851D01*
Y-213565D01*
Y-213279D01*
Y-212993D01*
Y-212706D01*
Y-212420D01*
X1043202D01*
Y-212134D01*
Y-211847D01*
Y-211561D01*
Y-211275D01*
Y-210988D01*
Y-210702D01*
X1043489D01*
Y-210416D01*
Y-210129D01*
Y-209843D01*
Y-209557D01*
Y-209271D01*
Y-208984D01*
X1043775D01*
Y-208698D01*
Y-208412D01*
Y-208125D01*
Y-207839D01*
Y-207553D01*
Y-207266D01*
Y-206980D01*
X1044061D01*
Y-206694D01*
Y-206407D01*
Y-206121D01*
Y-205835D01*
Y-205549D01*
Y-205262D01*
X1044348D01*
Y-204976D01*
Y-204690D01*
Y-204403D01*
Y-204117D01*
Y-203831D01*
Y-203544D01*
X1044634D01*
Y-203258D01*
Y-202972D01*
Y-202685D01*
Y-202399D01*
Y-202113D01*
Y-201826D01*
Y-201540D01*
X1044920D01*
Y-201254D01*
Y-200968D01*
Y-200681D01*
Y-200395D01*
Y-200109D01*
Y-199822D01*
X1045207D01*
Y-199536D01*
Y-199250D01*
Y-198963D01*
Y-198677D01*
Y-198391D01*
Y-198104D01*
X1045493D01*
Y-197818D01*
Y-197532D01*
Y-197245D01*
Y-196959D01*
Y-196673D01*
Y-196387D01*
X1045779D01*
Y-196100D01*
Y-195814D01*
Y-195528D01*
Y-195241D01*
Y-194955D01*
Y-194669D01*
Y-194382D01*
X1046066D01*
Y-194096D01*
Y-193810D01*
Y-193523D01*
Y-193237D01*
Y-192951D01*
Y-192664D01*
X1046352D01*
Y-192378D01*
Y-192092D01*
Y-191806D01*
Y-191519D01*
Y-191233D01*
Y-190946D01*
X1046638D01*
Y-190660D01*
Y-190374D01*
Y-190088D01*
Y-189801D01*
Y-189515D01*
Y-189229D01*
X1046925D01*
Y-188942D01*
Y-188656D01*
Y-188370D01*
Y-188083D01*
Y-187797D01*
Y-187511D01*
Y-187224D01*
X1047211D01*
Y-186938D01*
Y-186652D01*
Y-186365D01*
Y-186079D01*
Y-185793D01*
Y-185507D01*
X1047497D01*
Y-185220D01*
Y-184934D01*
Y-184648D01*
Y-184361D01*
Y-184075D01*
Y-183789D01*
X1047783D01*
Y-183502D01*
Y-183216D01*
Y-182930D01*
Y-182643D01*
Y-182357D01*
Y-182071D01*
Y-181784D01*
X1048070D01*
Y-181498D01*
Y-181212D01*
Y-180926D01*
Y-180639D01*
Y-180353D01*
Y-180067D01*
X1048356D01*
Y-179780D01*
Y-179494D01*
Y-179208D01*
Y-178921D01*
Y-178635D01*
Y-178349D01*
X1048642D01*
Y-178062D01*
Y-177776D01*
Y-177490D01*
Y-177204D01*
Y-176917D01*
Y-176631D01*
X1048929D01*
Y-176345D01*
Y-176058D01*
Y-175772D01*
Y-175486D01*
Y-175199D01*
Y-174913D01*
Y-174627D01*
X1049215D01*
Y-174340D01*
Y-174054D01*
Y-173768D01*
Y-173481D01*
Y-173195D01*
Y-172909D01*
X1049501D01*
Y-172623D01*
Y-172336D01*
Y-172050D01*
Y-171764D01*
Y-171477D01*
Y-171191D01*
X1049788D01*
Y-170905D01*
Y-170618D01*
Y-170332D01*
Y-170046D01*
Y-169759D01*
Y-169473D01*
Y-169187D01*
X1050074D01*
Y-168900D01*
Y-168614D01*
Y-168328D01*
X1063244D01*
Y-168614D01*
D02*
G37*
%LPC*%
G36*
X82034Y83458D02*
X78735Y78125D01*
X83753Y77240D01*
X82324Y83407D01*
X82034Y83458D01*
D02*
G37*
G36*
X126971Y77390D02*
X126668Y77365D01*
X126393Y77319D01*
X126115Y77258D01*
X125864Y77176D01*
X125642Y77074D01*
X125419Y76972D01*
X125227Y76864D01*
X125050Y76753D01*
X124907Y76653D01*
X124781Y76565D01*
X124674Y76490D01*
X124599Y76424D01*
X124560Y76384D01*
X124543Y76371D01*
X124293Y76116D01*
X124084Y75823D01*
X123872Y75514D01*
X123686Y75170D01*
X123514Y74822D01*
X123358Y74472D01*
X123233Y74117D01*
X123110Y73777D01*
X123005Y73449D01*
X122918Y73134D01*
X122839Y72865D01*
X122781Y72624D01*
X122731Y72428D01*
X122704Y72276D01*
X122693Y72215D01*
X122685Y72169D01*
X122682Y72154D01*
X122679Y72138D01*
X122601Y71602D01*
X122542Y71093D01*
X122523Y70625D01*
X122506Y70171D01*
X122512Y69761D01*
X122542Y69394D01*
X122589Y69040D01*
X122630Y68734D01*
X122691Y68456D01*
X122760Y68223D01*
X122817Y68009D01*
X122866Y67843D01*
X122905Y67710D01*
X122953Y67623D01*
X122973Y67557D01*
X122985Y67539D01*
X123153Y67242D01*
X123329Y66991D01*
X123523Y66752D01*
X123722Y66544D01*
X123927Y66366D01*
X124149Y66201D01*
X124347Y66072D01*
X124562Y65955D01*
X124750Y65859D01*
X124940Y65778D01*
X125102Y65718D01*
X125237Y65679D01*
X125356Y65642D01*
X125445Y65611D01*
X125506Y65600D01*
X125521Y65597D01*
X125829Y65559D01*
X126142Y65551D01*
X126430Y65579D01*
X126721Y65622D01*
X126984Y65685D01*
X127234Y65767D01*
X127472Y65867D01*
X127679Y65972D01*
X127884Y66062D01*
X128061Y66172D01*
X128204Y66272D01*
X128330Y66360D01*
X128437Y66436D01*
X128512Y66501D01*
X128551Y66542D01*
X128568Y66554D01*
X128803Y66812D01*
X129027Y67103D01*
X129223Y67414D01*
X129410Y67759D01*
X129581Y68106D01*
X129737Y68456D01*
X129876Y68793D01*
X129986Y69151D01*
X130088Y69464D01*
X130175Y69779D01*
X130254Y70048D01*
X130312Y70289D01*
X130365Y70500D01*
X130392Y70653D01*
X130400Y70698D01*
X130408Y70744D01*
X130411Y70759D01*
X130414Y70775D01*
X130492Y71311D01*
X130551Y71820D01*
X130588Y72301D01*
X130587Y72742D01*
X130581Y73152D01*
X130554Y73534D01*
X130507Y73888D01*
X130466Y74194D01*
X130405Y74472D01*
X130351Y74702D01*
X130295Y74917D01*
X130245Y75083D01*
X130191Y75218D01*
X130161Y75318D01*
X130138Y75369D01*
X130126Y75387D01*
X129958Y75684D01*
X129785Y75950D01*
X129591Y76189D01*
X129376Y76400D01*
X129172Y76577D01*
X128964Y76740D01*
X128752Y76872D01*
X128552Y76986D01*
X128349Y77084D01*
X128174Y77162D01*
X128012Y77222D01*
X127880Y77277D01*
X127758Y77299D01*
X127669Y77330D01*
X127608Y77341D01*
X127592Y77343D01*
X127269Y77385D01*
X126971Y77390D01*
D02*
G37*
G36*
X177426Y38993D02*
X177044Y38966D01*
X176689Y38918D01*
X176347Y38853D01*
X176051Y38779D01*
X175768Y38688D01*
X175515Y38591D01*
X175295Y38504D01*
X175106Y38411D01*
X174949Y38328D01*
X174829Y38271D01*
X174739Y38208D01*
X174686Y38171D01*
X174668Y38158D01*
X174375Y37927D01*
X174123Y37656D01*
X173886Y37383D01*
X173674Y37075D01*
X173493Y36761D01*
X173312Y36447D01*
X173177Y36125D01*
X173044Y35818D01*
X172929Y35523D01*
X172847Y35239D01*
X172771Y34985D01*
X172703Y34777D01*
X172671Y34594D01*
X172631Y34459D01*
X172615Y34367D01*
X172612Y34352D01*
X172610Y34337D01*
X172539Y33846D01*
X172507Y33396D01*
X172492Y32958D01*
X172514Y32545D01*
X172541Y32163D01*
X172607Y31821D01*
X172675Y31494D01*
X172748Y31198D01*
X172830Y30948D01*
X172914Y30713D01*
X173004Y30508D01*
X173072Y30355D01*
X173144Y30232D01*
X173189Y30130D01*
X173227Y30076D01*
X173239Y30058D01*
X173456Y29768D01*
X173708Y29503D01*
X173965Y29269D01*
X174256Y29045D01*
X174555Y28866D01*
X174839Y28690D01*
X175143Y28543D01*
X175434Y28412D01*
X175701Y28318D01*
X175967Y28224D01*
X176206Y28150D01*
X176399Y28085D01*
X176567Y28055D01*
X176701Y28016D01*
X176778Y28003D01*
X176808Y27997D01*
X180530Y27341D01*
X182451Y38233D01*
X178729Y38889D01*
X178268Y38954D01*
X177833Y38984D01*
X177426Y38993D01*
D02*
G37*
G36*
X240894Y56862D02*
X240639Y56844D01*
X240418Y56836D01*
X240209Y56810D01*
X240012Y56766D01*
X239834Y56734D01*
X239668Y56685D01*
X239535Y56646D01*
X239415Y56588D01*
X239315Y56558D01*
X239246Y56523D01*
X239192Y56486D01*
X239159Y56476D01*
X239141Y56463D01*
X238962Y56338D01*
X238797Y56209D01*
X238664Y56076D01*
X238543Y55924D01*
X238331Y55615D01*
X238170Y55329D01*
X238058Y55050D01*
X238021Y54931D01*
X237987Y54826D01*
X237959Y54753D01*
X237948Y54692D01*
X237940Y54646D01*
X237937Y54631D01*
X237912Y54399D01*
X237890Y54183D01*
X237929Y53783D01*
X238005Y53408D01*
X238109Y53106D01*
X238221Y52851D01*
X238281Y52746D01*
X238329Y52658D01*
X238379Y52587D01*
X238417Y52533D01*
X238429Y52515D01*
X238442Y52497D01*
X238588Y52345D01*
X238750Y52191D01*
X239114Y51938D01*
X239489Y51746D01*
X239869Y51585D01*
X240047Y51522D01*
X240212Y51477D01*
X240359Y51420D01*
X240497Y51395D01*
X240601Y51361D01*
X240677Y51348D01*
X240738Y51337D01*
X240753Y51334D01*
X245467Y50503D01*
X246427Y55949D01*
X241714Y56780D01*
X241421Y56816D01*
X241144Y56849D01*
X240894Y56862D01*
D02*
G37*
G36*
X47336Y33140D02*
X47311D01*
X47282Y33133D01*
X47245Y33126D01*
X47205Y33115D01*
X47165Y33097D01*
X47121Y33071D01*
X47085Y33035D01*
X47081Y33031D01*
X47070Y33013D01*
X47052Y32987D01*
X47034Y32947D01*
X47019Y32900D01*
X47001Y32835D01*
X46990Y32758D01*
X46987Y32714D01*
Y32667D01*
X46990Y31746D01*
Y31743D01*
Y31735D01*
Y31721D01*
Y31702D01*
X46994Y31681D01*
Y31659D01*
X47001Y31600D01*
X47016Y31542D01*
X47030Y31480D01*
X47056Y31426D01*
X47070Y31400D01*
X47089Y31378D01*
X47092Y31375D01*
X47107Y31360D01*
X47125Y31342D01*
X47154Y31324D01*
X47190Y31302D01*
X47234Y31288D01*
X47282Y31273D01*
X47336Y31269D01*
X47362D01*
X47391Y31277D01*
X47427Y31284D01*
X47467Y31295D01*
X47511Y31317D01*
X47551Y31342D01*
X47591Y31378D01*
X47594Y31382D01*
X47605Y31400D01*
X47620Y31426D01*
X47638Y31462D01*
X47656Y31513D01*
X47671Y31579D01*
X47682Y31655D01*
X47686Y31699D01*
Y31746D01*
Y31910D01*
X50084Y30909D01*
X47682Y29904D01*
Y30064D01*
Y30068D01*
Y30075D01*
Y30090D01*
Y30108D01*
X47678Y30130D01*
Y30152D01*
X47671Y30210D01*
X47660Y30268D01*
X47642Y30330D01*
X47620Y30385D01*
X47605Y30410D01*
X47587Y30432D01*
X47584Y30436D01*
X47569Y30447D01*
X47547Y30465D01*
X47522Y30483D01*
X47485Y30505D01*
X47442Y30520D01*
X47391Y30534D01*
X47336Y30538D01*
X47311D01*
X47282Y30530D01*
X47245Y30523D01*
X47205Y30512D01*
X47165Y30494D01*
X47121Y30468D01*
X47085Y30432D01*
X47081Y30428D01*
X47070Y30410D01*
X47052Y30385D01*
X47034Y30345D01*
X47019Y30297D01*
X47001Y30232D01*
X46990Y30156D01*
X46987Y30112D01*
Y30064D01*
X46990Y29147D01*
Y29144D01*
Y29136D01*
Y29122D01*
Y29103D01*
X46994Y29082D01*
Y29060D01*
X47001Y29002D01*
X47016Y28943D01*
X47030Y28881D01*
X47056Y28827D01*
X47070Y28801D01*
X47089Y28780D01*
X47092Y28776D01*
X47107Y28761D01*
X47125Y28743D01*
X47154Y28725D01*
X47190Y28703D01*
X47234Y28688D01*
X47282Y28674D01*
X47336Y28670D01*
X47343D01*
X47362Y28674D01*
X47391Y28678D01*
X47431Y28688D01*
X47474Y28707D01*
X47522Y28732D01*
X47573Y28769D01*
X47624Y28816D01*
X47627Y28820D01*
X47635Y28831D01*
X47642Y28852D01*
X47653Y28881D01*
X47667Y28929D01*
X47671Y28954D01*
X47675Y28983D01*
X47678Y29020D01*
X47682Y29056D01*
X47686Y29100D01*
Y29147D01*
X51096Y30574D01*
Y31240D01*
X47682Y32667D01*
Y32671D01*
Y32678D01*
Y32693D01*
Y32707D01*
X47678Y32754D01*
X47675Y32805D01*
X47667Y32864D01*
X47656Y32915D01*
X47642Y32962D01*
X47631Y32980D01*
X47620Y32995D01*
X47613Y33002D01*
X47598Y33016D01*
X47573Y33042D01*
X47536Y33068D01*
X47496Y33093D01*
X47445Y33118D01*
X47394Y33133D01*
X47336Y33140D01*
D02*
G37*
G36*
X91147Y36440D02*
X90412D01*
X90408Y36432D01*
X90394Y36418D01*
X90372Y36392D01*
X90343Y36360D01*
X90310Y36316D01*
X90266Y36265D01*
X90219Y36207D01*
X90164Y36141D01*
X90102Y36068D01*
X90041Y35992D01*
X89972Y35912D01*
X89899Y35824D01*
X89746Y35646D01*
X89582Y35453D01*
X89415Y35257D01*
X89247Y35064D01*
X89080Y34874D01*
X89000Y34783D01*
X88920Y34692D01*
X88843Y34609D01*
X88770Y34529D01*
X88701Y34452D01*
X88632Y34383D01*
X88574Y34321D01*
X88515Y34266D01*
X88464Y34216D01*
X88421Y34176D01*
X88417Y34172D01*
X88410Y34168D01*
X88399Y34157D01*
X88381Y34143D01*
X88363Y34128D01*
X88337Y34114D01*
X88279Y34074D01*
X88213Y34037D01*
X88140Y34008D01*
X88064Y33983D01*
X88028Y33979D01*
X87988Y33975D01*
X87962D01*
X87944Y33979D01*
X87922Y33983D01*
X87897Y33986D01*
X87838Y34004D01*
X87769Y34030D01*
X87729Y34048D01*
X87693Y34070D01*
X87653Y34095D01*
X87616Y34128D01*
X87576Y34161D01*
X87540Y34201D01*
X87536Y34205D01*
X87533Y34212D01*
X87522Y34223D01*
X87511Y34241D01*
X87493Y34263D01*
X87478Y34292D01*
X87460Y34321D01*
X87442Y34358D01*
X87423Y34398D01*
X87405Y34441D01*
X87387Y34492D01*
X87372Y34543D01*
X87362Y34601D01*
X87351Y34660D01*
X87347Y34725D01*
X87343Y34791D01*
Y34794D01*
Y34809D01*
Y34827D01*
X87347Y34852D01*
X87351Y34885D01*
X87354Y34922D01*
X87362Y34965D01*
X87369Y35009D01*
X87398Y35107D01*
X87413Y35158D01*
X87434Y35213D01*
X87460Y35264D01*
X87489Y35315D01*
X87522Y35366D01*
X87562Y35413D01*
X87565Y35420D01*
X87584Y35435D01*
X87609Y35457D01*
X87649Y35486D01*
X87696Y35519D01*
X87755Y35551D01*
X87824Y35588D01*
X87904Y35617D01*
X87911Y35621D01*
X87926Y35628D01*
X87951Y35639D01*
X87984Y35653D01*
X88017Y35671D01*
X88050Y35693D01*
X88082Y35723D01*
X88108Y35752D01*
X88111Y35755D01*
X88115Y35766D01*
X88126Y35784D01*
X88137Y35806D01*
X88148Y35835D01*
X88155Y35872D01*
X88162Y35912D01*
X88166Y35955D01*
Y35963D01*
Y35977D01*
X88162Y36006D01*
X88155Y36039D01*
X88140Y36076D01*
X88126Y36119D01*
X88100Y36159D01*
X88068Y36199D01*
X88064Y36203D01*
X88050Y36214D01*
X88028Y36232D01*
X87999Y36250D01*
X87966Y36268D01*
X87922Y36287D01*
X87878Y36298D01*
X87827Y36301D01*
X87806D01*
X87791Y36298D01*
X87773Y36294D01*
X87747Y36290D01*
X87722Y36287D01*
X87689Y36279D01*
X87616Y36258D01*
X87529Y36221D01*
X87482Y36203D01*
X87431Y36178D01*
X87376Y36148D01*
X87322Y36116D01*
X87318Y36112D01*
X87307Y36108D01*
X87292Y36097D01*
X87271Y36079D01*
X87245Y36061D01*
X87216Y36035D01*
X87183Y36010D01*
X87147Y35977D01*
X87107Y35937D01*
X87067Y35897D01*
X87027Y35853D01*
X86987Y35803D01*
X86947Y35752D01*
X86907Y35693D01*
X86870Y35631D01*
X86834Y35566D01*
X86830Y35562D01*
X86826Y35548D01*
X86816Y35530D01*
X86805Y35504D01*
X86790Y35468D01*
X86775Y35428D01*
X86757Y35384D01*
X86739Y35333D01*
X86725Y35275D01*
X86706Y35217D01*
X86692Y35151D01*
X86677Y35082D01*
X86655Y34936D01*
X86652Y34860D01*
X86648Y34780D01*
Y34776D01*
Y34772D01*
Y34751D01*
X86652Y34718D01*
X86655Y34670D01*
X86659Y34616D01*
X86670Y34550D01*
X86681Y34478D01*
X86699Y34398D01*
X86721Y34317D01*
X86746Y34230D01*
X86779Y34139D01*
X86816Y34048D01*
X86863Y33957D01*
X86918Y33870D01*
X86979Y33782D01*
X87049Y33702D01*
X87052Y33699D01*
X87067Y33684D01*
X87089Y33662D01*
X87118Y33637D01*
X87158Y33604D01*
X87205Y33568D01*
X87256Y33531D01*
X87318Y33491D01*
X87383Y33451D01*
X87460Y33415D01*
X87536Y33378D01*
X87624Y33346D01*
X87715Y33320D01*
X87809Y33298D01*
X87908Y33284D01*
X88013Y33280D01*
X88060D01*
X88086Y33284D01*
X88119Y33287D01*
X88151Y33291D01*
X88188Y33295D01*
X88272Y33309D01*
X88359Y33331D01*
X88454Y33364D01*
X88548Y33404D01*
X88552D01*
X88559Y33411D01*
X88574Y33418D01*
X88592Y33429D01*
X88617Y33444D01*
X88647Y33466D01*
X88683Y33491D01*
X88723Y33520D01*
X88770Y33557D01*
X88821Y33597D01*
X88876Y33644D01*
X88938Y33699D01*
X89003Y33760D01*
X89072Y33826D01*
X89145Y33899D01*
X89225Y33983D01*
X89229Y33986D01*
X89240Y34001D01*
X89262Y34023D01*
X89291Y34055D01*
X89331Y34095D01*
X89382Y34150D01*
X89440Y34216D01*
X89505Y34292D01*
X89586Y34379D01*
X89677Y34481D01*
X89775Y34594D01*
X89888Y34721D01*
X89946Y34791D01*
X90012Y34863D01*
X90077Y34940D01*
X90146Y35020D01*
X90219Y35104D01*
X90292Y35195D01*
X90372Y35286D01*
X90452Y35380D01*
Y33855D01*
X90448Y33848D01*
X90437Y33833D01*
X90419Y33812D01*
X90401Y33779D01*
X90383Y33742D01*
X90365Y33702D01*
X90354Y33662D01*
X90350Y33619D01*
Y33615D01*
Y33611D01*
Y33593D01*
X90354Y33564D01*
X90365Y33528D01*
X90376Y33487D01*
X90394Y33448D01*
X90419Y33404D01*
X90456Y33367D01*
X90459Y33364D01*
X90477Y33353D01*
X90503Y33338D01*
X90539Y33320D01*
X90590Y33302D01*
X90652Y33287D01*
X90729Y33276D01*
X90816Y33273D01*
X91147D01*
Y36440D01*
D02*
G37*
G36*
X90175Y32130D02*
X89596D01*
X86761Y30466D01*
Y29545D01*
X89480D01*
Y29542D01*
Y29535D01*
Y29520D01*
Y29502D01*
X89484Y29484D01*
Y29458D01*
X89491Y29403D01*
X89505Y29342D01*
X89520Y29283D01*
X89546Y29229D01*
X89578Y29181D01*
X89582Y29178D01*
X89596Y29163D01*
X89615Y29145D01*
X89644Y29127D01*
X89680Y29105D01*
X89724Y29090D01*
X89771Y29076D01*
X89826Y29072D01*
X89851D01*
X89880Y29079D01*
X89917Y29087D01*
X89957Y29098D01*
X90001Y29120D01*
X90041Y29145D01*
X90081Y29181D01*
X90084Y29185D01*
X90095Y29203D01*
X90110Y29229D01*
X90128Y29265D01*
X90146Y29316D01*
X90161Y29378D01*
X90172Y29454D01*
X90175Y29545D01*
X90452D01*
Y29542D01*
Y29535D01*
Y29520D01*
Y29502D01*
X90456Y29484D01*
Y29458D01*
X90463Y29403D01*
X90477Y29342D01*
X90492Y29283D01*
X90517Y29229D01*
X90550Y29181D01*
X90554Y29178D01*
X90568Y29163D01*
X90590Y29145D01*
X90619Y29127D01*
X90656Y29105D01*
X90696Y29090D01*
X90747Y29076D01*
X90801Y29072D01*
X90827D01*
X90856Y29079D01*
X90892Y29087D01*
X90932Y29098D01*
X90973Y29120D01*
X91016Y29145D01*
X91053Y29181D01*
X91056Y29185D01*
X91067Y29203D01*
X91082Y29229D01*
X91100Y29265D01*
X91118Y29316D01*
X91133Y29378D01*
X91144Y29454D01*
X91147Y29545D01*
Y30514D01*
Y30517D01*
Y30525D01*
Y30539D01*
Y30557D01*
X91144Y30579D01*
Y30601D01*
X91136Y30659D01*
X91125Y30718D01*
X91107Y30779D01*
X91085Y30834D01*
X91071Y30859D01*
X91053Y30881D01*
X91049Y30885D01*
X91034Y30896D01*
X91013Y30914D01*
X90983Y30932D01*
X90947Y30954D01*
X90903Y30969D01*
X90852Y30983D01*
X90798Y30987D01*
X90772D01*
X90743Y30980D01*
X90710Y30972D01*
X90670Y30961D01*
X90630Y30943D01*
X90587Y30918D01*
X90550Y30881D01*
X90547Y30878D01*
X90536Y30859D01*
X90517Y30834D01*
X90499Y30794D01*
X90485Y30747D01*
X90466Y30681D01*
X90456Y30605D01*
X90452Y30561D01*
Y30514D01*
Y30241D01*
X90175D01*
Y32130D01*
D02*
G37*
%LPD*%
G36*
X89480Y30241D02*
X87766D01*
X89480Y31249D01*
Y30241D01*
D02*
G37*
%LPC*%
G36*
X81147Y36421D02*
X80412D01*
X80408Y36414D01*
X80394Y36399D01*
X80372Y36374D01*
X80343Y36341D01*
X80310Y36298D01*
X80266Y36247D01*
X80219Y36188D01*
X80164Y36123D01*
X80102Y36050D01*
X80041Y35974D01*
X79971Y35894D01*
X79899Y35806D01*
X79746Y35628D01*
X79582Y35435D01*
X79414Y35238D01*
X79247Y35045D01*
X79080Y34856D01*
X79000Y34765D01*
X78920Y34674D01*
X78843Y34590D01*
X78770Y34510D01*
X78701Y34434D01*
X78632Y34365D01*
X78574Y34303D01*
X78515Y34248D01*
X78465Y34197D01*
X78421Y34157D01*
X78417Y34154D01*
X78410Y34150D01*
X78399Y34139D01*
X78381Y34124D01*
X78363Y34110D01*
X78337Y34095D01*
X78279Y34055D01*
X78213Y34019D01*
X78140Y33990D01*
X78064Y33964D01*
X78028Y33961D01*
X77988Y33957D01*
X77962D01*
X77944Y33961D01*
X77922Y33964D01*
X77897Y33968D01*
X77838Y33986D01*
X77769Y34012D01*
X77729Y34030D01*
X77693Y34052D01*
X77653Y34077D01*
X77616Y34110D01*
X77576Y34143D01*
X77540Y34183D01*
X77536Y34186D01*
X77533Y34194D01*
X77522Y34205D01*
X77511Y34223D01*
X77493Y34245D01*
X77478Y34274D01*
X77460Y34303D01*
X77442Y34339D01*
X77424Y34379D01*
X77405Y34423D01*
X77387Y34474D01*
X77372Y34525D01*
X77362Y34583D01*
X77351Y34641D01*
X77347Y34707D01*
X77343Y34772D01*
Y34776D01*
Y34791D01*
Y34809D01*
X77347Y34834D01*
X77351Y34867D01*
X77354Y34903D01*
X77362Y34947D01*
X77369Y34991D01*
X77398Y35089D01*
X77412Y35140D01*
X77434Y35195D01*
X77460Y35246D01*
X77489Y35297D01*
X77522Y35348D01*
X77562Y35395D01*
X77565Y35402D01*
X77584Y35417D01*
X77609Y35439D01*
X77649Y35468D01*
X77697Y35500D01*
X77755Y35533D01*
X77824Y35570D01*
X77904Y35599D01*
X77911Y35602D01*
X77926Y35610D01*
X77951Y35621D01*
X77984Y35635D01*
X78017Y35653D01*
X78049Y35675D01*
X78082Y35704D01*
X78108Y35733D01*
X78111Y35737D01*
X78115Y35748D01*
X78126Y35766D01*
X78137Y35788D01*
X78148Y35817D01*
X78155Y35853D01*
X78162Y35894D01*
X78166Y35937D01*
Y35945D01*
Y35959D01*
X78162Y35988D01*
X78155Y36021D01*
X78140Y36057D01*
X78126Y36101D01*
X78101Y36141D01*
X78068Y36181D01*
X78064Y36185D01*
X78049Y36196D01*
X78028Y36214D01*
X77999Y36232D01*
X77966Y36250D01*
X77922Y36268D01*
X77878Y36279D01*
X77828Y36283D01*
X77806D01*
X77791Y36279D01*
X77773Y36276D01*
X77747Y36272D01*
X77722Y36268D01*
X77689Y36261D01*
X77616Y36239D01*
X77529Y36203D01*
X77482Y36185D01*
X77431Y36159D01*
X77376Y36130D01*
X77322Y36097D01*
X77318Y36094D01*
X77307Y36090D01*
X77292Y36079D01*
X77271Y36061D01*
X77245Y36043D01*
X77216Y36017D01*
X77183Y35992D01*
X77147Y35959D01*
X77107Y35919D01*
X77067Y35879D01*
X77027Y35835D01*
X76987Y35784D01*
X76947Y35733D01*
X76907Y35675D01*
X76870Y35613D01*
X76834Y35548D01*
X76830Y35544D01*
X76827Y35530D01*
X76816Y35511D01*
X76805Y35486D01*
X76790Y35449D01*
X76775Y35409D01*
X76757Y35366D01*
X76739Y35315D01*
X76725Y35257D01*
X76706Y35198D01*
X76692Y35133D01*
X76677Y35064D01*
X76655Y34918D01*
X76652Y34842D01*
X76648Y34762D01*
Y34758D01*
Y34754D01*
Y34732D01*
X76652Y34700D01*
X76655Y34652D01*
X76659Y34598D01*
X76670Y34532D01*
X76681Y34459D01*
X76699Y34379D01*
X76721Y34299D01*
X76746Y34212D01*
X76779Y34121D01*
X76816Y34030D01*
X76863Y33939D01*
X76917Y33852D01*
X76979Y33764D01*
X77049Y33684D01*
X77052Y33680D01*
X77067Y33666D01*
X77089Y33644D01*
X77118Y33619D01*
X77158Y33586D01*
X77205Y33549D01*
X77256Y33513D01*
X77318Y33473D01*
X77383Y33433D01*
X77460Y33397D01*
X77536Y33360D01*
X77624Y33327D01*
X77715Y33302D01*
X77809Y33280D01*
X77908Y33266D01*
X78013Y33262D01*
X78061D01*
X78086Y33266D01*
X78119Y33269D01*
X78152Y33273D01*
X78188Y33276D01*
X78272Y33291D01*
X78359Y33313D01*
X78454Y33346D01*
X78548Y33386D01*
X78552D01*
X78559Y33393D01*
X78574Y33400D01*
X78592Y33411D01*
X78617Y33426D01*
X78646Y33448D01*
X78683Y33473D01*
X78723Y33502D01*
X78770Y33538D01*
X78821Y33579D01*
X78876Y33626D01*
X78938Y33680D01*
X79003Y33742D01*
X79072Y33808D01*
X79145Y33881D01*
X79225Y33964D01*
X79229Y33968D01*
X79240Y33983D01*
X79262Y34004D01*
X79291Y34037D01*
X79331Y34077D01*
X79382Y34132D01*
X79440Y34197D01*
X79506Y34274D01*
X79586Y34361D01*
X79677Y34463D01*
X79775Y34576D01*
X79888Y34703D01*
X79946Y34772D01*
X80011Y34845D01*
X80077Y34922D01*
X80146Y35002D01*
X80219Y35085D01*
X80292Y35177D01*
X80372Y35267D01*
X80452Y35362D01*
Y33837D01*
X80448Y33830D01*
X80437Y33815D01*
X80419Y33793D01*
X80401Y33760D01*
X80383Y33724D01*
X80365Y33684D01*
X80354Y33644D01*
X80350Y33600D01*
Y33597D01*
Y33593D01*
Y33575D01*
X80354Y33546D01*
X80365Y33509D01*
X80375Y33469D01*
X80394Y33429D01*
X80419Y33386D01*
X80456Y33349D01*
X80459Y33346D01*
X80477Y33335D01*
X80503Y33320D01*
X80539Y33302D01*
X80590Y33284D01*
X80652Y33269D01*
X80729Y33258D01*
X80816Y33255D01*
X81147D01*
Y36421D01*
D02*
G37*
G36*
Y32257D02*
X80412D01*
X80408Y32250D01*
X80394Y32235D01*
X80372Y32210D01*
X80343Y32177D01*
X80310Y32133D01*
X80266Y32083D01*
X80219Y32024D01*
X80164Y31959D01*
X80102Y31886D01*
X80041Y31809D01*
X79971Y31729D01*
X79899Y31642D01*
X79746Y31464D01*
X79582Y31271D01*
X79414Y31074D01*
X79247Y30881D01*
X79080Y30692D01*
X79000Y30601D01*
X78920Y30510D01*
X78843Y30426D01*
X78770Y30346D01*
X78701Y30270D01*
X78632Y30201D01*
X78574Y30139D01*
X78515Y30084D01*
X78465Y30033D01*
X78421Y29993D01*
X78417Y29989D01*
X78410Y29986D01*
X78399Y29975D01*
X78381Y29960D01*
X78363Y29946D01*
X78337Y29931D01*
X78279Y29891D01*
X78213Y29855D01*
X78140Y29826D01*
X78064Y29800D01*
X78028Y29797D01*
X77988Y29793D01*
X77962D01*
X77944Y29797D01*
X77922Y29800D01*
X77897Y29804D01*
X77838Y29822D01*
X77769Y29847D01*
X77729Y29866D01*
X77693Y29888D01*
X77653Y29913D01*
X77616Y29946D01*
X77576Y29979D01*
X77540Y30019D01*
X77536Y30022D01*
X77533Y30029D01*
X77522Y30040D01*
X77511Y30059D01*
X77493Y30081D01*
X77478Y30110D01*
X77460Y30139D01*
X77442Y30175D01*
X77424Y30215D01*
X77405Y30259D01*
X77387Y30310D01*
X77372Y30361D01*
X77362Y30419D01*
X77351Y30477D01*
X77347Y30543D01*
X77343Y30608D01*
Y30612D01*
Y30626D01*
Y30645D01*
X77347Y30670D01*
X77351Y30703D01*
X77354Y30739D01*
X77362Y30783D01*
X77369Y30827D01*
X77398Y30925D01*
X77412Y30976D01*
X77434Y31030D01*
X77460Y31082D01*
X77489Y31132D01*
X77522Y31183D01*
X77562Y31231D01*
X77565Y31238D01*
X77584Y31253D01*
X77609Y31274D01*
X77649Y31304D01*
X77697Y31336D01*
X77755Y31369D01*
X77824Y31405D01*
X77904Y31435D01*
X77911Y31438D01*
X77926Y31446D01*
X77951Y31456D01*
X77984Y31471D01*
X78017Y31489D01*
X78049Y31511D01*
X78082Y31540D01*
X78108Y31569D01*
X78111Y31573D01*
X78115Y31584D01*
X78126Y31602D01*
X78137Y31624D01*
X78148Y31653D01*
X78155Y31689D01*
X78162Y31729D01*
X78166Y31773D01*
Y31780D01*
Y31795D01*
X78162Y31824D01*
X78155Y31857D01*
X78140Y31893D01*
X78126Y31937D01*
X78101Y31977D01*
X78068Y32017D01*
X78064Y32021D01*
X78049Y32032D01*
X78028Y32050D01*
X77999Y32068D01*
X77966Y32086D01*
X77922Y32104D01*
X77878Y32115D01*
X77828Y32119D01*
X77806D01*
X77791Y32115D01*
X77773Y32112D01*
X77747Y32108D01*
X77722Y32104D01*
X77689Y32097D01*
X77616Y32075D01*
X77529Y32039D01*
X77482Y32021D01*
X77431Y31995D01*
X77376Y31966D01*
X77322Y31933D01*
X77318Y31930D01*
X77307Y31926D01*
X77292Y31915D01*
X77271Y31897D01*
X77245Y31879D01*
X77216Y31853D01*
X77183Y31828D01*
X77147Y31795D01*
X77107Y31755D01*
X77067Y31715D01*
X77027Y31671D01*
X76987Y31620D01*
X76947Y31569D01*
X76907Y31511D01*
X76870Y31449D01*
X76834Y31384D01*
X76830Y31380D01*
X76827Y31365D01*
X76816Y31347D01*
X76805Y31322D01*
X76790Y31285D01*
X76775Y31245D01*
X76757Y31202D01*
X76739Y31151D01*
X76725Y31092D01*
X76706Y31034D01*
X76692Y30969D01*
X76677Y30900D01*
X76655Y30754D01*
X76652Y30677D01*
X76648Y30597D01*
Y30594D01*
Y30590D01*
Y30568D01*
X76652Y30536D01*
X76655Y30488D01*
X76659Y30434D01*
X76670Y30368D01*
X76681Y30295D01*
X76699Y30215D01*
X76721Y30135D01*
X76746Y30048D01*
X76779Y29957D01*
X76816Y29866D01*
X76863Y29775D01*
X76917Y29687D01*
X76979Y29600D01*
X77049Y29520D01*
X77052Y29516D01*
X77067Y29502D01*
X77089Y29480D01*
X77118Y29454D01*
X77158Y29422D01*
X77205Y29385D01*
X77256Y29349D01*
X77318Y29309D01*
X77383Y29269D01*
X77460Y29232D01*
X77536Y29196D01*
X77624Y29163D01*
X77715Y29138D01*
X77809Y29116D01*
X77908Y29101D01*
X78013Y29098D01*
X78061D01*
X78086Y29101D01*
X78119Y29105D01*
X78152Y29109D01*
X78188Y29112D01*
X78272Y29127D01*
X78359Y29149D01*
X78454Y29181D01*
X78548Y29221D01*
X78552D01*
X78559Y29229D01*
X78574Y29236D01*
X78592Y29247D01*
X78617Y29261D01*
X78646Y29283D01*
X78683Y29309D01*
X78723Y29338D01*
X78770Y29374D01*
X78821Y29414D01*
X78876Y29462D01*
X78938Y29516D01*
X79003Y29578D01*
X79072Y29644D01*
X79145Y29717D01*
X79225Y29800D01*
X79229Y29804D01*
X79240Y29818D01*
X79262Y29840D01*
X79291Y29873D01*
X79331Y29913D01*
X79382Y29968D01*
X79440Y30033D01*
X79506Y30110D01*
X79586Y30197D01*
X79677Y30299D01*
X79775Y30412D01*
X79888Y30539D01*
X79946Y30608D01*
X80011Y30681D01*
X80077Y30757D01*
X80146Y30838D01*
X80219Y30921D01*
X80292Y31012D01*
X80372Y31103D01*
X80452Y31198D01*
Y29673D01*
X80448Y29665D01*
X80437Y29651D01*
X80419Y29629D01*
X80401Y29596D01*
X80383Y29560D01*
X80365Y29520D01*
X80354Y29480D01*
X80350Y29436D01*
Y29433D01*
Y29429D01*
Y29411D01*
X80354Y29382D01*
X80365Y29345D01*
X80375Y29305D01*
X80394Y29265D01*
X80419Y29221D01*
X80456Y29185D01*
X80459Y29181D01*
X80477Y29171D01*
X80503Y29156D01*
X80539Y29138D01*
X80590Y29120D01*
X80652Y29105D01*
X80729Y29094D01*
X80816Y29090D01*
X81147D01*
Y32257D01*
D02*
G37*
G36*
X71144Y36418D02*
X70408D01*
X70405Y36410D01*
X70390Y36396D01*
X70368Y36370D01*
X70339Y36338D01*
X70306Y36294D01*
X70263Y36243D01*
X70215Y36185D01*
X70161Y36119D01*
X70099Y36046D01*
X70037Y35970D01*
X69968Y35890D01*
X69895Y35803D01*
X69742Y35624D01*
X69578Y35431D01*
X69411Y35235D01*
X69244Y35042D01*
X69076Y34852D01*
X68996Y34762D01*
X68916Y34670D01*
X68839Y34587D01*
X68767Y34507D01*
X68698Y34430D01*
X68628Y34361D01*
X68570Y34299D01*
X68512Y34245D01*
X68461Y34194D01*
X68417Y34154D01*
X68414Y34150D01*
X68406Y34146D01*
X68395Y34135D01*
X68377Y34121D01*
X68359Y34106D01*
X68334Y34092D01*
X68275Y34052D01*
X68210Y34015D01*
X68137Y33986D01*
X68060Y33961D01*
X68024Y33957D01*
X67984Y33953D01*
X67959D01*
X67940Y33957D01*
X67918Y33961D01*
X67893Y33964D01*
X67835Y33983D01*
X67766Y34008D01*
X67726Y34026D01*
X67689Y34048D01*
X67649Y34074D01*
X67613Y34106D01*
X67573Y34139D01*
X67536Y34179D01*
X67533Y34183D01*
X67529Y34190D01*
X67518Y34201D01*
X67507Y34219D01*
X67489Y34241D01*
X67474Y34270D01*
X67456Y34299D01*
X67438Y34336D01*
X67420Y34376D01*
X67402Y34419D01*
X67383Y34470D01*
X67369Y34521D01*
X67358Y34580D01*
X67347Y34638D01*
X67343Y34703D01*
X67340Y34769D01*
Y34772D01*
Y34787D01*
Y34805D01*
X67343Y34831D01*
X67347Y34863D01*
X67351Y34900D01*
X67358Y34944D01*
X67365Y34987D01*
X67394Y35085D01*
X67409Y35136D01*
X67431Y35191D01*
X67456Y35242D01*
X67485Y35293D01*
X67518Y35344D01*
X67558Y35391D01*
X67562Y35399D01*
X67580Y35413D01*
X67606Y35435D01*
X67646Y35464D01*
X67693Y35497D01*
X67751Y35530D01*
X67820Y35566D01*
X67900Y35595D01*
X67908Y35599D01*
X67922Y35606D01*
X67948Y35617D01*
X67980Y35631D01*
X68013Y35650D01*
X68046Y35671D01*
X68079Y35701D01*
X68104Y35730D01*
X68108Y35733D01*
X68111Y35744D01*
X68122Y35763D01*
X68133Y35784D01*
X68144Y35814D01*
X68151Y35850D01*
X68159Y35890D01*
X68162Y35934D01*
Y35941D01*
Y35955D01*
X68159Y35985D01*
X68151Y36017D01*
X68137Y36054D01*
X68122Y36097D01*
X68097Y36137D01*
X68064Y36178D01*
X68060Y36181D01*
X68046Y36192D01*
X68024Y36210D01*
X67995Y36228D01*
X67962Y36247D01*
X67918Y36265D01*
X67875Y36276D01*
X67824Y36279D01*
X67802D01*
X67787Y36276D01*
X67769Y36272D01*
X67744Y36268D01*
X67718Y36265D01*
X67686Y36258D01*
X67613Y36236D01*
X67525Y36199D01*
X67478Y36181D01*
X67427Y36156D01*
X67373Y36127D01*
X67318Y36094D01*
X67314Y36090D01*
X67303Y36086D01*
X67289Y36076D01*
X67267Y36057D01*
X67242Y36039D01*
X67212Y36014D01*
X67180Y35988D01*
X67143Y35955D01*
X67103Y35915D01*
X67063Y35875D01*
X67023Y35832D01*
X66983Y35781D01*
X66943Y35730D01*
X66903Y35671D01*
X66866Y35610D01*
X66830Y35544D01*
X66826Y35541D01*
X66823Y35526D01*
X66812Y35508D01*
X66801Y35482D01*
X66786Y35446D01*
X66772Y35406D01*
X66754Y35362D01*
X66736Y35311D01*
X66721Y35253D01*
X66703Y35195D01*
X66688Y35129D01*
X66674Y35060D01*
X66652Y34914D01*
X66648Y34838D01*
X66645Y34758D01*
Y34754D01*
Y34751D01*
Y34729D01*
X66648Y34696D01*
X66652Y34649D01*
X66655Y34594D01*
X66666Y34529D01*
X66677Y34456D01*
X66695Y34376D01*
X66717Y34296D01*
X66743Y34208D01*
X66776Y34117D01*
X66812Y34026D01*
X66859Y33935D01*
X66914Y33848D01*
X66976Y33760D01*
X67045Y33680D01*
X67049Y33677D01*
X67063Y33662D01*
X67085Y33640D01*
X67114Y33615D01*
X67154Y33582D01*
X67201Y33546D01*
X67252Y33509D01*
X67314Y33469D01*
X67380Y33429D01*
X67456Y33393D01*
X67533Y33356D01*
X67620Y33324D01*
X67711Y33298D01*
X67806Y33276D01*
X67904Y33262D01*
X68010Y33258D01*
X68057D01*
X68082Y33262D01*
X68115Y33266D01*
X68148Y33269D01*
X68184Y33273D01*
X68268Y33287D01*
X68355Y33309D01*
X68450Y33342D01*
X68545Y33382D01*
X68548D01*
X68555Y33389D01*
X68570Y33397D01*
X68588Y33407D01*
X68614Y33422D01*
X68643Y33444D01*
X68679Y33469D01*
X68719Y33498D01*
X68767Y33535D01*
X68818Y33575D01*
X68872Y33622D01*
X68934Y33677D01*
X69000Y33739D01*
X69069Y33804D01*
X69142Y33877D01*
X69222Y33961D01*
X69225Y33964D01*
X69236Y33979D01*
X69258Y34001D01*
X69287Y34034D01*
X69327Y34074D01*
X69378Y34128D01*
X69436Y34194D01*
X69502Y34270D01*
X69582Y34358D01*
X69673Y34459D01*
X69771Y34572D01*
X69884Y34700D01*
X69942Y34769D01*
X70008Y34842D01*
X70073Y34918D01*
X70143Y34998D01*
X70215Y35082D01*
X70288Y35173D01*
X70368Y35264D01*
X70448Y35359D01*
Y33833D01*
X70445Y33826D01*
X70434Y33812D01*
X70416Y33790D01*
X70397Y33757D01*
X70379Y33720D01*
X70361Y33680D01*
X70350Y33640D01*
X70346Y33597D01*
Y33593D01*
Y33589D01*
Y33571D01*
X70350Y33542D01*
X70361Y33506D01*
X70372Y33466D01*
X70390Y33426D01*
X70416Y33382D01*
X70452Y33346D01*
X70456Y33342D01*
X70474Y33331D01*
X70499Y33316D01*
X70536Y33298D01*
X70587Y33280D01*
X70648Y33266D01*
X70725Y33255D01*
X70812Y33251D01*
X71144D01*
Y36418D01*
D02*
G37*
G36*
X67500Y32108D02*
X66757D01*
Y29094D01*
X67453D01*
X70805Y30219D01*
X70809D01*
X70812Y30222D01*
X70823Y30226D01*
X70838Y30230D01*
X70874Y30248D01*
X70918Y30266D01*
X70965Y30288D01*
X71009Y30317D01*
X71049Y30346D01*
X71082Y30379D01*
X71085Y30383D01*
X71093Y30393D01*
X71104Y30412D01*
X71114Y30437D01*
X71129Y30466D01*
X71140Y30503D01*
X71147Y30543D01*
X71151Y30586D01*
Y30594D01*
Y30612D01*
X71147Y30637D01*
X71140Y30670D01*
X71125Y30710D01*
X71111Y30754D01*
X71085Y30794D01*
X71052Y30834D01*
X71049Y30838D01*
X71034Y30849D01*
X71013Y30867D01*
X70983Y30885D01*
X70951Y30903D01*
X70911Y30921D01*
X70863Y30932D01*
X70816Y30936D01*
X70801D01*
X70783Y30932D01*
X70758Y30929D01*
X70725Y30925D01*
X70685Y30914D01*
X70638Y30903D01*
X70579Y30885D01*
X67453Y29826D01*
Y31413D01*
X67496D01*
X67518Y31416D01*
X67540D01*
X67598Y31424D01*
X67656Y31438D01*
X67718Y31453D01*
X67773Y31478D01*
X67798Y31493D01*
X67820Y31511D01*
X67824Y31515D01*
X67835Y31529D01*
X67853Y31547D01*
X67871Y31576D01*
X67893Y31613D01*
X67908Y31657D01*
X67922Y31704D01*
X67926Y31758D01*
Y31766D01*
Y31784D01*
X67918Y31813D01*
X67911Y31850D01*
X67900Y31890D01*
X67882Y31933D01*
X67857Y31973D01*
X67820Y32013D01*
X67817Y32017D01*
X67798Y32028D01*
X67773Y32042D01*
X67733Y32061D01*
X67686Y32079D01*
X67620Y32093D01*
X67544Y32104D01*
X67500Y32108D01*
D02*
G37*
G36*
X60794Y36319D02*
X60769D01*
X60739Y36312D01*
X60707Y36305D01*
X60667Y36294D01*
X60627Y36276D01*
X60583Y36250D01*
X60547Y36214D01*
X60543Y36210D01*
X60532Y36192D01*
X60514Y36167D01*
X60496Y36127D01*
X60481Y36079D01*
X60463Y36014D01*
X60452Y35937D01*
X60448Y35894D01*
Y35846D01*
Y35144D01*
X57551D01*
X57711Y35766D01*
Y35773D01*
X57718Y35792D01*
X57722Y35817D01*
X57729Y35850D01*
X57744Y35923D01*
X57747Y35959D01*
X57751Y35988D01*
Y35996D01*
Y36010D01*
X57744Y36035D01*
X57736Y36065D01*
X57726Y36101D01*
X57707Y36141D01*
X57682Y36181D01*
X57649Y36217D01*
X57645Y36221D01*
X57631Y36232D01*
X57609Y36247D01*
X57576Y36265D01*
X57540Y36283D01*
X57496Y36298D01*
X57445Y36309D01*
X57391Y36312D01*
X57369D01*
X57343Y36309D01*
X57311Y36305D01*
X57278Y36294D01*
X57241Y36283D01*
X57205Y36265D01*
X57172Y36243D01*
X57169Y36239D01*
X57158Y36228D01*
X57143Y36207D01*
X57125Y36178D01*
X57103Y36137D01*
X57078Y36086D01*
X57056Y36021D01*
X57030Y35945D01*
X56644Y34449D01*
X60448D01*
Y33746D01*
Y33742D01*
Y33735D01*
Y33720D01*
Y33702D01*
X60452Y33684D01*
Y33659D01*
X60459Y33604D01*
X60474Y33542D01*
X60488Y33484D01*
X60514Y33429D01*
X60547Y33382D01*
X60550Y33378D01*
X60565Y33364D01*
X60587Y33346D01*
X60616Y33327D01*
X60652Y33305D01*
X60692Y33291D01*
X60743Y33276D01*
X60798Y33273D01*
X60823D01*
X60852Y33280D01*
X60889Y33287D01*
X60929Y33298D01*
X60969Y33320D01*
X61013Y33346D01*
X61049Y33382D01*
X61053Y33386D01*
X61063Y33404D01*
X61078Y33429D01*
X61096Y33466D01*
X61114Y33517D01*
X61129Y33579D01*
X61140Y33655D01*
X61144Y33746D01*
Y35846D01*
Y35850D01*
Y35857D01*
Y35872D01*
Y35890D01*
X61140Y35912D01*
Y35934D01*
X61133Y35992D01*
X61122Y36050D01*
X61103Y36112D01*
X61082Y36167D01*
X61067Y36192D01*
X61049Y36214D01*
X61045Y36217D01*
X61031Y36228D01*
X61009Y36247D01*
X60980Y36265D01*
X60943Y36287D01*
X60900Y36301D01*
X60849Y36316D01*
X60794Y36319D01*
D02*
G37*
G36*
X57500Y32206D02*
X56757D01*
Y29192D01*
X57453D01*
X60805Y30317D01*
X60809D01*
X60812Y30321D01*
X60823Y30324D01*
X60838Y30328D01*
X60874Y30346D01*
X60918Y30364D01*
X60965Y30386D01*
X61009Y30415D01*
X61049Y30444D01*
X61082Y30477D01*
X61085Y30481D01*
X61093Y30492D01*
X61103Y30510D01*
X61114Y30536D01*
X61129Y30565D01*
X61140Y30601D01*
X61147Y30641D01*
X61151Y30685D01*
Y30692D01*
Y30710D01*
X61147Y30736D01*
X61140Y30768D01*
X61125Y30808D01*
X61111Y30852D01*
X61085Y30892D01*
X61053Y30932D01*
X61049Y30936D01*
X61034Y30947D01*
X61013Y30965D01*
X60983Y30983D01*
X60951Y31001D01*
X60911Y31020D01*
X60863Y31030D01*
X60816Y31034D01*
X60801D01*
X60783Y31030D01*
X60758Y31027D01*
X60725Y31023D01*
X60685Y31012D01*
X60638Y31001D01*
X60579Y30983D01*
X57453Y29924D01*
Y31511D01*
X57496D01*
X57518Y31515D01*
X57540D01*
X57598Y31522D01*
X57656Y31536D01*
X57718Y31551D01*
X57773Y31576D01*
X57798Y31591D01*
X57820Y31609D01*
X57824Y31613D01*
X57835Y31628D01*
X57853Y31646D01*
X57871Y31675D01*
X57893Y31711D01*
X57908Y31755D01*
X57922Y31802D01*
X57926Y31857D01*
Y31864D01*
Y31882D01*
X57919Y31911D01*
X57911Y31948D01*
X57900Y31988D01*
X57882Y32032D01*
X57857Y32072D01*
X57820Y32112D01*
X57817Y32115D01*
X57798Y32126D01*
X57773Y32141D01*
X57733Y32159D01*
X57686Y32177D01*
X57620Y32192D01*
X57544Y32203D01*
X57500Y32206D01*
D02*
G37*
G36*
X153031Y41942D02*
X149732Y36609D01*
X154750Y35724D01*
X153321Y41890D01*
X153031Y41942D01*
D02*
G37*
G36*
X47336Y5148D02*
X47311D01*
X47282Y5141D01*
X47245Y5134D01*
X47205Y5123D01*
X47165Y5104D01*
X47121Y5079D01*
X47085Y5043D01*
X47081Y5039D01*
X47070Y5021D01*
X47052Y4995D01*
X47034Y4955D01*
X47019Y4908D01*
X47001Y4842D01*
X46990Y4766D01*
X46987Y4722D01*
Y4675D01*
X46990Y3754D01*
Y3750D01*
Y3743D01*
Y3729D01*
Y3710D01*
X46994Y3689D01*
Y3667D01*
X47001Y3608D01*
X47016Y3550D01*
X47030Y3488D01*
X47056Y3434D01*
X47070Y3408D01*
X47089Y3386D01*
X47092Y3383D01*
X47107Y3368D01*
X47125Y3350D01*
X47154Y3332D01*
X47190Y3310D01*
X47234Y3295D01*
X47282Y3281D01*
X47336Y3277D01*
X47362D01*
X47391Y3284D01*
X47427Y3292D01*
X47467Y3303D01*
X47511Y3325D01*
X47551Y3350D01*
X47591Y3386D01*
X47594Y3390D01*
X47605Y3408D01*
X47620Y3434D01*
X47638Y3470D01*
X47656Y3521D01*
X47671Y3587D01*
X47682Y3663D01*
X47686Y3707D01*
Y3754D01*
Y3918D01*
X50084Y2917D01*
X47682Y1912D01*
Y2072D01*
Y2076D01*
Y2083D01*
Y2098D01*
Y2116D01*
X47678Y2138D01*
Y2160D01*
X47671Y2218D01*
X47660Y2276D01*
X47642Y2338D01*
X47620Y2393D01*
X47605Y2418D01*
X47587Y2440D01*
X47584Y2444D01*
X47569Y2455D01*
X47547Y2473D01*
X47522Y2491D01*
X47485Y2513D01*
X47442Y2527D01*
X47391Y2542D01*
X47336Y2545D01*
X47311D01*
X47282Y2538D01*
X47245Y2531D01*
X47205Y2520D01*
X47165Y2502D01*
X47121Y2476D01*
X47085Y2440D01*
X47081Y2436D01*
X47070Y2418D01*
X47052Y2393D01*
X47034Y2353D01*
X47019Y2305D01*
X47001Y2240D01*
X46990Y2163D01*
X46987Y2120D01*
Y2072D01*
X46990Y1155D01*
Y1151D01*
Y1144D01*
Y1130D01*
Y1111D01*
X46994Y1089D01*
Y1068D01*
X47001Y1010D01*
X47016Y951D01*
X47030Y889D01*
X47056Y835D01*
X47070Y809D01*
X47089Y787D01*
X47092Y784D01*
X47107Y769D01*
X47125Y751D01*
X47154Y733D01*
X47190Y711D01*
X47234Y696D01*
X47282Y682D01*
X47336Y678D01*
X47343D01*
X47362Y682D01*
X47391Y685D01*
X47431Y696D01*
X47474Y715D01*
X47522Y740D01*
X47573Y777D01*
X47624Y824D01*
X47627Y827D01*
X47635Y838D01*
X47642Y860D01*
X47653Y889D01*
X47667Y937D01*
X47671Y962D01*
X47675Y991D01*
X47678Y1028D01*
X47682Y1064D01*
X47686Y1108D01*
Y1155D01*
X51096Y2582D01*
Y3248D01*
X47682Y4675D01*
Y4679D01*
Y4686D01*
Y4700D01*
Y4715D01*
X47678Y4762D01*
X47675Y4813D01*
X47667Y4871D01*
X47656Y4922D01*
X47642Y4970D01*
X47631Y4988D01*
X47620Y5003D01*
X47613Y5010D01*
X47598Y5024D01*
X47573Y5050D01*
X47536Y5075D01*
X47496Y5101D01*
X47445Y5126D01*
X47394Y5141D01*
X47336Y5148D01*
D02*
G37*
G36*
X90747Y8360D02*
X90721D01*
X90692Y8353D01*
X90659Y8345D01*
X90619Y8335D01*
X90579Y8316D01*
X90536Y8291D01*
X90499Y8254D01*
X90496Y8251D01*
X90485Y8233D01*
X90466Y8207D01*
X90448Y8167D01*
X90434Y8120D01*
X90416Y8054D01*
X90405Y7978D01*
X90401Y7934D01*
Y7887D01*
Y7184D01*
X87503D01*
X87664Y7807D01*
Y7814D01*
X87671Y7832D01*
X87675Y7858D01*
X87682Y7891D01*
X87696Y7963D01*
X87700Y8000D01*
X87704Y8029D01*
Y8036D01*
Y8051D01*
X87696Y8076D01*
X87689Y8105D01*
X87678Y8142D01*
X87660Y8182D01*
X87635Y8222D01*
X87602Y8258D01*
X87598Y8262D01*
X87584Y8273D01*
X87562Y8287D01*
X87529Y8305D01*
X87493Y8324D01*
X87449Y8338D01*
X87398Y8349D01*
X87343Y8353D01*
X87322D01*
X87296Y8349D01*
X87263Y8345D01*
X87230Y8335D01*
X87194Y8324D01*
X87158Y8305D01*
X87125Y8284D01*
X87121Y8280D01*
X87110Y8269D01*
X87096Y8247D01*
X87078Y8218D01*
X87056Y8178D01*
X87030Y8127D01*
X87009Y8062D01*
X86983Y7985D01*
X86597Y6489D01*
X90401D01*
Y5787D01*
Y5783D01*
Y5776D01*
Y5761D01*
Y5743D01*
X90405Y5725D01*
Y5699D01*
X90412Y5645D01*
X90426Y5583D01*
X90441Y5525D01*
X90466Y5470D01*
X90499Y5423D01*
X90503Y5419D01*
X90517Y5404D01*
X90539Y5386D01*
X90568Y5368D01*
X90605Y5346D01*
X90645Y5332D01*
X90696Y5317D01*
X90750Y5313D01*
X90776D01*
X90805Y5321D01*
X90841Y5328D01*
X90881Y5339D01*
X90921Y5361D01*
X90965Y5386D01*
X91001Y5423D01*
X91005Y5426D01*
X91016Y5444D01*
X91031Y5470D01*
X91049Y5506D01*
X91067Y5557D01*
X91082Y5619D01*
X91093Y5696D01*
X91096Y5787D01*
Y7887D01*
Y7891D01*
Y7898D01*
Y7912D01*
Y7931D01*
X91093Y7952D01*
Y7974D01*
X91085Y8032D01*
X91074Y8091D01*
X91056Y8153D01*
X91034Y8207D01*
X91020Y8233D01*
X91001Y8254D01*
X90998Y8258D01*
X90983Y8269D01*
X90961Y8287D01*
X90932Y8305D01*
X90896Y8327D01*
X90852Y8342D01*
X90801Y8356D01*
X90747Y8360D01*
D02*
G37*
G36*
X89280Y4196D02*
X88490D01*
X88454Y4192D01*
X88403Y4189D01*
X88344Y4185D01*
X88272Y4174D01*
X88191Y4163D01*
X88104Y4149D01*
X88006Y4127D01*
X87904Y4101D01*
X87798Y4069D01*
X87686Y4032D01*
X87569Y3988D01*
X87453Y3934D01*
X87336Y3876D01*
X87220Y3806D01*
X87216D01*
X87212Y3803D01*
X87194Y3788D01*
X87161Y3766D01*
X87121Y3734D01*
X87074Y3694D01*
X87023Y3646D01*
X86965Y3588D01*
X86907Y3519D01*
X86852Y3446D01*
X86794Y3362D01*
X86743Y3271D01*
X86695Y3169D01*
X86655Y3064D01*
X86623Y2947D01*
X86604Y2820D01*
X86597Y2754D01*
Y2689D01*
Y2685D01*
Y2671D01*
Y2649D01*
X86601Y2620D01*
X86604Y2583D01*
X86608Y2543D01*
X86612Y2496D01*
X86619Y2445D01*
X86641Y2336D01*
X86674Y2216D01*
X86695Y2158D01*
X86721Y2099D01*
X86750Y2041D01*
X86783Y1986D01*
X86786Y1983D01*
X86790Y1972D01*
X86801Y1957D01*
X86819Y1936D01*
X86841Y1910D01*
X86866Y1881D01*
X86899Y1845D01*
X86936Y1808D01*
X86979Y1768D01*
X87030Y1724D01*
X87085Y1677D01*
X87147Y1630D01*
X87216Y1582D01*
X87292Y1531D01*
X87372Y1484D01*
X87463Y1433D01*
X87471Y1429D01*
X87485Y1422D01*
X87514Y1408D01*
X87551Y1393D01*
X87594Y1371D01*
X87649Y1349D01*
X87711Y1324D01*
X87780Y1299D01*
X87857Y1277D01*
X87940Y1251D01*
X88024Y1229D01*
X88119Y1208D01*
X88213Y1193D01*
X88312Y1178D01*
X88414Y1171D01*
X88519Y1167D01*
X89309D01*
X89345Y1171D01*
X89396Y1175D01*
X89458Y1178D01*
X89527Y1189D01*
X89607Y1200D01*
X89698Y1215D01*
X89793Y1237D01*
X89895Y1262D01*
X90004Y1295D01*
X90113Y1335D01*
X90230Y1379D01*
X90346Y1429D01*
X90463Y1491D01*
X90579Y1561D01*
X90587Y1564D01*
X90605Y1579D01*
X90637Y1601D01*
X90678Y1633D01*
X90721Y1673D01*
X90776Y1721D01*
X90830Y1779D01*
X90889Y1848D01*
X90947Y1921D01*
X91001Y2005D01*
X91056Y2096D01*
X91100Y2198D01*
X91140Y2307D01*
X91173Y2423D01*
X91191Y2547D01*
X91198Y2682D01*
Y2685D01*
Y2700D01*
Y2722D01*
X91194Y2751D01*
X91191Y2787D01*
X91187Y2831D01*
X91184Y2875D01*
X91176Y2926D01*
X91154Y3038D01*
X91122Y3159D01*
X91100Y3217D01*
X91074Y3279D01*
X91049Y3337D01*
X91016Y3391D01*
X91013Y3395D01*
X91009Y3406D01*
X90994Y3421D01*
X90980Y3439D01*
X90958Y3464D01*
X90932Y3497D01*
X90900Y3530D01*
X90860Y3566D01*
X90820Y3606D01*
X90769Y3650D01*
X90714Y3697D01*
X90652Y3745D01*
X90583Y3792D01*
X90507Y3839D01*
X90423Y3890D01*
X90335Y3937D01*
X90328Y3941D01*
X90314Y3948D01*
X90285Y3963D01*
X90248Y3977D01*
X90204Y3996D01*
X90150Y4018D01*
X90084Y4043D01*
X90015Y4065D01*
X89939Y4090D01*
X89859Y4116D01*
X89771Y4138D01*
X89680Y4156D01*
X89586Y4170D01*
X89484Y4185D01*
X89382Y4192D01*
X89280Y4196D01*
D02*
G37*
%LPD*%
G36*
X89334Y3497D02*
X89375D01*
X89425Y3490D01*
X89484Y3483D01*
X89546Y3475D01*
X89618Y3461D01*
X89695Y3442D01*
X89771Y3424D01*
X89855Y3399D01*
X89939Y3366D01*
X90022Y3330D01*
X90106Y3290D01*
X90190Y3239D01*
X90270Y3184D01*
X90274Y3180D01*
X90281Y3177D01*
X90292Y3166D01*
X90306Y3151D01*
X90324Y3133D01*
X90343Y3111D01*
X90364Y3086D01*
X90386Y3053D01*
X90408Y3020D01*
X90430Y2980D01*
X90448Y2940D01*
X90466Y2896D01*
X90481Y2846D01*
X90492Y2795D01*
X90499Y2736D01*
X90503Y2678D01*
Y2674D01*
Y2664D01*
Y2649D01*
X90499Y2627D01*
X90496Y2598D01*
X90488Y2569D01*
X90470Y2496D01*
X90459Y2456D01*
X90441Y2416D01*
X90419Y2372D01*
X90394Y2329D01*
X90364Y2285D01*
X90332Y2245D01*
X90292Y2205D01*
X90248Y2165D01*
X90244Y2161D01*
X90230Y2150D01*
X90208Y2136D01*
X90179Y2118D01*
X90139Y2096D01*
X90095Y2070D01*
X90041Y2041D01*
X89982Y2012D01*
X89913Y1986D01*
X89840Y1957D01*
X89760Y1932D01*
X89677Y1910D01*
X89586Y1892D01*
X89487Y1877D01*
X89385Y1866D01*
X89280Y1863D01*
X88494D01*
X88464Y1866D01*
X88424D01*
X88374Y1874D01*
X88315Y1881D01*
X88253Y1888D01*
X88181Y1903D01*
X88108Y1917D01*
X88028Y1939D01*
X87944Y1965D01*
X87860Y1997D01*
X87776Y2034D01*
X87693Y2074D01*
X87609Y2125D01*
X87529Y2179D01*
X87525Y2183D01*
X87518Y2187D01*
X87507Y2198D01*
X87493Y2212D01*
X87474Y2230D01*
X87453Y2252D01*
X87434Y2281D01*
X87409Y2310D01*
X87387Y2343D01*
X87369Y2383D01*
X87347Y2423D01*
X87329Y2471D01*
X87314Y2518D01*
X87303Y2569D01*
X87296Y2627D01*
X87292Y2685D01*
Y2689D01*
Y2700D01*
Y2714D01*
X87296Y2736D01*
X87300Y2765D01*
X87307Y2795D01*
X87325Y2867D01*
X87340Y2907D01*
X87354Y2951D01*
X87376Y2995D01*
X87402Y3038D01*
X87431Y3078D01*
X87467Y3122D01*
X87503Y3162D01*
X87551Y3202D01*
X87555Y3206D01*
X87569Y3213D01*
X87591Y3231D01*
X87620Y3249D01*
X87660Y3271D01*
X87704Y3297D01*
X87758Y3322D01*
X87817Y3351D01*
X87886Y3381D01*
X87959Y3406D01*
X88039Y3432D01*
X88122Y3453D01*
X88213Y3472D01*
X88312Y3486D01*
X88414Y3497D01*
X88519Y3501D01*
X89305D01*
X89334Y3497D01*
D02*
G37*
%LPC*%
G36*
X81096Y8504D02*
X80361D01*
X80357Y8497D01*
X80343Y8482D01*
X80321Y8456D01*
X80292Y8424D01*
X80259Y8380D01*
X80215Y8329D01*
X80168Y8271D01*
X80113Y8205D01*
X80051Y8133D01*
X79990Y8056D01*
X79921Y7976D01*
X79848Y7889D01*
X79695Y7710D01*
X79531Y7517D01*
X79364Y7321D01*
X79196Y7128D01*
X79029Y6939D01*
X78949Y6848D01*
X78869Y6757D01*
X78792Y6673D01*
X78719Y6593D01*
X78650Y6516D01*
X78581Y6447D01*
X78523Y6385D01*
X78465Y6331D01*
X78413Y6280D01*
X78370Y6240D01*
X78366Y6236D01*
X78359Y6233D01*
X78348Y6222D01*
X78330Y6207D01*
X78312Y6193D01*
X78286Y6178D01*
X78228Y6138D01*
X78162Y6101D01*
X78090Y6072D01*
X78013Y6047D01*
X77977Y6043D01*
X77937Y6040D01*
X77911D01*
X77893Y6043D01*
X77871Y6047D01*
X77846Y6050D01*
X77788Y6069D01*
X77718Y6094D01*
X77678Y6112D01*
X77642Y6134D01*
X77602Y6160D01*
X77565Y6193D01*
X77525Y6225D01*
X77489Y6265D01*
X77485Y6269D01*
X77482Y6276D01*
X77471Y6287D01*
X77460Y6305D01*
X77442Y6327D01*
X77427Y6356D01*
X77409Y6385D01*
X77391Y6422D01*
X77372Y6462D01*
X77354Y6505D01*
X77336Y6556D01*
X77321Y6607D01*
X77311Y6666D01*
X77300Y6724D01*
X77296Y6789D01*
X77292Y6855D01*
Y6859D01*
Y6873D01*
Y6891D01*
X77296Y6917D01*
X77300Y6950D01*
X77303Y6986D01*
X77311Y7030D01*
X77318Y7073D01*
X77347Y7172D01*
X77362Y7223D01*
X77383Y7277D01*
X77409Y7328D01*
X77438Y7379D01*
X77471Y7430D01*
X77511Y7477D01*
X77514Y7485D01*
X77533Y7499D01*
X77558Y7521D01*
X77598Y7550D01*
X77645Y7583D01*
X77704Y7616D01*
X77773Y7652D01*
X77853Y7681D01*
X77860Y7685D01*
X77875Y7692D01*
X77900Y7703D01*
X77933Y7718D01*
X77966Y7736D01*
X77999Y7758D01*
X78031Y7787D01*
X78057Y7816D01*
X78061Y7819D01*
X78064Y7830D01*
X78075Y7849D01*
X78086Y7870D01*
X78097Y7900D01*
X78104Y7936D01*
X78111Y7976D01*
X78115Y8020D01*
Y8027D01*
Y8042D01*
X78111Y8071D01*
X78104Y8104D01*
X78090Y8140D01*
X78075Y8184D01*
X78049Y8224D01*
X78017Y8264D01*
X78013Y8267D01*
X77999Y8278D01*
X77977Y8296D01*
X77948Y8315D01*
X77915Y8333D01*
X77871Y8351D01*
X77828Y8362D01*
X77776Y8365D01*
X77755D01*
X77740Y8362D01*
X77722Y8358D01*
X77697Y8355D01*
X77671Y8351D01*
X77638Y8344D01*
X77565Y8322D01*
X77478Y8286D01*
X77431Y8267D01*
X77380Y8242D01*
X77325Y8213D01*
X77271Y8180D01*
X77267Y8176D01*
X77256Y8173D01*
X77241Y8162D01*
X77220Y8144D01*
X77194Y8125D01*
X77165Y8100D01*
X77132Y8074D01*
X77096Y8042D01*
X77056Y8002D01*
X77016Y7961D01*
X76976Y7918D01*
X76936Y7867D01*
X76896Y7816D01*
X76856Y7758D01*
X76819Y7696D01*
X76783Y7630D01*
X76779Y7627D01*
X76775Y7612D01*
X76765Y7594D01*
X76754Y7568D01*
X76739Y7532D01*
X76725Y7492D01*
X76706Y7448D01*
X76688Y7397D01*
X76674Y7339D01*
X76655Y7281D01*
X76641Y7215D01*
X76626Y7146D01*
X76604Y7000D01*
X76601Y6924D01*
X76597Y6844D01*
Y6840D01*
Y6837D01*
Y6815D01*
X76601Y6782D01*
X76604Y6735D01*
X76608Y6680D01*
X76619Y6615D01*
X76630Y6542D01*
X76648Y6462D01*
X76670Y6382D01*
X76696Y6294D01*
X76728Y6203D01*
X76765Y6112D01*
X76812Y6021D01*
X76867Y5934D01*
X76928Y5847D01*
X76998Y5767D01*
X77001Y5763D01*
X77016Y5748D01*
X77038Y5726D01*
X77067Y5701D01*
X77107Y5668D01*
X77154Y5632D01*
X77205Y5596D01*
X77267Y5556D01*
X77332Y5515D01*
X77409Y5479D01*
X77485Y5443D01*
X77573Y5410D01*
X77664Y5384D01*
X77758Y5362D01*
X77857Y5348D01*
X77962Y5344D01*
X78009D01*
X78035Y5348D01*
X78068Y5352D01*
X78101Y5355D01*
X78137Y5359D01*
X78221Y5373D01*
X78308Y5395D01*
X78403Y5428D01*
X78497Y5468D01*
X78501D01*
X78508Y5475D01*
X78523Y5483D01*
X78541Y5494D01*
X78566Y5508D01*
X78596Y5530D01*
X78632Y5556D01*
X78672Y5585D01*
X78719Y5621D01*
X78770Y5661D01*
X78825Y5708D01*
X78887Y5763D01*
X78952Y5825D01*
X79021Y5890D01*
X79094Y5963D01*
X79174Y6047D01*
X79178Y6050D01*
X79189Y6065D01*
X79211Y6087D01*
X79240Y6120D01*
X79280Y6160D01*
X79331Y6214D01*
X79389Y6280D01*
X79455Y6356D01*
X79535Y6444D01*
X79626Y6545D01*
X79724Y6658D01*
X79837Y6786D01*
X79895Y6855D01*
X79961Y6928D01*
X80026Y7004D01*
X80095Y7084D01*
X80168Y7168D01*
X80241Y7259D01*
X80321Y7350D01*
X80401Y7445D01*
Y5920D01*
X80397Y5912D01*
X80386Y5898D01*
X80368Y5876D01*
X80350Y5843D01*
X80332Y5807D01*
X80314Y5767D01*
X80303Y5726D01*
X80299Y5683D01*
Y5679D01*
Y5676D01*
Y5657D01*
X80303Y5628D01*
X80314Y5592D01*
X80325Y5552D01*
X80343Y5512D01*
X80368Y5468D01*
X80405Y5432D01*
X80408Y5428D01*
X80426Y5417D01*
X80452Y5403D01*
X80488Y5384D01*
X80539Y5366D01*
X80601Y5352D01*
X80678Y5341D01*
X80765Y5337D01*
X81096D01*
Y8504D01*
D02*
G37*
G36*
X80608Y4252D02*
X80583D01*
X80558Y4249D01*
X80521Y4241D01*
X80481Y4227D01*
X80441Y4212D01*
X80397Y4187D01*
X80357Y4154D01*
X80354Y4150D01*
X80339Y4136D01*
X80325Y4114D01*
X80303Y4089D01*
X80285Y4052D01*
X80266Y4012D01*
X80255Y3965D01*
X80252Y3914D01*
Y3910D01*
Y3896D01*
X80255Y3877D01*
X80259Y3852D01*
X80270Y3819D01*
X80281Y3786D01*
X80299Y3750D01*
X80321Y3710D01*
X80325Y3703D01*
X80335Y3684D01*
X80354Y3655D01*
X80375Y3619D01*
X80397Y3575D01*
X80419Y3528D01*
X80441Y3477D01*
X80456Y3426D01*
Y3422D01*
X80459Y3415D01*
Y3404D01*
X80463Y3390D01*
X80467Y3368D01*
X80470Y3342D01*
X80474Y3313D01*
X80477Y3280D01*
X80485Y3244D01*
X80488Y3200D01*
X80492Y3157D01*
X80496Y3106D01*
X80499Y3051D01*
Y2997D01*
X80503Y2935D01*
Y2869D01*
Y2862D01*
Y2844D01*
Y2811D01*
X80499Y2771D01*
Y2720D01*
X80496Y2662D01*
X80488Y2600D01*
X80485Y2531D01*
X80463Y2389D01*
X80437Y2243D01*
X80419Y2174D01*
X80397Y2108D01*
X80375Y2046D01*
X80346Y1992D01*
X80343Y1988D01*
X80339Y1981D01*
X80328Y1966D01*
X80317Y1948D01*
X80281Y1905D01*
X80234Y1854D01*
X80168Y1806D01*
X80092Y1763D01*
X80051Y1744D01*
X80004Y1730D01*
X79953Y1722D01*
X79902Y1719D01*
X79880D01*
X79866Y1722D01*
X79848D01*
X79822Y1726D01*
X79771Y1737D01*
X79706Y1759D01*
X79637Y1788D01*
X79564Y1825D01*
X79527Y1850D01*
X79491Y1879D01*
X79487D01*
X79484Y1886D01*
X79473Y1894D01*
X79458Y1908D01*
X79422Y1941D01*
X79378Y1992D01*
X79327Y2050D01*
X79276Y2123D01*
X79225Y2207D01*
X79182Y2301D01*
X79178Y2309D01*
X79174Y2316D01*
X79171Y2330D01*
X79167Y2349D01*
X79160Y2367D01*
X79152Y2392D01*
X79149Y2421D01*
X79141Y2454D01*
X79134Y2491D01*
X79127Y2534D01*
X79120Y2582D01*
X79112Y2633D01*
X79105Y2687D01*
X79098Y2749D01*
X79094Y2815D01*
Y2818D01*
Y2822D01*
X79091Y2844D01*
X79087Y2873D01*
X79080Y2913D01*
X79065Y2953D01*
X79047Y3000D01*
X79025Y3040D01*
X78992Y3080D01*
X78989Y3084D01*
X78974Y3095D01*
X78952Y3109D01*
X78927Y3124D01*
X78890Y3142D01*
X78850Y3157D01*
X78803Y3168D01*
X78752Y3171D01*
X78727D01*
X78701Y3168D01*
X78665Y3160D01*
X78625Y3146D01*
X78585Y3131D01*
X78541Y3106D01*
X78501Y3073D01*
X78497Y3069D01*
X78486Y3055D01*
X78468Y3033D01*
X78450Y3004D01*
X78432Y2964D01*
X78413Y2920D01*
X78403Y2869D01*
X78399Y2815D01*
Y2811D01*
Y2800D01*
Y2782D01*
Y2760D01*
Y2734D01*
Y2705D01*
Y2640D01*
Y2574D01*
Y2541D01*
Y2512D01*
Y2491D01*
Y2469D01*
Y2454D01*
Y2447D01*
Y2440D01*
X78395Y2421D01*
X78392Y2396D01*
X78381Y2359D01*
X78370Y2320D01*
X78355Y2272D01*
X78337Y2225D01*
X78312Y2174D01*
X78308Y2167D01*
X78297Y2152D01*
X78279Y2127D01*
X78257Y2097D01*
X78228Y2061D01*
X78192Y2025D01*
X78151Y1988D01*
X78104Y1956D01*
X78097Y1952D01*
X78082Y1941D01*
X78057Y1930D01*
X78020Y1912D01*
X77980Y1897D01*
X77937Y1886D01*
X77886Y1875D01*
X77835Y1872D01*
X77813D01*
X77798Y1875D01*
X77758Y1883D01*
X77704Y1897D01*
X77645Y1919D01*
X77584Y1956D01*
X77551Y1977D01*
X77518Y2003D01*
X77485Y2032D01*
X77456Y2068D01*
X77453Y2072D01*
X77449Y2076D01*
X77442Y2090D01*
X77431Y2105D01*
X77420Y2127D01*
X77405Y2148D01*
X77391Y2177D01*
X77372Y2214D01*
X77358Y2250D01*
X77343Y2294D01*
X77329Y2341D01*
X77318Y2396D01*
X77307Y2451D01*
X77300Y2512D01*
X77292Y2582D01*
Y2651D01*
Y2658D01*
Y2673D01*
Y2698D01*
X77296Y2734D01*
X77300Y2774D01*
X77307Y2822D01*
X77318Y2876D01*
X77329Y2935D01*
X77343Y2997D01*
X77362Y3058D01*
X77387Y3124D01*
X77416Y3186D01*
X77449Y3248D01*
X77489Y3310D01*
X77533Y3368D01*
X77584Y3419D01*
X77587Y3422D01*
X77598Y3430D01*
X77613Y3444D01*
X77631Y3463D01*
X77667Y3503D01*
X77682Y3524D01*
X77693Y3542D01*
Y3546D01*
X77700Y3554D01*
X77704Y3568D01*
X77711Y3590D01*
X77718Y3612D01*
X77722Y3641D01*
X77729Y3703D01*
Y3710D01*
Y3725D01*
X77722Y3754D01*
X77715Y3786D01*
X77704Y3823D01*
X77685Y3867D01*
X77660Y3906D01*
X77627Y3947D01*
X77624Y3950D01*
X77609Y3961D01*
X77587Y3979D01*
X77558Y3994D01*
X77522Y4012D01*
X77478Y4030D01*
X77431Y4041D01*
X77376Y4045D01*
X77365D01*
X77354Y4041D01*
X77336D01*
X77314Y4034D01*
X77292Y4027D01*
X77231Y4005D01*
X77198Y3990D01*
X77161Y3968D01*
X77125Y3943D01*
X77085Y3914D01*
X77045Y3877D01*
X77005Y3837D01*
X76961Y3790D01*
X76921Y3735D01*
X76917Y3732D01*
X76907Y3714D01*
X76892Y3688D01*
X76870Y3655D01*
X76845Y3608D01*
X76819Y3557D01*
X76790Y3492D01*
X76757Y3422D01*
X76728Y3346D01*
X76699Y3259D01*
X76674Y3164D01*
X76648Y3066D01*
X76626Y2957D01*
X76612Y2844D01*
X76601Y2723D01*
X76597Y2600D01*
Y2596D01*
Y2592D01*
Y2571D01*
X76601Y2538D01*
X76604Y2494D01*
X76608Y2440D01*
X76615Y2374D01*
X76626Y2305D01*
X76644Y2228D01*
X76663Y2148D01*
X76688Y2065D01*
X76717Y1977D01*
X76754Y1890D01*
X76794Y1806D01*
X76845Y1722D01*
X76899Y1643D01*
X76965Y1566D01*
X76968Y1562D01*
X76983Y1548D01*
X77001Y1530D01*
X77030Y1504D01*
X77067Y1475D01*
X77107Y1442D01*
X77158Y1406D01*
X77212Y1369D01*
X77274Y1333D01*
X77340Y1300D01*
X77412Y1268D01*
X77493Y1238D01*
X77573Y1213D01*
X77660Y1195D01*
X77751Y1180D01*
X77846Y1177D01*
X77893D01*
X77915Y1180D01*
X77944Y1184D01*
X78009Y1191D01*
X78086Y1206D01*
X78170Y1224D01*
X78261Y1253D01*
X78348Y1293D01*
X78352D01*
X78359Y1297D01*
X78370Y1304D01*
X78388Y1315D01*
X78406Y1326D01*
X78432Y1340D01*
X78486Y1380D01*
X78552Y1428D01*
X78625Y1490D01*
X78698Y1559D01*
X78774Y1639D01*
X78777Y1635D01*
X78785Y1624D01*
X78796Y1610D01*
X78810Y1588D01*
X78832Y1562D01*
X78854Y1533D01*
X78883Y1500D01*
X78912Y1464D01*
X78985Y1391D01*
X79069Y1315D01*
X79160Y1238D01*
X79211Y1206D01*
X79262Y1177D01*
X79265Y1173D01*
X79273Y1169D01*
X79291Y1162D01*
X79309Y1151D01*
X79334Y1140D01*
X79367Y1129D01*
X79404Y1115D01*
X79444Y1100D01*
X79487Y1085D01*
X79535Y1071D01*
X79640Y1049D01*
X79757Y1031D01*
X79880Y1024D01*
X79917D01*
X79942Y1027D01*
X79975Y1031D01*
X80015Y1035D01*
X80059Y1042D01*
X80106Y1049D01*
X80157Y1060D01*
X80212Y1075D01*
X80325Y1111D01*
X80386Y1133D01*
X80445Y1158D01*
X80506Y1191D01*
X80565Y1228D01*
X80568Y1231D01*
X80579Y1238D01*
X80594Y1249D01*
X80616Y1264D01*
X80641Y1286D01*
X80670Y1311D01*
X80707Y1340D01*
X80739Y1377D01*
X80779Y1413D01*
X80816Y1457D01*
X80856Y1508D01*
X80896Y1559D01*
X80936Y1617D01*
X80972Y1679D01*
X81005Y1744D01*
X81038Y1814D01*
Y1817D01*
X81045Y1832D01*
X81053Y1854D01*
X81063Y1883D01*
X81074Y1923D01*
X81089Y1966D01*
X81103Y2021D01*
X81118Y2083D01*
X81133Y2152D01*
X81147Y2225D01*
X81162Y2309D01*
X81173Y2396D01*
X81184Y2491D01*
X81191Y2592D01*
X81195Y2702D01*
X81198Y2815D01*
Y2818D01*
Y2822D01*
Y2836D01*
Y2851D01*
Y2869D01*
Y2891D01*
X81195Y2946D01*
X81191Y3015D01*
X81184Y3091D01*
X81176Y3175D01*
X81165Y3266D01*
X81154Y3364D01*
X81136Y3463D01*
X81118Y3564D01*
X81093Y3666D01*
X81063Y3765D01*
X81031Y3859D01*
X80994Y3947D01*
X80951Y4027D01*
Y4030D01*
X80943Y4038D01*
X80936Y4048D01*
X80925Y4063D01*
X80892Y4100D01*
X80852Y4140D01*
X80801Y4180D01*
X80743Y4216D01*
X80714Y4231D01*
X80681Y4241D01*
X80645Y4249D01*
X80608Y4252D01*
D02*
G37*
G36*
X69223Y6744D02*
X68688D01*
X68652Y6740D01*
X68605Y6737D01*
X68543Y6729D01*
X68474Y6722D01*
X68393Y6707D01*
X68306Y6689D01*
X68212Y6667D01*
X68113Y6642D01*
X68011Y6606D01*
X67906Y6566D01*
X67797Y6518D01*
X67691Y6460D01*
X67585Y6395D01*
X67480Y6322D01*
X67476D01*
X67473Y6314D01*
X67462Y6307D01*
X67447Y6296D01*
X67411Y6263D01*
X67363Y6216D01*
X67309Y6162D01*
X67247Y6089D01*
X67178Y6009D01*
X67109Y5914D01*
X67043Y5812D01*
X66974Y5696D01*
X66912Y5568D01*
X66857Y5430D01*
X66810Y5281D01*
X66774Y5121D01*
X66759Y5040D01*
X66748Y4953D01*
X66745Y4866D01*
X66741Y4775D01*
Y4771D01*
Y4760D01*
Y4746D01*
Y4727D01*
Y4702D01*
X66745Y4669D01*
Y4636D01*
X66748Y4600D01*
X66755Y4516D01*
X66766Y4425D01*
X66781Y4327D01*
X66799Y4232D01*
Y4229D01*
X66803Y4221D01*
X66807Y4207D01*
X66810Y4189D01*
X66817Y4167D01*
X66825Y4138D01*
X66843Y4076D01*
X66865Y3999D01*
X66897Y3919D01*
X66930Y3832D01*
X66970Y3745D01*
X66963Y3737D01*
X66948Y3719D01*
X66930Y3694D01*
X66905Y3657D01*
X66883Y3617D01*
X66861Y3573D01*
X66847Y3523D01*
X66843Y3475D01*
Y3468D01*
Y3450D01*
X66847Y3421D01*
X66857Y3388D01*
X66868Y3348D01*
X66887Y3308D01*
X66912Y3264D01*
X66948Y3228D01*
X66952Y3224D01*
X66970Y3213D01*
X66996Y3195D01*
X67032Y3177D01*
X67083Y3162D01*
X67145Y3144D01*
X67218Y3133D01*
X67305Y3129D01*
X67797D01*
X67840Y3133D01*
X67895Y3140D01*
X67953Y3155D01*
X68011Y3169D01*
X68066Y3195D01*
X68113Y3228D01*
X68117Y3231D01*
X68128Y3246D01*
X68146Y3268D01*
X68164Y3297D01*
X68186Y3333D01*
X68201Y3373D01*
X68215Y3424D01*
X68219Y3479D01*
Y3483D01*
Y3497D01*
X68215Y3523D01*
X68208Y3548D01*
X68201Y3581D01*
X68190Y3617D01*
X68172Y3654D01*
X68146Y3686D01*
X68142Y3690D01*
X68135Y3697D01*
X68120Y3712D01*
X68099Y3726D01*
X68070Y3745D01*
X68029Y3763D01*
X67982Y3785D01*
X67924Y3803D01*
X67920D01*
X67917Y3806D01*
X67895Y3810D01*
X67866Y3821D01*
X67829Y3832D01*
X67789Y3847D01*
X67749Y3865D01*
X67716Y3883D01*
X67687Y3905D01*
X67684Y3908D01*
X67669Y3923D01*
X67651Y3945D01*
X67629Y3977D01*
X67600Y4025D01*
X67571Y4079D01*
X67542Y4149D01*
X67513Y4229D01*
Y4232D01*
X67509Y4240D01*
X67505Y4250D01*
X67502Y4269D01*
X67494Y4291D01*
X67487Y4316D01*
X67480Y4349D01*
X67473Y4382D01*
X67462Y4458D01*
X67447Y4545D01*
X67440Y4644D01*
X67436Y4749D01*
Y4753D01*
Y4767D01*
Y4789D01*
X67440Y4818D01*
Y4855D01*
X67444Y4895D01*
X67451Y4942D01*
X67458Y4993D01*
X67476Y5106D01*
X67509Y5226D01*
X67549Y5350D01*
X67578Y5408D01*
X67607Y5466D01*
Y5470D01*
X67615Y5477D01*
X67622Y5488D01*
X67633Y5503D01*
X67662Y5546D01*
X67684Y5572D01*
X67709Y5597D01*
X67735Y5626D01*
X67767Y5659D01*
X67804Y5692D01*
X67844Y5728D01*
X67888Y5761D01*
X67935Y5798D01*
X67986Y5830D01*
X68044Y5867D01*
X68048Y5870D01*
X68059Y5874D01*
X68077Y5885D01*
X68099Y5896D01*
X68128Y5910D01*
X68161Y5925D01*
X68201Y5940D01*
X68244Y5958D01*
X68295Y5976D01*
X68346Y5990D01*
X68463Y6020D01*
X68586Y6041D01*
X68652Y6045D01*
X68721Y6049D01*
X69249D01*
X69278Y6045D01*
X69314D01*
X69362Y6038D01*
X69416Y6030D01*
X69475Y6023D01*
X69537Y6009D01*
X69606Y5990D01*
X69675Y5969D01*
X69744Y5943D01*
X69817Y5914D01*
X69886Y5878D01*
X69951Y5834D01*
X70013Y5783D01*
X70072Y5728D01*
X70075Y5725D01*
X70082Y5714D01*
X70097Y5692D01*
X70115Y5666D01*
X70137Y5630D01*
X70162Y5590D01*
X70188Y5539D01*
X70214Y5477D01*
X70243Y5412D01*
X70268Y5335D01*
X70294Y5252D01*
X70315Y5157D01*
X70334Y5055D01*
X70348Y4946D01*
X70355Y4826D01*
X70359Y4698D01*
Y4691D01*
Y4676D01*
Y4651D01*
X70355Y4618D01*
X70352Y4575D01*
X70348Y4527D01*
X70345Y4473D01*
X70337Y4411D01*
X70326Y4345D01*
X70315Y4276D01*
X70283Y4127D01*
X70265Y4054D01*
X70239Y3977D01*
X70214Y3901D01*
X70181Y3825D01*
X69682D01*
Y4534D01*
Y4538D01*
Y4545D01*
Y4560D01*
Y4578D01*
X69678Y4600D01*
Y4622D01*
X69671Y4680D01*
X69660Y4738D01*
X69642Y4800D01*
X69620Y4855D01*
X69606Y4880D01*
X69587Y4902D01*
X69584Y4906D01*
X69569Y4917D01*
X69547Y4935D01*
X69522Y4953D01*
X69485Y4975D01*
X69442Y4989D01*
X69391Y5004D01*
X69336Y5008D01*
X69311D01*
X69282Y5000D01*
X69245Y4993D01*
X69205Y4982D01*
X69165Y4964D01*
X69121Y4939D01*
X69085Y4902D01*
X69081Y4898D01*
X69071Y4880D01*
X69052Y4855D01*
X69034Y4815D01*
X69020Y4767D01*
X69001Y4702D01*
X68990Y4625D01*
X68987Y4582D01*
Y4534D01*
X68990Y3129D01*
Y3122D01*
Y3108D01*
X68994Y3082D01*
X69001Y3049D01*
X69016Y3013D01*
X69030Y2973D01*
X69056Y2933D01*
X69089Y2893D01*
X69092Y2889D01*
X69107Y2875D01*
X69125Y2856D01*
X69154Y2838D01*
X69191Y2816D01*
X69234Y2802D01*
X69282Y2787D01*
X69336Y2784D01*
X69362D01*
X69391Y2791D01*
X69427Y2798D01*
X69467Y2809D01*
X69511Y2831D01*
X69551Y2856D01*
X69591Y2893D01*
X69595Y2896D01*
X69606Y2911D01*
X69620Y2933D01*
X69638Y2962D01*
X69657Y2998D01*
X69671Y3038D01*
X69682Y3082D01*
X69686Y3129D01*
X70614D01*
X70618Y3133D01*
X70625Y3151D01*
X70639Y3177D01*
X70654Y3210D01*
X70676Y3249D01*
X70698Y3297D01*
X70727Y3348D01*
X70752Y3406D01*
X70781Y3468D01*
X70811Y3533D01*
X70869Y3668D01*
X70920Y3803D01*
X70942Y3868D01*
X70960Y3934D01*
Y3937D01*
X70963Y3948D01*
X70967Y3967D01*
X70974Y3992D01*
X70982Y4021D01*
X70989Y4058D01*
X71000Y4101D01*
X71007Y4149D01*
X71014Y4200D01*
X71025Y4254D01*
X71033Y4312D01*
X71040Y4374D01*
X71051Y4505D01*
X71054Y4647D01*
Y4655D01*
Y4669D01*
Y4698D01*
X71051Y4738D01*
Y4786D01*
X71047Y4840D01*
X71040Y4902D01*
X71036Y4971D01*
X71025Y5044D01*
X71014Y5121D01*
X70989Y5288D01*
X70949Y5459D01*
X70927Y5546D01*
X70898Y5634D01*
Y5637D01*
X70890Y5648D01*
X70883Y5666D01*
X70876Y5692D01*
X70865Y5721D01*
X70850Y5757D01*
X70832Y5798D01*
X70814Y5838D01*
X70767Y5929D01*
X70716Y6020D01*
X70654Y6111D01*
X70588Y6194D01*
X70585Y6198D01*
X70581Y6202D01*
X70570Y6213D01*
X70552Y6227D01*
X70534Y6245D01*
X70512Y6267D01*
X70483Y6293D01*
X70450Y6318D01*
X70414Y6347D01*
X70374Y6376D01*
X70326Y6409D01*
X70279Y6438D01*
X70224Y6475D01*
X70166Y6507D01*
X70104Y6540D01*
X70039Y6573D01*
X70035D01*
X70021Y6580D01*
X70002Y6587D01*
X69973Y6598D01*
X69941Y6613D01*
X69901Y6627D01*
X69853Y6642D01*
X69799Y6657D01*
X69744Y6675D01*
X69678Y6689D01*
X69613Y6704D01*
X69540Y6718D01*
X69467Y6729D01*
X69387Y6737D01*
X69307Y6740D01*
X69223Y6744D01*
D02*
G37*
G36*
X59223D02*
X58688D01*
X58652Y6740D01*
X58605Y6737D01*
X58543Y6729D01*
X58474Y6722D01*
X58394Y6707D01*
X58306Y6689D01*
X58211Y6667D01*
X58113Y6642D01*
X58011Y6606D01*
X57906Y6566D01*
X57797Y6518D01*
X57691Y6460D01*
X57585Y6395D01*
X57480Y6322D01*
X57476D01*
X57473Y6314D01*
X57462Y6307D01*
X57447Y6296D01*
X57411Y6263D01*
X57363Y6216D01*
X57309Y6162D01*
X57247Y6089D01*
X57178Y6009D01*
X57109Y5914D01*
X57043Y5812D01*
X56974Y5696D01*
X56912Y5568D01*
X56857Y5430D01*
X56810Y5281D01*
X56774Y5121D01*
X56759Y5040D01*
X56748Y4953D01*
X56745Y4866D01*
X56741Y4775D01*
Y4771D01*
Y4760D01*
Y4746D01*
Y4727D01*
Y4702D01*
X56745Y4669D01*
Y4636D01*
X56748Y4600D01*
X56756Y4516D01*
X56766Y4425D01*
X56781Y4327D01*
X56799Y4232D01*
Y4229D01*
X56803Y4221D01*
X56806Y4207D01*
X56810Y4189D01*
X56817Y4167D01*
X56825Y4138D01*
X56843Y4076D01*
X56865Y3999D01*
X56897Y3919D01*
X56930Y3832D01*
X56970Y3745D01*
X56963Y3737D01*
X56948Y3719D01*
X56930Y3694D01*
X56905Y3657D01*
X56883Y3617D01*
X56861Y3573D01*
X56846Y3523D01*
X56843Y3475D01*
Y3468D01*
Y3450D01*
X56846Y3421D01*
X56857Y3388D01*
X56868Y3348D01*
X56887Y3308D01*
X56912Y3264D01*
X56948Y3228D01*
X56952Y3224D01*
X56970Y3213D01*
X56996Y3195D01*
X57032Y3177D01*
X57083Y3162D01*
X57145Y3144D01*
X57218Y3133D01*
X57305Y3129D01*
X57797D01*
X57840Y3133D01*
X57895Y3140D01*
X57953Y3155D01*
X58011Y3169D01*
X58066Y3195D01*
X58113Y3228D01*
X58117Y3231D01*
X58128Y3246D01*
X58146Y3268D01*
X58164Y3297D01*
X58186Y3333D01*
X58201Y3373D01*
X58215Y3424D01*
X58219Y3479D01*
Y3483D01*
Y3497D01*
X58215Y3523D01*
X58208Y3548D01*
X58201Y3581D01*
X58190Y3617D01*
X58171Y3654D01*
X58146Y3686D01*
X58142Y3690D01*
X58135Y3697D01*
X58121Y3712D01*
X58099Y3726D01*
X58070Y3745D01*
X58030Y3763D01*
X57982Y3785D01*
X57924Y3803D01*
X57920D01*
X57917Y3806D01*
X57895Y3810D01*
X57866Y3821D01*
X57829Y3832D01*
X57789Y3847D01*
X57749Y3865D01*
X57717Y3883D01*
X57687Y3905D01*
X57684Y3908D01*
X57669Y3923D01*
X57651Y3945D01*
X57629Y3977D01*
X57600Y4025D01*
X57571Y4079D01*
X57542Y4149D01*
X57513Y4229D01*
Y4232D01*
X57509Y4240D01*
X57505Y4250D01*
X57502Y4269D01*
X57494Y4291D01*
X57487Y4316D01*
X57480Y4349D01*
X57473Y4382D01*
X57462Y4458D01*
X57447Y4545D01*
X57440Y4644D01*
X57436Y4749D01*
Y4753D01*
Y4767D01*
Y4789D01*
X57440Y4818D01*
Y4855D01*
X57443Y4895D01*
X57451Y4942D01*
X57458Y4993D01*
X57476Y5106D01*
X57509Y5226D01*
X57549Y5350D01*
X57578Y5408D01*
X57607Y5466D01*
Y5470D01*
X57614Y5477D01*
X57622Y5488D01*
X57633Y5503D01*
X57662Y5546D01*
X57684Y5572D01*
X57709Y5597D01*
X57735Y5626D01*
X57767Y5659D01*
X57804Y5692D01*
X57844Y5728D01*
X57888Y5761D01*
X57935Y5798D01*
X57986Y5830D01*
X58044Y5867D01*
X58048Y5870D01*
X58059Y5874D01*
X58077Y5885D01*
X58099Y5896D01*
X58128Y5910D01*
X58161Y5925D01*
X58201Y5940D01*
X58244Y5958D01*
X58295Y5976D01*
X58346Y5990D01*
X58463Y6020D01*
X58586Y6041D01*
X58652Y6045D01*
X58721Y6049D01*
X59249D01*
X59278Y6045D01*
X59314D01*
X59362Y6038D01*
X59416Y6030D01*
X59475Y6023D01*
X59536Y6009D01*
X59606Y5990D01*
X59675Y5969D01*
X59744Y5943D01*
X59817Y5914D01*
X59886Y5878D01*
X59951Y5834D01*
X60013Y5783D01*
X60072Y5728D01*
X60075Y5725D01*
X60083Y5714D01*
X60097Y5692D01*
X60115Y5666D01*
X60137Y5630D01*
X60163Y5590D01*
X60188Y5539D01*
X60214Y5477D01*
X60243Y5412D01*
X60268Y5335D01*
X60294Y5252D01*
X60315Y5157D01*
X60334Y5055D01*
X60348Y4946D01*
X60356Y4826D01*
X60359Y4698D01*
Y4691D01*
Y4676D01*
Y4651D01*
X60356Y4618D01*
X60352Y4575D01*
X60348Y4527D01*
X60345Y4473D01*
X60337Y4411D01*
X60326Y4345D01*
X60315Y4276D01*
X60283Y4127D01*
X60264Y4054D01*
X60239Y3977D01*
X60214Y3901D01*
X60181Y3825D01*
X59682D01*
Y4534D01*
Y4538D01*
Y4545D01*
Y4560D01*
Y4578D01*
X59678Y4600D01*
Y4622D01*
X59671Y4680D01*
X59660Y4738D01*
X59642Y4800D01*
X59620Y4855D01*
X59606Y4880D01*
X59587Y4902D01*
X59584Y4906D01*
X59569Y4917D01*
X59547Y4935D01*
X59522Y4953D01*
X59486Y4975D01*
X59442Y4989D01*
X59391Y5004D01*
X59336Y5008D01*
X59311D01*
X59282Y5000D01*
X59245Y4993D01*
X59205Y4982D01*
X59165Y4964D01*
X59122Y4939D01*
X59085Y4902D01*
X59082Y4898D01*
X59071Y4880D01*
X59052Y4855D01*
X59034Y4815D01*
X59020Y4767D01*
X59001Y4702D01*
X58991Y4625D01*
X58987Y4582D01*
Y4534D01*
X58991Y3129D01*
Y3122D01*
Y3108D01*
X58994Y3082D01*
X59001Y3049D01*
X59016Y3013D01*
X59030Y2973D01*
X59056Y2933D01*
X59089Y2893D01*
X59092Y2889D01*
X59107Y2875D01*
X59125Y2856D01*
X59154Y2838D01*
X59191Y2816D01*
X59234Y2802D01*
X59282Y2787D01*
X59336Y2784D01*
X59362D01*
X59391Y2791D01*
X59427Y2798D01*
X59467Y2809D01*
X59511Y2831D01*
X59551Y2856D01*
X59591Y2893D01*
X59595Y2896D01*
X59606Y2911D01*
X59620Y2933D01*
X59638Y2962D01*
X59657Y2998D01*
X59671Y3038D01*
X59682Y3082D01*
X59686Y3129D01*
X60614D01*
X60618Y3133D01*
X60625Y3151D01*
X60639Y3177D01*
X60654Y3210D01*
X60676Y3249D01*
X60698Y3297D01*
X60727Y3348D01*
X60752Y3406D01*
X60781Y3468D01*
X60811Y3533D01*
X60869Y3668D01*
X60920Y3803D01*
X60941Y3868D01*
X60960Y3934D01*
Y3937D01*
X60963Y3948D01*
X60967Y3967D01*
X60974Y3992D01*
X60982Y4021D01*
X60989Y4058D01*
X61000Y4101D01*
X61007Y4149D01*
X61014Y4200D01*
X61025Y4254D01*
X61032Y4312D01*
X61040Y4374D01*
X61051Y4505D01*
X61054Y4647D01*
Y4655D01*
Y4669D01*
Y4698D01*
X61051Y4738D01*
Y4786D01*
X61047Y4840D01*
X61040Y4902D01*
X61036Y4971D01*
X61025Y5044D01*
X61014Y5121D01*
X60989Y5288D01*
X60949Y5459D01*
X60927Y5546D01*
X60898Y5634D01*
Y5637D01*
X60891Y5648D01*
X60883Y5666D01*
X60876Y5692D01*
X60865Y5721D01*
X60851Y5757D01*
X60832Y5798D01*
X60814Y5838D01*
X60767Y5929D01*
X60716Y6020D01*
X60654Y6111D01*
X60588Y6194D01*
X60585Y6198D01*
X60581Y6202D01*
X60570Y6213D01*
X60552Y6227D01*
X60534Y6245D01*
X60512Y6267D01*
X60483Y6293D01*
X60450Y6318D01*
X60414Y6347D01*
X60374Y6376D01*
X60326Y6409D01*
X60279Y6438D01*
X60224Y6475D01*
X60166Y6507D01*
X60104Y6540D01*
X60039Y6573D01*
X60035D01*
X60021Y6580D01*
X60002Y6587D01*
X59973Y6598D01*
X59940Y6613D01*
X59900Y6627D01*
X59853Y6642D01*
X59799Y6657D01*
X59744Y6675D01*
X59678Y6689D01*
X59613Y6704D01*
X59540Y6718D01*
X59467Y6729D01*
X59387Y6737D01*
X59307Y6740D01*
X59223Y6744D01*
D02*
G37*
G36*
X1027742Y-182930D02*
X1019725D01*
Y-183216D01*
Y-183502D01*
Y-183789D01*
Y-184075D01*
Y-184361D01*
X1019438D01*
Y-184648D01*
Y-184934D01*
Y-185220D01*
Y-185507D01*
Y-185793D01*
Y-186079D01*
X1019152D01*
Y-186365D01*
Y-186652D01*
Y-186938D01*
Y-187224D01*
Y-187511D01*
Y-187797D01*
X1018866D01*
Y-188083D01*
Y-188370D01*
Y-188656D01*
Y-188942D01*
Y-189229D01*
Y-189515D01*
X1018580D01*
Y-189801D01*
Y-190088D01*
Y-190374D01*
Y-190660D01*
Y-190946D01*
Y-191233D01*
Y-191519D01*
X1018293D01*
Y-191806D01*
Y-192092D01*
Y-192378D01*
Y-192664D01*
Y-192951D01*
Y-193237D01*
X1018007D01*
Y-193523D01*
Y-193810D01*
Y-194096D01*
X1025165D01*
Y-193810D01*
X1026310D01*
Y-193523D01*
X1026883D01*
Y-193237D01*
X1027169D01*
Y-192951D01*
X1027455D01*
Y-192664D01*
X1027742D01*
Y-192378D01*
X1028028D01*
Y-192092D01*
Y-191806D01*
X1028314D01*
Y-191519D01*
Y-191233D01*
X1028601D01*
Y-190946D01*
Y-190660D01*
X1028887D01*
Y-190374D01*
Y-190088D01*
Y-189801D01*
Y-189515D01*
X1029173D01*
Y-189229D01*
Y-188942D01*
Y-188656D01*
Y-188370D01*
Y-188083D01*
X1029459D01*
Y-187797D01*
Y-187511D01*
Y-187224D01*
Y-186938D01*
Y-186652D01*
Y-186365D01*
Y-186079D01*
Y-185793D01*
Y-185507D01*
Y-185220D01*
Y-184934D01*
X1029173D01*
Y-184648D01*
Y-184361D01*
X1028887D01*
Y-184075D01*
Y-183789D01*
X1028601D01*
Y-183502D01*
X1028314D01*
Y-183216D01*
X1027742D01*
Y-182930D01*
D02*
G37*
%LPD*%
D10*
X45354Y23701D02*
G03*
X52441Y23701I3543J0D01*
G01*
D02*
G03*
X45354Y23701I-3543J0D01*
G01*
X55354D02*
G03*
X62441Y23701I3543J0D01*
G01*
D02*
G03*
X55354Y23701I-3543J0D01*
G01*
X65354D02*
G03*
X72441Y23701I3543J0D01*
G01*
D02*
G03*
X65354Y23701I-3543J0D01*
G01*
X75354D02*
G03*
X82441Y23701I3543J0D01*
G01*
D02*
G03*
X75354Y23701I-3543J0D01*
G01*
X92441D02*
G03*
X85354Y23701I-3543J0D01*
G01*
D02*
G03*
X92441Y23701I3543J0D01*
G01*
X55354Y13701D02*
G03*
X62441Y13701I3543J0D01*
G01*
D02*
G03*
X55354Y13701I-3543J0D01*
G01*
X65354D02*
G03*
X72441Y13701I3543J0D01*
G01*
D02*
G03*
X65354Y13701I-3543J0D01*
G01*
X75354D02*
G03*
X82441Y13701I3543J0D01*
G01*
D02*
G03*
X75354Y13701I-3543J0D01*
G01*
X92441D02*
G03*
X85354Y13701I-3543J0D01*
G01*
D02*
G03*
X92441Y13701I3543J0D01*
G01*
X45354Y8583D02*
Y17244D01*
X52441D01*
Y8701D02*
Y17244D01*
X45354Y10158D02*
X52441D01*
X45354Y27244D02*
X52441D01*
X45354Y23701D02*
Y28701D01*
X52441Y23701D02*
Y28819D01*
X55354Y27244D02*
X62441D01*
X55354Y23701D02*
Y28701D01*
X62441Y23701D02*
Y28819D01*
X65354Y27244D02*
X72441D01*
X65354Y23701D02*
Y28701D01*
X72441Y23701D02*
Y28819D01*
X75354Y27244D02*
X82441D01*
X75354Y23701D02*
Y28701D01*
X82441Y23701D02*
Y28819D01*
X92441Y23701D02*
Y28819D01*
X85354Y23701D02*
Y28701D01*
Y27244D02*
X92441D01*
X55354Y8583D02*
Y13701D01*
X62441Y8701D02*
Y13701D01*
X55354Y10158D02*
X62441D01*
X65354Y8583D02*
Y13701D01*
X72441Y8701D02*
Y13701D01*
X65354Y10158D02*
X72441D01*
X75354Y8583D02*
Y13701D01*
X82441Y8701D02*
Y13701D01*
X75354Y10158D02*
X82441D01*
X85354D02*
X92441D01*
Y8701D02*
Y13701D01*
X85354Y8583D02*
Y13701D01*
X227954Y94331D02*
Y114331D01*
X27953Y94331D02*
Y114331D01*
Y94331D02*
X227954Y94331D01*
X27953Y114331D02*
X227954Y114331D01*
X215984Y94331D02*
X219921D01*
X215984Y114331D02*
X219921D01*
X225827D02*
X228937D01*
X225827Y94331D02*
X228937D01*
X195984D02*
X199921D01*
X195984Y114331D02*
X199921D01*
X175984Y94331D02*
X179921D01*
X175984Y114331D02*
X179921D01*
X155984Y94331D02*
X159921D01*
X155984Y114331D02*
X159921D01*
X135984Y94331D02*
X139921D01*
X135984Y114331D02*
X139921D01*
X125984D02*
X129921D01*
X125984Y94331D02*
X129921D01*
X105984Y114331D02*
X109921D01*
X105984Y94331D02*
X109921D01*
X85984Y114331D02*
X89921D01*
X85984Y94331D02*
X89921D01*
X75984D02*
X79921D01*
X75984Y114331D02*
X79921D01*
X65984D02*
X69921D01*
X65984Y94331D02*
X69921D01*
X55984D02*
X59921D01*
X55984Y114331D02*
X59921D01*
X228937Y94331D02*
Y114331D01*
X26969Y94331D02*
Y114331D01*
Y94331D02*
X30079D01*
X26969Y114331D02*
X30079D01*
X35984Y94331D02*
X39921D01*
X35984Y114331D02*
X39921D01*
X45984D02*
X49921D01*
X45984Y94331D02*
X49921D01*
X95984D02*
X99921D01*
X95984Y114331D02*
X99921D01*
X115984Y94331D02*
X119921D01*
X115984Y114331D02*
X119921D01*
X145984D02*
X149921D01*
X145984Y94331D02*
X149921D01*
X165984Y114331D02*
X169921D01*
X165984Y94331D02*
X169921D01*
X185984Y114331D02*
X189921D01*
X185984Y94331D02*
X189921D01*
X205984Y114331D02*
X209921D01*
X205984Y94331D02*
X209921D01*
X1338583Y-259842D02*
Y-220472D01*
X1181102Y-181102D02*
X1456693D01*
X1181102Y-220472D02*
X1456693D01*
X984252Y-259842D02*
X1456693D01*
X984252Y-141732D02*
X1456693D01*
X984252Y-299213D02*
Y-141732D01*
X1181102Y-299213D02*
Y-141732D01*
X-196850Y870079D02*
X1456693D01*
Y-299213D02*
Y870079D01*
X-196850Y-299213D02*
Y870079D01*
Y-299213D02*
X1456693D01*
X1190945Y-291339D02*
Y-285435D01*
X1193897D01*
X1194881Y-286419D01*
Y-288387D01*
X1193897Y-289371D01*
X1190945D01*
X1192913D02*
X1194881Y-291339D01*
X1196848D02*
Y-285435D01*
X1199800D01*
X1200784Y-286419D01*
Y-288387D01*
X1199800Y-289371D01*
X1196848D01*
X1202752Y-285435D02*
X1204720D01*
X1203736D01*
Y-291339D01*
X1202752D01*
X1204720D01*
X1207672Y-292322D02*
X1211607D01*
X1217511Y-285435D02*
X1213575D01*
Y-288387D01*
X1215543D01*
X1213575D01*
Y-291339D01*
X1223415Y-285435D02*
X1219479D01*
Y-291339D01*
X1223415D01*
X1219479Y-288387D02*
X1221447D01*
X1225383Y-285435D02*
X1229318D01*
Y-286419D01*
X1225383Y-290355D01*
Y-291339D01*
X1229318D01*
X1231286Y-292322D02*
X1235222D01*
X1237190Y-285435D02*
Y-291339D01*
X1240141D01*
X1241125Y-290355D01*
Y-286419D01*
X1240141Y-285435D01*
X1237190D01*
X1243093Y-291339D02*
Y-287403D01*
X1245061Y-285435D01*
X1247029Y-287403D01*
Y-291339D01*
Y-288387D01*
X1243093D01*
X1252933Y-286419D02*
X1251949Y-285435D01*
X1249981D01*
X1248997Y-286419D01*
Y-290355D01*
X1249981Y-291339D01*
X1251949D01*
X1252933Y-290355D01*
X1254900Y-292322D02*
X1258836D01*
X1260804Y-286419D02*
X1261788Y-285435D01*
X1263756D01*
X1264740Y-286419D01*
Y-290355D01*
X1263756Y-291339D01*
X1261788D01*
X1260804Y-290355D01*
Y-286419D01*
X1266708D02*
X1267692Y-285435D01*
X1269660D01*
X1270644Y-286419D01*
Y-290355D01*
X1269660Y-291339D01*
X1267692D01*
X1266708Y-290355D01*
Y-286419D01*
X1272611Y-291339D02*
Y-290355D01*
X1273595D01*
Y-291339D01*
X1272611D01*
X1277531D02*
Y-285435D01*
X1280483D01*
X1281467Y-286419D01*
Y-288387D01*
X1280483Y-289371D01*
X1277531D01*
X1287370Y-287403D02*
X1284418D01*
X1283435Y-288387D01*
Y-290355D01*
X1284418Y-291339D01*
X1287370D01*
X1289338Y-285435D02*
Y-291339D01*
X1292290D01*
X1293274Y-290355D01*
Y-289371D01*
Y-288387D01*
X1292290Y-287403D01*
X1289338D01*
X1295242Y-285435D02*
Y-291339D01*
X1298194D01*
X1299177Y-290355D01*
Y-286419D01*
X1298194Y-285435D01*
X1295242D01*
X1302129Y-291339D02*
X1304097D01*
X1305081Y-290355D01*
Y-288387D01*
X1304097Y-287403D01*
X1302129D01*
X1301145Y-288387D01*
Y-290355D01*
X1302129Y-291339D01*
X1310985Y-287403D02*
X1308033D01*
X1307049Y-288387D01*
Y-290355D01*
X1308033Y-291339D01*
X1310985D01*
D21*
X1202756Y-198823D02*
Y-212598D01*
X1209643D01*
X1211939Y-210303D01*
Y-208007D01*
X1209643Y-205711D01*
X1202756D01*
X1209643D01*
X1211939Y-203415D01*
Y-201119D01*
X1209643Y-198823D01*
X1202756D01*
X1218827Y-212598D02*
X1223419D01*
X1225714Y-210303D01*
Y-205711D01*
X1223419Y-203415D01*
X1218827D01*
X1216531Y-205711D01*
Y-210303D01*
X1218827Y-212598D01*
X1232602Y-201119D02*
Y-203415D01*
X1230306D01*
X1234898D01*
X1232602D01*
Y-210303D01*
X1234898Y-212598D01*
X1244081Y-201119D02*
Y-203415D01*
X1241785D01*
X1246377D01*
X1244081D01*
Y-210303D01*
X1246377Y-212598D01*
X1255560D02*
X1260152D01*
X1262448Y-210303D01*
Y-205711D01*
X1260152Y-203415D01*
X1255560D01*
X1253265Y-205711D01*
Y-210303D01*
X1255560Y-212598D01*
X1267040D02*
Y-203415D01*
X1269335D01*
X1271631Y-205711D01*
Y-212598D01*
Y-205711D01*
X1273927Y-203415D01*
X1276223Y-205711D01*
Y-212598D01*
X1301477Y-198823D02*
X1296886D01*
X1294590Y-201119D01*
Y-210303D01*
X1296886Y-212598D01*
X1301477D01*
X1303773Y-210303D01*
Y-201119D01*
X1301477Y-198823D01*
X1308365Y-203415D02*
X1312957Y-212598D01*
X1317548Y-203415D01*
X1329027Y-212598D02*
X1324436D01*
X1322140Y-210303D01*
Y-205711D01*
X1324436Y-203415D01*
X1329027D01*
X1331323Y-205711D01*
Y-208007D01*
X1322140D01*
X1335915Y-203415D02*
Y-212598D01*
Y-208007D01*
X1338211Y-205711D01*
X1340507Y-203415D01*
X1342803D01*
X1349690Y-212598D02*
X1354282D01*
X1351986D01*
Y-198823D01*
X1349690D01*
X1363465Y-203415D02*
X1368057D01*
X1370353Y-205711D01*
Y-212598D01*
X1363465D01*
X1361169Y-210303D01*
X1363465Y-208007D01*
X1370353D01*
X1374944Y-203415D02*
Y-210303D01*
X1377240Y-212598D01*
X1384128D01*
Y-214894D01*
X1381832Y-217190D01*
X1379536D01*
X1384128Y-212598D02*
Y-203415D01*
X1005906Y-277564D02*
Y-293307D01*
X1011153Y-288059D01*
X1016401Y-293307D01*
Y-277564D01*
X1021649Y-293307D02*
X1026896D01*
X1024272D01*
Y-282812D01*
X1021649D01*
X1034768Y-293307D02*
Y-282812D01*
X1037391D01*
X1040015Y-285436D01*
Y-293307D01*
Y-285436D01*
X1042639Y-282812D01*
X1045263Y-285436D01*
Y-293307D01*
X1050511Y-277564D02*
Y-288059D01*
X1055758Y-293307D01*
X1061006Y-288059D01*
Y-277564D01*
X1076749Y-280188D02*
X1074125Y-277564D01*
X1068877D01*
X1066253Y-280188D01*
Y-290683D01*
X1068877Y-293307D01*
X1074125D01*
X1076749Y-290683D01*
Y-285436D01*
X1071501D01*
X1360236Y-240818D02*
X1362860Y-238194D01*
X1368108D01*
X1370732Y-240818D01*
Y-251313D01*
X1368108Y-253937D01*
X1362860D01*
X1360236Y-251313D01*
Y-240818D01*
X1375979D02*
X1378603Y-238194D01*
X1383851D01*
X1386475Y-240818D01*
Y-251313D01*
X1383851Y-253937D01*
X1378603D01*
X1375979Y-251313D01*
Y-240818D01*
X1206034Y-253937D02*
X1196850D01*
X1206034Y-244754D01*
Y-242458D01*
X1203738Y-240162D01*
X1199146D01*
X1196850Y-242458D01*
X1210625Y-253937D02*
X1219809Y-244754D01*
X1224401Y-253937D02*
X1228992D01*
X1226696D01*
Y-240162D01*
X1224401Y-242458D01*
X1235880Y-253937D02*
X1240471D01*
X1238176D01*
Y-240162D01*
X1235880Y-242458D01*
X1247359Y-253937D02*
X1256542Y-244754D01*
X1270317Y-253937D02*
X1261134D01*
X1270317Y-244754D01*
Y-242458D01*
X1268022Y-240162D01*
X1263430D01*
X1261134Y-242458D01*
X1274909D02*
X1277205Y-240162D01*
X1281797D01*
X1284093Y-242458D01*
Y-251641D01*
X1281797Y-253937D01*
X1277205D01*
X1274909Y-251641D01*
Y-242458D01*
X1288684Y-253937D02*
X1293276D01*
X1290980D01*
Y-240162D01*
X1288684Y-242458D01*
X1300163Y-240162D02*
X1309347D01*
Y-242458D01*
X1300163Y-251641D01*
Y-253937D01*
X1190945Y-175197D02*
Y-159454D01*
X1198816D01*
X1201440Y-162078D01*
Y-167325D01*
X1198816Y-169949D01*
X1190945D01*
X1217183Y-162078D02*
X1214559Y-159454D01*
X1209312D01*
X1206688Y-162078D01*
Y-172573D01*
X1209312Y-175197D01*
X1214559D01*
X1217183Y-172573D01*
X1222431Y-175197D02*
Y-159454D01*
X1227678Y-164702D01*
X1232926Y-159454D01*
Y-175197D01*
X1248669Y-159454D02*
X1238174D01*
Y-167325D01*
X1243421Y-164702D01*
X1246045D01*
X1248669Y-167325D01*
Y-172573D01*
X1246045Y-175197D01*
X1240798D01*
X1238174Y-172573D01*
X1253917Y-175197D02*
X1259164D01*
X1256540D01*
Y-159454D01*
X1253917Y-162078D01*
X1267036D02*
X1269660Y-159454D01*
X1274907D01*
X1277531Y-162078D01*
Y-172573D01*
X1274907Y-175197D01*
X1269660D01*
X1267036Y-172573D01*
Y-162078D01*
X1293274Y-175197D02*
X1282779D01*
X1293274Y-164702D01*
Y-162078D01*
X1290650Y-159454D01*
X1285402D01*
X1282779Y-162078D01*
X1298522Y-175197D02*
Y-164702D01*
X1303769Y-159454D01*
X1309017Y-164702D01*
Y-175197D01*
Y-167325D01*
X1298522D01*
X1330007Y-159454D02*
Y-175197D01*
X1337879D01*
X1340503Y-172573D01*
Y-162078D01*
X1337879Y-159454D01*
X1330007D01*
X1345751Y-175197D02*
Y-164702D01*
X1350998Y-159454D01*
X1356246Y-164702D01*
Y-175197D01*
Y-167325D01*
X1345751D01*
X1371989Y-162078D02*
X1369365Y-159454D01*
X1364117D01*
X1361493Y-162078D01*
Y-172573D01*
X1364117Y-175197D01*
X1369365D01*
X1371989Y-172573D01*
X1403475Y-159454D02*
X1392979D01*
Y-167325D01*
X1398227D01*
X1392979D01*
Y-175197D01*
X1416594D02*
X1411346D01*
X1408722Y-172573D01*
Y-167325D01*
X1411346Y-164702D01*
X1416594D01*
X1419217Y-167325D01*
Y-169949D01*
X1408722D01*
X1424465Y-164702D02*
X1434960D01*
X1424465Y-175197D01*
X1434960D01*
D22*
X255906Y108268D02*
G03*
X244094Y120079I-11811J0D01*
G01*
X11811D02*
G03*
X0Y108268I0J-11811D01*
G01*
Y11811D02*
G03*
X11811Y0I11811J0D01*
G01*
X244094D02*
G03*
X255906Y11811I0J11811D01*
G01*
Y108268D01*
X0Y11811D02*
Y108268D01*
X11811Y120079D02*
X244094D01*
X11811Y0D02*
X244094D01*
D23*
X1342520Y-232283D02*
Y-224412D01*
X1346455D01*
X1347767Y-225724D01*
Y-228348D01*
X1346455Y-229660D01*
X1342520D01*
X1345144D02*
X1347767Y-232283D01*
X1354327D02*
X1351703D01*
X1350391Y-230972D01*
Y-228348D01*
X1351703Y-227036D01*
X1354327D01*
X1355639Y-228348D01*
Y-229660D01*
X1350391D01*
X1358263Y-227036D02*
X1360886Y-232283D01*
X1363510Y-227036D01*
X988189Y-263782D02*
Y-271654D01*
X992125D01*
X993437Y-270342D01*
Y-265094D01*
X992125Y-263782D01*
X988189D01*
X999996Y-271654D02*
X997372D01*
X996060Y-270342D01*
Y-267718D01*
X997372Y-266406D01*
X999996D01*
X1001308Y-267718D01*
Y-269030D01*
X996060D01*
X1003932Y-271654D02*
X1007868D01*
X1009180Y-270342D01*
X1007868Y-269030D01*
X1005244D01*
X1003932Y-267718D01*
X1005244Y-266406D01*
X1009180D01*
X1014427Y-274277D02*
X1015739D01*
X1017051Y-272966D01*
Y-266406D01*
X1013115D01*
X1011803Y-267718D01*
Y-270342D01*
X1013115Y-271654D01*
X1017051D01*
X1019675D02*
X1022299D01*
X1020987D01*
Y-266406D01*
X1019675D01*
X1026235Y-271654D02*
Y-266406D01*
X1030170D01*
X1031482Y-267718D01*
Y-271654D01*
X1038042D02*
X1035418D01*
X1034106Y-270342D01*
Y-267718D01*
X1035418Y-266406D01*
X1038042D01*
X1039354Y-267718D01*
Y-269030D01*
X1034106D01*
X1041977Y-266406D02*
Y-271654D01*
Y-269030D01*
X1043289Y-267718D01*
X1044601Y-266406D01*
X1045913D01*
X1185039Y-145672D02*
Y-153543D01*
X1188975D01*
X1190287Y-152231D01*
Y-146984D01*
X1188975Y-145672D01*
X1185039D01*
X1194223Y-153543D02*
X1196847D01*
X1198158Y-152231D01*
Y-149608D01*
X1196847Y-148296D01*
X1194223D01*
X1192911Y-149608D01*
Y-152231D01*
X1194223Y-153543D01*
X1206030Y-148296D02*
X1202094D01*
X1200782Y-149608D01*
Y-152231D01*
X1202094Y-153543D01*
X1206030D01*
X1208654Y-148296D02*
Y-152231D01*
X1209966Y-153543D01*
X1213902D01*
Y-148296D01*
X1216525Y-153543D02*
Y-148296D01*
X1217837D01*
X1219149Y-149608D01*
Y-153543D01*
Y-149608D01*
X1220461Y-148296D01*
X1221773Y-149608D01*
Y-153543D01*
X1228333D02*
X1225709D01*
X1224397Y-152231D01*
Y-149608D01*
X1225709Y-148296D01*
X1228333D01*
X1229644Y-149608D01*
Y-150919D01*
X1224397D01*
X1232268Y-153543D02*
Y-148296D01*
X1236204D01*
X1237516Y-149608D01*
Y-153543D01*
X1241452Y-146984D02*
Y-148296D01*
X1240140D01*
X1242764D01*
X1241452D01*
Y-152231D01*
X1242764Y-153543D01*
X1185039Y-185042D02*
Y-192913D01*
X1190287D01*
X1194223Y-187666D02*
X1196847D01*
X1198158Y-188978D01*
Y-192913D01*
X1194223D01*
X1192911Y-191602D01*
X1194223Y-190290D01*
X1198158D01*
X1200782Y-187666D02*
Y-191602D01*
X1202094Y-192913D01*
X1206030D01*
Y-194225D01*
X1204718Y-195537D01*
X1203406D01*
X1206030Y-192913D02*
Y-187666D01*
X1212590Y-192913D02*
X1209966D01*
X1208654Y-191602D01*
Y-188978D01*
X1209966Y-187666D01*
X1212590D01*
X1213902Y-188978D01*
Y-190290D01*
X1208654D01*
X1216525Y-187666D02*
Y-192913D01*
Y-190290D01*
X1217837Y-188978D01*
X1219149Y-187666D01*
X1220461D01*
X1232268Y-192913D02*
Y-185042D01*
X1237516Y-192913D01*
Y-185042D01*
X1241452Y-187666D02*
X1244075D01*
X1245387Y-188978D01*
Y-192913D01*
X1241452D01*
X1240140Y-191602D01*
X1241452Y-190290D01*
X1245387D01*
X1248011Y-192913D02*
Y-187666D01*
X1249323D01*
X1250635Y-188978D01*
Y-192913D01*
Y-188978D01*
X1251947Y-187666D01*
X1253259Y-188978D01*
Y-192913D01*
X1259818D02*
X1257195D01*
X1255883Y-191602D01*
Y-188978D01*
X1257195Y-187666D01*
X1259818D01*
X1261130Y-188978D01*
Y-190290D01*
X1255883D01*
X1185039Y-224412D02*
Y-232283D01*
X1188975D01*
X1190287Y-230972D01*
Y-225724D01*
X1188975Y-224412D01*
X1185039D01*
X1194223Y-227036D02*
X1196847D01*
X1198158Y-228348D01*
Y-232283D01*
X1194223D01*
X1192911Y-230972D01*
X1194223Y-229660D01*
X1198158D01*
X1202094Y-225724D02*
Y-227036D01*
X1200782D01*
X1203406D01*
X1202094D01*
Y-230972D01*
X1203406Y-232283D01*
X1211278D02*
X1208654D01*
X1207342Y-230972D01*
Y-228348D01*
X1208654Y-227036D01*
X1211278D01*
X1212589Y-228348D01*
Y-229660D01*
X1207342D01*
X1185039Y-263782D02*
Y-271654D01*
X1188975D01*
X1190287Y-270342D01*
Y-265094D01*
X1188975Y-263782D01*
X1185039D01*
X1194223Y-271654D02*
X1196847D01*
X1198158Y-270342D01*
Y-267718D01*
X1196847Y-266406D01*
X1194223D01*
X1192911Y-267718D01*
Y-270342D01*
X1194223Y-271654D01*
X1206030Y-266406D02*
X1202094D01*
X1200782Y-267718D01*
Y-270342D01*
X1202094Y-271654D01*
X1206030D01*
X1208654Y-266406D02*
Y-270342D01*
X1209966Y-271654D01*
X1213902D01*
Y-266406D01*
X1216525Y-271654D02*
Y-266406D01*
X1217837D01*
X1219149Y-267718D01*
Y-271654D01*
Y-267718D01*
X1220461Y-266406D01*
X1221773Y-267718D01*
Y-271654D01*
X1228333D02*
X1225709D01*
X1224397Y-270342D01*
Y-267718D01*
X1225709Y-266406D01*
X1228333D01*
X1229644Y-267718D01*
Y-269030D01*
X1224397D01*
X1232268Y-271654D02*
Y-266406D01*
X1236204D01*
X1237516Y-267718D01*
Y-271654D01*
X1241452Y-265094D02*
Y-266406D01*
X1240140D01*
X1242764D01*
X1241452D01*
Y-270342D01*
X1242764Y-271654D01*
D34*
X48701Y9370D02*
D03*
X58701D02*
D03*
X68701D02*
D03*
X78701D02*
D03*
X88701D02*
D03*
D51*
X49095Y28032D02*
D03*
X59095D02*
D03*
X69095D02*
D03*
X79094D02*
D03*
X89095D02*
D03*
M02*
