M48
;Layer_Color=9474304
;FILE_FORMAT=2:5
INCH,LZ
;TYPE=PLATED
T1F00S00C0.01181
T2F00S00C0.03543
T3F00S00C0.03937
;TYPE=NON_PLATED
T4F00S00C0.05118
T5F00S00C0.10827
%
T01
X0148425Y0018701
X0152559Y0020867
X0172244Y0016733
X019685Y0005118
X0214567
X0132087Y0018701
X0126968Y002185
X011811Y0015748
X0118701Y005374
X0120275Y0061024
X0107282Y0053938
X0099409Y0053938
X0091536Y0053937
X0083661Y0053938
X0075788Y0053937
X0067914
X006004
X0016929Y0049213
X0124606Y0079133
X0154133Y0084054
X0177559Y0077165
X0183071Y0042323
T02
X0007874Y0034055
Y0044055
Y0054055
Y0064055
Y0074055
Y0084055
X0032954Y0071772
X0042954
X0052953
X0062954
X0062954Y0099331
X0072953
X0072954Y0109331
X0082954
Y0099331
X0092954
X0092954Y0109331
X0102954
X0112954
X0122954
Y0099331
X0112954
X0102954
X0062954Y0109331
X0052953
X0042954
X0032954
Y0099331
X0042954
X0052953
X0132954
X0142954
X0152954
Y0109331
X0142954
X0132954
X0162954
X0172954
Y0099331
X0182954
X0192954
X0202954
X0202954Y0109331
X0192954
X0182954
X0212954
Y0099331
X0222954
X0222954Y0109331
X0162954Y0099331
X0195709Y003937
X0205709
X0215709
T03
X0048898Y0013701
Y0023701
X0058898
Y0013701
X0068898
Y0023701
X0078898
Y0013701
X0088898
Y0023701
T04
X0205709Y0007874
Y0031496
T05
X0242126Y001378
X001378
Y0104331
X0242126
M30
