G04 Layer_Physical_Order=1*
G04 Layer_Color=48896*
%FSLAX25Y25*%
%MOIN*%
G70*
G01*
G75*
%ADD10C,0.00787*%
%ADD11C,0.00591*%
%ADD12C,0.01378*%
%ADD13C,0.01968*%
%ADD14R,0.06299X0.07087*%
%ADD15R,0.07087X0.06299*%
%ADD16R,0.03937X0.04331*%
%ADD17R,0.03937X0.02756*%
%ADD18R,0.04331X0.03937*%
%ADD19R,0.06299X0.01378*%
%ADD20R,0.06693X0.05905*%
%ADD21C,0.01575*%
%ADD22C,0.00394*%
%ADD23C,0.00984*%
%ADD24R,0.05905X0.05905*%
%ADD25C,0.05905*%
%ADD26C,0.04724*%
%ADD27R,0.06496X0.06496*%
%ADD28C,0.06496*%
%ADD29R,0.05905X0.05905*%
%ADD30C,0.05118*%
%ADD31C,0.02756*%
G36*
X225081Y117763D02*
X225651Y117383D01*
X226031Y116814D01*
X226152Y116208D01*
X226139Y116142D01*
Y113586D01*
X225038Y112942D01*
X224033Y113358D01*
X222954Y113500D01*
X221874Y113358D01*
X220869Y112942D01*
X220005Y112279D01*
X219343Y111416D01*
X218926Y110410D01*
X218784Y109331D01*
X218926Y108252D01*
X219162Y107683D01*
X218302Y106977D01*
X217509Y106553D01*
X216960Y106956D01*
X216656Y107404D01*
X216643Y107434D01*
X216981Y108252D01*
X217123Y109331D01*
X216981Y110410D01*
X216564Y111416D01*
X215902Y112279D01*
X215038Y112942D01*
X214033Y113358D01*
X212954Y113500D01*
X211875Y113358D01*
X210869Y112942D01*
X210005Y112279D01*
X209343Y111416D01*
X208926Y110410D01*
X208784Y109331D01*
X208926Y108252D01*
X209343Y107246D01*
X209518Y107017D01*
X208936Y105836D01*
X206971D01*
X206389Y107017D01*
X206564Y107246D01*
X206981Y108252D01*
X207123Y109331D01*
X206981Y110410D01*
X206564Y111416D01*
X205902Y112279D01*
X205038Y112942D01*
X204033Y113358D01*
X202954Y113500D01*
X201874Y113358D01*
X200869Y112942D01*
X200005Y112279D01*
X199343Y111416D01*
X198926Y110410D01*
X198784Y109331D01*
X198926Y108252D01*
X199343Y107246D01*
X199638Y106861D01*
X199663Y106647D01*
X199365Y105596D01*
X199268Y105477D01*
X198651Y105222D01*
X198555Y105148D01*
X197685Y104480D01*
X197017Y103610D01*
X196943Y103514D01*
X196751Y103049D01*
X196705Y103007D01*
X195389Y102675D01*
X195384Y102677D01*
X195038Y102942D01*
X194033Y103358D01*
X192954Y103500D01*
X191875Y103358D01*
X190869Y102942D01*
X190005Y102279D01*
X189343Y101416D01*
X188926Y100410D01*
X188784Y99331D01*
X188926Y98252D01*
X189343Y97246D01*
X190005Y96382D01*
X190869Y95720D01*
X191875Y95303D01*
X192954Y95161D01*
X194033Y95303D01*
X195038Y95720D01*
X195083Y95754D01*
X196074Y95280D01*
X196186Y95112D01*
X195853Y94016D01*
X195264Y92913D01*
X194471Y91947D01*
X193504Y91153D01*
X192402Y90564D01*
X191205Y90201D01*
X189993Y90082D01*
X189961Y90088D01*
X154134D01*
Y90093D01*
X152764Y89958D01*
X151447Y89558D01*
X150233Y88909D01*
X149169Y88036D01*
X148358Y87048D01*
X147995Y86992D01*
X147013Y87059D01*
X146164Y88093D01*
X145130Y88942D01*
X143950Y89573D01*
X142670Y89961D01*
X141339Y90092D01*
Y90088D01*
X135827D01*
X135794Y90082D01*
X134582Y90201D01*
X133959Y90390D01*
X133386Y90564D01*
X132283Y91153D01*
X131317Y91947D01*
X130523Y92913D01*
X129934Y94016D01*
X129760Y94589D01*
X129571Y95212D01*
X129569Y95228D01*
X130695Y95853D01*
X130869Y95720D01*
X131874Y95303D01*
X132954Y95161D01*
X134033Y95303D01*
X135038Y95720D01*
X135902Y96382D01*
X136565Y97246D01*
X136981Y98252D01*
X137123Y99331D01*
X136981Y100410D01*
X136565Y101416D01*
X135902Y102279D01*
X135038Y102942D01*
X134033Y103358D01*
X132954Y103500D01*
X131874Y103358D01*
X130869Y102942D01*
X130639Y102765D01*
X129458Y103348D01*
Y105314D01*
X130639Y105896D01*
X130869Y105720D01*
X131874Y105303D01*
X132954Y105161D01*
X134033Y105303D01*
X135038Y105720D01*
X135902Y106382D01*
X136565Y107246D01*
X136981Y108252D01*
X137123Y109331D01*
X136981Y110410D01*
X136565Y111416D01*
X135902Y112279D01*
X135038Y112942D01*
X134033Y113358D01*
X132954Y113500D01*
X131874Y113358D01*
X130869Y112942D01*
X130497Y112656D01*
X130048Y112645D01*
X129746Y112697D01*
X129697Y112711D01*
X129483Y112802D01*
X129161Y112984D01*
X128844Y113750D01*
X128102Y114717D01*
X127136Y115458D01*
X126370Y115775D01*
X126306Y115818D01*
X126231Y115833D01*
X126011Y115924D01*
X124803Y116083D01*
Y116072D01*
X92332D01*
Y116079D01*
X90531Y115937D01*
X88775Y115515D01*
X87106Y114824D01*
X85565Y113880D01*
X84653Y113101D01*
X84033Y113358D01*
X82954Y113500D01*
X81874Y113358D01*
X80869Y112942D01*
X80005Y112279D01*
X79343Y111416D01*
X78926Y110410D01*
X78784Y109331D01*
X78926Y108252D01*
X79343Y107246D01*
X80005Y106382D01*
X80869Y105720D01*
X81874Y105303D01*
X82954Y105161D01*
X84033Y105303D01*
X85038Y105720D01*
X85902Y106382D01*
X86564Y107246D01*
X86981Y108252D01*
X87123Y109331D01*
X86981Y110410D01*
X86756Y110953D01*
X87601Y111647D01*
X88717Y112243D01*
X89501Y111324D01*
X89103Y110363D01*
X89033Y109831D01*
X96875D01*
X96805Y110363D01*
X96406Y111324D01*
X95979Y111881D01*
X96282Y112783D01*
X96506Y113062D01*
X99178D01*
X99699Y111881D01*
X99343Y111416D01*
X98926Y110410D01*
X98784Y109331D01*
X98926Y108252D01*
X99343Y107246D01*
X100005Y106382D01*
X100869Y105720D01*
X101874Y105303D01*
X102954Y105161D01*
X104033Y105303D01*
X104612Y105543D01*
X104841Y105314D01*
X104871Y105294D01*
X105666Y104326D01*
X106008Y103687D01*
X105086Y102905D01*
X105038Y102942D01*
X104033Y103358D01*
X102954Y103500D01*
X101874Y103358D01*
X100869Y102942D01*
X100005Y102279D01*
X99343Y101416D01*
X98926Y100410D01*
X98784Y99331D01*
X98926Y98252D01*
X99166Y97672D01*
X90053Y88560D01*
X90049Y88564D01*
X88876Y87191D01*
X88299Y86249D01*
X88176Y86066D01*
X87014Y86268D01*
X86938Y86290D01*
Y87668D01*
X86925Y87735D01*
X87082Y89329D01*
X87567Y90926D01*
X88353Y92399D01*
X89370Y93637D01*
X89426Y93675D01*
X91295Y95543D01*
X91874Y95303D01*
X92954Y95161D01*
X94033Y95303D01*
X95038Y95720D01*
X95902Y96382D01*
X96565Y97246D01*
X96981Y98252D01*
X97123Y99331D01*
X96981Y100410D01*
X96565Y101416D01*
X95902Y102279D01*
X95038Y102942D01*
X94033Y103358D01*
X92954Y103500D01*
X91874Y103358D01*
X90869Y102942D01*
X90005Y102279D01*
X89343Y101416D01*
X88926Y100410D01*
X88784Y99331D01*
X88926Y98252D01*
X89166Y97672D01*
X87298Y95803D01*
X87293Y95808D01*
X86120Y94435D01*
X85640Y93652D01*
X84459Y93985D01*
Y95480D01*
X85038Y95720D01*
X85902Y96382D01*
X86564Y97246D01*
X86981Y98252D01*
X87123Y99331D01*
X86981Y100410D01*
X86564Y101416D01*
X85902Y102279D01*
X85038Y102942D01*
X84033Y103358D01*
X82954Y103500D01*
X81874Y103358D01*
X80869Y102942D01*
X80005Y102279D01*
X79343Y101416D01*
X78926Y100410D01*
X78784Y99331D01*
X78926Y98252D01*
X79343Y97246D01*
X80005Y96382D01*
X80869Y95720D01*
X81448Y95480D01*
Y77647D01*
X81462Y77580D01*
X81305Y75986D01*
X80820Y74388D01*
X80033Y72916D01*
X79017Y71678D01*
X78960Y71640D01*
X65835Y58515D01*
X65830Y58520D01*
X64659Y57148D01*
X63717Y55611D01*
X63556Y55222D01*
X62278Y55222D01*
X62275Y55228D01*
X61865Y55762D01*
X61330Y56172D01*
X60708Y56430D01*
X60040Y56518D01*
X59372Y56430D01*
X58968Y56263D01*
X11390D01*
X10822Y57003D01*
X9959Y57666D01*
X8953Y58083D01*
X7874Y58225D01*
X6962Y58104D01*
X6252Y58969D01*
X6249Y58975D01*
X6501Y59461D01*
X7043Y59995D01*
X7874Y59886D01*
X8953Y60028D01*
X9959Y60444D01*
X10822Y61107D01*
X11485Y61970D01*
X11683Y62450D01*
X61693D01*
Y62438D01*
X63414Y62607D01*
X65069Y63109D01*
X66594Y63925D01*
X67931Y65022D01*
X69028Y66359D01*
X69843Y67884D01*
X70345Y69539D01*
X70515Y71260D01*
X70503D01*
Y94792D01*
X71684Y95578D01*
X71922Y95480D01*
X72453Y95410D01*
Y99331D01*
Y103252D01*
X72005Y103193D01*
X71725Y103387D01*
X71045Y104097D01*
X71122Y104353D01*
X71675Y105386D01*
X71874Y105303D01*
X72954Y105161D01*
X74033Y105303D01*
X75038Y105720D01*
X75902Y106382D01*
X76565Y107246D01*
X76981Y108252D01*
X77123Y109331D01*
X76981Y110410D01*
X76565Y111416D01*
X75902Y112279D01*
X75038Y112942D01*
X74033Y113358D01*
X72954Y113500D01*
X71874Y113358D01*
X70869Y112942D01*
X70005Y112279D01*
X69343Y111416D01*
X68926Y110410D01*
X68784Y109331D01*
X68926Y108252D01*
X69232Y107513D01*
X68572Y106436D01*
X68112Y106327D01*
X67339D01*
X67274Y106484D01*
X66662Y107483D01*
X66981Y108252D01*
X67123Y109331D01*
X66981Y110410D01*
X66565Y111416D01*
X65902Y112279D01*
X65038Y112942D01*
X64033Y113358D01*
X62954Y113500D01*
X61874Y113358D01*
X60869Y112942D01*
X60005Y112279D01*
X59343Y111416D01*
X58926Y110410D01*
X58784Y109331D01*
X58926Y108252D01*
X59343Y107246D01*
X60005Y106382D01*
X60869Y105720D01*
X61874Y105303D01*
X62954Y105161D01*
X64033Y105303D01*
X64055Y105313D01*
X64728Y104356D01*
X64730Y104348D01*
X64407Y103888D01*
X63786Y103391D01*
X62954Y103500D01*
X61874Y103358D01*
X60869Y102942D01*
X60005Y102279D01*
X59343Y101416D01*
X58926Y100410D01*
X58784Y99331D01*
X58926Y98252D01*
X59343Y97246D01*
X60005Y96382D01*
X60869Y95720D01*
X61874Y95303D01*
X62954Y95161D01*
X64033Y95303D01*
X64142Y95349D01*
X65324Y94560D01*
Y76347D01*
X64142Y75558D01*
X63985Y75623D01*
X63454Y75693D01*
Y71772D01*
X62954D01*
Y71272D01*
X59032D01*
X59102Y70740D01*
X59501Y69778D01*
X60134Y68953D01*
X60679Y68535D01*
X60346Y67354D01*
X55927D01*
X55526Y68535D01*
X55902Y68823D01*
X56564Y69687D01*
X56981Y70692D01*
X57123Y71772D01*
X56981Y72851D01*
X56564Y73856D01*
X55902Y74720D01*
X55038Y75383D01*
X54033Y75799D01*
X53614Y75854D01*
X53191Y77101D01*
X54633Y78544D01*
X58859D01*
Y84843D01*
X55448D01*
X54559Y85527D01*
Y95521D01*
X55038Y95720D01*
X55902Y96382D01*
X56564Y97246D01*
X56981Y98252D01*
X57123Y99331D01*
X56981Y100410D01*
X56564Y101416D01*
X55902Y102279D01*
X55038Y102942D01*
X54033Y103358D01*
X52953Y103500D01*
X51874Y103358D01*
X50869Y102942D01*
X50005Y102279D01*
X49343Y101416D01*
X48926Y100410D01*
X48784Y99331D01*
X48926Y98252D01*
X49343Y97246D01*
X50005Y96382D01*
X50869Y95720D01*
X51348Y95521D01*
Y90020D01*
X50167Y89677D01*
X49630Y90377D01*
X48643Y91135D01*
X47493Y91611D01*
X46284Y91770D01*
X46260Y91775D01*
X35161D01*
Y95814D01*
X35902Y96382D01*
X36564Y97246D01*
X36981Y98252D01*
X37123Y99331D01*
X36981Y100410D01*
X36564Y101416D01*
X35902Y102279D01*
X35038Y102942D01*
X34033Y103358D01*
X32954Y103500D01*
X31874Y103358D01*
X31230Y103091D01*
X30246Y103649D01*
X30101Y103814D01*
X30059Y104213D01*
X30939Y105197D01*
X37087D01*
Y113465D01*
X29767D01*
Y116142D01*
X29754Y116208D01*
X29874Y116814D01*
X30255Y117383D01*
X30824Y117763D01*
X31430Y117884D01*
X31496Y117871D01*
X224410D01*
X224475Y117884D01*
X225081Y117763D01*
D02*
G37*
G36*
X225699Y105333D02*
X226132Y104331D01*
X225906Y103243D01*
X224958Y102775D01*
X224947Y102783D01*
X223986Y103182D01*
X223454Y103252D01*
Y99331D01*
Y95410D01*
X223986Y95480D01*
X224947Y95878D01*
X224958Y95886D01*
X226139Y95304D01*
Y87677D01*
X226149Y87627D01*
X226059Y86950D01*
X225779Y86273D01*
X225332Y85691D01*
X224751Y85245D01*
X224073Y84964D01*
X223471Y84885D01*
X199159D01*
X198863Y86066D01*
X199941Y86642D01*
X200126Y86741D01*
X201609Y87958D01*
X202827Y89442D01*
X202926Y89627D01*
X203732Y91135D01*
X204289Y92972D01*
X204477Y94882D01*
X205132Y95792D01*
X205902Y96382D01*
X206564Y97246D01*
X206981Y98252D01*
X207123Y99331D01*
X206981Y100410D01*
X206564Y101416D01*
X206389Y101644D01*
X206971Y102825D01*
X208936D01*
X209518Y101644D01*
X209343Y101416D01*
X208926Y100410D01*
X208784Y99331D01*
X208926Y98252D01*
X209343Y97246D01*
X210005Y96382D01*
X210869Y95720D01*
X211875Y95303D01*
X212954Y95161D01*
X214033Y95303D01*
X215038Y95720D01*
X215902Y96382D01*
X216564Y97246D01*
X216981Y98252D01*
X217123Y99331D01*
X216981Y100410D01*
X216564Y101416D01*
X216274Y101795D01*
X216335Y102278D01*
X216698Y103077D01*
X216700Y103080D01*
X218274Y103557D01*
X219978Y104468D01*
X221291Y105545D01*
X221874Y105303D01*
X222954Y105161D01*
X224033Y105303D01*
X225038Y105720D01*
X225699Y105333D01*
D02*
G37*
G36*
X119625Y112783D02*
X119928Y111881D01*
X119501Y111324D01*
X119103Y110363D01*
X119033Y109831D01*
X122954D01*
Y109331D01*
X123454D01*
Y105410D01*
X123986Y105480D01*
X124947Y105878D01*
X125266Y106123D01*
X126447Y105541D01*
Y103349D01*
X125266Y102767D01*
X125038Y102942D01*
X124033Y103358D01*
X122954Y103500D01*
X121874Y103358D01*
X120869Y102942D01*
X120599Y102735D01*
X120482Y102720D01*
X119263Y103175D01*
X118865Y104487D01*
X117929Y106237D01*
X116744Y107680D01*
X116981Y108252D01*
X117123Y109331D01*
X116981Y110410D01*
X116565Y111416D01*
X116208Y111881D01*
X116729Y113062D01*
X119401D01*
X119625Y112783D01*
D02*
G37*
G36*
X126537Y95381D02*
X126612Y94624D01*
X126868Y93780D01*
X126911Y93563D01*
X126952Y93502D01*
X127146Y92861D01*
X128015Y91237D01*
X129183Y89813D01*
X130607Y88644D01*
X132231Y87776D01*
X132872Y87582D01*
X132933Y87541D01*
X133150Y87498D01*
X133994Y87242D01*
X135827Y87061D01*
Y87077D01*
X141339D01*
X141374Y87084D01*
X142328Y86959D01*
X143249Y86577D01*
X144041Y85970D01*
X144648Y85178D01*
X145030Y84257D01*
X145155Y83303D01*
X145148Y83268D01*
Y76378D01*
X137205D01*
Y76013D01*
X134645D01*
Y77952D01*
X128877D01*
X127952Y77952D01*
X126846Y77771D01*
X125106D01*
Y74803D01*
X124606D01*
Y74303D01*
X121441D01*
Y72063D01*
X121441Y71834D01*
X121441Y70653D01*
Y68413D01*
X124606D01*
Y67413D01*
X121441D01*
Y65173D01*
X121441Y64945D01*
X121441Y63768D01*
Y61524D01*
X124607D01*
Y60524D01*
X121441D01*
Y59071D01*
X121441Y58055D01*
X120329Y57890D01*
X119473D01*
Y54240D01*
X124016D01*
Y53740D01*
X124516D01*
Y49591D01*
X128559D01*
Y49591D01*
X129725Y49553D01*
Y47522D01*
X128740Y47047D01*
X119291D01*
X119291Y47047D01*
X118110Y46666D01*
X117576Y46888D01*
X116991Y47336D01*
X116960Y47383D01*
X109782Y54562D01*
X109776Y54606D01*
X109518Y55229D01*
X109108Y55764D01*
X108573Y56174D01*
X107951Y56432D01*
X107282Y56520D01*
X106614Y56432D01*
X105992Y56174D01*
X104852Y56788D01*
Y67864D01*
X104838Y67931D01*
X104995Y69525D01*
X105480Y71122D01*
X106267Y72595D01*
X107283Y73833D01*
X107340Y73871D01*
X121428Y87959D01*
X121443Y87945D01*
X121447Y87949D01*
X122733Y89516D01*
X123691Y91308D01*
X124281Y93253D01*
X124473Y95202D01*
X125444Y95855D01*
X126537Y95381D01*
D02*
G37*
G36*
X153543Y85109D02*
X166291D01*
X166356Y85027D01*
X166722Y83928D01*
X166586Y83792D01*
X166261Y83304D01*
X166036Y82763D01*
X165922Y82188D01*
X165909Y81922D01*
X165902Y81890D01*
Y80512D01*
X165908Y80487D01*
Y77203D01*
X164173D01*
Y82874D01*
X157480D01*
Y82874D01*
X157299Y82693D01*
X154633D01*
Y79724D01*
X153633D01*
Y82693D01*
X152728D01*
X152131Y83874D01*
X152200Y84218D01*
X152515Y84690D01*
X152987Y85005D01*
X153526Y85112D01*
X153543Y85109D01*
D02*
G37*
G36*
X74582Y22545D02*
X75029Y21467D01*
X75739Y20542D01*
X76664Y19832D01*
X77741Y19386D01*
X78419Y19296D01*
Y18105D01*
X77741Y18016D01*
X76664Y17570D01*
X75739Y16860D01*
X75029Y15935D01*
X74582Y14857D01*
X74430Y13701D01*
X74582Y12544D01*
X75029Y11467D01*
X75739Y10542D01*
X76664Y9832D01*
X77011Y9688D01*
X76776Y8507D01*
X70546D01*
X70311Y9688D01*
X71040Y9990D01*
X71927Y10671D01*
X72608Y11558D01*
X73036Y12592D01*
X73116Y13201D01*
X64679D01*
X64759Y12592D01*
X65187Y11558D01*
X65868Y10671D01*
X66755Y9990D01*
X67484Y9688D01*
X67250Y8507D01*
X60546D01*
X60311Y9688D01*
X61040Y9990D01*
X61927Y10671D01*
X62608Y11558D01*
X63036Y12592D01*
X63117Y13201D01*
X54679D01*
X54759Y12592D01*
X55187Y11558D01*
X55868Y10671D01*
X56755Y9990D01*
X57485Y9688D01*
X57250Y8507D01*
X54191D01*
X53327Y9272D01*
Y18130D01*
X51105D01*
Y19821D01*
X51131Y19832D01*
X52056Y20542D01*
X52767Y21467D01*
X53213Y22545D01*
X53302Y23222D01*
X54493D01*
X54583Y22545D01*
X55029Y21467D01*
X55739Y20542D01*
X56664Y19832D01*
X57741Y19386D01*
X58898Y19233D01*
X60054Y19386D01*
X61131Y19832D01*
X62056Y20542D01*
X62766Y21467D01*
X63213Y22545D01*
X63302Y23222D01*
X64493D01*
X64583Y22545D01*
X65029Y21467D01*
X65739Y20542D01*
X66664Y19832D01*
X67741Y19386D01*
X68898Y19233D01*
X70054Y19386D01*
X71131Y19832D01*
X72057Y20542D01*
X72767Y21467D01*
X73213Y22545D01*
X73302Y23222D01*
X74493D01*
X74582Y22545D01*
D02*
G37*
G36*
X3753Y54426D02*
X3704Y54055D01*
X3847Y52976D01*
X4263Y51970D01*
X4926Y51107D01*
X5789Y50444D01*
X6795Y50028D01*
X7874Y49886D01*
X8953Y50028D01*
X9959Y50444D01*
X10822Y51107D01*
X11390Y51847D01*
X14311D01*
X14333Y51825D01*
X14819Y50666D01*
X14694Y50503D01*
X14436Y49881D01*
X14348Y49213D01*
X14436Y48544D01*
X14694Y47922D01*
X15104Y47387D01*
X15639Y46977D01*
X16261Y46719D01*
X16929Y46632D01*
X17597Y46719D01*
X18220Y46977D01*
X18256Y47005D01*
X32126D01*
X32227Y47025D01*
X33652Y46885D01*
X35120Y46439D01*
X36472Y45717D01*
X37657Y44744D01*
X38630Y43558D01*
X39353Y42206D01*
X39798Y40739D01*
X39938Y39314D01*
X39918Y39213D01*
Y10630D01*
X39940Y10520D01*
X40055Y9357D01*
X40426Y8132D01*
X41029Y7003D01*
X41841Y6014D01*
X42830Y5203D01*
X43959Y4599D01*
X45183Y4228D01*
X46347Y4113D01*
X46457Y4091D01*
X87984D01*
X88024Y4099D01*
X89893Y4247D01*
X91755Y4693D01*
X93524Y5426D01*
X95157Y6427D01*
X96582Y7644D01*
X96616Y7667D01*
X112476Y23527D01*
X113567Y23075D01*
Y21563D01*
X117610D01*
Y25213D01*
X115705D01*
X115253Y26304D01*
X116705Y27756D01*
X122819D01*
X122835Y27756D01*
X124000Y27717D01*
Y26681D01*
X129937D01*
Y28422D01*
X130118Y29528D01*
Y30225D01*
X130709Y30816D01*
X131890Y30709D01*
Y30709D01*
X132071D01*
Y30028D01*
X135039D01*
Y29028D01*
X132071D01*
Y28346D01*
X131890D01*
Y23228D01*
X137364D01*
Y21670D01*
X136918D01*
Y18701D01*
Y15733D01*
X137364D01*
Y2208D01*
X31496D01*
X31430Y2195D01*
X30824Y2315D01*
X30255Y2696D01*
X29874Y3265D01*
X29754Y3871D01*
X29767Y3937D01*
Y13780D01*
X29767Y13780D01*
X29774D01*
X29577Y16282D01*
X28991Y18722D01*
X28030Y21041D01*
X26719Y23181D01*
X25089Y25089D01*
X23181Y26719D01*
X21041Y28030D01*
X18722Y28991D01*
X16282Y29577D01*
X13780Y29774D01*
Y29774D01*
X12628Y29844D01*
X11827Y30102D01*
X11827Y30948D01*
Y33555D01*
X7874D01*
X3921D01*
Y31618D01*
X2740Y30964D01*
X2223Y31288D01*
X2195Y31430D01*
X2208Y31496D01*
Y54202D01*
X3389Y54742D01*
X3753Y54426D01*
D02*
G37*
G36*
X1165172Y-186079D02*
X1164886D01*
Y-186365D01*
X1164599D01*
Y-186652D01*
Y-186938D01*
X1164313D01*
Y-187224D01*
X1164027D01*
Y-187511D01*
X1163740D01*
Y-187797D01*
Y-188083D01*
X1163454D01*
Y-188370D01*
X1163168D01*
Y-188656D01*
X1162881D01*
Y-188942D01*
X1162595D01*
Y-189229D01*
Y-189515D01*
X1162309D01*
Y-189801D01*
X1162022D01*
Y-190088D01*
X1161736D01*
Y-190374D01*
Y-190660D01*
X1161450D01*
Y-190946D01*
X1161163D01*
Y-191233D01*
X1160877D01*
Y-191519D01*
X1160591D01*
Y-191806D01*
Y-192092D01*
X1160305D01*
Y-192378D01*
X1160018D01*
Y-192664D01*
X1159732D01*
Y-192951D01*
Y-193237D01*
X1159445D01*
Y-193523D01*
X1159159D01*
Y-193810D01*
X1158873D01*
Y-194096D01*
Y-194382D01*
X1158587D01*
Y-194669D01*
X1158300D01*
Y-194955D01*
X1158014D01*
Y-195241D01*
X1157728D01*
Y-195528D01*
Y-195814D01*
X1157441D01*
Y-196100D01*
X1157155D01*
Y-196387D01*
X1156869D01*
Y-196673D01*
Y-196959D01*
X1156582D01*
Y-197245D01*
X1156296D01*
Y-197532D01*
X1156010D01*
Y-197818D01*
Y-198104D01*
X1155723D01*
Y-198391D01*
X1155437D01*
Y-198677D01*
X1155151D01*
Y-198963D01*
X1154865D01*
Y-199250D01*
Y-199536D01*
X1154578D01*
Y-199822D01*
X1154292D01*
Y-200109D01*
X1154006D01*
Y-200395D01*
Y-200681D01*
X1153719D01*
Y-200968D01*
X1153433D01*
Y-201254D01*
X1153147D01*
Y-201540D01*
Y-201826D01*
X1152860D01*
Y-202113D01*
X1152574D01*
Y-202399D01*
X1152288D01*
Y-202685D01*
X1152001D01*
Y-202972D01*
Y-203258D01*
X1151715D01*
Y-203544D01*
X1151429D01*
Y-203831D01*
X1151142D01*
Y-204117D01*
Y-204403D01*
X1150856D01*
Y-204690D01*
X1150570D01*
Y-204976D01*
X1150284D01*
Y-205262D01*
X1149997D01*
Y-205549D01*
Y-205835D01*
X1150284D01*
Y-206121D01*
Y-206407D01*
X1150570D01*
Y-206694D01*
Y-206980D01*
X1150856D01*
Y-207266D01*
X1151142D01*
Y-207553D01*
Y-207839D01*
X1151429D01*
Y-208125D01*
Y-208412D01*
X1151715D01*
Y-208698D01*
Y-208984D01*
X1152001D01*
Y-209271D01*
Y-209557D01*
X1152288D01*
Y-209843D01*
Y-210129D01*
X1152574D01*
Y-210416D01*
Y-210702D01*
X1152860D01*
Y-210988D01*
Y-211275D01*
X1153147D01*
Y-211561D01*
Y-211847D01*
X1153433D01*
Y-212134D01*
X1153719D01*
Y-212420D01*
Y-212706D01*
X1154006D01*
Y-212993D01*
Y-213279D01*
X1154292D01*
Y-213565D01*
Y-213851D01*
X1154578D01*
Y-214138D01*
Y-214424D01*
X1154865D01*
Y-214710D01*
Y-214997D01*
X1155151D01*
Y-215283D01*
Y-215569D01*
X1155437D01*
Y-215856D01*
Y-216142D01*
X1155723D01*
Y-216428D01*
X1156010D01*
Y-216715D01*
Y-217001D01*
X1156296D01*
Y-217287D01*
Y-217574D01*
X1156582D01*
Y-217860D01*
Y-218146D01*
X1156869D01*
Y-218433D01*
Y-218719D01*
X1157155D01*
Y-219005D01*
Y-219291D01*
X1157441D01*
Y-219578D01*
Y-219864D01*
X1157728D01*
Y-220150D01*
Y-220437D01*
X1158014D01*
Y-220723D01*
X1158300D01*
Y-221009D01*
Y-221296D01*
X1158587D01*
Y-221582D01*
Y-221868D01*
X1158873D01*
Y-222155D01*
X1143698D01*
Y-221868D01*
X1143412D01*
Y-221582D01*
Y-221296D01*
Y-221009D01*
X1143126D01*
Y-220723D01*
Y-220437D01*
Y-220150D01*
X1142839D01*
Y-219864D01*
Y-219578D01*
X1142553D01*
Y-219291D01*
Y-219005D01*
Y-218719D01*
X1142267D01*
Y-218433D01*
Y-218146D01*
Y-217860D01*
X1141980D01*
Y-217574D01*
Y-217287D01*
X1141694D01*
Y-217001D01*
Y-216715D01*
Y-216428D01*
X1141408D01*
Y-216142D01*
Y-215856D01*
Y-215569D01*
X1141121D01*
Y-215283D01*
Y-214997D01*
Y-214710D01*
X1140835D01*
Y-214424D01*
X1140263D01*
Y-214710D01*
Y-214997D01*
X1139976D01*
Y-215283D01*
X1139690D01*
Y-215569D01*
Y-215856D01*
X1139404D01*
Y-216142D01*
X1139117D01*
Y-216428D01*
Y-216715D01*
X1138831D01*
Y-217001D01*
X1138545D01*
Y-217287D01*
Y-217574D01*
X1138258D01*
Y-217860D01*
X1137972D01*
Y-218146D01*
X1137686D01*
Y-218433D01*
Y-218719D01*
X1137399D01*
Y-219005D01*
X1137113D01*
Y-219291D01*
Y-219578D01*
X1136827D01*
Y-219864D01*
X1136541D01*
Y-220150D01*
Y-220437D01*
X1136254D01*
Y-220723D01*
X1135968D01*
Y-221009D01*
Y-221296D01*
X1135682D01*
Y-221582D01*
X1135395D01*
Y-221868D01*
Y-222155D01*
X1119362D01*
Y-221868D01*
X1119648D01*
Y-221582D01*
X1119934D01*
Y-221296D01*
X1120221D01*
Y-221009D01*
X1120507D01*
Y-220723D01*
Y-220437D01*
X1120793D01*
Y-220150D01*
X1121080D01*
Y-219864D01*
X1121366D01*
Y-219578D01*
X1121652D01*
Y-219291D01*
Y-219005D01*
X1121939D01*
Y-218719D01*
X1122225D01*
Y-218433D01*
X1122511D01*
Y-218146D01*
Y-217860D01*
X1122797D01*
Y-217574D01*
X1123084D01*
Y-217287D01*
X1123370D01*
Y-217001D01*
X1123656D01*
Y-216715D01*
Y-216428D01*
X1123943D01*
Y-216142D01*
X1124229D01*
Y-215856D01*
X1124515D01*
Y-215569D01*
X1124802D01*
Y-215283D01*
Y-214997D01*
X1125088D01*
Y-214710D01*
X1125374D01*
Y-214424D01*
X1125661D01*
Y-214138D01*
Y-213851D01*
X1125947D01*
Y-213565D01*
X1126233D01*
Y-213279D01*
X1126519D01*
Y-212993D01*
X1126806D01*
Y-212706D01*
Y-212420D01*
X1127092D01*
Y-212134D01*
X1127378D01*
Y-211847D01*
X1127665D01*
Y-211561D01*
Y-211275D01*
X1127951D01*
Y-210988D01*
X1128237D01*
Y-210702D01*
X1128524D01*
Y-210416D01*
X1128810D01*
Y-210129D01*
Y-209843D01*
X1129096D01*
Y-209557D01*
X1129383D01*
Y-209271D01*
X1129669D01*
Y-208984D01*
Y-208698D01*
X1129955D01*
Y-208412D01*
X1130242D01*
Y-208125D01*
X1130528D01*
Y-207839D01*
X1130814D01*
Y-207553D01*
Y-207266D01*
X1131100D01*
Y-206980D01*
X1131387D01*
Y-206694D01*
X1131673D01*
Y-206407D01*
X1131960D01*
Y-206121D01*
Y-205835D01*
X1132246D01*
Y-205549D01*
X1132532D01*
Y-205262D01*
X1132818D01*
Y-204976D01*
Y-204690D01*
X1133105D01*
Y-204403D01*
X1133391D01*
Y-204117D01*
X1133677D01*
Y-203831D01*
X1133964D01*
Y-203544D01*
Y-203258D01*
X1134250D01*
Y-202972D01*
Y-202685D01*
Y-202399D01*
X1133964D01*
Y-202113D01*
X1133677D01*
Y-201826D01*
Y-201540D01*
X1133391D01*
Y-201254D01*
Y-200968D01*
X1133105D01*
Y-200681D01*
Y-200395D01*
X1132818D01*
Y-200109D01*
Y-199822D01*
X1132532D01*
Y-199536D01*
Y-199250D01*
X1132246D01*
Y-198963D01*
Y-198677D01*
X1131960D01*
Y-198391D01*
X1131673D01*
Y-198104D01*
Y-197818D01*
X1131387D01*
Y-197532D01*
Y-197245D01*
X1131100D01*
Y-196959D01*
Y-196673D01*
X1130814D01*
Y-196387D01*
Y-196100D01*
X1130528D01*
Y-195814D01*
Y-195528D01*
X1130242D01*
Y-195241D01*
Y-194955D01*
X1129955D01*
Y-194669D01*
X1129669D01*
Y-194382D01*
Y-194096D01*
X1129383D01*
Y-193810D01*
Y-193523D01*
X1129096D01*
Y-193237D01*
Y-192951D01*
X1128810D01*
Y-192664D01*
Y-192378D01*
X1128524D01*
Y-192092D01*
Y-191806D01*
X1128237D01*
Y-191519D01*
Y-191233D01*
X1127951D01*
Y-190946D01*
Y-190660D01*
X1127665D01*
Y-190374D01*
X1127378D01*
Y-190088D01*
Y-189801D01*
X1127092D01*
Y-189515D01*
Y-189229D01*
X1126806D01*
Y-188942D01*
Y-188656D01*
X1126519D01*
Y-188370D01*
Y-188083D01*
X1126233D01*
Y-187797D01*
Y-187511D01*
X1125947D01*
Y-187224D01*
Y-186938D01*
X1125661D01*
Y-186652D01*
X1125374D01*
Y-186365D01*
Y-186079D01*
X1125088D01*
Y-185793D01*
X1140835D01*
Y-186079D01*
X1141121D01*
Y-186365D01*
Y-186652D01*
Y-186938D01*
X1141408D01*
Y-187224D01*
Y-187511D01*
Y-187797D01*
X1141694D01*
Y-188083D01*
Y-188370D01*
Y-188656D01*
X1141980D01*
Y-188942D01*
Y-189229D01*
Y-189515D01*
X1142267D01*
Y-189801D01*
Y-190088D01*
Y-190374D01*
X1142553D01*
Y-190660D01*
Y-190946D01*
Y-191233D01*
X1142839D01*
Y-191519D01*
Y-191806D01*
Y-192092D01*
X1143126D01*
Y-192378D01*
Y-192664D01*
Y-192951D01*
X1143412D01*
Y-193237D01*
Y-193523D01*
Y-193810D01*
Y-194096D01*
X1143985D01*
Y-193810D01*
X1144271D01*
Y-193523D01*
X1144557D01*
Y-193237D01*
Y-192951D01*
X1144844D01*
Y-192664D01*
X1145130D01*
Y-192378D01*
Y-192092D01*
X1145416D01*
Y-191806D01*
X1145702D01*
Y-191519D01*
Y-191233D01*
X1145989D01*
Y-190946D01*
X1146275D01*
Y-190660D01*
Y-190374D01*
X1146561D01*
Y-190088D01*
X1146848D01*
Y-189801D01*
Y-189515D01*
X1147134D01*
Y-189229D01*
X1147420D01*
Y-188942D01*
Y-188656D01*
X1147707D01*
Y-188370D01*
X1147993D01*
Y-188083D01*
Y-187797D01*
X1148279D01*
Y-187511D01*
X1148566D01*
Y-187224D01*
Y-186938D01*
X1148852D01*
Y-186652D01*
X1149138D01*
Y-186365D01*
Y-186079D01*
X1149425D01*
Y-185793D01*
X1165172D01*
Y-186079D01*
D02*
G37*
G36*
X1032036Y-172050D02*
X1033754D01*
Y-172336D01*
X1034613D01*
Y-172623D01*
X1035472D01*
Y-172909D01*
X1036331D01*
Y-173195D01*
X1036904D01*
Y-173481D01*
X1037190D01*
Y-173768D01*
X1037763D01*
Y-174054D01*
X1038049D01*
Y-174340D01*
X1038622D01*
Y-174627D01*
X1038908D01*
Y-174913D01*
X1039194D01*
Y-175199D01*
X1039480D01*
Y-175486D01*
X1039767D01*
Y-175772D01*
X1040053D01*
Y-176058D01*
X1040339D01*
Y-176345D01*
Y-176631D01*
X1040626D01*
Y-176917D01*
X1040912D01*
Y-177204D01*
Y-177490D01*
X1041198D01*
Y-177776D01*
X1041485D01*
Y-178062D01*
Y-178349D01*
X1041771D01*
Y-178635D01*
Y-178921D01*
Y-179208D01*
X1042057D01*
Y-179494D01*
Y-179780D01*
Y-180067D01*
X1042344D01*
Y-180353D01*
Y-180639D01*
Y-180926D01*
Y-181212D01*
X1042630D01*
Y-181498D01*
Y-181784D01*
Y-182071D01*
Y-182357D01*
Y-182643D01*
X1042916D01*
Y-182930D01*
Y-183216D01*
Y-183502D01*
Y-183789D01*
Y-184075D01*
Y-184361D01*
Y-184648D01*
Y-184934D01*
Y-185220D01*
Y-185507D01*
Y-185793D01*
Y-186079D01*
Y-186365D01*
Y-186652D01*
Y-186938D01*
Y-187224D01*
Y-187511D01*
Y-187797D01*
Y-188083D01*
Y-188370D01*
X1042630D01*
Y-188656D01*
Y-188942D01*
Y-189229D01*
Y-189515D01*
Y-189801D01*
Y-190088D01*
Y-190374D01*
X1042344D01*
Y-190660D01*
Y-190946D01*
Y-191233D01*
Y-191519D01*
Y-191806D01*
X1042057D01*
Y-192092D01*
Y-192378D01*
Y-192664D01*
Y-192951D01*
Y-193237D01*
X1041771D01*
Y-193523D01*
Y-193810D01*
Y-194096D01*
X1041485D01*
Y-194382D01*
Y-194669D01*
Y-194955D01*
Y-195241D01*
X1041198D01*
Y-195528D01*
Y-195814D01*
Y-196100D01*
X1040912D01*
Y-196387D01*
Y-196673D01*
X1040626D01*
Y-196959D01*
Y-197245D01*
Y-197532D01*
X1040339D01*
Y-197818D01*
Y-198104D01*
X1040053D01*
Y-198391D01*
Y-198677D01*
X1039767D01*
Y-198963D01*
Y-199250D01*
X1039480D01*
Y-199536D01*
X1039194D01*
Y-199822D01*
Y-200109D01*
X1038908D01*
Y-200395D01*
X1038622D01*
Y-200681D01*
X1038335D01*
Y-200968D01*
Y-201254D01*
X1038049D01*
Y-201540D01*
X1037763D01*
Y-201826D01*
X1037476D01*
Y-202113D01*
X1037190D01*
Y-202399D01*
X1036904D01*
Y-202685D01*
X1036331D01*
Y-202972D01*
X1036045D01*
Y-203258D01*
X1035472D01*
Y-203544D01*
X1035186D01*
Y-203831D01*
X1034613D01*
Y-204117D01*
X1033754D01*
Y-204403D01*
X1032895D01*
Y-204690D01*
X1032036D01*
Y-204976D01*
X1030318D01*
Y-205262D01*
X1025165D01*
Y-204976D01*
X1022588D01*
Y-204690D01*
X1020584D01*
Y-204403D01*
X1019152D01*
Y-204117D01*
X1017721D01*
Y-203831D01*
X1016289D01*
Y-204117D01*
Y-204403D01*
Y-204690D01*
Y-204976D01*
Y-205262D01*
Y-205549D01*
Y-205835D01*
X1016003D01*
Y-206121D01*
Y-206407D01*
Y-206694D01*
Y-206980D01*
Y-207266D01*
Y-207553D01*
X1015716D01*
Y-207839D01*
Y-208125D01*
Y-208412D01*
Y-208698D01*
Y-208984D01*
Y-209271D01*
X1015430D01*
Y-209557D01*
Y-209843D01*
Y-210129D01*
Y-210416D01*
Y-210702D01*
Y-210988D01*
Y-211275D01*
X1015144D01*
Y-211561D01*
Y-211847D01*
Y-212134D01*
Y-212420D01*
Y-212706D01*
Y-212993D01*
X1014857D01*
Y-213279D01*
Y-213565D01*
Y-213851D01*
Y-214138D01*
Y-214424D01*
Y-214710D01*
X1014571D01*
Y-214997D01*
Y-215283D01*
Y-215569D01*
Y-215856D01*
Y-216142D01*
Y-216428D01*
Y-216715D01*
X1014285D01*
Y-217001D01*
Y-217287D01*
Y-217574D01*
Y-217860D01*
Y-218146D01*
Y-218433D01*
X1013999D01*
Y-218719D01*
Y-219005D01*
Y-219291D01*
Y-219578D01*
Y-219864D01*
Y-220150D01*
X1013712D01*
Y-220437D01*
Y-220723D01*
Y-221009D01*
Y-221296D01*
Y-221582D01*
Y-221868D01*
Y-222155D01*
X1000256D01*
Y-221868D01*
X1000542D01*
Y-221582D01*
Y-221296D01*
Y-221009D01*
Y-220723D01*
Y-220437D01*
X1000828D01*
Y-220150D01*
Y-219864D01*
Y-219578D01*
Y-219291D01*
Y-219005D01*
Y-218719D01*
Y-218433D01*
X1001114D01*
Y-218146D01*
Y-217860D01*
Y-217574D01*
Y-217287D01*
Y-217001D01*
Y-216715D01*
X1001401D01*
Y-216428D01*
Y-216142D01*
Y-215856D01*
Y-215569D01*
Y-215283D01*
Y-214997D01*
X1001687D01*
Y-214710D01*
Y-214424D01*
Y-214138D01*
Y-213851D01*
Y-213565D01*
Y-213279D01*
Y-212993D01*
X1001974D01*
Y-212706D01*
Y-212420D01*
Y-212134D01*
Y-211847D01*
Y-211561D01*
Y-211275D01*
X1002260D01*
Y-210988D01*
Y-210702D01*
Y-210416D01*
Y-210129D01*
Y-209843D01*
Y-209557D01*
X1002546D01*
Y-209271D01*
Y-208984D01*
Y-208698D01*
Y-208412D01*
Y-208125D01*
Y-207839D01*
X1002832D01*
Y-207553D01*
Y-207266D01*
Y-206980D01*
Y-206694D01*
Y-206407D01*
Y-206121D01*
Y-205835D01*
X1003119D01*
Y-205549D01*
Y-205262D01*
Y-204976D01*
Y-204690D01*
Y-204403D01*
Y-204117D01*
X1003405D01*
Y-203831D01*
Y-203544D01*
Y-203258D01*
Y-202972D01*
Y-202685D01*
Y-202399D01*
X1003691D01*
Y-202113D01*
Y-201826D01*
Y-201540D01*
Y-201254D01*
Y-200968D01*
Y-200681D01*
X1003978D01*
Y-200395D01*
Y-200109D01*
Y-199822D01*
Y-199536D01*
Y-199250D01*
Y-198963D01*
Y-198677D01*
X1004264D01*
Y-198391D01*
Y-198104D01*
Y-197818D01*
Y-197532D01*
Y-197245D01*
Y-196959D01*
X1004550D01*
Y-196673D01*
Y-196387D01*
Y-196100D01*
Y-195814D01*
Y-195528D01*
Y-195241D01*
X1004837D01*
Y-194955D01*
Y-194669D01*
Y-194382D01*
Y-194096D01*
Y-193810D01*
Y-193523D01*
Y-193237D01*
X1005123D01*
Y-192951D01*
Y-192664D01*
Y-192378D01*
Y-192092D01*
Y-191806D01*
Y-191519D01*
X1005409D01*
Y-191233D01*
Y-190946D01*
Y-190660D01*
Y-190374D01*
Y-190088D01*
Y-189801D01*
X1005696D01*
Y-189515D01*
Y-189229D01*
Y-188942D01*
Y-188656D01*
Y-188370D01*
Y-188083D01*
X1005982D01*
Y-187797D01*
Y-187511D01*
Y-187224D01*
Y-186938D01*
Y-186652D01*
Y-186365D01*
Y-186079D01*
X1006268D01*
Y-185793D01*
Y-185507D01*
Y-185220D01*
Y-184934D01*
Y-184648D01*
Y-184361D01*
X1006555D01*
Y-184075D01*
Y-183789D01*
Y-183502D01*
Y-183216D01*
Y-182930D01*
Y-182643D01*
X1006841D01*
Y-182357D01*
Y-182071D01*
Y-181784D01*
Y-181498D01*
Y-181212D01*
Y-180926D01*
Y-180639D01*
X1007127D01*
Y-180353D01*
Y-180067D01*
Y-179780D01*
Y-179494D01*
Y-179208D01*
Y-178921D01*
X1007413D01*
Y-178635D01*
Y-178349D01*
Y-178062D01*
Y-177776D01*
Y-177490D01*
Y-177204D01*
X1007700D01*
Y-176917D01*
Y-176631D01*
Y-176345D01*
Y-176058D01*
Y-175772D01*
Y-175486D01*
Y-175199D01*
X1007986D01*
Y-174913D01*
Y-174627D01*
Y-174340D01*
Y-174054D01*
Y-173768D01*
Y-173481D01*
X1008272D01*
Y-173195D01*
Y-172909D01*
Y-172623D01*
Y-172336D01*
Y-172050D01*
Y-171764D01*
X1032036D01*
Y-172050D01*
D02*
G37*
G36*
X1121080Y-186079D02*
Y-186365D01*
Y-186652D01*
Y-186938D01*
Y-187224D01*
Y-187511D01*
Y-187797D01*
Y-188083D01*
Y-188370D01*
Y-188656D01*
Y-188942D01*
Y-189229D01*
Y-189515D01*
Y-189801D01*
Y-190088D01*
Y-190374D01*
Y-190660D01*
Y-190946D01*
Y-191233D01*
Y-191519D01*
Y-191806D01*
X1120793D01*
Y-192092D01*
Y-192378D01*
Y-192664D01*
Y-192951D01*
Y-193237D01*
X1120507D01*
Y-193523D01*
Y-193810D01*
Y-194096D01*
Y-194382D01*
X1120221D01*
Y-194669D01*
Y-194955D01*
Y-195241D01*
Y-195528D01*
X1119934D01*
Y-195814D01*
Y-196100D01*
Y-196387D01*
X1119648D01*
Y-196673D01*
Y-196959D01*
Y-197245D01*
X1119362D01*
Y-197532D01*
Y-197818D01*
Y-198104D01*
X1119075D01*
Y-198391D01*
Y-198677D01*
Y-198963D01*
X1118789D01*
Y-199250D01*
Y-199536D01*
X1118503D01*
Y-199822D01*
Y-200109D01*
X1118217D01*
Y-200395D01*
Y-200681D01*
Y-200968D01*
X1117930D01*
Y-201254D01*
Y-201540D01*
X1117644D01*
Y-201826D01*
Y-202113D01*
Y-202399D01*
X1117358D01*
Y-202685D01*
Y-202972D01*
X1117071D01*
Y-203258D01*
Y-203544D01*
Y-203831D01*
X1116785D01*
Y-204117D01*
Y-204403D01*
X1116499D01*
Y-204690D01*
Y-204976D01*
Y-205262D01*
X1116212D01*
Y-205549D01*
Y-205835D01*
X1115926D01*
Y-206121D01*
Y-206407D01*
Y-206694D01*
X1115640D01*
Y-206980D01*
Y-207266D01*
X1115353D01*
Y-207553D01*
Y-207839D01*
Y-208125D01*
X1115067D01*
Y-208412D01*
Y-208698D01*
X1114781D01*
Y-208984D01*
Y-209271D01*
Y-209557D01*
X1114494D01*
Y-209843D01*
Y-210129D01*
X1114208D01*
Y-210416D01*
Y-210702D01*
Y-210988D01*
X1113922D01*
Y-211275D01*
Y-211561D01*
X1113636D01*
Y-211847D01*
Y-212134D01*
Y-212420D01*
X1113349D01*
Y-212706D01*
Y-212993D01*
X1113063D01*
Y-213279D01*
Y-213565D01*
Y-213851D01*
X1112776D01*
Y-214138D01*
Y-214424D01*
X1112490D01*
Y-214710D01*
Y-214997D01*
Y-215283D01*
X1112204D01*
Y-215569D01*
Y-215856D01*
X1111918D01*
Y-216142D01*
Y-216428D01*
Y-216715D01*
X1111631D01*
Y-217001D01*
Y-217287D01*
X1111345D01*
Y-217574D01*
Y-217860D01*
Y-218146D01*
X1111059D01*
Y-218433D01*
Y-218719D01*
X1110772D01*
Y-219005D01*
Y-219291D01*
Y-219578D01*
X1110486D01*
Y-219864D01*
Y-220150D01*
X1110200D01*
Y-220437D01*
Y-220723D01*
Y-221009D01*
X1109913D01*
Y-221296D01*
Y-221582D01*
X1109627D01*
Y-221868D01*
Y-222155D01*
Y-222441D01*
X1109341D01*
Y-222727D01*
Y-223014D01*
X1109054D01*
Y-223300D01*
Y-223586D01*
X1108768D01*
Y-223872D01*
Y-224159D01*
X1108482D01*
Y-224445D01*
Y-224731D01*
Y-225018D01*
X1108195D01*
Y-225304D01*
X1107909D01*
Y-225590D01*
Y-225877D01*
Y-226163D01*
X1107623D01*
Y-226449D01*
X1107337D01*
Y-226736D01*
Y-227022D01*
X1107050D01*
Y-227308D01*
Y-227595D01*
X1106764D01*
Y-227881D01*
Y-228167D01*
X1106478D01*
Y-228453D01*
Y-228740D01*
X1106191D01*
Y-229026D01*
X1105905D01*
Y-229312D01*
Y-229599D01*
X1105619D01*
Y-229885D01*
Y-230171D01*
X1105332D01*
Y-230458D01*
X1105046D01*
Y-230744D01*
X1104760D01*
Y-231030D01*
Y-231317D01*
X1104473D01*
Y-231603D01*
X1104187D01*
Y-231889D01*
Y-232176D01*
X1103901D01*
Y-232462D01*
X1103615D01*
Y-232748D01*
X1103328D01*
Y-233034D01*
Y-233321D01*
X1103042D01*
Y-233607D01*
X1102756D01*
Y-233893D01*
X1102469D01*
Y-234180D01*
X1102183D01*
Y-234466D01*
X1101897D01*
Y-234752D01*
Y-235039D01*
X1101610D01*
Y-235325D01*
X1101324D01*
Y-235611D01*
X1101038D01*
Y-235898D01*
X1100751D01*
Y-236184D01*
X1100465D01*
Y-236470D01*
X1100179D01*
Y-236757D01*
X1099892D01*
Y-237043D01*
X1099320D01*
Y-237329D01*
X1099034D01*
Y-237615D01*
X1098747D01*
Y-237902D01*
X1098461D01*
Y-238188D01*
X1098175D01*
Y-238474D01*
X1097602D01*
Y-238761D01*
X1097316D01*
Y-239047D01*
X1096743D01*
Y-239333D01*
X1096457D01*
Y-239620D01*
X1095884D01*
Y-239906D01*
X1095598D01*
Y-240192D01*
X1095025D01*
Y-240479D01*
X1094452D01*
Y-240765D01*
X1093880D01*
Y-241051D01*
X1093307D01*
Y-241338D01*
X1092735D01*
Y-241624D01*
X1091876D01*
Y-241910D01*
X1091303D01*
Y-242196D01*
X1090444D01*
Y-242483D01*
X1089299D01*
Y-242769D01*
X1088154D01*
Y-243056D01*
X1086436D01*
Y-243342D01*
X1084432D01*
Y-243628D01*
X1084145D01*
Y-243342D01*
Y-243056D01*
Y-242769D01*
Y-242483D01*
Y-242196D01*
Y-241910D01*
Y-241624D01*
Y-241338D01*
Y-241051D01*
Y-240765D01*
Y-240479D01*
Y-240192D01*
Y-239906D01*
Y-239620D01*
Y-239333D01*
Y-239047D01*
Y-238761D01*
Y-238474D01*
Y-238188D01*
Y-237902D01*
Y-237615D01*
Y-237329D01*
Y-237043D01*
Y-236757D01*
Y-236470D01*
Y-236184D01*
Y-235898D01*
Y-235611D01*
Y-235325D01*
Y-235039D01*
Y-234752D01*
Y-234466D01*
Y-234180D01*
X1084718D01*
Y-233893D01*
X1085291D01*
Y-233607D01*
X1085863D01*
Y-233321D01*
X1086436D01*
Y-233034D01*
X1087008D01*
Y-232748D01*
X1087581D01*
Y-232462D01*
X1087867D01*
Y-232176D01*
X1088440D01*
Y-231889D01*
X1088726D01*
Y-231603D01*
X1089299D01*
Y-231317D01*
X1089585D01*
Y-231030D01*
X1089872D01*
Y-230744D01*
X1090444D01*
Y-230458D01*
X1090730D01*
Y-230171D01*
X1091017D01*
Y-229885D01*
X1091303D01*
Y-229599D01*
X1091589D01*
Y-229312D01*
X1091876D01*
Y-229026D01*
X1092162D01*
Y-228740D01*
X1092448D01*
Y-228453D01*
X1092735D01*
Y-228167D01*
X1093021D01*
Y-227881D01*
X1093307D01*
Y-227595D01*
X1093594D01*
Y-227308D01*
Y-227022D01*
X1093880D01*
Y-226736D01*
X1094166D01*
Y-226449D01*
X1094452D01*
Y-226163D01*
Y-225877D01*
X1094739D01*
Y-225590D01*
X1095025D01*
Y-225304D01*
Y-225018D01*
X1095311D01*
Y-224731D01*
Y-224445D01*
X1095598D01*
Y-224159D01*
X1095884D01*
Y-223872D01*
Y-223586D01*
X1096170D01*
Y-223300D01*
Y-223014D01*
X1096457D01*
Y-222727D01*
Y-222441D01*
X1094739D01*
Y-222155D01*
X1092735D01*
Y-221868D01*
X1091589D01*
Y-221582D01*
X1091017D01*
Y-221296D01*
X1090158D01*
Y-221009D01*
X1089585D01*
Y-220723D01*
X1089299D01*
Y-220437D01*
X1088726D01*
Y-220150D01*
X1088440D01*
Y-219864D01*
X1088154D01*
Y-219578D01*
X1087867D01*
Y-219291D01*
X1087581D01*
Y-219005D01*
X1087295D01*
Y-218719D01*
Y-218433D01*
X1087008D01*
Y-218146D01*
X1086722D01*
Y-217860D01*
Y-217574D01*
X1086436D01*
Y-217287D01*
Y-217001D01*
X1086149D01*
Y-216715D01*
Y-216428D01*
X1085863D01*
Y-216142D01*
Y-215856D01*
Y-215569D01*
X1085577D01*
Y-215283D01*
Y-214997D01*
Y-214710D01*
Y-214424D01*
X1085291D01*
Y-214138D01*
Y-213851D01*
Y-213565D01*
Y-213279D01*
Y-212993D01*
Y-212706D01*
Y-212420D01*
X1085004D01*
Y-212134D01*
Y-211847D01*
Y-211561D01*
Y-211275D01*
Y-210988D01*
Y-210702D01*
Y-210416D01*
Y-210129D01*
Y-209843D01*
Y-209557D01*
Y-209271D01*
Y-208984D01*
Y-208698D01*
Y-208412D01*
Y-208125D01*
X1084718D01*
Y-207839D01*
Y-207553D01*
Y-207266D01*
Y-206980D01*
Y-206694D01*
Y-206407D01*
Y-206121D01*
Y-205835D01*
Y-205549D01*
Y-205262D01*
Y-204976D01*
Y-204690D01*
Y-204403D01*
Y-204117D01*
Y-203831D01*
X1084432D01*
Y-203544D01*
Y-203258D01*
Y-202972D01*
Y-202685D01*
Y-202399D01*
Y-202113D01*
Y-201826D01*
Y-201540D01*
Y-201254D01*
Y-200968D01*
Y-200681D01*
Y-200395D01*
Y-200109D01*
Y-199822D01*
Y-199536D01*
Y-199250D01*
X1084145D01*
Y-198963D01*
Y-198677D01*
Y-198391D01*
Y-198104D01*
Y-197818D01*
Y-197532D01*
Y-197245D01*
Y-196959D01*
Y-196673D01*
Y-196387D01*
Y-196100D01*
Y-195814D01*
Y-195528D01*
Y-195241D01*
Y-194955D01*
Y-194669D01*
X1083859D01*
Y-194382D01*
Y-194096D01*
Y-193810D01*
Y-193523D01*
Y-193237D01*
Y-192951D01*
Y-192664D01*
Y-192378D01*
Y-192092D01*
Y-191806D01*
Y-191519D01*
Y-191233D01*
Y-190946D01*
Y-190660D01*
X1083573D01*
Y-190374D01*
Y-190088D01*
Y-189801D01*
Y-189515D01*
Y-189229D01*
Y-188942D01*
Y-188656D01*
Y-188370D01*
Y-188083D01*
Y-187797D01*
Y-187511D01*
Y-187224D01*
Y-186938D01*
Y-186652D01*
Y-186365D01*
Y-186079D01*
X1083286D01*
Y-185793D01*
X1097029D01*
Y-186079D01*
Y-186365D01*
Y-186652D01*
Y-186938D01*
Y-187224D01*
Y-187511D01*
Y-187797D01*
Y-188083D01*
Y-188370D01*
Y-188656D01*
Y-188942D01*
Y-189229D01*
Y-189515D01*
Y-189801D01*
X1097316D01*
Y-190088D01*
Y-190374D01*
Y-190660D01*
Y-190946D01*
Y-191233D01*
Y-191519D01*
Y-191806D01*
Y-192092D01*
Y-192378D01*
Y-192664D01*
Y-192951D01*
Y-193237D01*
Y-193523D01*
Y-193810D01*
Y-194096D01*
Y-194382D01*
Y-194669D01*
Y-194955D01*
Y-195241D01*
Y-195528D01*
Y-195814D01*
Y-196100D01*
Y-196387D01*
Y-196673D01*
Y-196959D01*
Y-197245D01*
Y-197532D01*
Y-197818D01*
Y-198104D01*
Y-198391D01*
Y-198677D01*
Y-198963D01*
Y-199250D01*
Y-199536D01*
Y-199822D01*
Y-200109D01*
Y-200395D01*
Y-200681D01*
Y-200968D01*
Y-201254D01*
Y-201540D01*
X1097602D01*
Y-201826D01*
X1097316D01*
Y-202113D01*
Y-202399D01*
X1097602D01*
Y-202685D01*
Y-202972D01*
Y-203258D01*
Y-203544D01*
Y-203831D01*
Y-204117D01*
Y-204403D01*
Y-204690D01*
Y-204976D01*
Y-205262D01*
Y-205549D01*
Y-205835D01*
Y-206121D01*
Y-206407D01*
Y-206694D01*
Y-206980D01*
Y-207266D01*
Y-207553D01*
Y-207839D01*
Y-208125D01*
Y-208412D01*
Y-208698D01*
Y-208984D01*
Y-209271D01*
Y-209557D01*
Y-209843D01*
X1097888D01*
Y-210129D01*
Y-210416D01*
Y-210702D01*
X1098175D01*
Y-210988D01*
X1098461D01*
Y-211275D01*
X1098747D01*
Y-211561D01*
X1099606D01*
Y-211847D01*
X1100465D01*
Y-211561D01*
X1100751D01*
Y-211275D01*
Y-210988D01*
Y-210702D01*
X1101038D01*
Y-210416D01*
Y-210129D01*
X1101324D01*
Y-209843D01*
Y-209557D01*
Y-209271D01*
X1101610D01*
Y-208984D01*
Y-208698D01*
Y-208412D01*
X1101897D01*
Y-208125D01*
Y-207839D01*
Y-207553D01*
X1102183D01*
Y-207266D01*
Y-206980D01*
Y-206694D01*
X1102469D01*
Y-206407D01*
Y-206121D01*
X1102756D01*
Y-205835D01*
Y-205549D01*
Y-205262D01*
X1103042D01*
Y-204976D01*
Y-204690D01*
Y-204403D01*
X1103328D01*
Y-204117D01*
Y-203831D01*
Y-203544D01*
X1103615D01*
Y-203258D01*
Y-202972D01*
X1103901D01*
Y-202685D01*
Y-202399D01*
Y-202113D01*
X1104187D01*
Y-201826D01*
Y-201540D01*
Y-201254D01*
X1104473D01*
Y-200968D01*
Y-200681D01*
Y-200395D01*
X1104760D01*
Y-200109D01*
Y-199822D01*
X1105046D01*
Y-199536D01*
Y-199250D01*
Y-198963D01*
X1105332D01*
Y-198677D01*
Y-198391D01*
Y-198104D01*
X1105619D01*
Y-197818D01*
Y-197532D01*
Y-197245D01*
X1105905D01*
Y-196959D01*
Y-196673D01*
X1106191D01*
Y-196387D01*
Y-196100D01*
Y-195814D01*
X1106478D01*
Y-195528D01*
Y-195241D01*
Y-194955D01*
X1106764D01*
Y-194669D01*
Y-194382D01*
Y-194096D01*
X1107050D01*
Y-193810D01*
Y-193523D01*
Y-193237D01*
Y-192951D01*
X1107337D01*
Y-192664D01*
Y-192378D01*
Y-192092D01*
Y-191806D01*
X1107623D01*
Y-191519D01*
Y-191233D01*
Y-190946D01*
Y-190660D01*
Y-190374D01*
X1107909D01*
Y-190088D01*
Y-189801D01*
Y-189515D01*
Y-189229D01*
Y-188942D01*
Y-188656D01*
X1108195D01*
Y-188370D01*
Y-188083D01*
Y-187797D01*
Y-187511D01*
Y-187224D01*
Y-186938D01*
Y-186652D01*
Y-186365D01*
Y-186079D01*
Y-185793D01*
X1121080D01*
Y-186079D01*
D02*
G37*
G36*
X1063244Y-168614D02*
Y-168900D01*
X1062958D01*
Y-169187D01*
Y-169473D01*
Y-169759D01*
Y-170046D01*
Y-170332D01*
Y-170618D01*
X1062672D01*
Y-170905D01*
Y-171191D01*
Y-171477D01*
Y-171764D01*
Y-172050D01*
Y-172336D01*
X1062385D01*
Y-172623D01*
Y-172909D01*
Y-173195D01*
Y-173481D01*
Y-173768D01*
Y-174054D01*
Y-174340D01*
X1062099D01*
Y-174627D01*
Y-174913D01*
Y-175199D01*
Y-175486D01*
Y-175772D01*
Y-176058D01*
X1061813D01*
Y-176345D01*
Y-176631D01*
Y-176917D01*
Y-177204D01*
Y-177490D01*
Y-177776D01*
X1061526D01*
Y-178062D01*
Y-178349D01*
Y-178635D01*
Y-178921D01*
Y-179208D01*
Y-179494D01*
Y-179780D01*
X1061240D01*
Y-180067D01*
Y-180353D01*
Y-180639D01*
Y-180926D01*
Y-181212D01*
Y-181498D01*
X1060954D01*
Y-181784D01*
Y-182071D01*
Y-182357D01*
Y-182643D01*
Y-182930D01*
Y-183216D01*
X1060668D01*
Y-183502D01*
Y-183789D01*
Y-184075D01*
Y-184361D01*
Y-184648D01*
Y-184934D01*
X1060381D01*
Y-185220D01*
Y-185507D01*
Y-185793D01*
Y-186079D01*
Y-186365D01*
Y-186652D01*
Y-186938D01*
X1060095D01*
Y-187224D01*
Y-187511D01*
Y-187797D01*
Y-188083D01*
Y-188370D01*
Y-188656D01*
X1059809D01*
Y-188942D01*
Y-189229D01*
X1060381D01*
Y-188942D01*
X1060668D01*
Y-188656D01*
X1060954D01*
Y-188370D01*
X1061526D01*
Y-188083D01*
X1061813D01*
Y-187797D01*
X1062099D01*
Y-187511D01*
X1062672D01*
Y-187224D01*
X1063244D01*
Y-186938D01*
X1063531D01*
Y-186652D01*
X1064103D01*
Y-186365D01*
X1064962D01*
Y-186079D01*
X1065535D01*
Y-185793D01*
X1066394D01*
Y-185507D01*
X1067825D01*
Y-185220D01*
X1074124D01*
Y-185507D01*
X1075270D01*
Y-185793D01*
X1076128D01*
Y-186079D01*
X1076701D01*
Y-186365D01*
X1076987D01*
Y-186652D01*
X1077560D01*
Y-186938D01*
X1077846D01*
Y-187224D01*
X1078133D01*
Y-187511D01*
X1078419D01*
Y-187797D01*
X1078705D01*
Y-188083D01*
Y-188370D01*
X1078992D01*
Y-188656D01*
Y-188942D01*
X1079278D01*
Y-189229D01*
Y-189515D01*
Y-189801D01*
X1079564D01*
Y-190088D01*
Y-190374D01*
Y-190660D01*
Y-190946D01*
X1079850D01*
Y-191233D01*
Y-191519D01*
Y-191806D01*
Y-192092D01*
Y-192378D01*
Y-192664D01*
Y-192951D01*
Y-193237D01*
Y-193523D01*
Y-193810D01*
Y-194096D01*
Y-194382D01*
Y-194669D01*
Y-194955D01*
Y-195241D01*
Y-195528D01*
Y-195814D01*
Y-196100D01*
X1079564D01*
Y-196387D01*
Y-196673D01*
Y-196959D01*
Y-197245D01*
Y-197532D01*
Y-197818D01*
Y-198104D01*
X1079278D01*
Y-198391D01*
Y-198677D01*
Y-198963D01*
Y-199250D01*
Y-199536D01*
Y-199822D01*
Y-200109D01*
X1078992D01*
Y-200395D01*
Y-200681D01*
Y-200968D01*
Y-201254D01*
Y-201540D01*
Y-201826D01*
X1078705D01*
Y-202113D01*
Y-202399D01*
Y-202685D01*
Y-202972D01*
Y-203258D01*
Y-203544D01*
X1078419D01*
Y-203831D01*
Y-204117D01*
Y-204403D01*
Y-204690D01*
Y-204976D01*
Y-205262D01*
X1078133D01*
Y-205549D01*
Y-205835D01*
Y-206121D01*
Y-206407D01*
Y-206694D01*
Y-206980D01*
Y-207266D01*
X1077846D01*
Y-207553D01*
Y-207839D01*
Y-208125D01*
Y-208412D01*
Y-208698D01*
Y-208984D01*
X1077560D01*
Y-209271D01*
Y-209557D01*
Y-209843D01*
Y-210129D01*
Y-210416D01*
Y-210702D01*
X1077274D01*
Y-210988D01*
Y-211275D01*
Y-211561D01*
Y-211847D01*
Y-212134D01*
Y-212420D01*
Y-212706D01*
X1076987D01*
Y-212993D01*
Y-213279D01*
Y-213565D01*
Y-213851D01*
Y-214138D01*
Y-214424D01*
X1076701D01*
Y-214710D01*
Y-214997D01*
Y-215283D01*
Y-215569D01*
Y-215856D01*
Y-216142D01*
X1076415D01*
Y-216428D01*
Y-216715D01*
Y-217001D01*
Y-217287D01*
Y-217574D01*
Y-217860D01*
X1076128D01*
Y-218146D01*
Y-218433D01*
Y-218719D01*
Y-219005D01*
Y-219291D01*
Y-219578D01*
Y-219864D01*
X1075842D01*
Y-220150D01*
Y-220437D01*
Y-220723D01*
Y-221009D01*
Y-221296D01*
Y-221582D01*
X1075556D01*
Y-221868D01*
Y-222155D01*
X1062385D01*
Y-221868D01*
Y-221582D01*
X1062672D01*
Y-221296D01*
Y-221009D01*
Y-220723D01*
Y-220437D01*
Y-220150D01*
Y-219864D01*
X1062958D01*
Y-219578D01*
Y-219291D01*
Y-219005D01*
Y-218719D01*
Y-218433D01*
Y-218146D01*
Y-217860D01*
X1063244D01*
Y-217574D01*
Y-217287D01*
Y-217001D01*
Y-216715D01*
Y-216428D01*
Y-216142D01*
X1063531D01*
Y-215856D01*
Y-215569D01*
Y-215283D01*
Y-214997D01*
Y-214710D01*
Y-214424D01*
X1063817D01*
Y-214138D01*
Y-213851D01*
Y-213565D01*
Y-213279D01*
Y-212993D01*
Y-212706D01*
Y-212420D01*
X1064103D01*
Y-212134D01*
Y-211847D01*
Y-211561D01*
Y-211275D01*
Y-210988D01*
Y-210702D01*
X1064390D01*
Y-210416D01*
Y-210129D01*
Y-209843D01*
Y-209557D01*
Y-209271D01*
Y-208984D01*
Y-208698D01*
X1064676D01*
Y-208412D01*
Y-208125D01*
Y-207839D01*
Y-207553D01*
Y-207266D01*
Y-206980D01*
X1064962D01*
Y-206694D01*
Y-206407D01*
Y-206121D01*
Y-205835D01*
Y-205549D01*
Y-205262D01*
X1065249D01*
Y-204976D01*
Y-204690D01*
Y-204403D01*
Y-204117D01*
Y-203831D01*
Y-203544D01*
X1065535D01*
Y-203258D01*
Y-202972D01*
Y-202685D01*
Y-202399D01*
Y-202113D01*
Y-201826D01*
Y-201540D01*
X1065821D01*
Y-201254D01*
Y-200968D01*
Y-200681D01*
Y-200395D01*
Y-200109D01*
Y-199822D01*
X1066107D01*
Y-199536D01*
Y-199250D01*
Y-198963D01*
Y-198677D01*
Y-198391D01*
Y-198104D01*
Y-197818D01*
X1066394D01*
Y-197532D01*
Y-197245D01*
Y-196959D01*
Y-196673D01*
Y-196387D01*
Y-196100D01*
X1066107D01*
Y-195814D01*
Y-195528D01*
X1065821D01*
Y-195241D01*
X1065535D01*
Y-194955D01*
X1064962D01*
Y-194669D01*
X1063244D01*
Y-194955D01*
X1061813D01*
Y-195241D01*
X1060954D01*
Y-195528D01*
X1060381D01*
Y-195814D01*
X1060095D01*
Y-196100D01*
X1059522D01*
Y-196387D01*
X1059236D01*
Y-196673D01*
X1058950D01*
Y-196959D01*
Y-197245D01*
X1058663D01*
Y-197532D01*
Y-197818D01*
Y-198104D01*
X1058377D01*
Y-198391D01*
Y-198677D01*
Y-198963D01*
Y-199250D01*
Y-199536D01*
Y-199822D01*
X1058091D01*
Y-200109D01*
Y-200395D01*
Y-200681D01*
Y-200968D01*
Y-201254D01*
Y-201540D01*
Y-201826D01*
X1057804D01*
Y-202113D01*
Y-202399D01*
Y-202685D01*
Y-202972D01*
Y-203258D01*
Y-203544D01*
X1057518D01*
Y-203831D01*
Y-204117D01*
Y-204403D01*
Y-204690D01*
Y-204976D01*
Y-205262D01*
X1057232D01*
Y-205549D01*
Y-205835D01*
Y-206121D01*
Y-206407D01*
Y-206694D01*
Y-206980D01*
X1056946D01*
Y-207266D01*
Y-207553D01*
Y-207839D01*
Y-208125D01*
Y-208412D01*
Y-208698D01*
Y-208984D01*
X1056659D01*
Y-209271D01*
Y-209557D01*
Y-209843D01*
Y-210129D01*
Y-210416D01*
Y-210702D01*
X1056373D01*
Y-210988D01*
Y-211275D01*
Y-211561D01*
Y-211847D01*
Y-212134D01*
Y-212420D01*
X1056087D01*
Y-212706D01*
Y-212993D01*
Y-213279D01*
Y-213565D01*
Y-213851D01*
Y-214138D01*
Y-214424D01*
X1055800D01*
Y-214710D01*
Y-214997D01*
Y-215283D01*
Y-215569D01*
Y-215856D01*
Y-216142D01*
X1055514D01*
Y-216428D01*
Y-216715D01*
Y-217001D01*
Y-217287D01*
Y-217574D01*
Y-217860D01*
X1055228D01*
Y-218146D01*
Y-218433D01*
Y-218719D01*
Y-219005D01*
Y-219291D01*
Y-219578D01*
X1054941D01*
Y-219864D01*
Y-220150D01*
Y-220437D01*
Y-220723D01*
Y-221009D01*
Y-221296D01*
Y-221582D01*
X1054655D01*
Y-221868D01*
Y-222155D01*
X1041485D01*
Y-221868D01*
Y-221582D01*
X1041771D01*
Y-221296D01*
Y-221009D01*
Y-220723D01*
Y-220437D01*
Y-220150D01*
Y-219864D01*
Y-219578D01*
X1042057D01*
Y-219291D01*
Y-219005D01*
Y-218719D01*
Y-218433D01*
Y-218146D01*
Y-217860D01*
X1042344D01*
Y-217574D01*
Y-217287D01*
Y-217001D01*
Y-216715D01*
Y-216428D01*
Y-216142D01*
X1042630D01*
Y-215856D01*
Y-215569D01*
Y-215283D01*
Y-214997D01*
Y-214710D01*
Y-214424D01*
Y-214138D01*
X1042916D01*
Y-213851D01*
Y-213565D01*
Y-213279D01*
Y-212993D01*
Y-212706D01*
Y-212420D01*
X1043202D01*
Y-212134D01*
Y-211847D01*
Y-211561D01*
Y-211275D01*
Y-210988D01*
Y-210702D01*
X1043489D01*
Y-210416D01*
Y-210129D01*
Y-209843D01*
Y-209557D01*
Y-209271D01*
Y-208984D01*
X1043775D01*
Y-208698D01*
Y-208412D01*
Y-208125D01*
Y-207839D01*
Y-207553D01*
Y-207266D01*
Y-206980D01*
X1044061D01*
Y-206694D01*
Y-206407D01*
Y-206121D01*
Y-205835D01*
Y-205549D01*
Y-205262D01*
X1044348D01*
Y-204976D01*
Y-204690D01*
Y-204403D01*
Y-204117D01*
Y-203831D01*
Y-203544D01*
X1044634D01*
Y-203258D01*
Y-202972D01*
Y-202685D01*
Y-202399D01*
Y-202113D01*
Y-201826D01*
Y-201540D01*
X1044920D01*
Y-201254D01*
Y-200968D01*
Y-200681D01*
Y-200395D01*
Y-200109D01*
Y-199822D01*
X1045207D01*
Y-199536D01*
Y-199250D01*
Y-198963D01*
Y-198677D01*
Y-198391D01*
Y-198104D01*
X1045493D01*
Y-197818D01*
Y-197532D01*
Y-197245D01*
Y-196959D01*
Y-196673D01*
Y-196387D01*
X1045779D01*
Y-196100D01*
Y-195814D01*
Y-195528D01*
Y-195241D01*
Y-194955D01*
Y-194669D01*
Y-194382D01*
X1046066D01*
Y-194096D01*
Y-193810D01*
Y-193523D01*
Y-193237D01*
Y-192951D01*
Y-192664D01*
X1046352D01*
Y-192378D01*
Y-192092D01*
Y-191806D01*
Y-191519D01*
Y-191233D01*
Y-190946D01*
X1046638D01*
Y-190660D01*
Y-190374D01*
Y-190088D01*
Y-189801D01*
Y-189515D01*
Y-189229D01*
X1046925D01*
Y-188942D01*
Y-188656D01*
Y-188370D01*
Y-188083D01*
Y-187797D01*
Y-187511D01*
Y-187224D01*
X1047211D01*
Y-186938D01*
Y-186652D01*
Y-186365D01*
Y-186079D01*
Y-185793D01*
Y-185507D01*
X1047497D01*
Y-185220D01*
Y-184934D01*
Y-184648D01*
Y-184361D01*
Y-184075D01*
Y-183789D01*
X1047783D01*
Y-183502D01*
Y-183216D01*
Y-182930D01*
Y-182643D01*
Y-182357D01*
Y-182071D01*
Y-181784D01*
X1048070D01*
Y-181498D01*
Y-181212D01*
Y-180926D01*
Y-180639D01*
Y-180353D01*
Y-180067D01*
X1048356D01*
Y-179780D01*
Y-179494D01*
Y-179208D01*
Y-178921D01*
Y-178635D01*
Y-178349D01*
X1048642D01*
Y-178062D01*
Y-177776D01*
Y-177490D01*
Y-177204D01*
Y-176917D01*
Y-176631D01*
X1048929D01*
Y-176345D01*
Y-176058D01*
Y-175772D01*
Y-175486D01*
Y-175199D01*
Y-174913D01*
Y-174627D01*
X1049215D01*
Y-174340D01*
Y-174054D01*
Y-173768D01*
Y-173481D01*
Y-173195D01*
Y-172909D01*
X1049501D01*
Y-172623D01*
Y-172336D01*
Y-172050D01*
Y-171764D01*
Y-171477D01*
Y-171191D01*
X1049788D01*
Y-170905D01*
Y-170618D01*
Y-170332D01*
Y-170046D01*
Y-169759D01*
Y-169473D01*
Y-169187D01*
X1050074D01*
Y-168900D01*
Y-168614D01*
Y-168328D01*
X1063244D01*
Y-168614D01*
D02*
G37*
%LPC*%
G36*
X193454Y113252D02*
Y109831D01*
X196875D01*
X196805Y110363D01*
X196406Y111324D01*
X195773Y112150D01*
X194947Y112783D01*
X193985Y113182D01*
X193454Y113252D01*
D02*
G37*
G36*
X192454D02*
X191922Y113182D01*
X190960Y112783D01*
X190135Y112150D01*
X189501Y111324D01*
X189103Y110363D01*
X189033Y109831D01*
X192454D01*
Y113252D01*
D02*
G37*
G36*
X173454D02*
Y109831D01*
X176875D01*
X176805Y110363D01*
X176406Y111324D01*
X175773Y112150D01*
X174947Y112783D01*
X173986Y113182D01*
X173454Y113252D01*
D02*
G37*
G36*
X172454D02*
X171922Y113182D01*
X170960Y112783D01*
X170134Y112150D01*
X169501Y111324D01*
X169103Y110363D01*
X169033Y109831D01*
X172454D01*
Y113252D01*
D02*
G37*
G36*
X53453D02*
Y109831D01*
X56875D01*
X56805Y110363D01*
X56406Y111324D01*
X55773Y112150D01*
X54947Y112783D01*
X53985Y113182D01*
X53453Y113252D01*
D02*
G37*
G36*
X52454D02*
X51922Y113182D01*
X50960Y112783D01*
X50134Y112150D01*
X49501Y111324D01*
X49103Y110363D01*
X49033Y109831D01*
X52454D01*
Y113252D01*
D02*
G37*
G36*
X196875Y108831D02*
X193454D01*
Y105410D01*
X193985Y105480D01*
X194947Y105878D01*
X195773Y106512D01*
X196406Y107337D01*
X196805Y108299D01*
X196875Y108831D01*
D02*
G37*
G36*
X192454D02*
X189033D01*
X189103Y108299D01*
X189501Y107337D01*
X190135Y106512D01*
X190960Y105878D01*
X191922Y105480D01*
X192454Y105410D01*
Y108831D01*
D02*
G37*
G36*
X176875D02*
X173454D01*
Y105410D01*
X173986Y105480D01*
X174947Y105878D01*
X175773Y106512D01*
X176406Y107337D01*
X176805Y108299D01*
X176875Y108831D01*
D02*
G37*
G36*
X172454D02*
X169033D01*
X169103Y108299D01*
X169501Y107337D01*
X170134Y106512D01*
X170960Y105878D01*
X171922Y105480D01*
X172454Y105410D01*
Y108831D01*
D02*
G37*
G36*
X96875D02*
X93454D01*
Y105410D01*
X93985Y105480D01*
X94947Y105878D01*
X95773Y106512D01*
X96406Y107337D01*
X96805Y108299D01*
X96875Y108831D01*
D02*
G37*
G36*
X92454D02*
X89033D01*
X89103Y108299D01*
X89501Y107337D01*
X90134Y106512D01*
X90960Y105878D01*
X91922Y105480D01*
X92454Y105410D01*
Y108831D01*
D02*
G37*
G36*
X56875D02*
X53453D01*
Y105410D01*
X53985Y105480D01*
X54947Y105878D01*
X55773Y106512D01*
X56406Y107337D01*
X56805Y108299D01*
X56875Y108831D01*
D02*
G37*
G36*
X52454D02*
X49033D01*
X49103Y108299D01*
X49501Y107337D01*
X50134Y106512D01*
X50960Y105878D01*
X51922Y105480D01*
X52454Y105410D01*
Y108831D01*
D02*
G37*
G36*
X182954Y113500D02*
X181875Y113358D01*
X180869Y112942D01*
X180005Y112279D01*
X179343Y111416D01*
X178926Y110410D01*
X178784Y109331D01*
X178926Y108252D01*
X179343Y107246D01*
X180005Y106382D01*
X180869Y105720D01*
X181875Y105303D01*
X182954Y105161D01*
X184033Y105303D01*
X185038Y105720D01*
X185902Y106382D01*
X186565Y107246D01*
X186981Y108252D01*
X187123Y109331D01*
X186981Y110410D01*
X186565Y111416D01*
X185902Y112279D01*
X185038Y112942D01*
X184033Y113358D01*
X182954Y113500D01*
D02*
G37*
G36*
X162954D02*
X161874Y113358D01*
X160869Y112942D01*
X160005Y112279D01*
X159343Y111416D01*
X158926Y110410D01*
X158784Y109331D01*
X158926Y108252D01*
X159343Y107246D01*
X160005Y106382D01*
X160869Y105720D01*
X161874Y105303D01*
X162954Y105161D01*
X164033Y105303D01*
X165038Y105720D01*
X165902Y106382D01*
X166565Y107246D01*
X166981Y108252D01*
X167123Y109331D01*
X166981Y110410D01*
X166565Y111416D01*
X165902Y112279D01*
X165038Y112942D01*
X164033Y113358D01*
X162954Y113500D01*
D02*
G37*
G36*
X152954D02*
X151874Y113358D01*
X150869Y112942D01*
X150005Y112279D01*
X149343Y111416D01*
X148926Y110410D01*
X148784Y109331D01*
X148926Y108252D01*
X149343Y107246D01*
X150005Y106382D01*
X150869Y105720D01*
X151874Y105303D01*
X152954Y105161D01*
X154033Y105303D01*
X155038Y105720D01*
X155902Y106382D01*
X156564Y107246D01*
X156981Y108252D01*
X157123Y109331D01*
X156981Y110410D01*
X156564Y111416D01*
X155902Y112279D01*
X155038Y112942D01*
X154033Y113358D01*
X152954Y113500D01*
D02*
G37*
G36*
X142954D02*
X141874Y113358D01*
X140869Y112942D01*
X140005Y112279D01*
X139343Y111416D01*
X138926Y110410D01*
X138784Y109331D01*
X138926Y108252D01*
X139343Y107246D01*
X140005Y106382D01*
X140869Y105720D01*
X141874Y105303D01*
X142954Y105161D01*
X144033Y105303D01*
X145038Y105720D01*
X145902Y106382D01*
X146564Y107246D01*
X146981Y108252D01*
X147123Y109331D01*
X146981Y110410D01*
X146564Y111416D01*
X145902Y112279D01*
X145038Y112942D01*
X144033Y113358D01*
X142954Y113500D01*
D02*
G37*
G36*
X42954D02*
X41874Y113358D01*
X40869Y112942D01*
X40005Y112279D01*
X39343Y111416D01*
X38926Y110410D01*
X38784Y109331D01*
X38926Y108252D01*
X39343Y107246D01*
X40005Y106382D01*
X40869Y105720D01*
X41874Y105303D01*
X42954Y105161D01*
X44033Y105303D01*
X45038Y105720D01*
X45902Y106382D01*
X46564Y107246D01*
X46981Y108252D01*
X47123Y109331D01*
X46981Y110410D01*
X46564Y111416D01*
X45902Y112279D01*
X45038Y112942D01*
X44033Y113358D01*
X42954Y113500D01*
D02*
G37*
G36*
X153454Y103252D02*
Y99831D01*
X156875D01*
X156805Y100363D01*
X156406Y101324D01*
X155773Y102150D01*
X154947Y102783D01*
X153986Y103182D01*
X153454Y103252D01*
D02*
G37*
G36*
X152454D02*
X151922Y103182D01*
X150960Y102783D01*
X150134Y102150D01*
X149501Y101324D01*
X149103Y100363D01*
X149033Y99831D01*
X152454D01*
Y103252D01*
D02*
G37*
G36*
X73453D02*
Y99831D01*
X76875D01*
X76805Y100363D01*
X76406Y101324D01*
X75773Y102150D01*
X74947Y102783D01*
X73985Y103182D01*
X73453Y103252D01*
D02*
G37*
G36*
X156875Y98831D02*
X153454D01*
Y95410D01*
X153986Y95480D01*
X154947Y95878D01*
X155773Y96512D01*
X156406Y97337D01*
X156805Y98299D01*
X156875Y98831D01*
D02*
G37*
G36*
X152454D02*
X149033D01*
X149103Y98299D01*
X149501Y97337D01*
X150134Y96512D01*
X150960Y95878D01*
X151922Y95480D01*
X152454Y95410D01*
Y98831D01*
D02*
G37*
G36*
X76875D02*
X73453D01*
Y95410D01*
X73985Y95480D01*
X74947Y95878D01*
X75773Y96512D01*
X76406Y97337D01*
X76805Y98299D01*
X76875Y98831D01*
D02*
G37*
G36*
X182954Y103500D02*
X181875Y103358D01*
X180869Y102942D01*
X180005Y102279D01*
X179343Y101416D01*
X178926Y100410D01*
X178784Y99331D01*
X178926Y98252D01*
X179343Y97246D01*
X180005Y96382D01*
X180869Y95720D01*
X181875Y95303D01*
X182954Y95161D01*
X184033Y95303D01*
X185038Y95720D01*
X185902Y96382D01*
X186565Y97246D01*
X186981Y98252D01*
X187123Y99331D01*
X186981Y100410D01*
X186565Y101416D01*
X185902Y102279D01*
X185038Y102942D01*
X184033Y103358D01*
X182954Y103500D01*
D02*
G37*
G36*
X172954D02*
X171874Y103358D01*
X170869Y102942D01*
X170005Y102279D01*
X169343Y101416D01*
X168926Y100410D01*
X168784Y99331D01*
X168926Y98252D01*
X169343Y97246D01*
X170005Y96382D01*
X170869Y95720D01*
X171874Y95303D01*
X172954Y95161D01*
X174033Y95303D01*
X175038Y95720D01*
X175902Y96382D01*
X176565Y97246D01*
X176981Y98252D01*
X177123Y99331D01*
X176981Y100410D01*
X176565Y101416D01*
X175902Y102279D01*
X175038Y102942D01*
X174033Y103358D01*
X172954Y103500D01*
D02*
G37*
G36*
X162954D02*
X161874Y103358D01*
X160869Y102942D01*
X160005Y102279D01*
X159343Y101416D01*
X158926Y100410D01*
X158784Y99331D01*
X158926Y98252D01*
X159343Y97246D01*
X160005Y96382D01*
X160869Y95720D01*
X161874Y95303D01*
X162954Y95161D01*
X164033Y95303D01*
X165038Y95720D01*
X165902Y96382D01*
X166565Y97246D01*
X166981Y98252D01*
X167123Y99331D01*
X166981Y100410D01*
X166565Y101416D01*
X165902Y102279D01*
X165038Y102942D01*
X164033Y103358D01*
X162954Y103500D01*
D02*
G37*
G36*
X142954D02*
X141874Y103358D01*
X140869Y102942D01*
X140005Y102279D01*
X139343Y101416D01*
X138926Y100410D01*
X138784Y99331D01*
X138926Y98252D01*
X139343Y97246D01*
X140005Y96382D01*
X140869Y95720D01*
X141874Y95303D01*
X142954Y95161D01*
X144033Y95303D01*
X145038Y95720D01*
X145902Y96382D01*
X146564Y97246D01*
X146981Y98252D01*
X147123Y99331D01*
X146981Y100410D01*
X146564Y101416D01*
X145902Y102279D01*
X145038Y102942D01*
X144033Y103358D01*
X142954Y103500D01*
D02*
G37*
G36*
X42954D02*
X41874Y103358D01*
X40869Y102942D01*
X40005Y102279D01*
X39343Y101416D01*
X38926Y100410D01*
X38784Y99331D01*
X38926Y98252D01*
X39343Y97246D01*
X40005Y96382D01*
X40869Y95720D01*
X41874Y95303D01*
X42954Y95161D01*
X44033Y95303D01*
X45038Y95720D01*
X45902Y96382D01*
X46564Y97246D01*
X46981Y98252D01*
X47123Y99331D01*
X46981Y100410D01*
X46564Y101416D01*
X45902Y102279D01*
X45038Y102942D01*
X44033Y103358D01*
X42954Y103500D01*
D02*
G37*
G36*
X62454Y75693D02*
X61922Y75623D01*
X60960Y75224D01*
X60134Y74591D01*
X59501Y73765D01*
X59102Y72803D01*
X59032Y72272D01*
X62454D01*
Y75693D01*
D02*
G37*
G36*
X222454Y103252D02*
X221922Y103182D01*
X220960Y102783D01*
X220134Y102150D01*
X219501Y101324D01*
X219103Y100363D01*
X219033Y99831D01*
X222454D01*
Y103252D01*
D02*
G37*
G36*
Y98831D02*
X219033D01*
X219103Y98299D01*
X219501Y97337D01*
X220134Y96512D01*
X220960Y95878D01*
X221922Y95480D01*
X222454Y95410D01*
Y98831D01*
D02*
G37*
G36*
X122454Y108831D02*
X119033D01*
X119103Y108299D01*
X119501Y107337D01*
X120134Y106512D01*
X120960Y105878D01*
X121922Y105480D01*
X122454Y105410D01*
Y108831D01*
D02*
G37*
G36*
X124106Y77771D02*
X121441D01*
Y75303D01*
X124106D01*
Y77771D01*
D02*
G37*
G36*
X123516Y53240D02*
X119473D01*
Y49591D01*
X123516D01*
Y53240D01*
D02*
G37*
G36*
X69398Y17920D02*
Y14201D01*
X73116D01*
X73036Y14810D01*
X72608Y15843D01*
X71927Y16730D01*
X71040Y17411D01*
X70007Y17840D01*
X69398Y17920D01*
D02*
G37*
G36*
X68398D02*
X67789Y17840D01*
X66755Y17411D01*
X65868Y16730D01*
X65187Y15843D01*
X64759Y14810D01*
X64679Y14201D01*
X68398D01*
Y17920D01*
D02*
G37*
G36*
X59398D02*
Y14201D01*
X63117D01*
X63036Y14810D01*
X62608Y15843D01*
X61927Y16730D01*
X61040Y17411D01*
X60007Y17840D01*
X59398Y17920D01*
D02*
G37*
G36*
X58398D02*
X57789Y17840D01*
X56755Y17411D01*
X55868Y16730D01*
X55187Y15843D01*
X54759Y14810D01*
X54679Y14201D01*
X58398D01*
Y17920D01*
D02*
G37*
G36*
X7874Y48225D02*
X6795Y48083D01*
X5789Y47666D01*
X4926Y47003D01*
X4263Y46140D01*
X3847Y45134D01*
X3704Y44055D01*
X3847Y42976D01*
X4263Y41970D01*
X4926Y41107D01*
X5789Y40444D01*
X6795Y40028D01*
X7874Y39886D01*
X8953Y40028D01*
X9959Y40444D01*
X10822Y41107D01*
X11485Y41970D01*
X11902Y42976D01*
X12043Y44055D01*
X11902Y45134D01*
X11485Y46140D01*
X10822Y47003D01*
X9959Y47666D01*
X8953Y48083D01*
X7874Y48225D01*
D02*
G37*
G36*
X11827Y38008D02*
X8374D01*
Y34555D01*
X11827D01*
Y38008D01*
D02*
G37*
G36*
X7374D02*
X3921D01*
Y34555D01*
X7374D01*
Y38008D01*
D02*
G37*
G36*
X129937Y25681D02*
X127468D01*
Y23016D01*
X129937D01*
Y25681D01*
D02*
G37*
G36*
X126468D02*
X124000D01*
Y23016D01*
X126468D01*
Y25681D01*
D02*
G37*
G36*
X122653Y25213D02*
X118610D01*
Y21563D01*
X122653D01*
Y25213D01*
D02*
G37*
G36*
X135918Y21670D02*
X133252D01*
Y19201D01*
X135918D01*
Y21670D01*
D02*
G37*
G36*
X122653Y20563D02*
X118610D01*
Y16913D01*
X122653D01*
Y20563D01*
D02*
G37*
G36*
X117610D02*
X113567D01*
Y16913D01*
X117610D01*
Y20563D01*
D02*
G37*
G36*
X135918Y18201D02*
X133252D01*
Y15733D01*
X135918D01*
Y18201D01*
D02*
G37*
G36*
X1027742Y-182930D02*
X1019725D01*
Y-183216D01*
Y-183502D01*
Y-183789D01*
Y-184075D01*
Y-184361D01*
X1019438D01*
Y-184648D01*
Y-184934D01*
Y-185220D01*
Y-185507D01*
Y-185793D01*
Y-186079D01*
X1019152D01*
Y-186365D01*
Y-186652D01*
Y-186938D01*
Y-187224D01*
Y-187511D01*
Y-187797D01*
X1018866D01*
Y-188083D01*
Y-188370D01*
Y-188656D01*
Y-188942D01*
Y-189229D01*
Y-189515D01*
X1018580D01*
Y-189801D01*
Y-190088D01*
Y-190374D01*
Y-190660D01*
Y-190946D01*
Y-191233D01*
Y-191519D01*
X1018293D01*
Y-191806D01*
Y-192092D01*
Y-192378D01*
Y-192664D01*
Y-192951D01*
Y-193237D01*
X1018007D01*
Y-193523D01*
Y-193810D01*
Y-194096D01*
X1025165D01*
Y-193810D01*
X1026310D01*
Y-193523D01*
X1026883D01*
Y-193237D01*
X1027169D01*
Y-192951D01*
X1027455D01*
Y-192664D01*
X1027742D01*
Y-192378D01*
X1028028D01*
Y-192092D01*
Y-191806D01*
X1028314D01*
Y-191519D01*
Y-191233D01*
X1028601D01*
Y-190946D01*
Y-190660D01*
X1028887D01*
Y-190374D01*
Y-190088D01*
Y-189801D01*
Y-189515D01*
X1029173D01*
Y-189229D01*
Y-188942D01*
Y-188656D01*
Y-188370D01*
Y-188083D01*
X1029459D01*
Y-187797D01*
Y-187511D01*
Y-187224D01*
Y-186938D01*
Y-186652D01*
Y-186365D01*
Y-186079D01*
Y-185793D01*
Y-185507D01*
Y-185220D01*
Y-184934D01*
X1029173D01*
Y-184648D01*
Y-184361D01*
X1028887D01*
Y-184075D01*
Y-183789D01*
X1028601D01*
Y-183502D01*
X1028314D01*
Y-183216D01*
X1027742D01*
Y-182930D01*
D02*
G37*
%LPD*%
D10*
X44756Y67716D02*
G03*
X51827Y70645I0J10000D01*
G01*
X38583Y70472D02*
G03*
X41339Y67716I2756J0D01*
G01*
X40671Y80631D02*
G03*
X38583Y75590I5041J-5041D01*
G01*
X54840Y81971D02*
G03*
X55512Y81693I672J674D01*
G01*
X54839Y81972D02*
G03*
X54840Y81971I673J673D01*
G01*
X49213Y76772D02*
G03*
X51565Y77746I0J3327D01*
G01*
X47064Y75882D02*
G03*
X47063Y75881I2149J-2150D01*
G01*
X49213Y76772D02*
G03*
X47064Y75882I0J-3040D01*
G01*
X52953Y85527D02*
G03*
X54134Y82677I4030J0D01*
G01*
X71827Y108204D02*
G03*
X68898Y101133I7071J-7071D01*
G01*
X66929Y101213D02*
G03*
X64000Y108284I-10000J0D01*
G01*
X13252Y68677D02*
G03*
X20323Y65748I7071J7071D01*
G01*
X61851D02*
G03*
X66929Y70827I0J5079D01*
G01*
X61693Y64055D02*
G03*
X68898Y71260I0J7205D01*
G01*
X51827Y70645D02*
X52953Y71772D01*
X41339Y67716D02*
X44756D01*
X38583Y70472D02*
Y75590D01*
X40671Y80631D02*
X41733Y81693D01*
X54839Y81972D02*
X54840Y81971D01*
X54134Y82677D02*
X54839Y81972D01*
X51565Y77746D02*
X55512Y81693D01*
X47063Y75881D02*
X47064Y75882D01*
X42954Y71772D02*
X47063Y75881D01*
X52953Y85527D02*
Y99331D01*
X41733Y81693D02*
X42954Y80472D01*
X71827Y108204D02*
X72954Y109331D01*
X62954D02*
X64000Y108284D01*
X205709Y39370D02*
Y50196D01*
X202165Y50197D02*
X209252D01*
X7874Y74055D02*
X13252Y68677D01*
X20323Y65748D02*
X61851D01*
X66929Y70827D02*
Y101213D01*
X7874Y64055D02*
X61693D01*
X68898Y71260D02*
Y101133D01*
X1338583Y-259842D02*
Y-220472D01*
X1181102Y-181102D02*
X1456693D01*
X1181102Y-220472D02*
X1456693D01*
X984252Y-259842D02*
X1456693D01*
X984252Y-141732D02*
X1456693D01*
X984252Y-299213D02*
Y-141732D01*
X1181102Y-299213D02*
Y-141732D01*
X-196850Y870079D02*
X1456693D01*
Y-299213D02*
Y870079D01*
X-196850Y-299213D02*
Y870079D01*
Y-299213D02*
X1456693D01*
X1190945Y-291339D02*
Y-285435D01*
X1193897D01*
X1194881Y-286419D01*
Y-288387D01*
X1193897Y-289371D01*
X1190945D01*
X1192913D02*
X1194881Y-291339D01*
X1196848D02*
Y-285435D01*
X1199800D01*
X1200784Y-286419D01*
Y-288387D01*
X1199800Y-289371D01*
X1196848D01*
X1202752Y-285435D02*
X1204720D01*
X1203736D01*
Y-291339D01*
X1202752D01*
X1204720D01*
X1207672Y-292322D02*
X1211607D01*
X1217511Y-285435D02*
X1213575D01*
Y-288387D01*
X1215543D01*
X1213575D01*
Y-291339D01*
X1223415Y-285435D02*
X1219479D01*
Y-291339D01*
X1223415D01*
X1219479Y-288387D02*
X1221447D01*
X1225383Y-285435D02*
X1229318D01*
Y-286419D01*
X1225383Y-290355D01*
Y-291339D01*
X1229318D01*
X1231286Y-292322D02*
X1235222D01*
X1237190Y-285435D02*
Y-291339D01*
X1240141D01*
X1241125Y-290355D01*
Y-286419D01*
X1240141Y-285435D01*
X1237190D01*
X1243093Y-291339D02*
Y-287403D01*
X1245061Y-285435D01*
X1247029Y-287403D01*
Y-291339D01*
Y-288387D01*
X1243093D01*
X1252933Y-286419D02*
X1251949Y-285435D01*
X1249981D01*
X1248997Y-286419D01*
Y-290355D01*
X1249981Y-291339D01*
X1251949D01*
X1252933Y-290355D01*
X1254900Y-292322D02*
X1258836D01*
X1260804Y-286419D02*
X1261788Y-285435D01*
X1263756D01*
X1264740Y-286419D01*
Y-290355D01*
X1263756Y-291339D01*
X1261788D01*
X1260804Y-290355D01*
Y-286419D01*
X1266708D02*
X1267692Y-285435D01*
X1269660D01*
X1270644Y-286419D01*
Y-290355D01*
X1269660Y-291339D01*
X1267692D01*
X1266708Y-290355D01*
Y-286419D01*
X1272611Y-291339D02*
Y-290355D01*
X1273595D01*
Y-291339D01*
X1272611D01*
X1277531D02*
Y-285435D01*
X1280483D01*
X1281467Y-286419D01*
Y-288387D01*
X1280483Y-289371D01*
X1277531D01*
X1287370Y-287403D02*
X1284418D01*
X1283435Y-288387D01*
Y-290355D01*
X1284418Y-291339D01*
X1287370D01*
X1289338Y-285435D02*
Y-291339D01*
X1292290D01*
X1293274Y-290355D01*
Y-289371D01*
Y-288387D01*
X1292290Y-287403D01*
X1289338D01*
X1295242Y-285435D02*
Y-291339D01*
X1298194D01*
X1299177Y-290355D01*
Y-286419D01*
X1298194Y-285435D01*
X1295242D01*
X1302129Y-291339D02*
X1304097D01*
X1305081Y-290355D01*
Y-288387D01*
X1304097Y-287403D01*
X1302129D01*
X1301145Y-288387D01*
Y-290355D01*
X1302129Y-291339D01*
X1310985Y-287403D02*
X1308033D01*
X1307049Y-288387D01*
Y-290355D01*
X1308033Y-291339D01*
X1310985D01*
D11*
X147638Y64272D02*
G03*
X150591Y67224I0J2953D01*
G01*
X146063Y66831D02*
G03*
X146616Y66891I0J2559D01*
G01*
D02*
G03*
X148562Y68837I-552J2499D01*
G01*
D02*
G03*
X148622Y69390I-2499J552D01*
G01*
X145177D02*
G03*
X146653Y70866I0J1476D01*
G01*
X153543Y86614D02*
G03*
X150591Y83661I0J-2953D01*
G01*
X154134Y88583D02*
G03*
X148622Y83071I0J-5512D01*
G01*
X146653Y83268D02*
G03*
X141339Y88583I-5315J0D01*
G01*
X127953Y96457D02*
G03*
X128301Y94139I7874J0D01*
G01*
D02*
G03*
X133510Y88931I7525J2317D01*
G01*
D02*
G03*
X135827Y88583I2317J7525D01*
G01*
X189961D02*
G03*
X197835Y96457I0J7874D01*
G01*
X194686Y86614D02*
G03*
X199132Y87911I0J8268D01*
G01*
D02*
G03*
X201657Y90436I-4446J6971D01*
G01*
D02*
G03*
X202954Y94882I-6971J4446D01*
G01*
X200984Y104331D02*
G03*
X199340Y103867I0J-3150D01*
G01*
D02*
G03*
X198298Y102826I1645J-2686D01*
G01*
D02*
G03*
X197835Y101181I2686J-1645D01*
G01*
X214502Y104331D02*
G03*
X220394Y106771I0J8332D01*
G01*
X137012Y62200D02*
G03*
X138189Y61713I1177J1177D01*
G01*
X133082Y59242D02*
G03*
X135433Y58268I2351J2351D01*
G01*
X136777Y57711D02*
G03*
X136614Y57856I-1344J-1344D01*
G01*
D02*
G03*
X135433Y58268I-1181J-1489D01*
G01*
X137685Y56803D02*
G03*
X137686Y56802I504J504D01*
G01*
D02*
G03*
X138189Y56595I503J505D01*
G01*
X91953Y16756D02*
G03*
X94882Y23827I-7071J7071D01*
G01*
X97811Y41315D02*
G03*
X94882Y34244I7071J-7071D01*
G01*
X80733Y15536D02*
G03*
X83661Y22607I-7071J7071D01*
G01*
X62306Y45179D02*
G03*
X63976Y49213I-4034J4034D01*
G01*
X69901Y44901D02*
G03*
X71850Y49606I-4706J4706D01*
G01*
X77775Y44901D02*
G03*
X79724Y49606I-4706J4706D01*
G01*
X78898Y35661D02*
G03*
X75969Y42732I-10000J0D01*
G01*
X85650Y44903D02*
G03*
X87598Y49606I-4704J4704D01*
G01*
X91536Y42913D02*
G03*
X88898Y36544I6369J-6369D01*
G01*
X93523Y44901D02*
G03*
X95472Y49606I-4706J4706D01*
G01*
X101575Y45079D02*
G03*
X103347Y49356I-4277J4277D01*
G01*
X66900Y57451D02*
G03*
X64547Y53720I7057J-7057D01*
G01*
D02*
G03*
X63976Y50394I9409J-3327D01*
G01*
X80025Y70576D02*
G03*
X82954Y77647I-7071J7071D01*
G01*
X88362Y94739D02*
G03*
X86614Y92383I7071J-7071D01*
G01*
D02*
G03*
X85433Y87668I8819J-4715D01*
G01*
X82504Y68331D02*
G03*
X85433Y75402I-7071J7071D01*
G01*
X74779Y60606D02*
G03*
X72324Y56576I7071J-7071D01*
G01*
D02*
G03*
X71850Y53535I9526J-3041D01*
G01*
X82653Y64149D02*
G03*
X80415Y60730I7071J-7071D01*
G01*
D02*
G03*
X79724Y57078I9309J-3652D01*
G01*
X85260Y66756D02*
G03*
X88189Y73827I-7071J7071D01*
G01*
X91118Y87495D02*
G03*
X89567Y85490I7071J-7071D01*
G01*
D02*
G03*
X88189Y80424I8622J-5066D01*
G01*
X90527Y66118D02*
G03*
X87598Y59047I7071J-7071D01*
G01*
X90527Y66118D02*
G03*
X92040Y68418I-4810J4810D01*
G01*
D02*
G03*
X92520Y70928I-6322J2510D01*
G01*
X95449Y83638D02*
G03*
X92520Y76566I7071J-7071D01*
G01*
X106275Y74935D02*
G03*
X103347Y67864I7071J-7071D01*
G01*
X120364Y89024D02*
G03*
X120368Y89027I-6252J6252D01*
G01*
D02*
G03*
X122954Y95276I-6255J6248D01*
G01*
X97978Y59592D02*
G03*
X95472Y53543I6049J-6049D01*
G01*
X97978Y59592D02*
G03*
X97982Y59596I-5832J5832D01*
G01*
D02*
G03*
X100394Y65424I-5836J5828D01*
G01*
X103323Y75764D02*
G03*
X100394Y68692I7071J-7071D01*
G01*
X115181Y87622D02*
G03*
X118110Y94693I-7071J7071D01*
G01*
Y100612D02*
G03*
X115591Y106693I-8600J0D01*
G01*
X108268Y100676D02*
G03*
X105905Y106379I-8065J0D01*
G01*
X105339Y93528D02*
G03*
X108268Y100599I-7071J7071D01*
G01*
X92332Y114567D02*
G03*
X85261Y111638I0J-10000D01*
G01*
X127953Y111417D02*
G03*
X127813Y112344I-3150J0D01*
G01*
D02*
G03*
X125730Y114427I-3010J-927D01*
G01*
D02*
G03*
X124803Y114567I-927J-3010D01*
G01*
X137402Y26870D02*
G03*
X138091Y27559I0J689D01*
G01*
Y31496D02*
G03*
X137402Y32185I-689J0D01*
G01*
X58898Y23701D02*
Y41771D01*
X68898Y23701D02*
Y41929D01*
X67914Y42913D02*
X68898Y41929D01*
X83661Y42914D02*
X83661Y42913D01*
X131594Y74508D02*
X141535D01*
X131299Y74803D02*
X131594Y74508D01*
X160826Y74508D02*
X163583D01*
X160826D02*
Y79724D01*
X141535Y64272D02*
X147638D01*
X141535Y66831D02*
X146063D01*
X141535Y69390D02*
X145177D01*
X150591Y67224D02*
Y83661D01*
X148622Y69390D02*
Y83071D01*
X146653Y70866D02*
Y83268D01*
X135827Y88583D02*
X141339D01*
X154134D02*
X189961D01*
X153543Y86614D02*
X194686D01*
X202954Y94882D02*
Y99331D01*
X197835Y96457D02*
Y101181D01*
X200984Y104331D02*
X214502D01*
X220394Y106771D02*
X222954Y109331D01*
X131299Y67913D02*
X137012Y62200D01*
X138189Y61713D02*
X141535D01*
X131299Y61024D02*
X133082Y59242D01*
X136777Y57711D02*
X137685Y56803D01*
X137686Y56802D01*
X138189Y56595D02*
X141535D01*
X88898Y13701D02*
X91953Y16756D01*
X94882Y23827D02*
Y34244D01*
X97811Y41315D02*
X99409Y42914D01*
X88898Y23701D02*
Y36544D01*
X78898Y13701D02*
X80733Y15536D01*
X83661Y22607D02*
Y42913D01*
X78898Y23701D02*
Y35661D01*
X60040Y42913D02*
X62306Y45179D01*
X67914Y42913D02*
X69901Y44901D01*
X75788Y42913D02*
X77775Y44901D01*
X75788Y42913D02*
X75969Y42732D01*
X83661Y42914D02*
X85650Y44903D01*
X91536Y42913D02*
X93523Y44901D01*
X99409Y42914D02*
X101575Y45079D01*
X82954Y77647D02*
Y99331D01*
X63976Y49213D02*
Y50394D01*
X66900Y57451D02*
X80025Y70576D01*
X88362Y94739D02*
X92954Y99331D01*
X85433Y75402D02*
Y87668D01*
X74779Y60606D02*
X82504Y68331D01*
X71850Y49606D02*
Y53535D01*
X79724Y49606D02*
Y57078D01*
X82653Y64149D02*
X85260Y66756D01*
X88189Y73827D02*
Y80424D01*
X91118Y87495D02*
X102954Y99331D01*
X87598Y49606D02*
Y59047D01*
X92520Y70928D02*
Y76566D01*
X103347Y49356D02*
Y67864D01*
X106275Y74935D02*
X120364Y89024D01*
X122954Y95276D02*
Y99331D01*
X95472Y49606D02*
Y53543D01*
X100394Y65424D02*
Y68692D01*
X103323Y75764D02*
X115181Y87622D01*
X118110Y94693D02*
Y100612D01*
X112954Y109331D02*
X115591Y106693D01*
X108268Y100599D02*
Y100676D01*
X102954Y109331D02*
X105905Y106379D01*
X95449Y83638D02*
X105339Y93528D01*
X82954Y109331D02*
X85261Y111638D01*
X92332Y114567D02*
X124803D01*
X127953Y96457D02*
Y111417D01*
X135039Y32185D02*
Y33268D01*
Y32185D02*
X137402D01*
X135039Y26870D02*
X137402D01*
X135039Y25787D02*
Y26870D01*
X138091Y27559D02*
Y31496D01*
D12*
X180415Y60529D02*
G03*
X177559Y61713I-2856J-2856D01*
G01*
X153424Y44959D02*
G03*
X153425Y44961I-5041J5041D01*
G01*
D02*
G03*
X155512Y50000I-5042J5039D01*
G01*
X158268Y49213D02*
G03*
X159242Y46861I3327J0D01*
G01*
D02*
G03*
X159242Y46860I2353J2352D01*
G01*
X159547Y54035D02*
G03*
X158268Y52756I0J-1280D01*
G01*
X158366Y59153D02*
G03*
X155512Y56299I0J-2854D01*
G01*
X145669Y51476D02*
G03*
X148031Y53839I0J2362D01*
G01*
Y56791D02*
G03*
X145669Y59154I-2362J0D01*
G01*
X138189Y51476D02*
G03*
X135334Y50294I0J-4038D01*
G01*
X202166Y60630D02*
G03*
X198524Y64272I-3642J0D01*
G01*
X209252Y60236D02*
G03*
X208637Y63017I-6594J0D01*
G01*
D02*
G03*
X205438Y66216I-5980J-2781D01*
G01*
D02*
G03*
X202657Y66831I-2781J-5980D01*
G01*
X190157Y39370D02*
G03*
X188016Y38804I0J-4331D01*
G01*
D02*
G03*
X186393Y37181I2141J-3764D01*
G01*
D02*
G03*
X185827Y35039I3764J-2141D01*
G01*
X192937Y30094D02*
G03*
X200008Y27165I7071J7071D01*
G01*
X211409D02*
G03*
X218480Y30094I0J10000D01*
G01*
X185827Y27567D02*
G03*
X188756Y20496I10000J0D01*
G01*
X94931Y65798D02*
G03*
X96457Y69480I-3682J3682D01*
G01*
X94465Y65331D02*
G03*
X91536Y58260I7071J-7071D01*
G01*
X99386Y76551D02*
G03*
X96457Y69480I7071J-7071D01*
G01*
X110630Y87795D02*
G03*
X112954Y93405I-5610J5610D01*
G01*
X91536Y53937D02*
Y58260D01*
Y49606D02*
Y53937D01*
X169587Y51476D02*
X172244Y48819D01*
X163583Y51476D02*
X169587D01*
X217520Y33858D02*
X219882Y31496D01*
X217520Y33858D02*
Y37559D01*
X215709Y39370D02*
X217520Y37559D01*
X191535Y17717D02*
X219882D01*
X215709Y39370D02*
Y49961D01*
X215945Y50197D01*
X195709Y39370D02*
Y49960D01*
X195472Y50196D02*
X195709Y49960D01*
X195472Y50196D02*
Y57087D01*
X215945Y50197D02*
Y57086D01*
X133366Y54036D02*
X141535D01*
X132874Y54527D02*
X133366Y54036D01*
X124803Y54527D02*
X132874D01*
X124016Y53740D02*
X124803Y54527D01*
X124016Y42717D02*
X126181Y40551D01*
X136221D01*
X136418Y40355D01*
X124016Y42717D02*
X126181Y44882D01*
X129922D01*
X132874Y47834D01*
X163583Y56595D02*
X171161D01*
X172244Y55511D01*
X173425Y54331D01*
X176378D01*
X183071Y47638D01*
X163583Y69390D02*
X171162D01*
X172244Y70472D01*
X163583Y71949D02*
X167224D01*
X172244Y76969D01*
Y77165D01*
X135728Y71949D02*
X141535D01*
X135039Y71260D02*
X135728Y71949D01*
X124606Y71260D02*
X135039D01*
X124606D02*
Y74803D01*
Y61024D02*
X124607D01*
X124606D02*
Y71260D01*
X180415Y60529D02*
X180709Y60236D01*
X163583Y61713D02*
X177559D01*
X151772Y43307D02*
X153424Y44959D01*
X159242Y46861D02*
X159242Y46860D01*
X162795Y43307D01*
X158268Y49213D02*
Y52756D01*
X159547Y54035D02*
X163583D01*
X155512Y50000D02*
Y56299D01*
X158366Y59153D02*
X163583D01*
X141535Y51476D02*
X145669D01*
X148031Y53839D02*
Y56791D01*
X141535Y59154D02*
X145669D01*
X132874Y47834D02*
X135334Y50294D01*
X138189Y51476D02*
X141535D01*
X163583Y64272D02*
X198524D01*
X202166Y57087D02*
Y60630D01*
X163583Y66831D02*
X202657D01*
X209252Y57086D02*
Y60236D01*
X190157Y39370D02*
X195709D01*
X191535Y31496D02*
X192937Y30094D01*
X200008Y27165D02*
X211409D01*
X218480Y30094D02*
X219882Y31496D01*
X185827Y27567D02*
Y35039D01*
X188756Y20496D02*
X191535Y17717D01*
X112954Y93405D02*
Y99331D01*
X94465Y65331D02*
X94931Y65798D01*
X99386Y76551D02*
X110630Y87795D01*
X126968Y26181D02*
X127385Y26599D01*
X130905Y29528D02*
X135039D01*
X130905Y26181D02*
Y29528D01*
X126968Y26181D02*
X130905D01*
D13*
X2756Y63315D02*
G03*
X5685Y56244I10000J0D01*
G01*
X6693Y79134D02*
G03*
X2756Y75197I0J-3937D01*
G01*
X60040Y53937D02*
G03*
X59755Y54055I-285J-285D01*
G01*
X115399Y45822D02*
G03*
X119095Y44291I3696J3696D01*
G01*
X48819Y87008D02*
G03*
X46260Y89567I-2559J0D01*
G01*
X42126Y39213D02*
G03*
X32126Y49213I-10000J0D01*
G01*
X42126Y10630D02*
G03*
X46457Y6299I4331J0D01*
G01*
X87984D02*
G03*
X95055Y9228I0J10000D01*
G01*
X118110Y32087D02*
G03*
X117774Y31947I0J-475D01*
G01*
X180118Y30512D02*
G03*
X177559Y33071I-2559J0D01*
G01*
X180118Y19685D02*
G03*
X187992Y11811I7874J0D01*
G01*
X197427D02*
G03*
X199803Y12795I0J3360D01*
G01*
X202179Y13780D02*
G03*
X199803Y12795I0J-3360D01*
G01*
X209646D02*
G03*
X207270Y13780I-2376J-2376D01*
G01*
X209646Y12795D02*
G03*
X212022Y11811I2376J2376D01*
G01*
X221457D02*
G03*
X225394Y15748I0J3937D01*
G01*
Y60472D02*
G03*
X215394Y70472I-10000J0D01*
G01*
X118701Y53740D02*
X124016D01*
X67914Y49607D02*
Y53937D01*
X75788Y49607D02*
Y53937D01*
X83661Y49607D02*
Y53938D01*
X99409Y49607D02*
Y53938D01*
X118110Y33268D02*
X135039D01*
X132087Y18701D02*
X136417D01*
X118110Y15748D02*
Y21062D01*
X126968Y21850D02*
Y26181D01*
X120275Y61024D02*
X124606D01*
Y74803D02*
Y79133D01*
X154133Y79724D02*
Y84054D01*
X32954Y89567D02*
Y99331D01*
X32954Y81693D02*
X35040D01*
X172047Y33268D02*
X172244Y33071D01*
Y48818D01*
X172244Y48819D01*
X144095Y33661D02*
X144488Y33268D01*
X144095Y33661D02*
Y39371D01*
X143111Y40355D02*
X144095Y39371D01*
X2756Y63315D02*
Y75197D01*
X6693Y79134D02*
X32954D01*
Y71772D02*
Y79134D01*
Y89567D01*
X143111Y18701D02*
X148425D01*
X152559Y20867D02*
Y26181D01*
X172244Y77165D02*
X177559D01*
X172244Y16733D02*
Y22047D01*
X183071Y42323D02*
Y47638D01*
X5685Y56244D02*
X7874Y54055D01*
X60040Y49607D02*
Y53937D01*
X48898Y13701D02*
Y23701D01*
Y54055D01*
X7874D02*
X48898D01*
X59755D01*
X107282Y53938D02*
X115399Y45822D01*
X124016Y42717D02*
Y44291D01*
X119095D02*
X124016D01*
X48819Y81693D02*
Y87008D01*
X32954Y89567D02*
X46260D01*
X16929Y49213D02*
X32126D01*
X42126Y10630D02*
Y39213D01*
X46457Y6299D02*
X87984D01*
X95055Y9228D02*
X117774Y31947D01*
X118110Y32087D02*
Y33268D01*
X191535Y5118D02*
X196850D01*
X214567D02*
X219882D01*
X172244Y33071D02*
X177559D01*
X144488Y33268D02*
X172047D01*
X180118Y19685D02*
Y30512D01*
X187992Y11811D02*
X197427D01*
X202179Y13780D02*
X207270D01*
X212022Y11811D02*
X221457D01*
X225394Y15748D02*
Y60472D01*
X172244Y70472D02*
X215394D01*
D14*
X151772Y43307D02*
D03*
X162795D02*
D03*
D15*
X172244Y33071D02*
D03*
Y22047D02*
D03*
X118110Y21063D02*
D03*
Y32087D02*
D03*
X124016Y53740D02*
D03*
Y42717D02*
D03*
X183071Y58661D02*
D03*
Y47638D02*
D03*
D16*
X152559Y32874D02*
D03*
Y26181D02*
D03*
X132874Y47834D02*
D03*
Y54527D02*
D03*
X126968Y32874D02*
D03*
Y26181D02*
D03*
X172244Y77165D02*
D03*
Y70472D02*
D03*
Y55511D02*
D03*
Y48819D02*
D03*
X83661Y42914D02*
D03*
Y49607D02*
D03*
X99409Y42914D02*
D03*
Y49607D02*
D03*
X91536Y49606D02*
D03*
Y42913D02*
D03*
X60040Y49606D02*
D03*
Y42913D02*
D03*
X67914Y49606D02*
D03*
Y42913D02*
D03*
X75788Y49606D02*
D03*
Y42913D02*
D03*
D17*
X144488Y33268D02*
D03*
Y25787D02*
D03*
X135039D02*
D03*
Y29528D02*
D03*
Y33268D02*
D03*
D18*
X143111Y40355D02*
D03*
X136418D02*
D03*
X143111Y18701D02*
D03*
X136418D02*
D03*
X131299Y61024D02*
D03*
X124607D02*
D03*
X131299Y67913D02*
D03*
X124606D02*
D03*
X131299Y74803D02*
D03*
X124606D02*
D03*
X160826Y79724D02*
D03*
X154133D02*
D03*
X195473Y57087D02*
D03*
X202166D02*
D03*
X195472Y50196D02*
D03*
X202165D02*
D03*
X215945Y57086D02*
D03*
X209252D02*
D03*
X215945Y50197D02*
D03*
X209252D02*
D03*
X48819Y81693D02*
D03*
X55512D02*
D03*
X35040D02*
D03*
X41733D02*
D03*
D19*
X141535Y51476D02*
D03*
Y54036D02*
D03*
Y59154D02*
D03*
Y56595D02*
D03*
Y66831D02*
D03*
Y74508D02*
D03*
Y69390D02*
D03*
Y71949D02*
D03*
Y64272D02*
D03*
Y61713D02*
D03*
X163583Y71949D02*
D03*
Y74508D02*
D03*
Y69390D02*
D03*
Y64272D02*
D03*
Y61713D02*
D03*
Y66831D02*
D03*
Y59153D02*
D03*
Y51476D02*
D03*
Y54035D02*
D03*
Y56595D02*
D03*
D20*
X191535Y5118D02*
D03*
Y31496D02*
D03*
Y17717D02*
D03*
X219882D02*
D03*
Y31496D02*
D03*
Y5118D02*
D03*
D21*
X1202756Y-198823D02*
X1211939D01*
X1207348D01*
Y-212598D01*
X1218827D02*
X1223419D01*
X1225714Y-210303D01*
Y-205711D01*
X1223419Y-203415D01*
X1218827D01*
X1216531Y-205711D01*
Y-210303D01*
X1218827Y-212598D01*
X1230306Y-217190D02*
Y-203415D01*
X1237194D01*
X1239489Y-205711D01*
Y-210303D01*
X1237194Y-212598D01*
X1230306D01*
X1257856Y-198823D02*
Y-212598D01*
X1267040D01*
X1273927Y-203415D02*
X1278519D01*
X1280815Y-205711D01*
Y-212598D01*
X1273927D01*
X1271631Y-210303D01*
X1273927Y-208007D01*
X1280815D01*
X1285406Y-203415D02*
Y-210303D01*
X1287702Y-212598D01*
X1294590D01*
Y-214894D01*
X1292294Y-217190D01*
X1289998D01*
X1294590Y-212598D02*
Y-203415D01*
X1306069Y-212598D02*
X1301477D01*
X1299181Y-210303D01*
Y-205711D01*
X1301477Y-203415D01*
X1306069D01*
X1308365Y-205711D01*
Y-208007D01*
X1299181D01*
X1312957Y-203415D02*
Y-212598D01*
Y-208007D01*
X1315252Y-205711D01*
X1317548Y-203415D01*
X1319844D01*
X1005906Y-277564D02*
Y-293307D01*
X1011153Y-288059D01*
X1016401Y-293307D01*
Y-277564D01*
X1021649Y-293307D02*
X1026896D01*
X1024272D01*
Y-282812D01*
X1021649D01*
X1034768Y-293307D02*
Y-282812D01*
X1037391D01*
X1040015Y-285436D01*
Y-293307D01*
Y-285436D01*
X1042639Y-282812D01*
X1045263Y-285436D01*
Y-293307D01*
X1050511Y-277564D02*
Y-288059D01*
X1055758Y-293307D01*
X1061006Y-288059D01*
Y-277564D01*
X1076749Y-280188D02*
X1074125Y-277564D01*
X1068877D01*
X1066253Y-280188D01*
Y-290683D01*
X1068877Y-293307D01*
X1074125D01*
X1076749Y-290683D01*
Y-285436D01*
X1071501D01*
X1360236Y-240818D02*
X1362860Y-238194D01*
X1368108D01*
X1370732Y-240818D01*
Y-251313D01*
X1368108Y-253937D01*
X1362860D01*
X1360236Y-251313D01*
Y-240818D01*
X1375979D02*
X1378603Y-238194D01*
X1383851D01*
X1386475Y-240818D01*
Y-251313D01*
X1383851Y-253937D01*
X1378603D01*
X1375979Y-251313D01*
Y-240818D01*
X1206034Y-253937D02*
X1196850D01*
X1206034Y-244754D01*
Y-242458D01*
X1203738Y-240162D01*
X1199146D01*
X1196850Y-242458D01*
X1210625Y-253937D02*
X1219809Y-244754D01*
X1224401Y-253937D02*
X1228992D01*
X1226696D01*
Y-240162D01*
X1224401Y-242458D01*
X1235880Y-253937D02*
X1240471D01*
X1238176D01*
Y-240162D01*
X1235880Y-242458D01*
X1247359Y-253937D02*
X1256542Y-244754D01*
X1270317Y-253937D02*
X1261134D01*
X1270317Y-244754D01*
Y-242458D01*
X1268022Y-240162D01*
X1263430D01*
X1261134Y-242458D01*
X1274909D02*
X1277205Y-240162D01*
X1281797D01*
X1284093Y-242458D01*
Y-251641D01*
X1281797Y-253937D01*
X1277205D01*
X1274909Y-251641D01*
Y-242458D01*
X1288684Y-253937D02*
X1293276D01*
X1290980D01*
Y-240162D01*
X1288684Y-242458D01*
X1300163Y-240162D02*
X1309347D01*
Y-242458D01*
X1300163Y-251641D01*
Y-253937D01*
X1190945Y-175197D02*
Y-159454D01*
X1198816D01*
X1201440Y-162078D01*
Y-167325D01*
X1198816Y-169949D01*
X1190945D01*
X1217183Y-162078D02*
X1214559Y-159454D01*
X1209312D01*
X1206688Y-162078D01*
Y-172573D01*
X1209312Y-175197D01*
X1214559D01*
X1217183Y-172573D01*
X1222431Y-175197D02*
Y-159454D01*
X1227678Y-164702D01*
X1232926Y-159454D01*
Y-175197D01*
X1248669Y-159454D02*
X1238174D01*
Y-167325D01*
X1243421Y-164702D01*
X1246045D01*
X1248669Y-167325D01*
Y-172573D01*
X1246045Y-175197D01*
X1240798D01*
X1238174Y-172573D01*
X1253917Y-175197D02*
X1259164D01*
X1256540D01*
Y-159454D01*
X1253917Y-162078D01*
X1267036D02*
X1269660Y-159454D01*
X1274907D01*
X1277531Y-162078D01*
Y-172573D01*
X1274907Y-175197D01*
X1269660D01*
X1267036Y-172573D01*
Y-162078D01*
X1293274Y-175197D02*
X1282779D01*
X1293274Y-164702D01*
Y-162078D01*
X1290650Y-159454D01*
X1285402D01*
X1282779Y-162078D01*
X1298522Y-175197D02*
Y-164702D01*
X1303769Y-159454D01*
X1309017Y-164702D01*
Y-175197D01*
Y-167325D01*
X1298522D01*
X1330007Y-159454D02*
Y-175197D01*
X1337879D01*
X1340503Y-172573D01*
Y-162078D01*
X1337879Y-159454D01*
X1330007D01*
X1345751Y-175197D02*
Y-164702D01*
X1350998Y-159454D01*
X1356246Y-164702D01*
Y-175197D01*
Y-167325D01*
X1345751D01*
X1371989Y-162078D02*
X1369365Y-159454D01*
X1364117D01*
X1361493Y-162078D01*
Y-172573D01*
X1364117Y-175197D01*
X1369365D01*
X1371989Y-172573D01*
X1403475Y-159454D02*
X1392979D01*
Y-167325D01*
X1398227D01*
X1392979D01*
Y-175197D01*
X1416594D02*
X1411346D01*
X1408722Y-172573D01*
Y-167325D01*
X1411346Y-164702D01*
X1416594D01*
X1419217Y-167325D01*
Y-169949D01*
X1408722D01*
X1424465Y-164702D02*
X1434960D01*
X1424465Y-175197D01*
X1434960D01*
D22*
X255906Y108268D02*
G03*
X244094Y120079I-11811J0D01*
G01*
X11811D02*
G03*
X0Y108268I0J-11811D01*
G01*
Y11811D02*
G03*
X11811Y0I11811J0D01*
G01*
X244094D02*
G03*
X255906Y11811I0J11811D01*
G01*
Y108268D01*
X0Y11811D02*
Y108268D01*
X11811Y120079D02*
X244094D01*
X11811Y0D02*
X244094D01*
D23*
X1342520Y-232283D02*
Y-224412D01*
X1346455D01*
X1347767Y-225724D01*
Y-228348D01*
X1346455Y-229660D01*
X1342520D01*
X1345144D02*
X1347767Y-232283D01*
X1354327D02*
X1351703D01*
X1350391Y-230972D01*
Y-228348D01*
X1351703Y-227036D01*
X1354327D01*
X1355639Y-228348D01*
Y-229660D01*
X1350391D01*
X1358263Y-227036D02*
X1360886Y-232283D01*
X1363510Y-227036D01*
X988189Y-263782D02*
Y-271654D01*
X992125D01*
X993437Y-270342D01*
Y-265094D01*
X992125Y-263782D01*
X988189D01*
X999996Y-271654D02*
X997372D01*
X996060Y-270342D01*
Y-267718D01*
X997372Y-266406D01*
X999996D01*
X1001308Y-267718D01*
Y-269030D01*
X996060D01*
X1003932Y-271654D02*
X1007868D01*
X1009180Y-270342D01*
X1007868Y-269030D01*
X1005244D01*
X1003932Y-267718D01*
X1005244Y-266406D01*
X1009180D01*
X1014427Y-274277D02*
X1015739D01*
X1017051Y-272966D01*
Y-266406D01*
X1013115D01*
X1011803Y-267718D01*
Y-270342D01*
X1013115Y-271654D01*
X1017051D01*
X1019675D02*
X1022299D01*
X1020987D01*
Y-266406D01*
X1019675D01*
X1026235Y-271654D02*
Y-266406D01*
X1030170D01*
X1031482Y-267718D01*
Y-271654D01*
X1038042D02*
X1035418D01*
X1034106Y-270342D01*
Y-267718D01*
X1035418Y-266406D01*
X1038042D01*
X1039354Y-267718D01*
Y-269030D01*
X1034106D01*
X1041977Y-266406D02*
Y-271654D01*
Y-269030D01*
X1043289Y-267718D01*
X1044601Y-266406D01*
X1045913D01*
X1185039Y-145672D02*
Y-153543D01*
X1188975D01*
X1190287Y-152231D01*
Y-146984D01*
X1188975Y-145672D01*
X1185039D01*
X1194223Y-153543D02*
X1196847D01*
X1198158Y-152231D01*
Y-149608D01*
X1196847Y-148296D01*
X1194223D01*
X1192911Y-149608D01*
Y-152231D01*
X1194223Y-153543D01*
X1206030Y-148296D02*
X1202094D01*
X1200782Y-149608D01*
Y-152231D01*
X1202094Y-153543D01*
X1206030D01*
X1208654Y-148296D02*
Y-152231D01*
X1209966Y-153543D01*
X1213902D01*
Y-148296D01*
X1216525Y-153543D02*
Y-148296D01*
X1217837D01*
X1219149Y-149608D01*
Y-153543D01*
Y-149608D01*
X1220461Y-148296D01*
X1221773Y-149608D01*
Y-153543D01*
X1228333D02*
X1225709D01*
X1224397Y-152231D01*
Y-149608D01*
X1225709Y-148296D01*
X1228333D01*
X1229644Y-149608D01*
Y-150919D01*
X1224397D01*
X1232268Y-153543D02*
Y-148296D01*
X1236204D01*
X1237516Y-149608D01*
Y-153543D01*
X1241452Y-146984D02*
Y-148296D01*
X1240140D01*
X1242764D01*
X1241452D01*
Y-152231D01*
X1242764Y-153543D01*
X1185039Y-185042D02*
Y-192913D01*
X1190287D01*
X1194223Y-187666D02*
X1196847D01*
X1198158Y-188978D01*
Y-192913D01*
X1194223D01*
X1192911Y-191602D01*
X1194223Y-190290D01*
X1198158D01*
X1200782Y-187666D02*
Y-191602D01*
X1202094Y-192913D01*
X1206030D01*
Y-194225D01*
X1204718Y-195537D01*
X1203406D01*
X1206030Y-192913D02*
Y-187666D01*
X1212590Y-192913D02*
X1209966D01*
X1208654Y-191602D01*
Y-188978D01*
X1209966Y-187666D01*
X1212590D01*
X1213902Y-188978D01*
Y-190290D01*
X1208654D01*
X1216525Y-187666D02*
Y-192913D01*
Y-190290D01*
X1217837Y-188978D01*
X1219149Y-187666D01*
X1220461D01*
X1232268Y-192913D02*
Y-185042D01*
X1237516Y-192913D01*
Y-185042D01*
X1241452Y-187666D02*
X1244075D01*
X1245387Y-188978D01*
Y-192913D01*
X1241452D01*
X1240140Y-191602D01*
X1241452Y-190290D01*
X1245387D01*
X1248011Y-192913D02*
Y-187666D01*
X1249323D01*
X1250635Y-188978D01*
Y-192913D01*
Y-188978D01*
X1251947Y-187666D01*
X1253259Y-188978D01*
Y-192913D01*
X1259818D02*
X1257195D01*
X1255883Y-191602D01*
Y-188978D01*
X1257195Y-187666D01*
X1259818D01*
X1261130Y-188978D01*
Y-190290D01*
X1255883D01*
X1185039Y-224412D02*
Y-232283D01*
X1188975D01*
X1190287Y-230972D01*
Y-225724D01*
X1188975Y-224412D01*
X1185039D01*
X1194223Y-227036D02*
X1196847D01*
X1198158Y-228348D01*
Y-232283D01*
X1194223D01*
X1192911Y-230972D01*
X1194223Y-229660D01*
X1198158D01*
X1202094Y-225724D02*
Y-227036D01*
X1200782D01*
X1203406D01*
X1202094D01*
Y-230972D01*
X1203406Y-232283D01*
X1211278D02*
X1208654D01*
X1207342Y-230972D01*
Y-228348D01*
X1208654Y-227036D01*
X1211278D01*
X1212589Y-228348D01*
Y-229660D01*
X1207342D01*
X1185039Y-263782D02*
Y-271654D01*
X1188975D01*
X1190287Y-270342D01*
Y-265094D01*
X1188975Y-263782D01*
X1185039D01*
X1194223Y-271654D02*
X1196847D01*
X1198158Y-270342D01*
Y-267718D01*
X1196847Y-266406D01*
X1194223D01*
X1192911Y-267718D01*
Y-270342D01*
X1194223Y-271654D01*
X1206030Y-266406D02*
X1202094D01*
X1200782Y-267718D01*
Y-270342D01*
X1202094Y-271654D01*
X1206030D01*
X1208654Y-266406D02*
Y-270342D01*
X1209966Y-271654D01*
X1213902D01*
Y-266406D01*
X1216525Y-271654D02*
Y-266406D01*
X1217837D01*
X1219149Y-267718D01*
Y-271654D01*
Y-267718D01*
X1220461Y-266406D01*
X1221773Y-267718D01*
Y-271654D01*
X1228333D02*
X1225709D01*
X1224397Y-270342D01*
Y-267718D01*
X1225709Y-266406D01*
X1228333D01*
X1229644Y-267718D01*
Y-269030D01*
X1224397D01*
X1232268Y-271654D02*
Y-266406D01*
X1236204D01*
X1237516Y-267718D01*
Y-271654D01*
X1241452Y-265094D02*
Y-266406D01*
X1240140D01*
X1242764D01*
X1241452D01*
Y-270342D01*
X1242764Y-271654D01*
D24*
X215709Y39370D02*
D03*
X32954Y71772D02*
D03*
Y109331D02*
D03*
D25*
X205709Y39370D02*
D03*
X195709D02*
D03*
X42954Y71772D02*
D03*
X52953D02*
D03*
X62954D02*
D03*
X7874Y44055D02*
D03*
Y54055D02*
D03*
Y64055D02*
D03*
Y74055D02*
D03*
Y84055D02*
D03*
X192954Y99331D02*
D03*
X192954Y109331D02*
D03*
X172954D02*
D03*
Y99331D02*
D03*
X182954Y109331D02*
D03*
X182954Y99331D02*
D03*
X152954Y109331D02*
D03*
Y99331D02*
D03*
X162954Y109331D02*
D03*
X162954Y99331D02*
D03*
X202954Y109331D02*
D03*
X202954Y99331D02*
D03*
X222954D02*
D03*
X222954Y109331D02*
D03*
X212954Y99331D02*
D03*
Y109331D02*
D03*
X142954D02*
D03*
Y99331D02*
D03*
X122954Y109331D02*
D03*
Y99331D02*
D03*
X132954Y109331D02*
D03*
X132954Y99331D02*
D03*
X112954D02*
D03*
X112954Y109331D02*
D03*
X32954Y99331D02*
D03*
X42954Y109331D02*
D03*
Y99331D02*
D03*
X52953Y109331D02*
D03*
X52953Y99331D02*
D03*
X72953D02*
D03*
X72954Y109331D02*
D03*
X62954Y99331D02*
D03*
Y109331D02*
D03*
X92954Y99331D02*
D03*
X92954Y109331D02*
D03*
X82954Y99331D02*
D03*
Y109331D02*
D03*
X102954D02*
D03*
X102954Y99331D02*
D03*
D26*
X205709Y31496D02*
D03*
Y7874D02*
D03*
D27*
X48898Y13701D02*
D03*
D28*
Y23701D02*
D03*
X58898Y13701D02*
D03*
Y23701D02*
D03*
X68898Y13701D02*
D03*
Y23701D02*
D03*
X78898D02*
D03*
Y13701D02*
D03*
X88898Y23701D02*
D03*
Y13701D02*
D03*
D29*
X7874Y34055D02*
D03*
D30*
X242126Y13780D02*
D03*
X13780Y104331D02*
D03*
X242126D02*
D03*
X13780Y13780D02*
D03*
D31*
X118701Y53740D02*
D03*
X91536Y53937D02*
D03*
X60040D02*
D03*
X67914D02*
D03*
X75788D02*
D03*
X83661Y53938D02*
D03*
X99409D02*
D03*
X132087Y18701D02*
D03*
X118110Y15748D02*
D03*
X126968Y21850D02*
D03*
X120275Y61024D02*
D03*
X124606Y79133D02*
D03*
X154133Y84054D02*
D03*
X148425Y18701D02*
D03*
X152559Y20867D02*
D03*
X177559Y77165D02*
D03*
X172244Y16733D02*
D03*
X183071Y42323D02*
D03*
X107282Y53938D02*
D03*
X16929Y49213D02*
D03*
X196850Y5118D02*
D03*
X214567D02*
D03*
M02*
